<svg width="40" height="40" viewBox="0 0 40 40" fill="none" xmlns="http://www.w3.org/2000/svg">
<path d="M21.8165 33.3335C22.0165 34.5335 22.4332 35.6502 23.0165 36.6668H9.99984C8.14984 36.6668 6.6665 35.1835 6.6665 33.3335V6.66683C6.6665 4.8335 8.14984 3.3335 9.99984 3.3335H29.9998C31.8498 3.3335 33.3332 4.8335 33.3332 6.66683V21.8168C32.7832 21.7335 32.2332 21.6668 31.6665 21.6668C31.0998 21.6668 30.5498 21.7335 29.9998 21.8168V6.66683H21.6665V20.0002L17.4998 16.2502L13.3332 20.0002V6.66683H9.99984V33.3335H21.8165ZM33.3332 30.0002V25.0002H29.9998V30.0002H24.9998V33.3335H29.9998V38.3335H33.3332V33.3335H38.3332V30.0002H33.3332Z" fill="#F2F9FF"/>
</svg>
