<svg width="40" height="40" viewBox="0 0 40 40" fill="none" xmlns="http://www.w3.org/2000/svg">
<path d="M25.8332 20.0002C29.9998 20.0002 33.3332 23.3335 33.3332 27.5002C33.3332 28.9668 32.9165 30.3502 32.1832 31.5002L37.3165 36.6668L34.9998 38.9835L29.7998 33.8668C28.6498 34.5835 27.2832 35.0002 25.8332 35.0002C21.6665 35.0002 18.3332 31.6668 18.3332 27.5002C18.3332 23.3335 21.6665 20.0002 25.8332 20.0002ZM25.8332 23.3335C24.7281 23.3335 23.6683 23.7725 22.8869 24.5539C22.1055 25.3353 21.6665 26.3951 21.6665 27.5002C21.6665 28.6052 22.1055 29.665 22.8869 30.4464C23.6683 31.2278 24.7281 31.6668 25.8332 31.6668C26.9382 31.6668 27.998 31.2278 28.7794 30.4464C29.5608 29.665 29.9998 28.6052 29.9998 27.5002C29.9998 26.3951 29.5608 25.3353 28.7794 24.5539C27.998 23.7725 26.9382 23.3335 25.8332 23.3335ZM21.6665 6.66683V20.0002L17.4998 16.2502L13.3332 20.0002V6.66683H9.99984V33.3335H16.6665C17.5665 34.6835 18.7165 35.8335 20.0498 36.6668H9.99984C9.11578 36.6668 8.26794 36.3156 7.64281 35.6905C7.01769 35.0654 6.6665 34.2176 6.6665 33.3335V6.66683C6.6665 5.78277 7.01769 4.93493 7.64281 4.30981C8.26794 3.68469 9.11578 3.3335 9.99984 3.3335H29.9998C30.8839 3.3335 31.7317 3.68469 32.3569 4.30981C32.982 4.93493 33.3332 5.78277 33.3332 6.66683V19.6835C32.3665 18.7668 31.2498 18.0168 29.9998 17.5002V6.66683H21.6665Z" fill="#F2F9FF"/>
</svg>
