<svg width="48" height="48" viewBox="0 0 48 48" fill="none" xmlns="http://www.w3.org/2000/svg">
<path d="M38.5 20C38.5 25.4578 35.7 30.5 33 30.5C30.3 30.5 27.5 25.4578 27.5 20C27.5 14.5421 30.3 9.5 33 9.5C35.7 9.5 38.5 14.5421 38.5 20Z" stroke="#F2F9FF" stroke-width="2"/>
<path d="M33 30.5C33 30.5 16 27 14 26.5C12 26 9.5 23.3786 9.5 20C9.5 16.6213 12 14 14 13.5C16 13 33 9.5 33 9.5" stroke="#F2F9FF" stroke-width="2"/>
<path d="M13.5 27V34.5C13.5 36.7092 15.2909 38.5 17.5 38.5H18.5C20.7092 38.5 22.5 36.7092 22.5 34.5V29" stroke="#F2F9FF" stroke-width="2"/>
</svg>
