<svg width="55" height="55" viewBox="0 0 55 55" fill="none" xmlns="http://www.w3.org/2000/svg">
<path d="M45.8333 38.9585C47.0489 38.9585 48.2147 38.4756 49.0742 37.6161C49.9338 36.7565 50.4167 35.5907 50.4167 34.3752V9.16683C50.4167 7.95125 49.9338 6.78546 49.0742 5.92592C48.2147 5.06638 47.0489 4.5835 45.8333 4.5835H21.6792C22.4813 5.98141 22.9167 7.56266 22.9167 9.16683H45.8333V34.3752H25.2083V38.9585H45.8333ZM34.375 16.0418V20.6252H20.625V50.4168H16.0417V36.6668H11.4583V50.4168H6.875V32.0835H3.4375V20.6252C3.4375 19.4096 3.92039 18.2438 4.77993 17.3843C5.63947 16.5247 6.80526 16.0418 8.02083 16.0418H34.375ZM18.3333 9.16683C18.3333 10.3824 17.8505 11.5482 16.9909 12.4077C16.1314 13.2673 14.9656 13.7502 13.75 13.7502C12.5344 13.7502 11.3686 13.2673 10.5091 12.4077C9.64955 11.5482 9.16667 10.3824 9.16667 9.16683C9.16667 7.95125 9.64955 6.78546 10.5091 5.92592C11.3686 5.06638 12.5344 4.5835 13.75 4.5835C14.9656 4.5835 16.1314 5.06638 16.9909 5.92592C17.8505 6.78546 18.3333 7.95125 18.3333 9.16683Z" fill="#F2F9FF"/>
</svg>
