<svg width="40" height="40" viewBox="0 0 40 40" fill="none" xmlns="http://www.w3.org/2000/svg">
<path d="M20.0002 13.3334H6.66683C5.78277 13.3334 4.93493 13.6846 4.30981 14.3097C3.68469 14.9348 3.3335 15.7827 3.3335 16.6667V23.3334C3.3335 24.2175 3.68469 25.0653 4.30981 25.6904C4.93493 26.3156 5.78277 26.6667 6.66683 26.6667H8.3335V33.3334C8.3335 33.7754 8.50909 34.1994 8.82165 34.5119C9.13421 34.8245 9.55814 35.0001 10.0002 35.0001H13.3335C13.7755 35.0001 14.1994 34.8245 14.512 34.5119C14.8246 34.1994 15.0002 33.7754 15.0002 33.3334V26.6667H20.0002L28.3335 33.3334V6.66675L20.0002 13.3334ZM25.0002 26.0001L21.6668 23.3334H6.66683V16.6667H21.6668L25.0002 14.0001V26.0001ZM35.8335 20.0001C35.8335 22.8501 34.2335 25.4334 31.6668 26.6667V13.3334C34.2168 14.5834 35.8335 17.1667 35.8335 20.0001Z" fill="#F2F9FF"/>
</svg>
