<svg width="48" height="48" viewBox="0 0 48 48" fill="none" xmlns="http://www.w3.org/2000/svg">
<path d="M34 23.75C34 23.1977 33.5523 22.75 33 22.75H21.2017C20.3108 22.75 19.8646 21.6729 20.4946 21.0429L25.0654 16.4721C25.4569 16.0806 25.4558 15.4455 25.0629 15.0554L24.7071 14.7021C24.3162 14.3139 23.6849 14.3151 23.2954 14.7046L14.7071 23.2929C14.3166 23.6834 14.3166 24.3166 14.7071 24.7071L23.2929 33.2929C23.6834 33.6834 24.3166 33.6834 24.7071 33.2929L25.056 32.944C25.4463 32.5537 25.4466 31.921 25.0567 31.5304L20.4909 26.9565C19.8618 26.3263 20.3082 25.25 21.1987 25.25H33C33.5523 25.25 34 24.8023 34 24.25V23.75Z" fill="#F2F9FF"/>
</svg>
