<svg width="48" height="48" viewBox="0 0 48 48" fill="none" xmlns="http://www.w3.org/2000/svg">
<path d="M11.5635 38.5H26.4368C27.5658 38.5 28.4542 37.5634 28.2292 36.457C27.6082 33.4024 25.5796 28 19.0002 28C12.4208 28 10.3923 33.4024 9.77114 36.457C9.54616 37.5634 10.4345 38.5 11.5635 38.5Z" stroke="#F2F9FF" stroke-width="3" stroke-linecap="round" stroke-linejoin="round"/>
<path d="M31.5 28C35.6576 28 37.3604 32.2958 38.0478 35.392C38.419 37.064 37.0666 38.5 35.3538 38.5H33.5" stroke="#F2F9FF" stroke-width="3" stroke-linecap="round" stroke-linejoin="round"/>
<path d="M19 20.5C22.0376 20.5 24.5 18.0376 24.5 15C24.5 11.9624 22.0376 9.5 19 9.5C15.9624 9.5 13.5 11.9624 13.5 15C13.5 18.0376 15.9624 20.5 19 20.5Z" stroke="#F2F9FF" stroke-width="3" stroke-linecap="round" stroke-linejoin="round"/>
<path d="M29.5 20.5C32.5376 20.5 34.5 18.0376 34.5 15C34.5 11.9624 32.5376 9.5 29.5 9.5" stroke="#F2F9FF" stroke-width="3" stroke-linecap="round" stroke-linejoin="round"/>
</svg>
