<svg width="24" height="24" viewBox="0 0 24 24" fill="none" xmlns="http://www.w3.org/2000/svg">
<path d="M13 4C13 3.44772 12.5523 3 12 3V3C11.4477 3 11 3.44772 11 4V12C11 12.5523 11.4477 13 12 13V13C12.5523 13 13 12.5523 13 12V4ZM18.4923 5.7926C18.136 5.4226 17.5502 5.44981 17.187 5.81302V5.81302C16.7722 6.22782 16.8149 6.90822 17.2086 7.34309C18.3223 8.57311 19 10.206 19 12C19 15.87 15.87 19 12 19C8.13 19 5 15.87 5 12C5 10.2021 5.68074 8.5659 6.79321 7.32942C7.18248 6.89676 7.22246 6.22246 6.81093 5.81093V5.81093C6.4489 5.4489 5.86497 5.42179 5.50972 5.79047C3.9552 7.40379 3 9.58541 3 12C3 16.97 7.03 21 12 21C16.97 21 21 16.97 21 12C21 9.58647 20.0456 7.4057 18.4923 5.7926Z" fill="#F2F9FF"/>
</svg>
