<svg width="40" height="40" viewBox="0 0 40 40" fill="none" xmlns="http://www.w3.org/2000/svg">
<path d="M28.3333 6.66683V16.6668L25 13.3335L21.6667 16.6668V6.66683H15V33.3335H20.1667C20.3333 34.5002 20.8333 35.6668 21.3333 36.6668H11.6667C9.83333 36.6668 8.33333 35.0002 8.33333 33.3335V31.6668H5V28.3335H8.33333V21.6668H5V18.3335H8.33333V11.6668H5V8.3335H8.33333V6.66683C8.33333 4.8335 9.83333 3.3335 11.6667 3.3335H31.6667C33.3333 3.3335 35 5.00016 35 6.66683V23.0002C34 22.3335 32.8333 22.0002 31.6667 21.8335V6.66683H28.3333ZM8.33333 31.6668H11.6667V28.3335H8.33333V31.6668ZM8.33333 21.6668H11.6667V18.3335H8.33333V21.6668ZM8.33333 11.6668H11.6667V8.3335H8.33333V11.6668ZM28.3333 25.0002V30.0002H23.3333V33.3335H28.3333V38.3335H31.6667V33.3335H36.6667V30.0002H31.6667V25.0002H28.3333Z" fill="#F2F9FF"/>
</svg>
