<svg width="40" height="40" viewBox="0 0 40 40" fill="none" xmlns="http://www.w3.org/2000/svg">
<path d="M26.6668 0H13.3335C11.5002 0 10.0002 1.5 10.0002 3.33333V30C10.0002 31.8333 11.5002 33.3333 13.3335 33.3333H33.3335C35.1668 33.3333 36.6668 31.8333 36.6668 30V10L26.6668 0ZM33.3335 30H13.3335V3.33333H25.0002V11.6667H33.3335V30ZM6.66683 6.66667V36.6667H33.3335V40H6.66683C4.8335 40 3.3335 38.5 3.3335 36.6667V6.66667H6.66683ZM16.6668 16.6667V20H30.0002V16.6667H16.6668ZM16.6668 23.3333V26.6667H25.0002V23.3333H16.6668Z" fill="#F2F9FF"/>
</svg>
