<svg width="180" height="180" viewBox="0 0 180 180" fill="none" xmlns="http://www.w3.org/2000/svg">
<path fill-rule="evenodd" clip-rule="evenodd" d="M115.899 38.3883C131.387 34.9213 145.736 39.0347 153.448 50.7839C161.16 62.533 159.143 81.1766 157.472 89.4059C155.801 97.6353 151.563 105.173 146.304 111.717C136.534 123.871 123.332 133.172 108.573 138.192C93.814 143.213 77.7897 144.243 62.4091 141.703C53.781 140.278 26.792 133.298 20.9661 112.233C15.1401 91.1691 11.453 73.1657 24.0692 65.8526C36.6853 58.5394 45.4241 64.0398 51.6698 66.7447C80.8486 79.3815 100.411 41.8553 115.899 38.3883Z" fill="#FFA555"/>
<path fill-rule="evenodd" clip-rule="evenodd" d="M137.708 58.1184C140.193 57.9265 142.871 58.0506 144.895 59.5033C146.92 60.956 147.84 64.1459 146.177 66.0022C148.057 65.2674 150.266 66.5137 151.207 68.2987C152.149 70.0837 152.1 72.2223 151.816 74.2204C151.115 79.1688 149.098 83.9245 146.027 87.8682C145.886 88.2839 145.745 88.6996 145.604 89.1153C149.233 90.0509 163.404 95.5543 159.575 109.122C155.746 122.689 139.024 127.853 137.313 129.476C134.329 132.307 129.776 132.5 125.666 132.37C115.56 132.049 105.484 130.765 95.6212 128.54C94.7827 128.351 93.7205 128.235 93.2371 128.946C89.7383 134.09 82.4218 134.55 76.2167 134.102C68.2462 133.527 60.3215 132.318 52.542 130.491C48.1293 129.455 43.4434 128.011 40.6944 124.407C37.4897 120.206 37.8598 114.38 38.3798 109.122C36.2734 110.293 32.7798 110.927 27.8991 111.024C25.0254 110.438 23.2329 109.397 22.5215 107.899C19.2684 101.053 18.1529 92.2296 22.2039 85.4808C22.6905 84.6701 23.2519 83.8712 24.0443 83.3553C24.8844 82.8084 25.9086 82.6286 26.9071 82.5401C30.8455 82.1913 34.8865 83.1106 38.2864 85.1289C38.256 74.0786 38.2257 63.0283 38.1953 51.9779C38.1936 51.3451 38.2024 50.6736 38.5398 50.1383C39.0277 49.3639 40.0273 49.1239 40.9271 48.9559C49.1116 47.428 57.389 46.3976 65.6984 45.8722C68.4134 45.7005 72.129 46.4561 72.1414 49.1765C72.1887 59.5947 72.2361 70.0129 72.2834 80.431C72.2947 82.9107 72.454 82.7033 73.6158 81.9848C72.8855 82.0605 73.0484 80.8218 73.6018 80.3394C75.6678 78.5382 78.6786 78.472 81.4193 78.5C87.5498 78.5628 93.6802 78.6255 99.8107 78.6883C105.751 78.7491 112.874 79.5023 115.563 84.799C115.485 83.2249 116.912 81.7393 118.488 81.7538C120.206 81.7696 121.644 80.2786 122.146 78.6346C122.647 76.9906 122.426 75.2242 122.2 73.5202C119.429 70.8367 118.703 66.275 120.505 62.8641C122.308 59.4532 126.485 57.4817 130.263 58.2588C132.704 58.7607 135.224 58.3102 137.708 58.1184ZM66.5731 109.222C66.4915 111.416 66.4052 113.639 65.7596 115.736L66.5731 109.222ZM64.0332 82.3029C64.6038 82.4699 65.3097 82.9759 65.0102 83.4894C67.4889 83.7371 66.7487 83.6223 66.8602 80.7014C66.9734 77.7375 66.9828 74.4603 65.0424 72.217C63.3255 70.232 60.5253 69.6111 57.9102 69.3879C54.8579 69.1273 51.7729 69.2525 48.7517 69.7596C47.2777 70.007 45.681 70.4333 44.8255 71.659C44.3468 72.345 44.1706 73.1922 44.03 74.0169C43.4767 77.2606 43.304 80.569 43.5163 83.8527C49.8711 80.8961 57.3064 80.3345 64.0332 82.3029ZM119.183 104.079C119.339 103.922 119.574 103.884 119.793 103.854C120.666 103.734 121.539 103.614 122.413 103.494C120.408 102.589 119.194 100.438 118.831 98.2694C118.468 96.1005 118.822 93.8829 119.18 91.7131C117.898 93.1397 117.991 95.2923 118.159 97.203C118.526 101.385 119.028 104.236 119.183 104.079ZM102.695 124.678C102.866 124.119 103.451 123.819 103.879 123.422C104.65 122.705 104.936 121.623 105.187 120.601C106.056 117.071 106.93 113.498 106.919 109.862C106.917 109.092 106.878 108.301 107.133 107.574C107.388 106.847 108.027 106.19 108.797 106.186C109.609 106.182 109.803 105.056 109.731 104.247C109.48 101.458 109.23 98.6687 108.979 95.8795C108.899 94.9887 108.818 94.0896 108.548 93.237C107.548 90.0849 103.696 88.179 100.584 89.2965C100.203 89.4333 100.101 89.9146 100.058 90.3171C99.5791 94.7784 99.1001 99.2397 98.6211 103.701C98.536 104.494 99.5595 104.999 100.332 104.803C101.105 104.607 101.695 104.003 102.363 103.568C103.031 103.133 103.973 102.883 104.586 103.392C105.279 103.967 106.306 103.328 106.908 102.658C107.51 101.988 108.295 101.18 109.151 101.46C108.146 102.421 107.142 103.382 106.137 104.343C105.804 104.662 105.51 105.298 105.931 105.487C107.085 105.077 108.129 104.36 108.925 103.428C109.293 103.416 109.31 103.994 109.105 104.3C108.331 105.451 106.51 105.707 106.042 107.013C104.948 110.059 101.535 112.083 98.3369 111.582C97.6809 111.479 97.3538 112.342 97.2748 113.002C96.96 115.631 96.6452 118.259 96.3304 120.888C96.2579 121.493 96.1904 122.133 96.4393 122.689C96.8548 123.616 97.9661 123.967 98.9514 124.217C100.254 124.547 101.571 124.878 102.902 125.022C103.462 125.083 103.46 124.878 102.695 124.678ZM50.8127 119.858C52.6735 120.481 54.643 120.692 56.5944 120.9C57.4219 120.988 58.3031 121.066 59.0455 120.69C59.9193 120.248 60.3849 119.288 60.7608 118.384C62.8567 113.339 64.0534 107.922 64.2776 102.464C64.3095 101.689 63.3166 101.346 62.5421 101.294C56.3591 100.879 50.4461 103.597 44.8465 106.251C44.5781 106.379 44.2909 106.524 44.1583 106.789C44.0594 106.988 44.0646 107.22 44.0719 107.441C44.1723 110.456 44.2988 113.58 45.6473 116.278C46.0115 117.007 46.4748 117.709 47.1307 118.192C47.528 118.485 47.9828 118.688 48.4337 118.889C49.2162 119.238 50.0005 119.586 50.8127 119.858ZM90.8104 108.698C91.6346 104.266 92.2154 99.7887 92.5494 95.2929C92.6637 93.7549 92.7474 92.1913 92.415 90.6854C92.0825 89.1794 91.2803 87.7154 89.969 86.9038C89.1609 86.4036 88.215 86.1792 87.2795 86.0123C85.5723 85.7077 83.8354 85.5696 82.1015 85.6003C80.5714 85.6275 78.9654 85.814 77.7164 86.6981C77.3033 86.9905 76.9282 87.3732 76.7773 87.8562C76.6264 88.3393 76.7534 88.9327 77.1724 89.2165C78.2315 89.9337 78.6632 91.2755 78.8616 92.5391C79.0601 93.8027 79.1078 95.1258 79.6836 96.2679C79.9805 96.8569 80.4063 97.3708 80.8528 97.8562C83.2738 100.488 86.4316 102.436 89.8707 103.417C90.4753 103.59 91.2445 103.963 91.1167 104.579C93.0186 105.778 90.7788 108.868 90.8104 108.698ZM85.5689 121.771C86.2691 121.345 86.7439 120.637 87.1619 119.932C88.9355 116.942 90.0984 113.591 90.5588 110.145C84.1795 110.116 77.8383 107.71 73.0465 103.498C72.8825 104.156 72.9139 104.845 72.9363 105.523C73.0761 109.756 72.825 114.001 72.1871 118.187C72.035 119.185 72.6313 120.183 73.4509 120.772C74.2704 121.362 75.2801 121.615 76.2714 121.806C78.506 122.236 80.7895 122.413 83.0637 122.331C83.9286 122.3 84.8292 122.22 85.5689 121.771ZM125.824 85.263C125.452 84.3669 125.173 83.3566 124.402 82.7682C123.63 82.1799 122.177 82.4678 122.132 83.4369C122.896 83.2963 123.479 84.2388 123.349 85.0041C123.219 85.7695 122.663 86.378 122.221 87.0162C121.61 87.8979 121.192 88.8961 120.779 89.886C119.796 92.2411 119.413 94.8441 119.677 97.3826C119.832 98.8772 120.241 100.412 121.252 101.524C122.263 102.636 123.995 103.192 125.326 102.496C126.47 101.899 127.041 100.581 127.303 99.3171C127.565 98.0535 127.612 96.7308 128.107 95.5392C129.022 93.3409 131.276 92.0129 133.506 91.1791C130.154 90.7237 127.121 88.3879 125.824 85.263ZM116.554 87.641C116.703 88.2173 116.909 88.7787 117.169 89.3143C117.325 88.5596 117.575 87.8244 117.912 87.1314C117.571 87.0924 117.228 87.0739 116.885 87.0759C116.801 87.0764 116.713 87.0795 116.643 87.1241C116.485 87.2246 116.507 87.4593 116.554 87.641ZM76.1456 87.0479C75.9345 87.2178 75.8107 87.5834 76.0335 87.7374C76.3748 87.3958 76.7161 87.0541 77.0573 86.7124C76.9868 86.625 76.8842 86.564 76.7737 86.5437C76.6383 86.7784 76.3567 86.878 76.1456 87.0479Z" fill="white"/>
<path d="M135.24 84.6C135.969 84.6 136.56 84.009 136.56 83.28C136.56 82.5509 135.969 81.96 135.24 81.96C134.511 81.96 133.92 82.5509 133.92 83.28C133.92 84.009 134.511 84.6 135.24 84.6Z" fill="#FFB61D"/>
<path d="M127.68 83.2798C128.078 83.2798 128.4 82.9575 128.4 82.5598C128.4 82.1622 128.078 81.8398 127.68 81.8398C127.282 81.8398 126.96 82.1622 126.96 82.5598C126.96 82.9575 127.282 83.2798 127.68 83.2798Z" fill="#FFB61D"/>
<path fill-rule="evenodd" clip-rule="evenodd" d="M59.5023 64.3384C61.6622 64.3521 63.8222 64.3658 65.9821 64.3795C66.0833 64.3802 66.1919 64.3832 66.2735 64.443C66.4401 64.5653 66.3736 64.8518 66.202 64.9671C66.0305 65.0824 65.8081 65.0775 65.6015 65.0703C63.7007 65.0043 61.7942 65.1031 59.9103 65.365C59.6238 65.4049 59.3216 65.4467 59.0536 65.3378C58.7857 65.2289 58.5807 64.9081 58.704 64.6464C58.8329 64.3731 59.2001 64.3365 59.5023 64.3384ZM52.2792 64.1263C52.4161 64.2627 52.3505 64.5132 52.1985 64.6325C52.0464 64.7518 51.8427 64.7756 51.6505 64.7951C49.7356 64.989 47.8207 65.1829 45.9058 65.3768C45.6793 65.3997 45.4452 65.4219 45.2285 65.3522C45.0118 65.2824 44.8158 65.0951 44.8107 64.8675C44.8054 64.6328 45.0048 64.4334 45.2273 64.3585C45.4498 64.2836 45.6916 64.3045 45.9257 64.323C47.8878 64.4773 49.8689 64.3883 51.8092 64.0586C51.9718 64.031 52.1625 64.0099 52.2792 64.1263ZM52.011 60.4506C52.1541 60.566 52.1032 60.8135 51.9596 60.9284C51.816 61.0432 51.6206 61.0623 51.4373 61.0767L45.2877 61.5619C45.0575 61.5801 44.819 61.5972 44.6019 61.5187C44.3847 61.4401 44.1942 61.2378 44.2067 61.0072C44.2193 60.7736 44.4351 60.5924 44.6624 60.5372C44.8898 60.4821 45.1278 60.5232 45.3593 60.5575C47.4464 60.8659 49.5688 60.5847 51.67 60.3936C51.7878 60.3829 51.9189 60.3762 52.011 60.4506ZM60.5995 59.2322C61.8827 59.3961 63.1836 59.421 64.4721 59.3064C64.9843 59.2608 65.6036 59.2394 65.8946 59.6634C65.5491 59.9427 65.0744 59.9823 64.631 60.0103C63.1617 60.1029 61.6923 60.1955 60.223 60.2881C59.8878 60.3092 59.47 60.2838 59.332 59.9777C59.2081 59.7029 59.4261 59.3725 59.7062 59.2613C59.9863 59.15 60.3006 59.194 60.5995 59.2322ZM49.5142 57.6612C49.5157 57.8831 49.2376 57.9789 49.018 58.0111L45.7887 58.4844C45.5582 58.5182 45.32 58.5516 45.0949 58.4915C44.8698 58.4314 44.6594 58.2523 44.6383 58.0203C44.6126 57.7363 44.8792 57.4966 45.1576 57.4347C45.436 57.3728 45.7245 57.4375 46.0074 57.474C46.9828 57.5996 47.9668 57.3853 48.9497 57.3515C49.1903 57.3432 49.5125 57.4205 49.5142 57.6612ZM65.0964 56.8882C65.3462 56.9161 65.6026 57.0652 65.6694 57.3076C65.2257 57.6432 64.6392 57.7043 64.085 57.7534C63.1364 57.8374 62.1878 57.9215 61.2392 58.0056C60.905 58.0352 60.5708 58.0648 60.2367 58.0945C59.9923 58.1161 59.7382 58.1365 59.5087 58.0498C59.2792 57.9631 59.0832 57.7354 59.1173 57.4925C59.1712 57.1097 59.6736 57.0103 60.0601 57.0186C61.494 57.0495 62.946 57.2659 64.3509 56.9772C64.5972 56.9266 64.8465 56.8602 65.0964 56.8882ZM66.3559 53.2672C59.3271 54.2149 52.1206 53.7242 45.1884 55.2235C44.7773 55.3124 44.2035 55.3168 44.0972 54.9099C44.1067 54.4303 44.7269 54.2572 45.2054 54.2231C51.949 53.7422 58.6926 53.2612 65.4362 52.7803C65.8318 52.7521 66.3871 52.8718 66.3559 53.2672Z" fill="#E7EAEE"/>
<path fill-rule="evenodd" clip-rule="evenodd" d="M41.6309 126.127C41.7044 126.977 40.5322 127.265 39.6787 127.268C35.2427 127.286 30.8112 128.109 26.6646 129.685C26.0317 129.925 25.3544 130.228 25.0464 130.831C24.6386 131.629 25.0837 132.651 25.8052 133.183C26.5268 133.715 27.4477 133.877 28.3325 134.021C51.3311 137.766 74.6717 139.408 97.968 138.919L98.3425 138.911C101.029 138.849 103.771 138.704 106.233 137.64C104.195 136.212 102.157 134.784 100.12 133.356C103.647 132.651 107.287 133.153 110.866 133.506C119.059 134.315 127.33 134.332 135.527 133.556C134.95 134.478 133.681 134.606 132.594 134.629C122.284 134.851 111.961 134.485 101.693 133.533C103.033 134.414 104.373 135.296 105.712 136.178C106.198 136.497 106.735 136.903 106.763 137.483C106.805 138.355 105.733 138.791 104.871 138.933C102.012 139.405 99.1033 139.481 96.2055 139.523C73.5738 139.854 50.914 138.235 28.5594 134.689C27.4686 134.516 26.3384 134.323 25.4289 133.696C24.5193 133.069 23.8993 131.878 24.2815 130.842C24.6616 129.811 25.8182 129.327 26.8625 128.986C31.6413 127.425 36.615 126.462 41.6309 126.127ZM72.1412 49.1765C72.1886 59.5947 72.2359 70.0129 72.2833 80.431C72.2945 82.9107 72.783 86.0485 75.181 86.6799C78.4945 85.1502 82.2294 84.5459 85.8562 84.9527C87.9324 85.1855 90.0885 85.8132 91.494 87.3589C93.4221 89.4793 93.425 92.6725 93.218 95.5309C92.7984 101.325 91.9719 107.089 90.7467 112.768C91.7202 112.706 92.713 113.097 93.3837 113.805C92.3508 114.278 91.1202 114.297 90.0727 113.858C90.7922 117.758 87.6148 121.606 83.8096 122.723C80.0044 123.841 75.8751 122.787 72.2969 121.077C71.9613 122.384 73.7095 123.152 75.0443 123.349C78.4326 123.85 81.8208 124.351 85.209 124.851C81.0247 124.977 76.8265 124.635 72.7179 123.832C71.9613 124.904 73.6746 125.986 74.9693 126.195C78.4037 126.751 81.838 127.307 85.2723 127.862C81.3933 127.837 77.5159 127.578 73.6678 127.088C76.1151 129.296 79.4557 130.483 82.7472 130.314C80.8905 130.925 78.8277 130.888 76.9939 130.212C79.288 133.284 83.9815 133.853 87.4092 132.135C90.8369 130.417 93.0749 126.901 94.1697 123.226C95.2645 119.552 95.3709 115.668 95.5649 111.839C95.923 104.77 96.6074 97.7109 97.8456 90.7424C98.6794 86.0497 100.728 80.4544 105.447 79.7914C97.0389 79.4039 88.6222 79.1949 80.2048 79.1646C77.647 79.1554 74.4698 79.5738 73.6156 81.9848C72.8853 82.0605 73.0483 80.8218 73.6017 80.3394C75.6677 78.5382 78.6785 78.472 81.4192 78.5L99.8105 78.6883C105.75 78.7491 112.874 79.5023 115.563 84.799C115.485 83.2248 116.912 81.7393 118.488 81.7538C120.206 81.7696 121.644 80.2786 122.145 78.6346C122.647 76.9906 122.426 75.2242 122.2 73.5202C119.429 70.8367 118.703 66.275 120.505 62.8641C121.015 61.8993 121.768 59.599 125.974 58.1183C128.778 57.1312 131.55 57.2398 134.29 58.4439C139.434 57.4491 142.969 57.8022 144.895 59.5033C147.784 62.0548 147.84 64.1459 146.177 66.0022C148.057 65.2674 150.266 66.5137 151.207 68.2987C152.149 70.0837 152.099 72.2223 151.816 74.2204C151.115 79.1688 149.097 83.9245 146.027 87.8681L145.604 89.1153C153.031 91.0302 159.039 97.5949 160.291 105.162C157.821 99.5965 154.478 93.702 148.719 91.726C147.42 93.0892 146.083 94.5117 145.473 96.2935C144.863 98.0752 145.192 100.327 146.74 101.4C145.768 101.625 144.796 101.85 143.824 102.076C144.147 102.65 144.471 103.224 144.795 103.797C141.122 106.59 140.699 111.871 140.722 116.484C140.744 121.098 140.66 126.301 137.313 129.476C134.329 132.307 129.776 132.5 125.665 132.37C115.559 132.049 105.484 130.765 95.6211 128.54C94.7825 128.351 93.7204 128.235 93.2369 128.946C89.7382 134.09 82.4217 134.55 76.2166 134.102C68.2461 133.527 60.3214 132.318 52.5419 130.491C48.1291 129.455 43.4433 128.011 40.6943 124.407C37.4895 120.206 37.8596 114.38 38.3796 109.122C35.2201 110.878 31.4744 111.558 27.8989 111.024C31.6678 108.56 33.4955 103.847 33.5298 99.3437C33.5642 94.841 32.0612 90.4765 30.389 86.2956C26.7048 88.4325 24.7663 92.9368 25.0546 97.1862C25.3428 101.436 27.5974 105.38 30.6224 108.378C26.8934 106.025 24.4259 101.785 24.2217 97.3802C24.0175 92.9754 26.0821 88.5256 29.5773 85.8372C29.0188 83.9272 26.1373 83.6938 24.627 84.9897C23.1168 86.2856 22.6429 88.389 22.2544 90.3407C21.5366 93.947 20.8158 97.6375 21.3373 101.277C21.8589 104.917 23.8695 108.561 27.2387 110.033C25.6642 111.168 23.567 109.535 22.5213 107.899C18.2808 101.268 18.1528 92.2295 22.2037 85.4808C22.6903 84.6701 23.2518 83.8712 24.0442 83.3553C24.8843 82.8084 25.9084 82.6286 26.907 82.5401C30.8454 82.1913 34.8863 83.1106 38.2862 85.1289C38.2559 74.0786 38.2255 63.0283 38.1952 51.9779C38.1934 51.3451 38.2022 50.6736 38.5396 50.1382C39.0276 49.3639 40.0272 49.1239 40.9269 48.9559C49.1115 47.428 57.3889 46.3976 65.6983 45.8722C68.4133 45.7005 72.1289 46.4561 72.1412 49.1765ZM66.5916 46.538C57.7818 46.9527 49.0038 48.0417 40.3597 49.7925C39.9919 49.867 39.6023 49.954 39.3349 50.2174C38.9706 50.5762 38.9425 51.1447 38.9377 51.656C38.8344 62.6591 38.8781 73.6636 39.0686 84.6656C40.1264 84.4018 41.1843 84.1381 42.2421 83.8743C41.8286 81.6167 41.4133 79.3286 41.5901 77.0403C41.7669 74.752 42.6067 72.4247 44.3339 70.9133C46.2033 69.2775 48.812 68.8153 51.29 68.6413C53.6728 68.4739 56.0702 68.5127 58.4464 68.757C60.872 69.0063 63.4273 69.5449 65.1773 71.243C67.7051 73.696 67.746 77.67 67.6152 81.1899C67.2678 90.534 66.9204 99.8781 66.573 109.222C66.4914 111.416 66.405 113.639 65.7595 115.736C65.114 117.834 63.8327 119.828 61.8942 120.858C59.992 121.868 57.7158 121.839 55.5758 121.596C53.5326 121.364 51.509 120.959 49.5339 120.386C48.3341 120.039 47.1337 119.62 46.114 118.899C42.74 116.511 42.3411 111.747 42.2592 107.614C40.9636 107.38 39.6971 108.366 39.1622 109.569C38.6273 110.772 38.651 112.139 38.6842 113.455C38.7671 116.738 38.895 120.184 40.5709 123.009C43.1566 127.366 48.5877 128.976 53.5465 130.016C62.348 131.863 71.2843 133.067 80.2607 133.617C76.2546 131.576 72.7029 128.084 71.8579 123.668C71.6284 122.469 71.6038 121.241 71.5798 120.02C71.1121 96.1451 70.6444 72.2702 70.1767 48.3953C70.1471 46.8855 68.1001 46.467 66.5916 46.538ZM100.743 85.736C100.52 86.2795 100.358 86.8824 100.507 87.4507C100.655 88.019 101.207 88.5153 101.787 88.4188C104.382 87.9866 107.179 89.2648 108.551 91.5096C109.683 93.3618 109.84 95.628 109.967 97.7949L111.128 117.534C111.252 119.643 111.313 121.964 110.002 123.621C108.301 125.771 105.107 125.843 102.379 125.576C100.128 125.356 97.7593 124.982 96.0114 123.546C96.0733 124.381 95.8297 125.236 95.3366 125.914C94.728 126.751 95.7105 127.851 96.6664 128.247C97.8338 128.73 99.1034 128.898 100.356 129.061C106.095 129.805 111.837 130.524 117.583 131.215C122.005 131.748 126.498 132.263 130.895 131.549C128.113 130.768 125.452 129.562 123.031 127.985C121.824 127.198 120.656 126.299 119.833 125.116C118.488 123.186 118.205 120.732 117.981 118.39C117.316 111.426 116.821 104.445 116.497 97.4568C116.257 92.3022 114.605 87.2203 111.766 82.9111C111.258 82.1406 110.637 81.341 109.74 81.1265C106.172 80.2736 102.135 82.3417 100.743 85.736ZM84.3821 130.342C84.6848 130.394 84.9954 130.461 85.2449 130.64C85.4944 130.819 85.6684 131.137 85.5916 131.434C85.5148 131.732 85.1225 131.927 84.8746 131.746C84.6011 131.546 84.2374 131.539 83.9114 131.447C83.5854 131.355 83.2437 131.084 83.3023 130.75C83.3765 130.327 83.9588 130.27 84.3821 130.342ZM71.8162 130.468C72.1917 130.546 72.6313 130.814 72.5544 131.189C72.4865 131.521 72.0766 131.631 71.7413 131.676C71.3656 131.726 70.9645 131.773 70.6233 131.607C70.2822 131.442 70.0608 130.976 70.2847 130.67C70.4356 130.464 70.7181 130.409 70.9736 130.398C71.2559 130.387 71.5396 130.41 71.8162 130.468ZM94.2821 126.292C93.9258 126.549 93.681 126.927 93.4295 127.288C92.283 128.93 90.8299 130.358 89.1675 131.476C89.2091 131.652 89.4733 131.607 89.63 131.517C91.5548 130.401 92.9286 128.559 94.247 126.767C94.3548 126.62 94.4438 126.375 94.2821 126.292ZM111.494 81.9169C112.521 83.1295 113.556 84.3537 114.307 85.754C115.122 87.2721 115.58 88.9543 115.948 90.6373C118.009 100.052 117.459 109.84 118.794 119.384C119.035 121.107 119.354 122.865 120.25 124.356C121.3 126.102 123.042 127.312 124.817 128.312C126.253 129.121 127.751 129.831 129.328 130.31C131.835 131.072 134.846 131.126 136.768 129.345C137.847 128.344 138.415 126.917 138.858 125.514C140.759 119.501 140.968 112.963 139.455 106.84C139.493 110.502 139.969 114.155 139.86 117.815C139.751 121.476 138.999 125.245 136.848 128.208C136.422 128.795 135.928 129.358 135.284 129.692C134.435 130.132 133.427 130.123 132.479 130.007C130.823 129.805 129.203 129.304 127.721 128.537C126.596 127.954 125.554 127.221 124.545 126.454C123.373 125.562 122.221 124.602 121.399 123.379C120.585 122.167 120.131 120.751 119.771 119.335C117.142 109.002 119.022 97.8546 115.902 87.6583C115.166 85.2553 113.89 82.677 111.494 81.9169ZM48.7709 127.378C54.8404 128.315 60.9099 129.252 66.9794 130.188C66.8257 130.59 66.2708 130.604 65.8446 130.547C60.6538 129.854 55.4631 129.16 50.2723 128.467C49.6855 128.388 49.0987 128.31 48.5119 128.232C48.2334 128.194 47.8875 128.094 47.8523 127.815C47.8027 127.422 48.3795 127.318 48.7709 127.378ZM119.18 91.713C117.898 93.1397 117.99 95.2923 118.158 97.203C118.526 101.385 118.893 105.567 119.261 109.749C119.278 109.945 119.299 110.151 119.414 110.31C119.601 110.571 119.965 110.616 120.285 110.639C124.649 110.946 129.012 111.254 133.376 111.561C133.05 112.077 132.314 112.085 131.706 112.038C127.598 111.721 123.473 111.618 119.354 111.73C119.283 113.842 119.594 115.967 120.268 117.97C120.561 118.838 121.685 119.023 122.601 119.06C126.091 119.201 129.581 119.343 133.072 119.484C133.232 119.846 132.668 120.071 132.273 120.067C128.685 120.026 125.097 119.984 121.51 119.943C121.018 119.938 120.84 120.634 121.026 121.089C121.51 122.279 123.05 122.535 124.332 122.615L132.354 123.117C132.537 123.129 132.575 123.417 132.441 123.542C132.307 123.668 132.104 123.671 131.92 123.667L122.529 123.468C124.957 126.358 128.363 128.412 132.052 129.211C132.847 129.383 133.69 129.496 134.462 129.241C135.387 128.936 136.068 128.151 136.602 127.337C139.431 123.02 139.243 117.465 138.954 112.311L138.626 106.47C138.741 106.312 138.976 106.258 139.148 106.349C139.214 106.063 138.842 105.893 138.553 105.84C132.169 104.667 125.619 103.493 119.23 104.638C119.026 104.554 119.028 104.236 119.183 104.079C119.338 103.922 119.574 103.884 119.793 103.854C120.666 103.734 121.539 103.614 122.412 103.494C120.408 102.589 119.194 100.438 118.831 98.2694C118.468 96.1005 118.822 93.8829 119.18 91.713ZM87.8056 127.225C88.3741 127.33 89.0307 127.504 89.2526 128.038C88.6196 128.47 87.7883 128.425 87.0246 128.364C86.8145 128.348 86.5849 128.322 86.4373 128.172C86.1762 127.905 86.371 127.415 86.707 127.253C87.0431 127.091 87.439 127.156 87.8056 127.225ZM44.502 123.322C51.0412 125.377 57.8175 126.676 64.6529 127.185C65.1832 127.225 65.8959 127.478 65.7941 127.999C58.5649 127.182 51.3799 125.974 44.2809 124.382C43.8279 124.28 43.2467 123.957 43.4154 123.525C43.5636 123.145 44.1127 123.2 44.502 123.322ZM68.4533 126.494C68.7872 126.493 69.1096 126.607 69.4217 126.726C69.5804 126.787 69.7551 126.864 69.8166 127.023C69.9478 127.36 69.4826 127.601 69.1264 127.666C68.8866 127.709 68.6469 127.753 68.4072 127.796C68.2049 127.833 67.9873 127.868 67.8011 127.781C67.4988 127.639 67.4203 127.203 67.5937 126.917C67.7671 126.632 68.1194 126.495 68.4533 126.494ZM99.2461 125.773C102.139 126.323 105.101 126.354 108.046 126.384C108.274 126.386 108.335 126.744 108.172 126.904C108.009 127.063 107.755 127.07 107.528 127.066C104.779 127.012 102.027 126.722 99.2867 126.938C98.9884 126.962 98.6786 126.99 98.3984 126.885C98.1182 126.78 97.8793 126.497 97.9325 126.202C97.9784 125.948 98.2258 125.771 98.479 125.722C98.7323 125.672 98.9927 125.725 99.2461 125.773ZM105.781 80.4279C102.506 80.9169 99.7543 83.8318 99.4548 87.1296C99.1752 90.2097 98.325 93.2049 97.7198 96.2378C95.7764 105.977 96.3659 116.071 94.6478 125.853C95.2754 124.71 95.4446 123.38 95.6026 122.086L99.769 87.9655C99.8799 87.0577 99.9933 86.1393 100.319 85.2848C101.211 82.9495 103.514 81.4825 105.781 80.4279ZM90.8897 124.62C91.0682 124.676 91.251 124.751 91.3699 124.895C91.4889 125.04 91.5187 125.273 91.3887 125.408C91.2906 125.51 91.137 125.528 90.9964 125.54C90.536 125.581 90.0757 125.622 89.6154 125.662C89.3669 125.684 89.1102 125.705 88.8733 125.627C88.6365 125.549 88.423 125.343 88.4161 125.094C88.4045 124.672 88.9257 124.459 89.3473 124.432C89.8671 124.398 90.3932 124.462 90.8897 124.62ZM100.584 89.2965C100.203 89.4333 100.101 89.9146 100.058 90.3171L98.6209 103.701C98.5358 104.494 99.5594 104.999 100.332 104.803C101.105 104.607 101.695 104.003 102.363 103.568C103.031 103.133 103.973 102.883 104.586 103.392C105.279 103.967 106.306 103.328 106.908 102.658C107.51 101.988 108.295 101.18 109.151 101.46C108.146 102.421 107.142 103.382 106.137 104.343C105.804 104.662 105.51 105.298 105.931 105.487C107.085 105.077 108.129 104.36 108.925 103.428C109.293 103.416 109.31 103.994 109.105 104.3C108.331 105.451 106.51 105.707 106.042 107.013C104.947 110.059 101.535 112.083 98.3368 111.582C97.6807 111.479 97.3537 112.342 97.2747 113.002C96.9599 115.631 96.645 118.259 96.3302 120.888C96.2578 121.493 96.1902 122.133 96.4392 122.689C96.8547 123.616 97.966 123.967 98.9512 124.217C100.802 124.686 102.683 125.158 104.591 125.091C106.498 125.023 108.471 124.341 109.679 122.863C109.345 122.428 108.6 122.985 108.112 122.734C107.636 122.488 107.889 121.669 108.401 121.508C108.912 121.347 109.453 121.603 109.928 121.852C110.226 121.269 110.533 120.646 110.472 119.994C110.411 119.343 109.812 118.698 109.174 118.845C108.755 118.941 108.584 118.214 108.922 117.948C109.26 117.682 109.746 117.769 110.164 117.868C110.188 116.295 110.211 114.722 110.234 113.15C110.239 112.829 110.24 112.492 110.088 112.209C109.936 111.926 109.575 111.728 109.286 111.868C108.892 112.058 108.55 111.387 108.813 111.038C109.077 110.688 109.575 110.643 110.012 110.628C110.046 109.231 109.956 107.831 109.743 106.451C108.097 107.275 107.809 109.452 107.643 111.286C107.324 114.803 106.684 118.291 105.732 121.691C105.518 122.453 105.278 123.232 104.78 123.846C104.281 124.46 103.46 124.878 102.695 124.678C102.866 124.119 103.451 123.819 103.879 123.422C104.65 122.705 104.936 121.623 105.187 120.601C106.056 117.071 106.93 113.498 106.919 109.862L106.917 109.618C106.912 108.926 106.904 108.224 107.133 107.574C107.388 106.847 108.027 106.19 108.797 106.186C109.609 106.182 109.803 105.056 109.73 104.247C109.48 101.458 109.23 98.6686 108.979 95.8795C108.899 94.9887 108.818 94.0896 108.547 93.237C107.548 90.0849 103.696 88.179 100.584 89.2965ZM112.839 123.313C113.221 123.415 113.591 123.808 113.433 124.17C113.281 124.516 112.805 124.535 112.43 124.499C112.246 124.482 112.05 124.46 111.906 124.343C111.655 124.14 111.69 123.708 111.926 123.487C112.162 123.265 112.526 123.229 112.839 123.313ZM66.9676 122.926C67.2187 122.981 67.4804 123.054 67.6609 123.237C67.8414 123.419 67.9011 123.745 67.7217 123.929C67.5751 124.08 67.3385 124.082 67.1287 124.075C66.8271 124.064 66.5254 124.054 66.2238 124.043C66.0491 124.037 65.8623 124.027 65.7221 123.923C65.4223 123.7 65.5538 123.177 65.8757 122.988C66.1976 122.798 66.6026 122.847 66.9676 122.926ZM43.7237 120.189C45.4125 120.975 47.2679 121.317 49.1027 121.637C52.817 122.284 56.5424 122.867 60.2769 123.385C60.7994 123.458 61.3782 123.56 61.6966 123.981C60.2505 124.08 58.8051 123.839 57.3756 123.599C52.6633 122.807 47.9509 122.016 43.2386 121.225C42.7447 121.142 42.1069 120.868 42.2031 120.376C42.3171 119.793 43.1854 119.939 43.7237 120.189ZM73.0464 103.498C72.8824 104.156 72.9137 104.845 72.9361 105.523C73.076 109.756 72.8249 114.001 72.1869 118.187C72.0349 119.185 72.6311 120.183 73.4507 120.772C74.2703 121.362 75.28 121.615 76.2712 121.806C78.5059 122.236 80.7893 122.413 83.0636 122.331C83.9285 122.3 84.8291 122.22 85.5687 121.771C86.269 121.345 86.7438 120.637 87.1618 119.932C88.9353 116.942 90.0983 113.591 90.5586 110.145C84.1793 110.116 77.8381 107.71 73.0464 103.498ZM89.7311 120.279C90.1666 120.423 90.6022 120.566 91.0377 120.71C91.183 120.758 91.3387 120.814 91.4249 120.94C91.5704 121.154 91.429 121.466 91.2038 121.593C90.9785 121.719 90.705 121.713 90.4468 121.702C89.9766 121.684 89.4572 121.644 89.129 121.307C88.8007 120.97 88.9133 120.242 89.3829 120.212C89.5016 120.204 89.6181 120.242 89.7311 120.279ZM112.562 120.342C112.821 120.383 113.094 120.431 113.294 120.601C113.494 120.771 113.576 121.108 113.392 121.295C113.317 121.371 113.215 121.41 113.115 121.444C112.729 121.579 112.301 121.686 111.92 121.54C111.539 121.393 111.279 120.889 111.518 120.559C111.739 120.255 112.192 120.283 112.562 120.342ZM44.8463 106.251C44.578 106.379 44.2907 106.524 44.1581 106.789C44.0593 106.988 44.0644 107.22 44.0718 107.441C44.1721 110.456 44.2986 113.58 45.6472 116.278C46.0114 117.007 46.4747 117.709 47.1305 118.192C47.5279 118.485 47.9826 118.688 48.4335 118.889C49.2161 119.238 50.0003 119.586 50.8126 119.858C52.6733 120.481 54.6428 120.692 56.5942 120.9C57.4217 120.988 58.303 121.066 59.0453 120.69C59.9192 120.248 60.3848 119.288 60.7606 118.384C62.8566 113.339 64.0532 107.922 64.2775 102.464C64.3094 101.689 63.3164 101.346 62.5419 101.294C56.359 100.879 50.446 103.597 44.8463 106.251ZM65.2376 102.245C65.079 102.454 65.0592 102.733 65.0436 102.995C64.6736 109.167 63.1373 115.268 60.5397 120.88C63.0145 119.627 64.8585 117.195 65.3962 114.474C65.581 113.539 65.6189 112.581 65.6562 111.628C65.7738 108.624 65.8915 105.619 66.0091 102.614C66.0153 102.456 66.0165 102.282 65.9157 102.159C65.749 101.957 65.3963 102.037 65.2376 102.245ZM66.2626 117.28C66.5767 117.297 66.8718 117.427 67.177 117.503C67.4504 117.571 67.5329 117.96 67.3803 118.197C67.2278 118.434 66.9335 118.537 66.6545 118.576C66.3633 118.617 66.0502 118.602 65.7997 118.447C65.5493 118.293 65.3868 117.972 65.4869 117.695C65.5938 117.399 65.9486 117.263 66.2626 117.28ZM112.742 116.464C113.036 116.525 113.287 116.707 113.529 116.884C113.66 116.98 113.8 117.088 113.843 117.245C113.898 117.445 113.766 117.661 113.583 117.761C113.401 117.861 113.183 117.868 112.976 117.851C112.682 117.828 112.378 117.755 112.156 117.561C111.934 117.366 111.821 117.025 111.959 116.764C112.1 116.499 112.448 116.403 112.742 116.464ZM42.8894 107.129C42.8091 107.272 42.8253 107.448 42.8439 107.611L43.2801 111.452C43.5169 113.537 43.8269 115.784 45.2839 117.293C45.5269 117.178 45.3898 116.812 45.2367 116.591C44.0564 114.888 43.8291 112.723 43.6377 110.659C43.5255 109.45 43.4133 108.241 43.3011 107.031C43.1883 106.912 42.9697 106.986 42.8894 107.129ZM120.584 114.998C124.587 115.097 128.59 115.196 132.593 115.294C133.205 115.309 133.82 115.325 134.426 115.416C134.299 115.853 133.724 115.936 133.268 115.932C129.254 115.894 125.227 115.645 121.234 116.063C120.893 116.098 120.524 116.133 120.228 115.96C119.932 115.787 119.799 115.311 120.071 115.102C120.212 114.994 120.406 114.994 120.584 114.998ZM109.586 114.211C109.674 114.24 109.764 114.271 109.836 114.329C110.075 114.524 109.986 114.94 109.741 115.128C109.497 115.316 109.167 115.338 108.858 115.345C108.537 115.353 108.163 115.328 107.98 115.064C107.75 114.733 108.023 114.242 108.403 114.108C108.783 113.973 109.202 114.086 109.586 114.211ZM112.512 113.402C112.886 113.443 113.249 113.574 113.562 113.781C113.802 113.939 113.754 114.336 113.536 114.523C113.318 114.71 113.007 114.736 112.72 114.726C112.431 114.715 112.128 114.671 111.893 114.5C111.659 114.329 111.519 113.999 111.645 113.738C111.788 113.44 112.183 113.367 112.512 113.402ZM72.1869 104.267C71.9689 107.409 71.8712 110.559 71.8941 113.708C71.8951 113.841 71.9857 114.031 72.0993 113.961C72.3404 111.314 72.4587 108.656 72.4537 105.998C72.4526 105.409 72.4407 104.799 72.1869 104.267ZM67.9076 112.327C68.2511 112.353 68.5541 112.553 68.834 112.753C68.9202 112.815 69.0089 112.881 69.0571 112.975C69.1569 113.171 69.0372 113.423 68.8497 113.537C68.6622 113.652 68.4301 113.661 68.2107 113.651C67.7115 113.627 67.084 113.356 67.1398 112.859C67.1783 112.517 67.5642 112.301 67.9076 112.327ZM113.344 110.211C113.678 110.348 114.022 110.706 113.849 111.024C113.733 111.238 113.448 111.285 113.203 111.287C112.919 111.29 112.635 111.267 112.355 111.218C111.962 111.15 111.901 110.53 112.207 110.273C112.512 110.016 112.974 110.059 113.344 110.211ZM152.296 104.063C152.434 104.294 152.436 104.578 152.435 104.846C152.423 106.748 152.411 108.649 152.4 110.55C152.398 110.781 152.367 111.06 152.158 111.157C151.976 111.241 151.753 111.124 151.653 110.951C151.552 110.779 151.543 110.57 151.539 110.371C151.51 108.673 151.699 106.935 151.218 105.307C151.076 104.824 150.905 104.219 151.278 103.881C151.57 103.616 152.094 103.725 152.296 104.063ZM103.419 103.843C101.978 104.737 100.462 105.657 98.7702 105.778C98.4625 105.801 98.3239 106.168 98.2632 106.471C97.99 107.832 97.8392 109.217 97.8133 110.605C97.8118 110.69 97.8125 110.781 97.8616 110.85C97.9396 110.96 98.0986 110.965 98.2334 110.958C99.5531 110.889 100.891 110.751 102.116 110.257C103.342 109.763 104.457 108.868 104.956 107.645C105.456 106.421 105.216 104.861 104.196 104.02C103.976 103.84 103.66 103.693 103.419 103.843ZM92.3862 109.194C92.8492 109.316 93.3122 109.438 93.7752 109.559C93.9482 109.605 94.1406 109.665 94.2233 109.824C94.3208 110.01 94.2074 110.251 94.0311 110.367C93.8548 110.482 93.6354 110.504 93.4255 110.523C93.0927 110.552 92.75 110.581 92.4306 110.482C92.1113 110.384 91.8172 110.127 91.7807 109.794C91.7441 109.462 92.063 109.11 92.3862 109.194ZM28.1586 83.8598C29.8915 84.5616 31.1958 86.0798 32.0048 87.7653C32.8137 89.4508 33.1821 91.3092 33.5031 93.151C34.0345 96.1994 34.4576 99.311 34.0702 102.381C33.6827 105.451 32.3994 108.512 30.0203 110.491C31.7533 110.583 33.8226 110.515 34.7634 109.056C35.1856 108.402 36.0943 108.112 36.8174 108.402C36.3628 108.009 36.7059 107.277 37.0433 106.78C38.4256 104.742 39.3741 102.401 39.713 99.962C40.3702 95.2334 38.7179 90.4411 36.2663 86.3446C34.6756 83.6868 30.9653 82.5497 28.1586 83.8598ZM69.2459 108.355C69.6035 108.495 69.5202 109.086 69.186 109.276C68.8518 109.466 68.4353 109.381 68.0629 109.286C67.8892 109.242 67.7048 109.19 67.5869 109.055C67.3116 108.74 67.6275 108.207 68.0352 108.113C68.4429 108.019 68.8566 108.201 69.2459 108.355ZM82.1013 85.6003C80.5713 85.6275 78.9653 85.814 77.7162 86.6981C77.3032 86.9905 76.928 87.3732 76.7771 87.8562C76.6262 88.3393 76.7533 88.9327 77.1723 89.2165C78.2314 89.9337 78.663 91.2755 78.8615 92.5391C79.06 93.8027 79.1077 95.1258 79.6835 96.2679C79.9804 96.8569 80.4062 97.3708 80.8527 97.8562C83.2737 100.488 86.4315 102.436 89.8705 103.417C90.4751 103.59 91.2443 103.963 91.1166 104.579C86.1689 103.541 81.6571 100.555 78.7681 96.4069C77.8902 99.103 76.1585 101.514 73.884 103.207C78.3208 106.983 84.0622 109.195 89.8853 109.372C90.149 109.38 90.4476 109.37 90.6255 109.175C90.7421 109.048 90.7787 108.868 90.8103 108.698C91.6344 104.266 92.2153 99.7887 92.5493 95.2929C92.6636 93.7549 92.7473 92.1913 92.4148 90.6854C92.0824 89.1794 91.2802 87.7154 89.9688 86.9038C89.1608 86.4036 88.2149 86.1792 87.2794 86.0123C85.5721 85.7077 83.8352 85.5696 82.1013 85.6003ZM112.502 107.17C112.903 107.171 113.409 107.288 113.48 107.683C113.55 108.076 113.101 108.37 112.705 108.42C112.415 108.457 112.1 108.422 111.869 108.242C111.639 108.061 111.532 107.708 111.692 107.463C111.856 107.212 112.202 107.17 112.502 107.17ZM142.143 99.2668C141.407 102.119 140.977 105.04 140.549 107.955C140.527 108.1 140.515 108.271 140.624 108.369C141.772 106.943 142.825 105.441 143.774 103.875C143.868 103.721 143.96 103.519 143.855 103.372C143.617 103.039 143.379 102.707 143.141 102.375C142.965 102.128 142.783 101.803 142.938 101.542C143.064 101.33 143.347 101.286 143.592 101.263L145.609 101.077C145.587 100.952 145.511 100.845 145.437 100.742C144.897 99.9905 144.308 99.2004 143.444 98.8708C142.965 98.6882 142.271 98.7703 142.143 99.2668ZM48.7516 69.7596C47.2775 70.007 45.6808 70.4333 44.8254 71.659C44.3466 72.345 44.1705 73.1922 44.0298 74.0168C43.4766 77.2606 43.3038 80.569 43.5162 83.8527C49.871 80.8961 57.3062 80.3344 64.0331 82.3029C64.6036 82.4699 65.3096 82.9759 65.0101 83.4894C59.964 81.623 54.3436 81.3446 49.1378 82.7033C47.4534 83.143 45.8164 83.7476 44.1415 84.2225C41.6525 84.9282 39.0817 85.3455 36.4972 85.4632C41.2043 91.8542 41.8134 101.006 37.9948 107.964C40.3707 107.514 42.603 106.516 44.7936 105.492C48.0643 103.964 51.3208 102.352 54.7951 101.371C58.2694 100.39 62.0257 100.069 65.4719 101.145C65.875 101.27 66.0972 100.689 66.1133 100.267L66.8601 80.7014C66.9732 77.7375 66.9827 74.4603 65.0423 72.217C63.3253 70.232 60.5251 69.6111 57.9101 69.3879C54.8578 69.1273 51.7728 69.2525 48.7516 69.7596ZM94.2796 106.074C94.376 106.137 94.4756 106.216 94.4982 106.329C94.5439 106.558 94.265 106.704 94.04 106.768C93.7133 106.861 93.3767 106.954 93.0389 106.918C92.7012 106.883 92.3576 106.689 92.2466 106.368C92.1356 106.047 92.3587 105.625 92.6982 105.619C93.2548 105.609 93.8134 105.769 94.2796 106.074ZM142.212 93.7622C140.983 94.4514 139.514 94.7033 138.126 94.463C138.303 94.9583 139.082 95.1311 139.086 95.6573C139.088 95.9777 138.787 96.2032 138.615 96.4738C138.483 96.682 138.426 96.9277 138.373 97.1686C137.878 99.4341 137.594 101.746 137.526 104.063C137.514 104.463 137.613 104.99 138.011 105.034C138.833 105.124 139.608 105.585 140.08 106.266C140.466 103.835 140.852 101.405 141.238 98.9748C141.328 98.4109 141.403 97.781 141.073 97.3153C140.618 96.6747 141.014 95.797 141.412 95.1201L142.212 93.7622ZM69.0201 104.267C69.4397 104.35 69.917 104.713 69.7581 105.11C69.6602 105.355 69.3645 105.454 69.1012 105.468C68.838 105.482 68.5641 105.443 68.3176 105.536C68.0275 105.646 67.686 105.389 67.6506 105.081C67.6152 104.773 67.8294 104.473 68.1086 104.338C68.3877 104.203 68.7159 104.206 69.0201 104.267ZM112.497 103.891C112.761 103.928 113.04 103.986 113.233 104.171C113.425 104.356 113.478 104.708 113.273 104.88C113.206 104.936 113.12 104.966 113.037 104.995C112.673 105.119 112.285 105.24 111.912 105.148C111.539 105.056 111.215 104.66 111.344 104.299C111.493 103.882 112.058 103.831 112.497 103.891ZM136.574 98.8952C136.294 98.9627 136.09 99.1964 135.906 99.4175L134.793 100.75C134.576 101.01 134.958 101.373 135.296 101.401C135.634 101.429 136.029 101.35 136.27 101.589C136.521 101.839 136.418 102.276 136.211 102.565C136.005 102.855 135.712 103.091 135.588 103.424C135.401 103.921 135.71 104.544 136.218 104.698C136.495 104.781 136.882 104.653 136.885 104.364C136.899 102.678 136.997 100.993 137.18 99.3162C137.211 99.0298 136.855 98.8277 136.574 98.8952ZM80.1349 99.7326C80.3479 99.8741 80.4858 100.101 80.6279 100.313C81.8482 102.141 83.8892 103.397 86.0703 103.662C86.5748 103.724 87.1701 103.785 87.423 104.226C86.9478 104.696 86.1734 104.639 85.5219 104.487C83.2127 103.95 81.0967 102.616 79.6164 100.764C79.3804 100.469 79.1648 100.019 79.4281 99.7478C79.6062 99.5642 79.9218 99.591 80.1349 99.7326ZM135.375 91.6584C133.744 92.0591 132.116 92.6245 130.794 93.6604C129.472 94.6963 128.489 96.2703 128.5 97.9495C128.513 100.079 127.466 102.19 125.763 103.468L128.631 103.806C128.966 103.845 129.343 103.874 129.606 103.661C129.99 103.35 129.892 102.753 129.795 102.269C129.698 101.784 129.719 101.143 130.18 100.965C130.753 100.743 131.227 101.538 131.14 102.146C131.054 102.754 130.701 103.339 130.811 103.943C132.169 104.135 133.531 104.298 134.897 104.43C134.625 104.207 134.595 103.784 134.733 103.461C134.87 103.137 135.137 102.89 135.396 102.653C135.672 102.4 135.274 101.955 134.902 101.915C134.53 101.875 134.092 101.965 133.83 101.698C133.503 101.366 133.748 100.809 134.027 100.436C134.567 99.7119 135.236 98.8392 134.888 98.0055C134.041 95.9725 134.227 93.5384 135.375 91.6584ZM72.8354 86.1033C72.6081 91.6688 72.6392 97.2447 72.9286 102.807C75.0545 101.654 76.6079 99.6239 77.5712 97.4053C78.159 96.0517 78.5524 94.5598 78.3174 93.1029C78.1422 92.0165 77.6279 91.0129 77.0298 90.0892C75.9689 88.4504 74.584 86.9712 72.8354 86.1033ZM122.132 83.4369C122.896 83.2963 123.479 84.2388 123.349 85.0041C123.219 85.7695 122.663 86.378 122.22 87.0162C121.61 87.8979 121.192 88.8961 120.779 89.886C119.795 92.2411 119.413 94.8441 119.676 97.3826C119.832 98.8772 120.241 100.412 121.252 101.524C122.262 102.636 123.995 103.192 125.326 102.496C126.47 101.899 127.041 100.581 127.303 99.3171C127.565 98.0535 127.612 96.7308 128.107 95.5392C129.021 93.3409 131.276 92.0128 133.506 91.1791C130.154 90.7237 127.12 88.3879 125.824 85.263C125.452 84.3669 125.173 83.3566 124.401 82.7682C123.63 82.1799 122.177 82.4678 122.132 83.4369ZM93.7954 101.365C94.0312 101.41 94.2625 101.479 94.4849 101.569C94.8518 101.719 95.246 102.131 95.01 102.45C94.881 102.623 94.6334 102.644 94.417 102.65C94.0224 102.66 93.597 102.661 93.2748 102.433C92.9525 102.205 92.841 101.654 93.166 101.43C93.3445 101.307 93.5825 101.324 93.7954 101.365ZM111.568 100.426C111.887 100.453 112.205 100.497 112.519 100.558C112.675 100.589 112.843 100.631 112.941 100.756C113.089 100.945 112.996 101.241 112.808 101.391C112.621 101.542 112.371 101.584 112.134 101.621C111.771 101.678 111.384 101.732 111.05 101.581C110.715 101.43 110.487 100.987 110.692 100.683C110.87 100.417 111.249 100.399 111.568 100.426ZM20.3276 98.709C20.0573 98.706 19.9638 99.0669 19.972 99.3371C19.9955 100.114 20.1527 100.886 20.4346 101.61C20.513 101.69 20.6041 101.523 20.5932 101.411L20.3276 98.709ZM72.2734 100.708C72.1047 100.8 72.0405 101.042 72.1417 101.205L72.1458 101.211L72.1422 101.215C72.1376 101.221 72.1327 101.227 72.1276 101.235C72.0597 101.337 72.1549 101.5 72.2777 101.492C72.3608 101.239 72.3592 100.96 72.2734 100.708ZM68.7598 99.6092C69.1256 99.6901 69.5227 99.9937 69.4317 100.357C69.3714 100.598 69.118 100.739 68.8757 100.793C68.6333 100.847 68.3772 100.843 68.1458 100.933C67.8515 101.048 67.4971 100.81 67.4364 100.5C67.3758 100.19 67.5657 99.867 67.8396 99.7099C68.1135 99.5528 68.4515 99.541 68.7598 99.6092ZM70.8767 48.3452C70.898 65.0991 71.2829 81.8524 72.0311 98.5895L72.1098 100.32L72.1216 99.7634C72.1432 98.4625 72.1241 97.161 72.1051 95.86C71.8817 80.6098 71.6584 65.3596 71.435 50.1094C71.4257 49.4709 71.3754 48.7442 70.8767 48.3452ZM94.8399 97.1593C95.0451 97.2207 95.251 97.3139 95.3841 97.4817C95.5173 97.6496 95.5554 97.9074 95.4237 98.0764C95.2962 98.24 95.0652 98.271 94.8586 98.2893L93.9773 98.3676C93.8331 98.3804 93.6783 98.391 93.553 98.3185C93.4518 98.26 93.3848 98.1534 93.3541 98.0406C93.2616 97.7012 93.491 97.3328 93.8087 97.1816C94.1263 97.0303 94.5029 97.0584 94.8399 97.1593ZM23.8393 84.0447C22.9229 84.9451 22.4462 86.1899 22.0058 87.3968C20.7786 90.7599 19.6124 94.3296 20.2179 97.8581C20.4052 97.8924 20.4944 97.6377 20.5083 97.4478C20.7572 94.0438 21.4375 90.6715 22.5276 87.4372C22.9435 86.2031 23.4438 84.9498 24.3678 84.0321C24.3551 83.8086 23.999 83.8878 23.8393 84.0447ZM136.502 91.4018C136.343 91.4411 136.239 91.5918 136.156 91.7336C135.367 93.0718 134.996 94.6519 135.106 96.2013C135.151 96.841 135.357 97.5779 135.955 97.8111C136.44 97.3448 136.926 96.8784 137.412 96.412C137.489 96.338 137.568 96.2612 137.611 96.1632C137.717 95.9178 137.565 95.6441 137.425 95.4162C136.733 94.2897 136.213 92.8621 136.789 91.6724C136.861 91.5243 136.662 91.3625 136.502 91.4018ZM146.595 89.9579C146.518 89.9984 146.458 90.0652 146.4 90.1307C144.966 91.7524 143.581 93.4174 142.248 95.1227C141.97 95.4789 141.679 95.8806 141.707 96.3318C141.731 96.7329 142.013 97.0824 142.355 97.2934C142.697 97.5044 143.096 97.6006 143.487 97.6937C143.591 97.7186 143.705 97.7428 143.803 97.6993C143.894 97.6592 143.951 97.5704 144.003 97.4863C144.819 96.1702 145.647 94.828 146.033 93.3281C146.115 93.0082 146.392 92.7848 146.614 92.54C147.049 92.059 147.305 91.4185 147.319 90.7699C147.324 90.5502 147.298 90.3186 147.171 90.1393C147.044 89.9601 146.79 89.8563 146.595 89.9579ZM111.674 96.3772C111.872 96.4262 112.089 96.5011 112.178 96.6844C112.334 97.0073 111.968 97.344 111.625 97.45C111.359 97.5322 111.063 97.5607 110.808 97.4493C110.554 97.3379 110.36 97.057 110.418 96.7849C110.521 96.3021 111.195 96.2584 111.674 96.3772ZM69.0868 95.6722C69.1801 95.7557 69.2665 95.854 69.3019 95.9741C69.3731 96.2158 69.2043 96.4823 68.9728 96.5817C68.7413 96.6811 68.4709 96.6427 68.2376 96.5476C67.9919 96.4474 67.7526 96.2558 67.7214 95.9923C67.6856 95.691 67.9586 95.4137 68.2589 95.3702C68.5592 95.3266 68.8608 95.4697 69.0868 95.6722ZM95.6611 93.0231C95.9007 93.1207 95.9256 93.4832 95.7604 93.6823C95.5951 93.8814 95.3195 93.9476 95.0617 93.9693C94.8039 93.9911 94.5372 93.9815 94.2963 94.0759C93.9261 94.2208 93.5235 93.7736 93.6116 93.386C93.6998 92.9983 94.1161 92.7575 94.5132 92.7389C94.9102 92.7204 95.293 92.8731 95.6611 93.0231ZM111.263 92.4401C111.603 92.4567 111.939 92.5459 112.242 92.7C112.374 92.7668 112.51 92.8592 112.547 93.0019C112.624 93.2959 112.255 93.4977 111.957 93.555C111.693 93.6058 111.424 93.636 111.155 93.6453C110.823 93.6569 110.422 93.5928 110.289 93.2879C110.187 93.0509 110.312 92.7604 110.522 92.6107C110.733 92.4609 111.005 92.4274 111.263 92.4401ZM133.165 70.7419C131.183 71.0617 129.192 71.3268 127.196 71.5367C125.749 71.6888 124.387 72.5094 123.577 73.7168C123.41 73.9648 123.295 74.3606 123.553 74.5127C124.28 73.6732 125.268 73.0623 126.344 72.7862C126.729 72.6876 127.15 72.6338 127.513 72.7954C127.876 72.957 128.135 73.402 127.971 73.7636C127.719 74.3189 126.915 74.1636 126.306 74.1265C124.613 74.0232 123.15 75.9605 123.711 77.5607C124.105 76.0332 126.286 75.37 127.508 76.3672C128.731 77.3645 128.581 79.5547 127.274 80.4376C126.842 80.7294 126.287 80.9328 126.09 81.4154C125.921 81.8292 126.084 82.2964 126.246 82.7129C126.5 83.3666 126.755 84.0203 127.009 84.674C127.543 86.0445 128.11 87.465 129.19 88.4633C130.02 89.2309 131.097 89.6876 132.196 89.9554C136.158 90.921 140.617 89.3844 143.143 86.1835C143.346 85.927 143.808 86.1704 143.844 86.4951C143.88 86.8198 143.658 87.1119 143.438 87.3538C142.307 88.5987 140.882 89.5742 139.312 90.1774C138.569 90.4626 137.688 90.7711 137.459 91.5326C137.27 92.1633 137.668 92.8603 138.239 93.1885C138.809 93.5167 139.505 93.5445 140.16 93.4729C141.465 93.3301 142.728 92.8193 143.765 92.0144C144.08 91.7704 144.384 91.4853 144.524 91.1126C144.656 90.7596 144.626 90.3694 144.594 89.9938L144.566 89.671C144.444 88.2707 144.285 86.854 143.714 85.5736C143.44 84.9576 143.072 84.3805 142.87 83.7371C142.621 82.9436 142.636 82.0924 142.468 81.2778C142.301 80.4632 141.876 79.617 141.101 79.3167C141.306 78.7962 141.817 78.4687 142.148 78.0177C142.479 77.5668 142.527 76.779 142.006 76.5753C141.757 76.4779 141.473 76.5618 141.236 76.6852C140.235 77.2049 139.696 78.4765 140.017 79.5573C140.226 80.2627 139.112 80.7359 138.512 80.3099C137.912 79.8838 137.764 79.0725 137.646 78.3462C137.187 75.5309 136.267 72.4958 133.862 70.9612C133.652 70.827 133.411 70.7022 133.165 70.7419ZM68.8767 90.7124C69.1928 90.8149 69.508 91.0989 69.4423 91.4246C69.3801 91.7326 69.0257 91.8768 68.716 91.9298C68.2767 92.0049 67.7039 91.9188 67.5804 91.4905C67.4629 91.0831 67.8894 90.6927 68.3111 90.648C68.5012 90.6279 68.6949 90.6534 68.8767 90.7124ZM119.574 84.8483C119.279 85.1277 119.135 85.5264 119.001 85.9097C118.699 86.7746 118.393 87.6646 118.428 88.58C118.45 89.1693 118.108 89.7001 117.864 90.2369C117.621 90.7738 117.488 91.4614 117.871 91.9101C118.784 91.1419 119.004 89.8486 119.205 88.6719C119.445 87.2651 119.771 85.8067 120.681 84.7071C120.363 84.4552 119.868 84.569 119.574 84.8483ZM95.4971 88.7691C95.7323 88.8448 95.9985 88.9959 96.0014 89.243C96.0049 89.5434 95.6351 89.6816 95.3395 89.7357C95.1913 89.7628 95.0431 89.7899 94.8949 89.817C94.5173 89.8861 94.1127 89.9524 93.7617 89.797C93.4107 89.6415 93.177 89.1677 93.4061 88.8597C93.5543 88.6605 93.8269 88.6063 94.0747 88.5909C94.5544 88.5612 95.0395 88.622 95.4971 88.7691ZM61.1607 84.4296C61.5738 84.6272 62.036 85.0166 61.883 85.4483C57.6266 84.5203 53.0792 84.9792 49.0941 86.7391C47.3009 87.531 45.6176 88.578 43.7617 89.2092C43.1268 89.4252 42.4337 89.5909 41.7923 89.3951C41.1509 89.1993 40.6159 88.5187 40.8035 87.8748C40.9797 87.2704 41.6527 86.9832 42.249 86.7813C45.1878 85.7864 48.1779 84.9427 51.2033 84.2545C54.5044 83.5036 58.1067 82.9689 61.1607 84.4296ZM122.278 84.3787C121.974 84.3774 121.718 84.6004 121.519 84.8294C121.034 85.3848 120.689 86.051 120.433 86.7422C120.114 87.601 119.926 88.5078 119.876 89.4224C120.756 87.9083 121.698 86.4297 122.696 84.9912C122.87 84.7416 122.582 84.3799 122.278 84.3787ZM116.885 87.0759C116.801 87.0764 116.713 87.0795 116.643 87.1241C116.484 87.2246 116.506 87.4593 116.553 87.641C116.703 88.2173 116.909 88.7787 117.169 89.3143C117.325 88.5596 117.575 87.8244 117.912 87.1314C117.571 87.0924 117.228 87.0739 116.885 87.0759ZM50.1867 85.1303C47.6673 85.9047 45.1478 86.679 42.6284 87.4534C42.3274 87.5459 41.9782 87.6887 41.9141 87.9969C42.1189 88.2958 42.5091 88.4227 42.871 88.4051C43.2329 88.3876 43.5765 88.2487 43.9119 88.1116C46.4679 87.0673 49.0239 86.0229 51.58 84.9786C51.1235 84.851 50.6398 84.9911 50.1867 85.1303ZM76.7736 86.5437C76.6382 86.7784 76.3565 86.878 76.1455 87.0479C75.9344 87.2178 75.8105 87.5834 76.0334 87.7374C76.3747 87.3958 76.7159 87.0541 77.0572 86.7124C76.9866 86.625 76.8841 86.564 76.7736 86.5437ZM103.356 86.3619C105.188 86.5526 107.036 86.65 108.87 86.492C109.345 86.4511 109.912 86.432 110.194 86.8161C109.838 87.1782 109.279 87.222 108.772 87.2437C106.868 87.3252 104.964 87.4068 103.06 87.4883C102.689 87.5042 102.218 87.457 102.098 87.1053C102.003 86.8284 102.218 86.5229 102.489 86.4118C102.76 86.3007 103.065 86.3315 103.356 86.3619ZM131.669 84.3609C132.112 84.8999 132.274 85.6582 132.09 86.3311C132.044 86.4972 131.978 86.6601 131.872 86.7957C131.593 87.1513 131.079 87.2564 130.639 87.1511C130.2 87.0458 129.824 86.7662 129.488 86.4634C129.143 86.1513 128.819 85.7957 128.653 85.3607C128.487 84.9256 128.506 84.3963 128.801 84.0355C129.043 83.7381 129.435 83.5954 129.818 83.5674C130.514 83.5165 131.226 83.8219 131.669 84.3609ZM69.9332 85.614C70.1082 85.7553 70.0789 86.049 69.9295 86.2172C69.7801 86.3854 69.5522 86.4572 69.334 86.5116C69.0762 86.5758 68.8052 86.6261 68.5468 86.5647C68.2883 86.5033 68.046 86.3028 68.0142 86.0391C67.9681 85.6565 68.3686 85.3571 68.7492 85.2971C69.1648 85.2315 69.606 85.3496 69.9332 85.614ZM129.642 84.4878C129.448 84.739 129.575 85.1922 129.89 85.2352C130.253 85.2848 130.536 85.6665 130.477 86.0285C130.431 86.3126 130.778 86.5501 131.053 86.4648C131.327 86.3795 131.487 86.0713 131.48 85.7835C131.474 85.4957 131.337 85.2274 131.181 84.9854C131.01 84.7185 130.8 84.4593 130.51 84.3293C130.22 84.1994 129.836 84.2367 129.642 84.4878ZM128.674 58.6888C126.034 59.1724 123.419 60.3256 121.716 62.4004C120.013 64.4751 119.424 67.5802 120.755 69.9108C121.226 70.7345 121.944 71.4527 122.847 71.7426C123.75 72.0325 124.842 71.8192 125.445 71.0866C126.129 70.2557 127.508 71.0526 128.537 70.7372C129.96 70.301 131.439 70.0478 132.926 69.986C133.278 69.9714 133.642 69.9691 133.971 70.0968C134.328 70.2352 134.61 70.5128 134.882 70.7832C135.823 71.721 136.783 72.6858 137.341 73.8919C138.224 75.8046 138.006 78.1368 139.122 79.9237C139.252 78.8032 139.383 77.6826 139.513 76.5621C139.562 76.1463 139.616 75.7145 139.84 75.3614C140.065 75.0082 140.514 74.7604 140.908 74.9033C141.602 75.1554 142.324 75.4262 142.823 75.9713C143.321 76.5164 143.505 77.425 143.026 77.9871C142.563 78.5303 143.088 79.3153 143.334 79.9852C143.76 81.1459 143.259 82.4721 143.594 83.6622C143.871 84.6481 144.672 85.3842 145.437 86.0648C145.661 86.2639 145.922 86.476 146.22 86.4488C146.47 86.4261 146.67 86.24 146.841 86.0562C147.858 84.9601 148.554 83.5702 148.824 82.0995C148.932 81.5061 148.726 80.6416 148.128 80.7226C148.292 79.2989 149.6 78.329 150.369 77.1195C151.198 75.815 151.394 74.211 151.432 72.6658C151.47 71.1129 151.318 69.4252 150.283 68.2667C149.04 66.8749 146.624 66.7709 145.266 68.0507C144.927 68.3698 144.481 68.7914 144.077 68.5605C144.393 67.9926 144.71 67.4247 145.027 66.8567C145.543 65.9312 146.069 64.9721 146.174 63.9177C146.381 61.8372 144.798 59.8674 142.839 59.1358C140.881 58.4042 138.669 58.7076 136.705 59.4231C136.213 59.6024 135.631 59.9876 135.764 60.4944C135.842 60.7878 136.139 60.965 136.291 61.2274C136.386 61.3909 136.377 61.4433 136.27 61.5757C136.205 61.6556 136.088 61.8871 135.983 61.842C134.869 60.552 133.664 59.2016 132.031 58.7137C130.949 58.3904 129.786 58.4853 128.674 58.6888ZM116.025 85.2922C115.886 85.2097 115.619 85.1556 115.645 85.3153C115.72 85.706 116.072 85.9966 116.452 86.116C116.831 86.2355 117.239 86.2153 117.636 86.194C117.791 86.1857 117.957 86.1737 118.081 86.0792C118.185 86 118.241 85.8755 118.294 85.7562C118.385 85.5518 118.475 85.3474 118.566 85.143C117.827 84.6625 116.783 85.7414 116.025 85.2922ZM94.7004 83.9576C95.0111 83.9809 95.3194 84.0351 95.6193 84.1191C95.8791 84.1919 96.1777 84.3441 96.1906 84.6136C96.2075 84.9685 95.7459 85.1134 95.3919 85.144C95.0317 85.1751 94.6715 85.2062 94.3113 85.2374C94.0488 85.26 93.752 85.2717 93.559 85.0923C93.2999 84.8515 93.4045 84.3843 93.6851 84.1689C93.9657 83.9535 94.3477 83.9312 94.7004 83.9576ZM103.125 83.8804C104.847 84.111 106.594 84.1666 108.328 84.0461C108.531 84.032 108.753 84.0201 108.92 84.1363C109.088 84.2526 109.129 84.5525 108.946 84.6427C108.891 84.6701 108.827 84.6729 108.765 84.6753C106.669 84.7544 104.573 84.8335 102.476 84.9126C102.285 84.9198 102.075 84.9209 101.928 84.7985C101.665 84.5794 101.816 84.1108 102.117 83.949C102.419 83.7872 102.785 83.835 103.125 83.8804ZM119.852 82.173C119.183 82.209 118.502 82.2711 117.884 82.5306C117.266 82.7902 116.711 83.2785 116.527 83.9229C116.489 84.0536 116.475 84.2146 116.576 84.3065C116.654 84.378 116.771 84.3791 116.877 84.3749C117.989 84.3312 119.096 84.1656 120.172 83.8821C120.707 83.7412 121.352 83.4012 121.279 82.8527C121.241 82.564 120.992 82.3383 120.717 82.2427C120.442 82.1471 120.143 82.1573 119.852 82.173ZM42.6403 82.0923C42.5336 82.6571 42.5075 83.2371 42.5631 83.8091C42.7013 83.9584 42.8833 83.667 42.8716 83.4638C42.8449 83 42.7672 82.5392 42.6403 82.0923ZM78.4392 81.4015C82.293 81.5757 86.1467 81.7498 90.0005 81.924C90.3601 81.9403 90.838 82.078 90.8167 82.4375C90.3569 82.7328 89.7634 82.6717 89.2205 82.6085C85.7853 82.2082 82.31 82.1528 78.8637 82.4436C78.5662 82.4687 78.2503 82.493 77.9847 82.3565C77.7192 82.22 77.548 81.8562 77.7204 81.6124C77.8712 81.3992 78.1783 81.3897 78.4392 81.4015ZM69.0946 80.9973C69.2641 81.0229 69.4407 81.0672 69.5638 81.1866C69.8455 81.4594 69.6716 81.978 69.3329 82.1757C68.9943 82.3734 68.5749 82.3457 68.1842 82.3119C67.7555 82.2748 67.6164 81.6318 67.898 81.3064C68.1796 80.981 68.6691 80.9331 69.0946 80.9973ZM82.6485 79.5719C88.9292 79.8977 95.2098 80.2235 101.49 80.5494C101.827 80.5668 102.272 80.6962 102.254 81.0326C101.219 81.2192 100.146 81.1984 99.1184 80.9719L100.031 81.7572C99.596 82.0315 99.1325 82.3147 98.6183 82.3261C98.1041 82.3375 97.5444 81.9584 97.5589 81.4443C97.8191 81.3243 98.0793 81.2042 98.3395 81.0841C93.2658 80.6494 88.1686 80.4908 83.0777 80.6092C82.7839 80.6161 82.4705 80.6187 82.2224 80.4612C81.9743 80.3037 81.8487 79.9208 82.0541 79.7106C82.201 79.5604 82.4387 79.561 82.6485 79.5719ZM123.317 80.4118C123.09 80.4242 122.898 80.5744 122.723 80.718C122.515 80.8881 122.307 81.0583 122.099 81.2284C121.881 81.4067 121.645 81.6194 121.633 81.9006C121.626 82.0531 121.742 82.2343 121.891 82.1999C121.932 82.1903 121.968 82.1652 122.003 82.1406C122.498 81.7913 122.994 81.4419 123.489 81.0925C123.59 81.0212 123.698 80.9406 123.731 80.8213C123.791 80.6027 123.543 80.3994 123.317 80.4118ZM131.021 78.5818C131.041 79.0913 130.788 79.5687 130.698 80.0705C130.608 80.5724 130.779 81.2114 131.275 81.3289C131.422 81.3635 131.464 81.573 131.382 81.6986C131.299 81.8242 131.143 81.8784 130.995 81.9053C130.535 81.9888 129.991 81.8413 129.78 81.4246C129.674 81.216 129.666 80.9733 129.66 80.7395C129.644 80.1135 129.628 79.4876 129.611 78.8616C129.6 78.4336 129.648 77.9066 130.04 77.7339C130.507 77.5281 131.001 78.0723 131.021 78.5818ZM124.189 81.4215C124.099 81.4637 124.037 81.5615 124.038 81.6615L124.015 81.6673C124.066 81.7789 124.246 81.7963 124.317 81.6964C124.388 81.5965 124.311 81.4318 124.189 81.4215ZM123.323 78.1498C123.115 78.1551 122.882 78.1928 122.76 78.3605C122.628 78.5397 122.681 78.8028 122.816 78.9794C122.951 79.156 123.15 79.2696 123.336 79.392C124.117 79.9075 124.741 80.6584 125.105 81.521C125.352 81.1955 125.599 80.87 125.847 80.5445C126.031 80.3014 126.226 80.0233 126.187 79.7205C126.159 79.5018 126.012 79.3178 125.856 79.1619C125.195 78.5007 124.257 78.126 123.323 78.1498ZM43.6664 73.1138C43.376 73.1375 43.2254 73.4637 43.1341 73.7405C42.995 74.1622 42.8558 74.5838 42.7167 75.0055C42.5647 75.4662 42.4116 75.9321 42.3699 76.4155C42.3422 76.7358 42.3641 77.0581 42.386 77.3788C42.4543 78.3806 42.5227 79.3823 42.591 80.384C42.6042 80.5777 42.7516 80.8451 42.9117 80.7354C42.8452 78.1767 43.0994 75.6098 43.6664 73.1138ZM125.823 76.7971C125.559 76.8976 125.279 77.0741 125.241 77.3537C125.203 77.6332 125.614 77.8927 125.774 77.66C125.978 77.3631 126.487 77.5182 126.655 77.8364C126.824 78.1547 126.774 78.5375 126.772 78.8975C126.769 79.2576 126.852 79.6707 127.166 79.8471C127.219 79.3654 127.271 78.8838 127.324 78.4021C127.389 77.8074 127.385 77.0699 126.862 76.7789C126.55 76.6047 126.158 76.6697 125.823 76.7971ZM134.29 76.525C134.717 76.5441 135.174 76.6933 135.408 77.0521C135.642 77.4109 135.518 77.9985 135.106 78.1141C134.517 78.279 133.967 77.4495 133.391 77.6555C133.032 77.7843 132.809 78.2904 132.434 78.2178C132.201 78.1727 132.073 77.894 132.119 77.6615C132.165 77.429 132.339 77.2429 132.524 77.0958C133.02 76.7035 133.658 76.4969 134.29 76.525ZM68.7554 76.1014C69.1679 76.168 69.5718 76.6197 69.3543 76.9765C69.2933 77.0767 69.194 77.1479 69.0902 77.2026C68.8329 77.3379 68.5155 77.384 68.2499 77.2659C67.9843 77.1478 67.7974 76.8413 67.8693 76.5597C67.9597 76.2057 68.3947 76.0431 68.7554 76.1014ZM134.96 73.7527C135.244 74.0226 135.466 74.531 135.148 74.76C134.811 75.0023 134.409 74.5933 134.087 74.332C133.728 74.0401 133.241 73.9113 132.784 73.9873C132.492 74.0358 132.216 74.1628 131.923 74.2053C131.63 74.2479 131.289 74.1806 131.129 73.9314C130.962 73.6699 131.068 73.2998 131.299 73.0918C131.53 72.8838 131.85 72.8077 132.16 72.7794C133.174 72.6866 134.222 73.0507 134.96 73.7527ZM68.7411 72.9253C68.9944 73.0739 69.1309 73.4241 68.9899 73.6817C68.8036 74.022 68.3153 74.0174 67.9388 73.9238C67.8031 73.8901 67.6605 73.8457 67.5707 73.7386C67.3564 73.483 67.5967 73.082 67.8958 72.9345C68.1592 72.8046 68.4878 72.7768 68.7411 72.9253Z" fill="#00160A"/>
<path fill-rule="evenodd" clip-rule="evenodd" d="M34.7404 107.156C34.775 107.252 34.807 107.359 34.7674 107.454C34.6964 107.623 34.4652 107.629 34.2819 107.628C32.9928 107.617 31.7943 108.725 31.7028 110.01C31.6931 110.146 31.5064 110.208 31.3856 110.146C31.2648 110.083 31.2026 109.947 31.1609 109.817C30.9254 109.086 31.0771 108.267 31.4525 107.598C31.828 106.928 32.409 106.394 33.0401 105.957C33.2849 105.787 33.5898 105.624 33.8668 105.734C34.0498 105.806 34.1694 105.981 34.269 106.15C34.4567 106.47 34.6148 106.807 34.7404 107.156ZM33.9916 107.009C33.8781 106.662 33.4177 106.538 33.0737 106.66C32.7297 106.783 32.4789 107.075 32.2449 107.356C32.023 107.621 31.7908 107.911 31.7646 108.257C32.3578 107.628 33.146 107.187 33.9916 107.009Z" fill="#FFB61D"/>
</svg>
