<svg width="60" height="60" viewBox="0 0 60 60" fill="none" xmlns="http://www.w3.org/2000/svg">
<circle cx="30" cy="30" r="30" fill="#F2F9FF"/>
<path d="M44.5 26C44.5 31.4578 41.7 36.5 39 36.5C36.3 36.5 33.5 31.4578 33.5 26C33.5 20.5421 36.3 15.5 39 15.5C41.7 15.5 44.5 20.5421 44.5 26Z" stroke="#855964" stroke-width="2"/>
<path d="M39 36.5C39 36.5 22 33 20 32.5C18 32 15.5 29.3786 15.5 26C15.5 22.6213 18 20 20 19.5C22 19 39 15.5 39 15.5" stroke="#855964" stroke-width="2"/>
<path d="M19.5 33V40.5C19.5 42.7092 21.2909 44.5 23.5 44.5H24.5C26.7092 44.5 28.5 42.7092 28.5 40.5V35" stroke="#855964" stroke-width="2"/>
</svg>
