<svg width="315" height="576" viewBox="0 0 315 576" fill="none" xmlns="http://www.w3.org/2000/svg">
<g filter="url(#filter0_d)">
<path fill-rule="evenodd" clip-rule="evenodd" d="M136.148 215.815C135.839 216.003 135.44 215.941 135.202 215.668C133.774 214.417 132.162 213.407 130.694 212.204C129.91 211.552 129.073 210.964 128.193 210.448C127.55 210.077 127.066 209.497 126.45 209.074L126.279 208.963C125.525 208.503 124.913 207.838 124.186 207.321C123.573 206.885 123.132 206.238 122.518 205.771C121.632 205.081 120.781 204.346 119.969 203.57C119.389 203.136 118.892 202.6 118.505 201.987C118.418 201.812 118.258 201.775 118.142 201.667C117.631 201.218 117.147 200.739 116.694 200.231C115.765 199.13 114.731 198.118 113.82 197.005C113.16 196.196 112.454 195.431 111.771 194.644C111.115 193.887 110.473 193.116 109.846 192.333C108.372 190.504 107.006 188.591 105.756 186.602C104.796 185.034 103.926 183.412 103.149 181.745C102.465 180.42 101.87 179.051 101.368 177.646C101.003 176.512 100.472 175.425 100.217 174.279C99.9755 173.197 99.6738 172.123 99.4074 171.055C98.7902 168.584 98.2734 166.095 97.857 163.589C97.6103 162.114 97.3936 160.624 97.1244 159.158C96.8084 157.438 96.6902 155.696 96.3798 153.976C96.1989 152.968 96.1448 151.902 96.0262 150.868C95.9112 149.867 95.9369 148.856 95.7592 147.863C95.6166 146.866 95.5247 145.863 95.4839 144.857C95.4148 143.923 95.1241 142.941 95.4324 141.984C94.9491 141.313 95.2808 140.537 95.2028 139.818C95.1247 139.099 95.0945 138.367 94.975 137.668C94.8516 136.948 94.7459 136.21 94.6444 135.494C94.4378 134.04 94.0934 132.615 93.8851 131.17C93.7572 130.288 93.3738 129.509 93.1741 128.663C92.7827 127.044 92.2312 125.468 91.5277 123.958C91.2333 123.357 91.0319 122.715 90.9304 122.054C90.866 121.55 90.3964 121.336 90.2582 120.877C90.0347 120.134 89.6862 119.43 89.405 118.705C89.3553 118.458 89.1767 118.258 88.9376 118.181L89.1298 117.544C89.0275 117.284 88.9225 117.592 88.7822 117.51C88.6387 117.223 88.4101 116.95 88.451 116.559C88.4902 116.192 88.073 116.083 87.9841 115.741C87.7878 114.997 86.9665 114.491 87.1386 113.59C86.5742 113.079 86.3828 112.339 85.9985 111.716C85.7961 111.426 85.7038 111.073 85.7364 110.722L85.7461 110.641C85.8103 110.297 85.1332 110.258 85.3946 109.819C84.5135 108.877 84.4697 107.582 84.1156 106.454C83.5478 104.644 82.8388 102.866 82.5749 100.947C82.4425 99.987 82.0266 99.0275 81.8734 98.0519C81.5286 95.8588 81.0336 93.6858 80.9522 91.4509C80.919 90.5278 80.68 89.6119 80.6555 88.6877L80.6274 87.6196C80.5877 86.0173 80.565 84.4141 80.6449 82.8115C80.6063 82.4399 80.6724 82.065 80.836 81.7291C81.0764 81.3565 80.6719 81.0193 80.7069 80.6091C80.7461 80.1221 81.0175 79.702 80.9696 79.1693C80.9432 78.8757 81.0981 78.4389 81.0684 78.0984C80.9721 76.9912 81.5224 75.9641 81.4 74.8599C81.423 74.4455 81.5382 74.0414 81.7371 73.6771C82.1779 72.422 82.0212 71.0332 82.6323 69.8396C82.924 69.2492 83.0742 68.5997 83.0721 67.9424L83.0674 67.6883C83.0651 67.5002 83.0736 67.319 83.1844 67.2123C83.6482 66.7664 83.6333 66.1364 83.8263 65.5988C84.033 65.0231 84.0376 64.3823 84.3233 63.8091C84.672 63.2601 84.9204 62.6534 85.057 62.0175C85.1579 60.916 85.6946 60.0061 86.0958 59.0378C86.296 58.5539 86.3093 57.939 86.9285 57.662C87.2434 57.5211 86.6447 57.0343 87.0964 56.8263L87.149 56.8052C87.4739 56.6902 87.5086 56.4185 87.4822 56.081C87.4581 55.7724 88.0088 55.6591 87.9148 55.3312C87.8207 55.0033 87.8319 54.5519 88.0137 54.5267C88.4686 54.4613 88.1139 53.9156 88.4907 53.8904C88.5296 53.8774 88.5602 53.847 88.5736 53.8083C88.8968 52.6961 89.7895 51.894 90.1697 50.7926C90.4254 50.14 90.8022 49.5416 91.2802 49.029C91.6901 48.525 92.0574 47.9879 92.3786 47.4232C92.9615 46.4813 93.8026 45.757 94.37 44.8174C94.524 44.5631 95.2137 44.7789 94.9535 44.1554C95.3909 44.0826 95.3411 43.6333 95.5537 43.3956C95.7717 43.2262 96.0145 43.0913 96.2736 42.9959C96.5315 42.4225 96.9209 41.918 97.4101 41.5232C98.3049 40.6066 99.2568 39.7476 100.26 38.9513L101.088 38.2978C102.194 37.4269 103.326 36.5837 104.669 36.0857C105.015 35.9578 104.934 35.5851 105.224 35.4422C106.912 34.6015 108.508 33.5916 110.354 33.0544C111.126 32.8291 111.845 32.3142 112.636 32.0774C114.223 31.6017 115.734 30.9159 117.412 30.6663C118.405 30.5191 119.412 30.2081 120.425 30.032C122.517 29.6072 124.652 29.4357 126.785 29.5214L128.095 29.6054C129.26 29.6803 130.424 29.7654 131.583 29.9372C132.132 30.0186 132.625 30.2843 133.136 30.3099C133.634 30.3342 134.121 30.4613 134.567 30.6831C134.921 30.8528 135.292 30.5879 135.662 30.8308C135.936 31.0776 136.311 31.1736 136.668 31.0914L136.738 31.0726C136.948 30.996 137.285 31.2654 137.563 31.3818C137.975 31.5151 138.371 31.6909 138.746 31.9062C139.031 32.1047 139.508 31.7126 139.638 32.2418C140.084 32.0059 140.417 32.3336 140.783 32.4761L140.833 32.4943C141.201 32.6183 141.552 32.7927 141.911 32.9448L143.105 33.452C143.439 33.6527 143.803 33.7991 144.183 33.8855C144.889 33.9268 145.448 34.3607 146.129 34.4926C146.881 34.697 147.605 34.9938 148.284 35.3761C148.897 35.6683 149.6 35.5258 150.211 35.8838C150.785 36.2747 151.434 36.542 152.117 36.6687C152.818 36.7379 153.403 37.1876 154.029 37.2258L154.146 37.228C154.947 37.2114 155.484 37.7828 156.183 37.8596C157.706 38.0268 159.124 38.6722 160.615 38.8682C162.496 39.1155 164.335 39.595 166.238 39.752C167.476 39.8541 168.721 39.917 169.96 40.0196C171.2 40.0739 172.443 40.0227 173.675 39.8666C175.218 39.7132 176.746 39.4354 178.245 39.036C179.757 38.6512 181.194 38.0413 182.694 37.6345C183.379 37.4487 184.013 37.1415 184.709 36.9754C185.457 36.7965 186.137 36.3255 186.885 36.1438C188.76 35.689 190.479 34.7306 192.413 34.485C194.641 33.5126 197.079 33.3428 199.392 32.6902C200.468 32.3857 201.621 32.3635 202.745 32.2244L202.986 32.1927C204.976 31.9151 206.981 31.8394 208.987 31.7448C210.826 31.6729 212.669 31.7222 214.502 31.8924C215.822 32.0038 217.137 32.1793 218.458 32.2659C218.994 32.3014 219.443 32.7633 220.014 32.5354C221.114 33.0541 222.394 32.8856 223.484 33.4447C224.29 33.3527 224.961 33.7614 225.629 34.0934C226.138 34.3479 226.703 34.1058 227.205 34.4367C227.654 34.7822 228.186 35.0031 228.748 35.0771C229.698 35.0983 230.443 35.5802 231.254 35.9084C233.139 36.6715 235.01 37.4671 236.869 38.2953C237.477 38.5671 238.203 38.6317 238.663 39.2156C239.066 39.728 239.868 39.5929 240.25 40.1813C240.389 40.3955 240.671 40.0776 240.905 40.2623C241.361 40.6224 242.04 40.5577 242.425 41.1301C242.71 41.5538 243.412 41.4249 243.721 41.9303L243.761 42.0032C243.933 42.3607 244.667 41.719 244.72 42.4569C245.429 42.639 245.956 43.1366 246.549 43.5186C247.04 43.8341 247.688 43.8191 248.085 44.3662C248.424 44.8325 249.245 44.6783 249.495 45.3316C250.358 45.4911 250.881 46.2515 251.675 46.5672C252.271 46.8419 252.828 47.1953 253.33 47.6179C254.137 48.2312 254.961 48.8208 255.797 49.389C256.096 49.598 256.383 49.8234 256.657 50.0642C256.811 50.1953 256.813 50.426 257.05 50.5237C258.545 51.1433 259.693 52.2824 260.882 53.3114C261.571 53.8375 262.216 54.4177 262.812 55.0464L263.009 55.2578C263.179 55.466 263.581 55.6246 263.715 55.8961C264.089 56.652 264.767 57.109 265.363 57.6284L265.461 57.7156C265.798 58.0037 266.091 58.3393 266.331 58.7116C266.377 58.7826 266.376 58.9189 266.433 58.9442C267.492 59.4133 267.992 60.4459 268.725 61.2356C269.435 61.9993 270.003 62.8949 270.73 63.6379C272.196 65.1362 286.989 88.6138 288.454 92.4737L288.873 93.5783C289.291 94.6847 289.701 95.7971 290.06 96.9213L290.367 97.8784C290.672 98.8371 290.969 99.801 291.211 100.771L291.535 102.066C292.18 104.656 292.8 107.255 293.254 109.892C293.659 112.245 293.921 114.61 294.188 116.978C294.359 118.499 294.462 120.014 294.506 121.54C294.577 123.979 294.593 126.418 294.555 128.857C294.515 131.154 293.984 133.397 294.069 135.689C293.519 136.99 293.847 138.467 293.254 139.76C293.399 140.475 293.045 141.128 292.904 141.783C292.759 142.459 292.786 143.199 292.393 143.841C292.213 144.133 292.434 144.56 292.211 144.915C291.984 145.203 291.897 145.578 291.975 145.937C291.476 146.068 291.969 146.492 291.724 146.761C291.459 147.053 291.3 147.425 291.27 147.817C291.252 148.705 290.614 149.416 290.564 150.212C290.514 151.026 290.001 151.634 289.876 152.35L289.857 152.485C289.76 153.436 288.965 154.026 288.786 154.91C288.77 154.988 288.574 155.027 288.459 155.087C288.456 155.292 288.685 155.286 288.814 155.469C288.526 155.642 288.263 155.855 288.033 156.1C287.829 156.456 287.662 156.832 287.535 157.222L288.026 158.155C287.709 158.584 287.715 159.026 287.337 159.339C287.172 159.476 287.162 159.981 287.085 160.318C286.984 160.76 286.365 160.925 286.441 161.301C286.476 161.725 286.366 162.149 286.128 162.502C284.672 165.973 283.201 169.439 281.716 172.898C281.558 173.269 281.55 173.769 281.035 173.912C281.459 174.54 280.611 174.584 280.523 175.008C280.387 175.394 280.167 175.745 279.879 176.037C279.446 176.601 279.28 177.367 278.972 178.034C278.836 178.521 278.565 178.959 278.192 179.299C277.818 179.571 277.763 180.151 277.443 180.569C277.008 181.067 276.642 181.62 276.354 182.214C276.221 182.654 275.967 183.048 275.621 183.351C275.32 183.585 275.425 184.199 274.898 184.322C274.618 185.107 274.022 185.671 273.54 186.317L273.451 186.439C272.253 188.108 270.956 189.703 269.567 191.216C268.409 192.492 267.274 193.787 266.104 195.052C265.724 195.459 265.326 195.862 264.92 196.241C263.496 197.647 261.995 198.974 260.424 200.214C259 201.276 257.622 202.404 256.147 203.407C255.363 203.94 254.674 204.643 253.902 205.22C252.082 206.583 250.229 207.894 248.309 209.11C246.668 210.247 244.921 211.221 243.092 212.021C242.599 212.213 242.163 212.546 241.681 212.771C241.108 212.966 240.551 213.203 240.012 213.477C239.367 213.901 238.629 214.113 237.985 214.497C237.485 214.796 236.829 214.46 236.4 215.079C236.087 215.529 235.271 215.2 234.885 215.723C234.098 215.611 233.6 216.305 232.845 216.429L232.746 216.442C231.961 216.515 231.216 217.007 230.454 217.315C229.709 217.668 228.942 217.971 228.156 218.221C226.699 218.592 225.371 219.314 223.941 219.71C222.578 220.087 221.291 220.764 219.861 220.856C219.523 220.877 219.533 221.174 219.288 221.257C219.034 221.344 218.794 221.215 218.559 221.325C217.591 221.739 216.592 222.075 215.571 222.329C214.136 222.738 212.685 223.107 211.256 223.526C209.037 224.141 206.787 224.638 204.515 225.016C203.039 225.285 201.554 225.502 200.073 225.734L198.008 226.06C196.976 226.222 195.943 226.38 194.908 226.52C193.592 226.697 192.266 226.785 190.948 226.946C189.905 227.072 188.864 227.243 187.826 227.412C186.39 227.647 184.943 227.832 183.51 228.057C181.479 228.365 179.432 228.56 177.379 228.639C176.34 228.71 175.298 228.715 174.258 228.653C173.679 228.603 173.097 228.589 172.517 228.611L172.227 228.626C170.876 228.717 169.584 228.443 168.267 228.33C167.862 228.294 167.488 228.172 167.109 228.098L166.947 228.07C166.62 228.021 166.306 227.948 165.989 227.88L165.75 227.829C164.624 227.6 163.537 227.175 162.381 227.093L162.163 227.082C162.08 227.082 161.999 227.062 161.925 227.025C160.796 226.386 159.468 226.338 158.297 225.801L158.092 225.701C157.006 225.136 155.702 225.143 154.632 224.497C153.813 224.63 153.204 224.013 152.475 223.881C150.593 223.54 148.944 222.607 147.21 221.894L146.983 221.803C145.173 221.086 143.397 220.285 141.601 219.532C140.372 218.928 139.194 218.225 138.08 217.43C137.846 217.208 137.585 217.018 137.303 216.863C136.787 216.693 136.368 216.312 136.148 215.815Z" fill="url(#paint0_linear)"/>
</g>
<path fill-rule="evenodd" clip-rule="evenodd" d="M162.367 114.395C161.1 119.602 157.941 123.662 153.041 126.948C154.293 123.317 155.911 119.068 157.163 115.437C155.956 117.914 153.782 120.344 151.361 121.664C152.886 116.2 156.084 111.855 156.084 104.928C156.084 102.437 153.383 100.514 153.489 99.5006C153.596 98.4759 154.142 97.5592 154.566 96.6203C156.941 91.3663 163.221 116.549 162.367 114.395Z" fill="white"/>
<path fill-rule="evenodd" clip-rule="evenodd" d="M259.185 68.8922C259.127 68.8862 259.069 68.8792 259.011 68.8712C259.08 68.7899 259.137 68.7953 259.185 68.8922ZM220.856 147.119C220.616 147.325 220.376 147.531 220.137 147.735C219.939 147.735 219.15 146.397 218.053 144.536C217.042 142.822 215.771 140.665 214.459 138.702C213.313 136.987 212.059 135.442 211.16 134.333C210.343 133.325 209.818 132.679 209.935 132.595C212.465 130.774 215.104 129.082 217.74 127.392C221.999 124.661 226.253 121.933 230.041 118.667C240.157 109.943 247.197 98.9855 251.412 89.5829C254.967 81.6512 256.885 75.3826 257.955 71.8861C258.481 70.1674 258.801 69.1185 259.011 68.8712C256.8 68.5675 254.835 66.8645 254.238 64.7104C253.626 62.4999 254.494 59.9558 256.329 58.5801C258.382 57.0419 259.05 54.2758 259.255 51.7196C259.297 51.1927 259.327 50.6611 259.357 50.1287C259.471 48.0782 259.586 46.0156 260.432 44.1637C260.763 43.4395 261.332 42.6851 262.128 42.6671C263.399 42.6385 263.855 44.3187 263.906 45.5887L264.134 51.2821C264.67 50.3281 266.244 50.5651 266.888 51.4501C267.532 52.335 267.517 53.521 267.475 54.6144C267.774 52.1874 268.745 49.8467 270.25 47.9192C270.722 47.3143 271.433 46.6928 272.165 46.9245C272.938 47.1693 273.129 48.1613 273.155 48.972C273.387 56.0065 271.281 63.0983 267.248 68.8667C266.469 69.9799 266.048 71.2695 265.769 72.6082C265.872 73.5462 265.918 74.5575 265.804 75.4013C264.504 85.0294 262.343 94.541 259.354 103.785C257.576 109.285 255.454 114.785 251.886 119.333C250.005 121.732 247.759 123.817 245.514 125.879C238.633 132.199 230.273 139.354 222.873 145.686C221.87 146.544 220.886 147.387 219.925 148.21C219.874 148.21 220.21 147.83 220.856 147.119Z" fill="white"/>
<path d="M146.097 178.894C146.679 180.551 148.143 182.667 148.143 182.667C148.143 182.667 137.954 197.061 134.073 205.285C130.466 212.928 126.824 230.625 115.648 220C120.97 204.943 126.329 189.805 134.073 175.835C137.595 169.481 140.672 167.226 140.672 167.226C140.672 167.226 144.06 173.1 146.097 178.894Z" fill="white"/>
<path fill-rule="evenodd" clip-rule="evenodd" d="M157.26 93.491C156.506 94.1372 157.155 95.4001 157.981 95.9512C158.808 96.5023 159.882 96.9198 160.166 97.8712C158.905 97.9483 157.768 96.8829 156.513 97.0238C155.126 97.1795 154.308 98.8324 154.574 100.201C154.841 101.569 155.864 102.657 156.922 103.567C158.57 104.985 160.413 106.177 162.383 107.098C163.104 107.435 163.905 108.455 163.192 108.811C162.53 108.432 161.868 108.054 161.205 107.675C162.311 111.113 163.453 114.621 165.613 117.517C167.774 120.413 171.177 122.638 174.787 122.429C175.483 122.389 176.49 122.539 176.424 123.232C175.956 123.34 175.488 123.449 175.02 123.557C176.466 124.787 178.529 125.087 180.402 124.771C182.274 124.454 184.004 123.591 185.682 122.702C189.048 120.92 192.407 118.933 194.853 116.017C196.531 114.015 197.716 111.647 198.691 109.224C201.777 101.559 202.885 93.1096 201.88 84.9093C201.83 84.4973 201.58 83.9518 201.185 84.0798C191.607 87.1813 180.809 86.3275 171.839 81.7594C169.898 80.7711 167.969 79.5467 166.849 77.6806C171.001 80.2371 175.528 82.1859 180.24 83.4453C184.859 84.6799 189.712 85.2511 194.44 84.5403C199.169 83.8295 203.772 81.7676 207.063 78.3036C211.549 73.5824 213.194 66.6622 212.553 60.1855C211.912 53.7088 209.209 47.6025 205.951 41.9663C205.015 45.814 201.695 48.7527 197.987 50.1558C194.28 51.5589 190.211 51.6431 186.251 51.4494C182.291 51.2556 178.318 50.802 174.372 51.1936C171.929 51.4361 169.357 52.0945 167.715 53.9164C165.214 56.6899 165.765 60.958 166.47 64.6234C165.371 64.0435 164.765 62.6639 165.082 61.4637C160.694 62.2721 157.5 66.3537 156.378 70.667C155.256 74.9803 155.8 79.5293 156.352 83.9516C156.586 85.8286 156.82 87.7057 157.054 89.5828C157.197 90.7289 157.377 91.9574 158.168 92.8003C160.657 95.4533 162.399 98.7976 163.145 102.356C165.827 97.7761 167.692 92.7218 168.628 87.4999C168.839 86.3239 169.021 85.0943 169.698 84.1095C170.376 83.1248 171.728 82.4815 172.798 83.016C168.534 89.5174 168.343 98.3311 163.072 104.049C162.208 101.878 161.344 99.7058 160.479 97.534C159.82 95.877 158.963 94.0287 157.26 93.491Z" fill="white"/>
<path fill-rule="evenodd" clip-rule="evenodd" d="M220.061 158.038C216.678 160.455 213.192 162.727 209.615 164.847C208.83 170.317 207.004 180.83 205.597 189.691C204.957 193.721 204.957 197.15 204.409 199.968C203.296 205.699 198.622 208.746 193.002 208.468C160.115 206.844 159.625 224.28 158.363 213.017C157.102 201.754 156.532 190.414 156.656 179.082C154.117 180.952 151.578 182.823 149.039 184.694C148.222 183.469 141.085 171.953 141.447 167.757C141.843 163.181 146.918 156.538 152.712 151.308C156.322 148.05 160.542 145.676 163.074 143.663C164.098 142.849 169.43 138.027 170.667 133.318C171.961 128.389 169.189 123.57 171.611 122.925C173.523 122.416 174.745 123.926 176.892 124.888C178.543 125.627 181.267 124.313 181.906 125.358C182.544 126.403 181.697 130.532 183.315 132.119C186.312 135.061 192.5 135.554 193.002 135.5C199.699 134.79 206.708 131.742 208.729 132.5C215.676 135.106 220.953 148.192 222.082 152.681C222.339 153.706 222.551 154.812 222.168 155.796C221.791 156.766 220.908 157.433 220.061 158.038Z" fill="white"/>
<path fill-rule="evenodd" clip-rule="evenodd" d="M211.95 134.776C211.742 134.508 211.54 134.271 211.35 134.063C210.431 133.055 209.778 132.707 209.934 132.595C216.553 127.831 223.908 123.955 230.04 118.667C240.156 109.943 247.196 98.9855 251.411 89.5828C254.637 82.3872 250.05 98.8951 239.359 114.778C230.566 127.84 212.31 135.24 211.95 134.776Z" fill="#E7EAEE"/>
<path fill-rule="evenodd" clip-rule="evenodd" d="M220.061 158.038C220.908 157.433 221.791 156.766 222.168 155.797C222.551 154.812 222.339 153.706 222.082 152.682C220.147 144.982 215.858 137.889 209.935 132.595C234.565 120.383 253.207 96.737 259.315 69.9609C253.989 85.193 246.843 100.044 236.091 112.086C225.339 124.128 210.655 133.197 194.589 134.901C191.015 135.281 187.029 135.168 184.346 132.78C181.663 130.392 181.746 125.043 185.161 123.924C191.585 121.821 196.719 116.618 199.62 110.519C202.521 104.421 203.349 97.4991 202.972 90.7583C202.801 87.6892 202.63 84.0411 205.085 82.1875C211.298 77.4974 214.271 69.3361 213.918 61.5665C213.565 53.7969 210.242 46.4086 205.829 40C204.35 44.5446 200.555 48.2698 195.98 49.6701C192.145 50.8439 188.122 50.4289 184.084 50.0122C182.115 49.8091 180.143 49.6056 178.187 49.5857C172.22 49.5251 165.134 52.4595 164.47 58.3821C164.253 60.3209 162.498 61.4407 160.765 62.5468C160.202 62.9064 159.641 63.2646 159.135 63.6491C154.543 67.1422 154.133 73.8544 154.849 79.5746C154.952 80.3995 155.069 81.2318 155.186 82.0678C155.884 87.029 156.6 92.1241 154.567 96.6205C154.477 96.8197 154.381 97.018 154.286 97.2165C153.93 97.9534 153.574 98.6936 153.49 99.5007C153.248 101.818 155.1 103.37 157.005 104.966C158.016 105.814 159.042 106.674 159.779 107.668C161.598 110.124 161.556 113.574 160.449 116.422C159.341 119.27 157.32 121.652 155.334 123.976C157.454 119.8 158.544 115.108 158.482 110.426L152.833 119.9C154.813 115.159 155.932 110.061 156.118 104.928L151.543 121.322C153.964 120.002 155.957 117.915 157.163 115.438L153.408 126.33C157.665 123.558 160.897 119.253 162.368 114.395C163.222 116.549 164.673 118.465 166.516 119.872C172.911 124.753 172.421 136.107 165.629 140.42C152.136 148.989 141.817 161.864 134.073 175.835C126.329 189.805 120.97 204.943 115.648 220C123.316 202.286 131.641 184.856 140.599 167.757C142.687 173.726 145.53 179.431 149.039 184.694L156.656 179.082C156.532 190.414 157.102 201.754 158.363 213.017C159.862 213.176 160.217 210.982 159.981 209.496C157.719 195.263 157.379 180.728 158.974 166.406C157.469 167.365 157.44 169.366 157.413 171.238C157.408 171.592 157.403 171.942 157.388 172.28C157.181 176.921 153.715 181.235 149.223 182.441C146.906 179.511 144.553 176.519 143.235 173.025C141.916 169.531 141.773 165.391 143.77 162.234C149.134 153.757 156.858 146.786 165.844 142.312C169.842 146.192 174.582 149.307 179.733 151.437C181.37 152.114 183.256 152.688 184.869 151.955C185.983 151.449 186.748 150.407 187.412 149.38C189.929 145.489 191.764 141.158 192.808 136.644C197.634 135.959 202.413 134.938 207.098 133.591C208.994 133.046 210.815 134.584 212.096 136.082C216.071 140.728 219.011 146.252 220.646 152.14C220.979 153.341 221.251 154.66 220.746 155.799C220.341 156.715 219.5 157.354 218.682 157.933C215.62 160.099 212.382 162.016 209.01 163.66C209.366 160.004 208.431 156.236 206.408 153.168C209.596 161.718 207.911 170.788 206.208 179.951C204.907 186.951 203.596 194.005 204.439 200.924L209.615 164.847C213.192 162.727 216.678 160.455 220.061 158.038ZM157.261 93.491C158.963 94.0287 159.82 95.877 160.48 97.534L163.073 104.049C166.013 100.86 167.372 96.7068 168.74 92.5294C169.824 89.2179 170.913 85.8909 172.799 83.016C171.729 82.4815 170.376 83.1248 169.699 84.1095C169.067 85.0283 168.866 86.1602 168.671 87.2629C168.657 87.342 168.643 87.4211 168.629 87.4999C167.693 92.7218 165.827 97.7761 163.146 102.356C162.399 98.7976 160.657 95.4533 158.169 92.8003C157.378 91.9574 157.198 90.7289 157.055 89.5828L156.352 83.9516C155.801 79.5293 155.256 74.9802 156.378 70.6669C157.5 66.3536 160.694 62.2721 165.083 61.4637C164.765 62.6639 165.371 64.0435 166.47 64.6233C165.765 60.958 165.214 56.6899 167.715 53.9164C169.358 52.0945 171.93 51.4361 174.373 51.1936C177.391 50.894 180.425 51.0891 183.458 51.284C184.389 51.3439 185.321 51.4038 186.251 51.4493C190.211 51.6431 194.281 51.5589 197.988 50.1558C201.695 48.7527 205.016 45.814 205.951 41.9663C209.21 47.6025 211.912 53.7088 212.553 60.1855C213.194 66.6622 211.549 73.5823 207.064 78.3036C203.773 81.7676 199.169 83.8295 194.441 84.5403C189.713 85.251 184.859 84.6799 180.24 83.4453C175.528 82.1858 171.002 80.2371 166.85 77.6805C167.97 79.5467 169.899 80.7711 171.84 81.7594C180.81 86.3275 191.607 87.1813 201.185 84.0798C201.581 83.9518 201.83 84.4973 201.881 84.9093C202.886 93.1095 201.778 101.559 198.692 109.224C197.716 111.647 196.532 114.015 194.854 116.017C192.408 118.933 189.048 120.92 185.683 122.702C184.005 123.591 182.275 124.454 180.402 124.771C178.53 125.087 176.467 124.787 175.02 123.557L176.425 123.232C176.49 122.539 175.483 122.389 174.788 122.429C171.177 122.638 167.774 120.413 165.614 117.517C163.454 114.621 162.312 111.113 161.206 107.675L163.193 108.811C163.905 108.454 163.105 107.435 162.384 107.098C160.413 106.177 158.57 104.985 156.922 103.567C155.865 102.657 154.841 101.569 154.575 100.201C154.308 98.8324 155.127 97.1794 156.514 97.0237C157.157 96.9516 157.769 97.1963 158.383 97.4416C158.967 97.6749 159.552 97.9088 160.166 97.8712C159.944 97.1275 159.24 96.7101 158.548 96.3001C158.355 96.1855 158.162 96.0715 157.982 95.9512C157.155 95.4001 156.506 94.1372 157.261 93.491ZM174.368 124.449C176.178 125.81 178.601 126.321 180.808 125.808C179.777 128.431 181.074 131.532 183.243 133.334C185.411 135.136 188.262 135.879 191.048 136.324C190.966 141.265 189.184 146.162 186.071 150.003C185.156 151.132 183.388 150.887 182 150.455C176.503 148.744 171.417 145.731 167.279 141.732C167.636 141.214 168.206 140.922 168.779 140.629C169.305 140.359 169.834 140.089 170.2 139.64C170.532 139.233 170.696 138.719 170.842 138.215C172.27 133.268 172.535 127.99 171.611 122.925C172.481 122.939 173.192 123.511 173.886 124.07C174.047 124.2 174.207 124.328 174.368 124.449ZM258.569 59.8124C257.144 60.6145 255.537 61.7049 255.502 63.3388C255.471 64.7341 256.547 65.6695 257.657 66.6339C258.44 67.3148 259.24 68.0101 259.679 68.8921C257.397 68.6563 255.344 66.9209 254.732 64.7104C254.12 62.4998 254.988 59.9558 256.823 58.58C258.876 57.0419 259.544 54.2758 259.749 51.7196C259.791 51.1927 259.821 50.6611 259.851 50.1287C259.965 48.0781 260.08 46.0155 260.926 44.1637C261.257 43.4394 261.826 42.685 262.622 42.667C263.893 42.6384 264.349 44.3186 264.4 45.5887L264.628 51.282C265.164 50.328 266.738 50.565 267.382 51.45C268.026 52.3349 268.011 53.5209 267.969 54.6143C268.268 52.1874 269.239 49.8466 270.744 47.9192C271.216 47.3142 271.927 46.6927 272.659 46.9244C273.432 47.1693 273.623 48.1612 273.649 48.972C273.881 56.0064 271.775 63.0983 267.742 68.8667C266.456 70.7047 266.144 73.0235 265.844 75.2504L265.823 75.4013C264.523 85.0293 262.362 94.5409 259.373 103.785C257.595 109.285 255.473 114.785 251.906 119.333C250.024 121.732 247.778 123.817 245.533 125.879C237.719 133.055 229.782 140.097 221.727 147C221.042 147 221.356 145.889 221.874 145.441C223.622 143.93 225.381 142.429 227.141 140.928L227.143 140.926C234.539 134.618 241.94 128.305 248.497 121.141C250.408 119.054 252.254 116.883 253.699 114.45C255.091 112.108 256.091 109.558 257.021 106.997C261.11 95.7414 263.96 84.0367 265.505 72.1617C265.616 71.3093 265.707 70.3861 265.277 69.6415C270.639 63.8666 273.305 55.6874 272.376 47.863C270.288 48.8241 269.833 51.1565 269.365 53.558C268.972 55.5706 268.571 57.6318 267.19 58.9751L266.984 53.2903C266.964 52.7446 266.88 52.0937 266.389 51.8534C265.58 51.4567 264.881 52.5982 264.799 53.4955C264.717 54.3929 264.559 55.5729 263.67 55.7214C263.962 51.585 263.716 47.4111 262.941 43.3376C260.951 45.1909 260.904 48.216 260.861 50.9727C260.859 51.1428 260.856 51.3119 260.853 51.4796C260.8 54.3654 260.051 57.8093 257.343 58.8119C257.996 59.3196 258.731 58.8091 259.483 58.2877C259.807 58.0624 260.134 57.8352 260.459 57.687C262.262 56.8649 264.327 59.137 263.823 61.0527C263.319 62.9685 261.17 64.0583 259.188 64.05C259.604 63.3578 260.416 62.9385 261.195 62.5356C262.224 62.0042 263.197 61.5013 263.136 60.438C263.082 59.5134 262.081 58.8783 261.155 58.8844C260.228 58.8905 259.376 59.3578 258.569 59.8124ZM172.982 93.0463C173.006 92.7062 173.499 92.6561 173.854 92.6703C174.949 92.7139 176.02 92.3927 177.059 92.0576L177.206 92.0101C178.196 91.6896 179.201 91.3645 180.244 91.3352C181.34 91.3043 182.508 91.6561 183.164 92.4963C183.251 92.6071 183.33 92.738 183.312 92.875C183.279 93.1093 182.969 93.2218 182.73 93.1627C182.544 93.1166 182.389 93.0035 182.234 92.8909C182.211 92.8738 182.187 92.8568 182.164 92.84C182.143 92.8253 182.123 92.8108 182.102 92.7966C180.889 91.969 179.212 92.3261 177.817 92.8254C177.711 92.8631 177.605 92.9016 177.499 92.9403C176.196 93.4123 174.816 93.912 173.498 93.5329C173.247 93.4609 172.964 93.2961 172.982 93.0463ZM185.38 109.315C186.212 109.354 187.115 109.374 187.794 108.889C188.742 108.211 188.859 106.851 188.754 105.687C188.692 104.998 188.583 104.313 188.474 103.629L188.474 103.628L188.474 103.628C188.324 102.687 188.174 101.747 188.146 100.796C188.097 99.1524 188.471 97.3949 189.643 96.2478C189.707 95.8488 189.182 95.5631 188.804 95.7023C188.427 95.8415 188.203 96.2263 188.038 96.5951C186.915 99.114 187.192 101.966 187.463 104.747C187.504 105.17 187.545 105.591 187.581 106.009C187.639 106.685 187.632 107.481 187.096 107.893C186.697 108.199 186.174 108.166 185.656 108.132L185.655 108.132C185.485 108.121 185.316 108.111 185.151 108.112C184.806 108.114 184.387 108.244 184.323 108.585C184.233 109.067 184.893 109.292 185.38 109.315ZM183.268 96.0049C183.66 95.9492 183.993 96.3763 183.981 96.7792C183.969 97.1821 183.715 97.5349 183.435 97.8193C182.419 98.8493 180.949 99.3251 179.517 99.3332C178.084 99.3413 176.679 98.9201 175.355 98.3611C175.069 98.2402 174.777 98.1068 174.565 97.8765C174.354 97.6462 174.24 97.2936 174.369 97.0069C174.499 96.7201 174.922 96.5919 175.137 96.8193C176.113 97.8519 177.63 98.1188 179.036 98.1428C180.309 98.1646 181.76 97.9319 182.462 96.8504C182.501 96.7897 182.54 96.7255 182.578 96.6606C182.757 96.3626 182.943 96.0512 183.268 96.0049ZM200.238 97.5784C198.652 98.9542 196.199 99.3833 194.188 98.6367C193.632 98.4304 193.088 98.1217 192.791 97.6372C192.675 97.4477 192.601 97.2158 192.684 97.0119C192.819 96.6822 193.302 96.5952 193.655 96.7229C193.921 96.8192 194.136 96.9978 194.351 97.176C194.421 97.2341 194.491 97.2921 194.563 97.3472C195.829 98.3198 197.82 98.3478 199.117 97.4111L199.152 97.3855L199.199 97.3506L199.2 97.3503C199.407 97.1973 199.623 97.0374 199.883 97.0334C200.177 97.0288 200.454 97.3913 200.238 97.5784ZM147.144 182.667C146.542 183.024 146.113 183.605 145.706 184.174C141.528 190.007 137.84 196.189 134.692 202.633C131.512 209.143 128.888 215.907 126.269 222.661C126.047 223.233 125.829 223.896 126.124 224.435C126.532 225.181 127.706 225.145 128.344 224.582C128.981 224.018 129.222 223.144 129.442 222.324C133.102 208.645 139.183 195.646 147.018 183.837C147.257 183.477 147.479 182.942 147.144 182.667ZM181.587 117.6C181.617 118.275 180.815 118.661 180.153 118.667C179.433 118.673 178.661 118.408 178.271 117.791C177.88 117.173 178.067 116.184 178.742 115.932L174.074 114.133C173.682 113.981 173.266 113.827 172.852 113.898C172.756 113.914 172.662 113.942 172.568 113.97C172.41 114.018 172.252 114.065 172.089 114.055C171.828 114.038 171.558 113.766 171.677 113.529C171.722 113.44 171.808 113.383 171.891 113.33L173.603 112.233C173.797 112.109 174.011 111.979 174.239 112.003C174.467 112.027 174.677 112.29 174.563 112.494C174.227 113.097 175.065 113.658 175.723 113.832C177.933 114.418 180.161 115.007 182.441 115.135C184.72 115.263 187.084 114.9 189.04 113.696C189.64 113.327 190.386 112.871 190.981 113.25C190.752 113.92 190.077 114.292 189.418 114.656C188.68 115.063 187.961 115.459 187.907 116.253C187.851 117.073 187.133 117.789 186.33 117.828C185.527 117.866 184.746 117.221 184.616 116.411C184.595 116.283 184.444 116.232 184.319 116.21C183.741 116.108 183.131 116.055 182.581 116.262C182.031 116.469 181.56 117.001 181.587 117.6ZM180.742 116.146C180.485 115.823 179.946 115.872 179.659 116.166C179.371 116.461 179.298 116.915 179.342 117.329C179.682 117.524 180.138 117.482 180.439 117.228C180.74 116.974 180.866 116.524 180.742 116.146ZM186.855 116.389C186.897 116.226 187.004 116.08 187.146 115.993C186.969 115.68 186.505 115.803 186.189 115.965C186.021 116.052 185.832 116.167 185.809 116.357C185.781 116.591 186.048 116.771 186.277 116.743C186.506 116.715 186.694 116.551 186.866 116.395L186.855 116.389ZM196.506 94.03C196.724 94.0861 196.942 94.1422 197.164 94.1832C198.315 94.3963 199.557 94.1828 200.537 93.6037C200.798 93.4495 200.556 93.0471 200.244 93.0172C200.004 92.994 199.78 93.0924 199.559 93.1898C199.494 93.2183 199.429 93.2468 199.364 93.2721C198.528 93.5978 197.595 93.4104 196.667 93.2238C195.698 93.0292 194.734 92.8354 193.889 93.2264C193.584 93.3675 193.299 93.6232 193.315 93.9293C193.33 94.2354 193.814 94.4718 194.038 94.2398C194.398 93.8674 195.011 93.7726 195.559 93.8335C195.881 93.8693 196.193 93.9496 196.506 94.03Z" fill="#00160A"/>
<path fill-rule="evenodd" clip-rule="evenodd" d="M180.807 125.808C180.16 125.959 179.494 126.021 178.83 126C177.231 125.948 175.415 131.488 178.83 137.806C182.185 144.015 188.506 146.499 189.323 144.533C190.403 141.936 191.001 139.137 191.047 136.324C188.262 135.879 185.411 135.136 183.243 133.334C181.074 131.532 179.777 128.431 180.807 125.808Z" fill="#E7EAEE"/>
<circle cx="168.667" cy="109.667" r="2" fill="#FFB61D"/>
<circle cx="194" cy="110.333" r="2" fill="#FFB61D"/>
<path fill-rule="evenodd" clip-rule="evenodd" d="M172.372 182.152C173.082 181.352 174.547 181.712 175.656 181.972C178.61 182.663 182.178 181.782 184.348 179.825C186.532 177.855 190.612 180.102 193.49 178.865C195.226 178.12 196.614 176.132 198.378 176.611C200.541 177.2 203.202 176.664 204.948 175.312L204.943 174.919L204.94 174.05C203.204 175.537 200.402 176.149 198.142 175.534C196.379 175.055 194.99 177.043 193.255 177.789C190.377 179.026 186.297 176.778 184.113 178.748C181.986 180.666 178.517 181.551 175.599 180.934L175.016 180.801C173.977 180.566 172.763 180.369 172.137 181.075C170.162 183.301 166.211 184.27 163.283 183.248L163.657 184.372L163.83 184.425C166.721 185.278 170.466 184.299 172.372 182.152ZM169.641 169.08C170.393 168.325 171.827 168.707 172.914 168.983C175.809 169.719 179.406 168.953 181.677 167.115C183.962 165.265 187.884 167.529 190.817 166.403C192.584 165.725 194.081 163.839 195.805 164.343C197.92 164.961 205.671 160.988 205.671 160.988C203.704 160.963 197.974 163.92 195.789 163.342L195.634 163.299C193.91 162.795 192.414 164.68 190.646 165.359C187.713 166.485 183.791 164.221 181.506 166.07C179.28 167.871 175.782 168.644 172.918 167.981L172.347 167.839C171.328 167.588 170.133 167.369 169.47 168.035C167.377 170.136 161.597 169.313 160.545 169.925C160.545 169.925 167.621 171.107 169.641 169.08Z" fill="#FFB61D"/>
<path fill-rule="evenodd" clip-rule="evenodd" d="M171.772 206.94C172.482 206.141 173.947 206.501 175.056 206.76C178.01 207.452 181.578 206.571 183.748 204.613C185.932 202.643 190.012 204.891 192.89 203.654C194.625 202.908 196.014 200.92 197.777 201.4C199.941 201.988 202.601 201.453 204.347 200.101L204.343 199.707L204.339 198.839C202.604 200.326 199.802 200.938 197.542 200.323C195.779 199.843 194.39 201.831 192.655 202.577C189.776 203.814 185.697 201.566 183.513 203.536C181.386 205.455 177.917 206.34 174.998 205.723L174.416 205.59C173.377 205.355 172.163 205.158 171.537 205.863C169.561 208.089 165.611 209.059 162.683 208.037L163.057 209.16L163.23 209.214C166.121 210.066 169.866 209.088 171.772 206.94ZM169.041 193.868C169.793 193.113 171.227 193.495 172.314 193.772C175.209 194.508 178.805 193.741 181.077 191.903C183.362 190.054 187.284 192.318 190.217 191.192C191.984 190.513 193.48 188.628 195.205 189.132C197.32 189.75 205.071 185.776 205.071 185.776C203.104 185.751 197.374 188.708 195.189 188.13L195.034 188.087C193.31 187.583 191.813 189.469 190.046 190.148C187.113 191.274 183.191 189.01 180.906 190.859C178.68 192.66 175.182 193.433 172.318 192.77L171.747 192.627C170.728 192.377 169.533 192.158 168.87 192.824C166.777 194.925 160.997 194.102 159.945 194.714C159.945 194.714 167.021 195.896 169.041 193.868Z" fill="#FFB61D"/>
<path fill-rule="evenodd" clip-rule="evenodd" d="M165.715 65.7746C167.642 66.9616 174.709 53.9164 185.231 53.9164C207.532 53.9164 209.209 47.6025 205.95 41.9663C205.015 45.814 201.695 48.7527 197.987 50.1558C194.28 51.5589 190.21 51.6431 186.25 51.4494C182.29 51.2556 178.318 50.802 174.372 51.1936C171.929 51.4361 169.357 52.0945 167.714 53.9164C165.213 56.6899 165.765 60.9581 166.47 64.6234C165.371 64.0435 164.765 62.6639 165.082 61.4637C160.693 62.2721 157.5 66.3537 156.378 70.667C155.256 74.9803 155.8 79.5293 156.352 83.9516C156.586 85.8287 156.82 87.7057 157.054 89.5828C157.054 89.5828 158.053 74.4615 159.408 70.667C161.253 65.5013 166.145 66.4918 165.715 65.7746Z" fill="#E7EAEE"/>
<defs>
<filter id="filter0_d" x="60.5913" y="25.5" width="253.983" height="239.196" filterUnits="userSpaceOnUse" color-interpolation-filters="sRGB">
<feFlood flood-opacity="0" result="BackgroundImageFix"/>
<feColorMatrix in="SourceAlpha" type="matrix" values="0 0 0 0 0 0 0 0 0 0 0 0 0 0 0 0 0 0 127 0" result="hardAlpha"/>
<feOffset dy="16"/>
<feGaussianBlur stdDeviation="10"/>
<feColorMatrix type="matrix" values="0 0 0 0 0.603922 0 0 0 0 0.666667 0 0 0 0 0.811765 0 0 0 0.2 0"/>
<feBlend mode="normal" in2="BackgroundImageFix" result="effect1_dropShadow"/>
<feBlend mode="normal" in="SourceGraphic" in2="effect1_dropShadow" result="shape"/>
</filter>
<linearGradient id="paint0_linear" x1="86.1366" y1="42.0281" x2="278.532" y2="229.563" gradientUnits="userSpaceOnUse">
<stop offset="0.0552082" stop-color="#0080FF"/>
<stop offset="0.940625" stop-color="#0059B2"/>
</linearGradient>
</defs>
</svg>
