<svg width="250" height="250" viewBox="0 0 250 250" fill="none" xmlns="http://www.w3.org/2000/svg">
<path fill-rule="evenodd" clip-rule="evenodd" d="M172.428 31.3767C133.285 24.9551 137.276 89.2356 85.1924 80.4375C31.9201 71.4386 15.9981 134.921 31.9201 169.986C49.1169 207.859 159.232 228.218 198.626 200.3C242.964 168.877 245.872 43.4255 172.428 31.3767Z" fill="url(#paint0_linear)"/>
<path fill-rule="evenodd" clip-rule="evenodd" d="M85.4953 100.386C85.4953 100.386 89.9899 110.186 93.8935 114.729C99.4332 121.176 107.344 126.532 110.314 131.56C117.372 143.507 114.242 149.351 114.242 149.351C114.242 149.351 110.513 136.472 105.168 130.182C101.089 125.381 93.0768 120.056 90.3986 116.113C85.5743 109.01 83.082 102.206 83.082 102.206L85.4953 100.386Z" fill="white"/>
<path d="M140.985 204.694C122.557 205.555 104.141 206.697 85.7472 208.119C83.3882 208.352 81.6431 208.387 81.7363 208.637C80.078 208.532 77.0802 207.629 75.3376 208.352C76.6503 208.656 79.1318 209.817 79.2792 211.156C61.921 212.157 44.4666 211.482 27.2378 209.142C44.1068 210.292 61.0274 210.686 77.9317 210.324C75.7533 208.862 72.9517 208.364 70.4031 208.987C73.6882 207.399 77.4955 206.914 81.0737 207.629C78.3434 204.575 76.534 200.708 75.9385 196.655C78.6659 198.52 80.8472 201.174 82.1489 204.211C82.0244 198.503 86.064 192.956 91.5353 191.323C88.0412 195.773 86.1943 201.487 86.4228 207.14C103.891 205.648 121.397 204.604 138.919 204.011C138.054 203.325 137.466 202.299 137.31 201.206C138.167 200.475 139.432 200.26 140.482 200.667C141.253 194.564 145.499 189.022 151.19 186.689C148.02 190.27 145.818 194.699 144.876 199.388C145.854 198.795 147.092 198.652 148.18 199.005C147.87 200.327 147.094 201.535 146.021 202.367C167.716 197.409 190.49 205.857 212.528 202.758C201.403 206.356 189.383 203.566 177.753 202.356C160.73 200.667 144.38 204.011 140.985 204.694Z" fill="white"/>
<path d="M186.89 72.7321C187.081 70.9163 188.645 69.5553 190.248 68.6817C193.148 67.1018 196.562 66.4853 199.831 66.9512C201.311 67.1622 202.44 65.7518 203.498 64.6948C206.243 61.9516 210.438 60.9501 214.267 61.5838C218.095 62.2175 221.565 64.3325 224.359 67.0256C227.153 69.7188 229.334 72.9775 231.353 76.292C231.776 76.9873 232.759 77.0058 233.572 76.9659C235.326 76.8799 237.173 76.9283 238.705 77.7865C240.238 78.6447 241.315 80.5497 240.695 82.1932C240.404 82.9628 239.788 83.5764 239.083 84.0011C237.678 84.8483 235.974 84.9941 234.337 85.119C223.426 85.9522 212.514 86.7854 201.602 87.6186C198.617 87.8466 195.584 88.0719 192.652 87.4645C189.72 86.8571 186.85 85.2945 185.349 82.7037C183.848 80.1128 184.099 76.4222 186.402 74.5082C186.888 74.1038 186.824 73.3612 186.89 72.7321" fill="white"/>
<path d="M150.367 89.4502C152.749 92.186 165.042 91.228 165.44 96.233C164.032 96.6193 162.624 97.0056 161.215 97.3919C158.925 98.0199 156.61 98.6584 154.538 99.8189C153.566 100.363 152.411 101.037 151.422 100.523C147.599 98.5362 143.153 97.9188 138.865 98.3289C134.576 98.739 130.428 100.136 126.536 101.984C124.504 102.949 122.214 104.063 120.111 103.265C112.433 100.354 103.674 100.405 96.0298 103.405C94.6746 103.937 93.1638 103.347 91.83 102.763C90.3875 102.132 88.945 101.501 87.5024 100.87C89.3629 98.7418 97.3163 95.7815 98.9378 93.7221C99.2228 93.3602 109.843 85.9957 121.488 89.3232C122.01 89.0783 140.122 85.9957 150.367 89.4502Z" fill="white"/>
<path fill-rule="evenodd" clip-rule="evenodd" d="M102.765 124.23C96.0124 117.811 88.2164 111.314 86.3979 102.177C89.7355 110.749 97.1468 116.92 103.647 123.429C110.147 129.937 116.304 138.056 115.902 147.246C126.53 144.926 137.544 144.382 148.349 145.644C149.457 140.655 152.681 136.456 155.21 132.017C161.482 121.012 163.602 108.2 165.617 95.6944C166.126 92.5328 162.255 90.6587 159.152 89.868C156.053 89.0783 152.953 88.2885 149.854 87.4988C144.029 86.0145 137.994 84.5198 132.069 85.5347C128.063 86.2209 124.106 88.0465 120.1 87.363C113.722 86.275 106.955 87.6528 101.51 91.1481C98.7729 92.9053 96.3404 95.1831 93.3525 96.4687C87.0641 99.1743 81.5251 103.599 77.4966 109.134C75.3919 98.2465 78.9379 87.1048 83.0837 76.8203C87.7182 65.3236 93.5358 53.6914 103.507 46.3275C118.126 35.531 137.187 37.6324 152.394 47.5832C167.602 57.5339 176.894 73.9429 179.897 91.8669C180.246 93.9517 180.494 96.208 179.513 98.0802C178.531 99.9523 178.161 101.036 176.561 99.6545C175.196 98.4771 173.745 97.256 171.975 96.9171C170.205 96.5781 168.058 97.4979 167.715 99.2669C165.202 112.223 162.563 125.507 155.581 136.706C153.762 139.622 151.645 142.407 150.489 145.643C149.604 148.12 149.319 150.763 149.04 153.378C148.459 158.827 147.878 164.275 147.297 169.724C147.052 172.021 146.711 174.522 145.038 176.114C143.44 177.635 141.063 177.908 138.866 178.103C131.731 178.737 124.597 179.37 117.462 180.004C116.187 180.117 114.74 180.175 113.808 179.296C113.09 178.619 112.891 177.571 112.75 176.594C111.748 169.662 111.748 162.586 112.751 155.654C114.189 145.709 109.739 135.533 102.728 128.334C99.0748 124.582 94.7667 121.514 91.1193 117.757C87.4719 113.999 84.4192 109.276 84.2003 104.043C86.6822 110.92 91.2557 117.026 97.157 121.342C105.976 127.791 112.259 137.617 114.414 148.328C116.108 139.167 109.518 130.648 102.765 124.23Z" fill="white"/>
<path fill-rule="evenodd" clip-rule="evenodd" d="M84.5169 145.163C83.4468 144.576 83.0527 143.26 82.7713 142.073C81.3908 136.246 80.3816 130.332 79.7519 124.377C79.7118 123.999 79.6935 123.562 79.969 123.299C80.5591 123.995 80.6633 124.967 80.7538 125.875C81.4049 132.402 82.6666 138.869 84.5169 145.163Z" fill="#00160A"/>
<path fill-rule="evenodd" clip-rule="evenodd" d="M169.379 125.316C170.349 122.072 171.064 118.753 171.516 115.398C171.577 114.944 171.748 114.373 172.205 114.337C172.472 114.571 172.446 114.986 172.396 115.336C171.966 118.328 171.352 121.293 170.56 124.209C170.399 124.801 169.949 125.544 169.379 125.316H169.379Z" fill="#00160A"/>
<path fill-rule="evenodd" clip-rule="evenodd" d="M144.663 203.28C145.193 201.843 146.162 200.572 147.407 199.681C146.084 199.762 144.797 200.338 143.855 201.271C144.374 197.204 145.675 193.237 147.666 189.653C143.983 192.676 141.605 197.239 141.238 201.991C140.361 201.479 139.266 201.356 138.297 201.659C139.193 202.671 140.089 203.682 140.985 204.694C122.557 205.555 104.141 206.697 85.7472 208.119C84.7908 203.036 86.0343 197.577 89.098 193.409C85.0552 196.261 82.5596 201.182 82.6483 206.128C80.8458 203.724 79.9477 200.289 77.2407 198.915C77.7198 201.271 78.2729 201.801 81.4526 207.888C81.5826 208.137 81.6431 208.387 81.7363 208.637C80.078 208.532 77.0802 207.629 75.3376 208.352C76.6503 208.656 79.1318 209.817 79.2792 211.156C61.921 212.157 44.4666 211.482 27.2378 209.142C44.1068 210.292 61.0274 210.686 77.9317 210.324C75.7533 208.862 72.9517 208.364 70.4031 208.987C73.6882 207.399 77.4955 206.914 81.0737 207.629C78.3434 204.575 76.534 200.708 75.9385 196.655C78.6659 198.52 80.8472 201.174 82.1489 204.211C82.0244 198.503 86.064 192.956 91.5353 191.323C88.0412 195.773 86.1943 201.487 86.4228 207.14C103.891 205.648 121.397 204.604 138.919 204.011C138.054 203.325 137.466 202.299 137.31 201.206C138.167 200.475 139.432 200.26 140.482 200.667C141.253 194.564 145.499 189.022 151.19 186.689C148.02 190.27 145.818 194.699 144.876 199.388C145.854 198.795 147.092 198.652 148.18 199.005C147.87 200.327 147.094 201.535 146.021 202.367C167.716 197.409 190.49 205.857 212.528 202.758C201.403 206.356 189.383 203.566 177.753 202.356C166.746 201.211 155.589 201.523 144.663 203.28Z" fill="#00160A"/>
<path fill-rule="evenodd" clip-rule="evenodd" d="M154.432 123.955C154.698 124.346 154.615 124.869 154.508 125.329C153.863 128.096 152.728 130.747 151.17 133.122C150.737 132.581 151.135 131.799 151.5 131.21C152.471 129.643 153.184 127.918 153.602 126.123C153.78 125.361 153.923 124.548 154.432 123.955H154.432Z" fill="#00160A"/>
<path fill-rule="evenodd" clip-rule="evenodd" d="M150.279 128.977C149.878 128.631 150.058 127.988 150.25 127.494C150.867 125.91 151.281 124.247 151.48 122.558C151.546 121.998 151.651 121.339 152.156 121.088C152.394 121.303 152.358 121.679 152.303 121.995C151.885 124.394 151.449 126.842 150.279 128.977Z" fill="#00160A"/>
<path fill-rule="evenodd" clip-rule="evenodd" d="M116.924 137.917C117.042 137.812 117.225 137.92 117.334 138.034C117.822 138.545 118.113 139.24 118.134 139.946C117.481 139.596 117.003 138.937 116.871 138.208C116.853 138.107 116.847 137.986 116.924 137.917L116.924 137.917Z" fill="#00160A"/>
<path fill-rule="evenodd" clip-rule="evenodd" d="M168.315 116.497C168.141 119.577 167.437 122.626 166.245 125.471C166.214 125.545 166.181 125.621 166.12 125.673C165.943 125.826 165.645 125.661 165.581 125.436C165.518 125.211 165.608 124.975 165.694 124.757C166.535 122.628 167.094 120.387 167.349 118.112C167.425 117.436 167.639 116.576 168.315 116.497L168.315 116.497Z" fill="#00160A"/>
<path fill-rule="evenodd" clip-rule="evenodd" d="M115.787 132.606C114.641 131.057 113.719 129.342 113.06 127.531C112.975 127.298 113.026 126.905 113.266 126.97C113.356 126.994 113.409 127.084 113.453 127.166C114.448 129.022 115.443 130.877 116.439 132.733C116.388 133.012 115.955 132.834 115.787 132.606H115.787Z" fill="#00160A"/>
<path fill-rule="evenodd" clip-rule="evenodd" d="M83.1575 100.408C82.631 100.135 82.6099 99.4016 82.6731 98.8119C83.851 87.8215 89.2016 77.3295 97.406 69.9224C97.5945 71.3167 96.5183 72.5243 95.5638 73.5582C88.7661 80.922 84.3594 90.4591 83.1575 100.408Z" fill="#00160A"/>
<path fill-rule="evenodd" clip-rule="evenodd" d="M152.127 100.397C152.277 96.7888 151.674 92.8172 150.367 89.4502C152.749 92.186 152.847 96.1666 152.822 99.7938C156.621 97.5341 161.02 96.2929 165.44 96.2331C164.032 96.6194 162.624 97.0057 161.215 97.3919C158.925 98.02 156.61 98.6585 154.538 99.819C153.566 100.364 152.411 101.037 151.422 100.523C147.599 98.5363 143.153 97.9189 138.865 98.329C134.576 98.7391 130.428 100.47 126.536 102.317C124.504 103.282 122.214 104.396 120.111 103.599C112.433 100.687 103.674 100.405 96.0298 103.405C94.6746 103.937 93.1638 103.347 91.83 102.763C90.3875 102.132 88.945 101.501 87.5024 100.87C89.1794 101.222 93.3435 102.72 93.3435 102.72C93.3435 102.72 94.5431 102.865 94.9206 102.404C95.2982 101.943 95.4174 101.331 95.5535 100.751C96.1522 98.1992 97.3163 95.7816 98.9378 93.7222C99.2228 93.3603 99.8328 93.0225 100.06 93.4232C97.8158 96.0242 96.3195 99.263 95.7936 102.658C103.973 99.573 113.306 99.6704 121.418 102.925C122.193 98.4367 122.217 93.8194 121.488 89.3232C122.01 89.0784 122.393 89.8558 122.445 90.43C122.819 94.6116 122.751 98.8325 122.245 103C126.937 100.734 131.802 98.6856 136.947 97.8591C142.092 97.0326 147.583 97.8462 152.127 100.397Z" fill="#00160A"/>
<path fill-rule="evenodd" clip-rule="evenodd" d="M92.4926 91.4372C94.9454 84.4178 98.7687 77.8802 103.684 72.3009C104.044 71.8918 104.473 71.4573 105.018 71.4388C105.563 71.4203 106.074 72.1325 105.69 72.519C100.035 78.2045 95.6238 85.1211 92.8541 92.6466C92.3557 92.6597 92.3281 91.9079 92.4926 91.4372H92.4926Z" fill="#00160A"/>
<path fill-rule="evenodd" clip-rule="evenodd" d="M84.7437 123.046C84.8153 123.133 84.8236 123.255 84.8293 123.368C85.0648 128.043 86.2527 132.611 87.4346 137.14C87.485 137.333 87.2028 137.473 87.0257 137.381C86.8485 137.288 86.7709 137.08 86.7092 136.89C85.3306 132.647 84.4507 128.242 84.0934 123.795C84.0756 123.573 84.0631 123.334 84.1812 123.145C84.2992 122.957 84.6027 122.874 84.7437 123.046H84.7437Z" fill="#00160A"/>
<path fill-rule="evenodd" clip-rule="evenodd" d="M121.674 85.0845C121.182 85.1051 121.021 84.4359 121.028 83.9434C121.103 78.7946 121.177 73.6458 121.252 68.497C121.26 67.9285 121.414 67.188 121.979 67.1255C122.481 67.714 122.471 68.5696 122.433 69.3425C122.18 74.5898 121.927 79.8372 121.674 85.0845Z" fill="#00160A"/>
<path fill-rule="evenodd" clip-rule="evenodd" d="M169.082 92.9639C170.173 91.1926 170.1 88.9636 169.916 86.8914C169.594 83.2617 169.041 79.6525 168.263 76.0927C168.188 75.7514 168.144 75.3215 168.431 75.1229C168.668 74.9587 169.015 75.0721 169.201 75.2929C169.387 75.5136 169.453 75.809 169.51 76.0919C170.403 80.5174 170.809 85.0409 170.72 89.5548C170.687 91.2332 170.412 93.2023 168.938 94.007C168.655 93.7489 168.881 93.2902 169.082 92.9639H169.082Z" fill="#00160A"/>
<path fill-rule="evenodd" clip-rule="evenodd" d="M151.801 81.0353C152.171 82.6811 152.014 84.4415 151.358 85.9957C150.908 85.5117 151.034 84.7526 151.112 84.096C151.415 81.5455 150.522 79.0055 149.424 76.6837C148.326 74.3619 146.999 72.12 146.339 69.6378C146.239 69.2644 146.254 68.7236 146.635 68.6576C146.957 68.6018 147.176 68.9656 147.296 69.2693C148.53 72.3959 149.764 75.5225 150.998 78.6491C151.307 79.4305 151.616 80.2157 151.801 81.0353Z" fill="#00160A"/>
<path fill-rule="evenodd" clip-rule="evenodd" d="M185.224 71.7321C185.415 69.9163 186.978 68.5553 188.581 67.6817C191.481 66.1018 194.895 65.4853 198.164 65.9512C199.645 66.1622 200.773 64.7518 201.831 63.6948C204.576 60.9516 208.771 59.9501 212.6 60.5838C216.429 61.2175 219.898 63.3325 222.693 66.0256C225.487 68.7188 227.668 71.9775 229.687 75.2921C230.11 75.9873 231.092 76.0058 231.905 75.9659C233.66 75.8799 235.506 75.9284 237.039 76.7866C238.571 77.6448 239.649 79.5497 239.028 81.1932C238.738 81.9629 238.121 82.5764 237.417 83.0011C236.011 83.8483 234.307 83.9941 232.671 84.119C221.759 84.9523 210.848 85.7855 199.936 86.6187C196.95 86.8467 193.918 87.0719 190.986 86.4646C188.054 85.8572 185.183 84.2946 183.682 81.7037C182.181 79.1129 182.432 75.4222 184.735 73.5082C185.222 73.1038 185.158 72.3612 185.224 71.7321M189.358 68.245C188.051 68.8675 186.748 69.784 186.317 71.1656C186.164 71.6577 186.132 72.1805 185.99 72.6759C185.621 73.9608 184.558 74.9255 183.997 76.1389C182.828 78.6685 184.16 81.8143 186.39 83.4867C188.619 85.1591 191.506 85.6562 194.286 85.852C204.291 86.5565 214.24 84.0179 224.267 83.7654C228.205 83.6663 232.269 83.9008 235.953 82.5056C237.348 81.9775 238.88 80.6413 238.282 79.2756C238.13 78.9306 237.858 78.6538 237.572 78.4082C235.809 76.8913 233.282 76.3109 231.033 76.9059C229.886 77.2094 228.929 76.0459 228.3 75.0393C225.568 70.6599 222.474 66.2947 218.059 63.6191C213.645 60.9436 207.592 60.3585 203.485 63.4864C201.64 64.892 199.924 67.076 197.617 66.8313C194.804 66.5329 191.911 67.0281 189.358 68.245Z" fill="#00160A"/>
<path fill-rule="evenodd" clip-rule="evenodd" d="M36.5514 55.4131C36.1832 56.5623 36.6473 57.7992 37.1505 58.8961C37.7353 60.1709 38.6964 61.609 40.0962 61.5206C44.4187 61.2476 48.7412 60.9746 53.0637 60.7016C53.69 60.6621 54.5515 60.8254 54.5553 61.4529C49.1349 61.8867 43.7145 62.3206 38.294 62.7544C34.6479 63.0463 30.8354 63.392 27.7568 65.3672C24.6781 67.3423 22.6714 71.5068 24.332 74.7659C24.9613 76.0007 26.1962 77.0331 27.5815 76.9918C31.315 76.8806 35.0485 76.7694 38.782 76.6582C39.6518 76.6323 40.8423 76.9069 40.8033 77.7763C34.8701 77.4218 28.9018 77.6565 23.0147 78.4757C20.9011 78.7698 18.727 79.1665 16.9545 80.3548C15.1821 81.5431 13.9085 83.725 14.4048 85.8004C14.7474 87.2329 15.8695 88.3834 17.1671 89.0802C18.4647 89.777 19.9335 90.0789 21.386 90.3228C36.7896 92.9092 52.5918 89.8842 68.1701 91.014C69.913 91.1404 71.8001 91.3851 73.0415 92.6151C59.6016 90.0354 45.7414 92.9143 32.0714 92.2675C29.0287 92.1235 25.9973 91.8046 22.9679 91.4859C20.4883 91.2249 17.8904 90.9215 15.8449 89.496C14.8607 88.8101 14.0357 87.8625 13.6239 86.7358C12.604 83.9444 14.4039 80.7554 16.9401 79.2064C19.4764 77.6573 22.554 77.3506 25.5137 77.0814C23.0947 75.4262 22.3755 71.9397 23.4221 69.2019C24.4686 66.4641 26.9579 64.4679 29.6861 63.3965C32.4143 62.3251 35.3867 62.0663 38.3145 61.9284C37.4511 60.7975 36.5748 59.6433 36.0922 58.3049C35.6095 56.9664 35.574 55.3899 36.344 54.1935C36.8796 53.3614 37.7384 52.7983 38.5955 52.3037C46.7938 47.5732 56.704 47.024 66.1663 47.2586C68.7375 47.3223 71.3926 47.4556 73.7049 48.5817C77.2921 50.3287 79.4726 54.3679 79.4943 58.3578C79.516 62.3476 77.5853 66.1975 74.7479 69.0026C74.2923 68.3712 74.8619 67.5318 75.3611 66.9342C77.6727 64.1671 78.986 60.4777 78.4943 56.9058C78.0026 53.3339 75.5518 49.9929 72.1354 48.8401C70.7079 48.3584 69.1837 48.2567 67.679 48.18C57.8946 47.6814 47.6402 48.1935 39.0709 52.9422C38.016 53.5267 36.9193 54.2645 36.5514 55.4131Z" fill="#00160A"/>
<path fill-rule="evenodd" clip-rule="evenodd" d="M102.765 124.23C96.0124 117.812 88.2164 111.315 86.3979 102.178C89.7355 110.749 97.1468 116.92 103.647 123.429C110.147 129.937 116.304 138.056 115.902 147.246C126.53 144.926 137.544 144.382 148.349 145.644C149.457 140.656 152.681 136.456 155.21 132.017C161.482 121.012 163.602 108.2 165.617 95.6946C166.126 92.533 162.255 90.659 159.152 89.8682C156.053 89.0785 152.953 88.2887 149.854 87.499C144.029 86.0147 137.994 84.52 132.069 85.5349C128.063 86.2211 124.106 88.0467 120.1 87.3632C113.722 86.2752 106.955 87.653 101.51 91.1483C98.7729 92.9055 96.3656 95.2934 93.3525 96.4689C86.8286 99.0141 83.0819 102.097 77.4966 109.134C75.3919 98.2467 78.9379 87.105 83.0837 76.8205C87.7182 65.3238 93.5358 53.6916 103.507 46.3277C118.126 35.5312 139.52 36.6326 154.728 46.5833C169.935 56.5341 179.228 73.9431 182.231 91.8672C182.58 93.9519 182.827 96.2082 181.846 98.0804C180.864 99.9525 178.161 101.036 176.561 99.6547C175.196 98.4773 173.745 97.2563 171.975 96.9173C170.205 96.5784 168.058 97.4981 167.715 99.2671C165.202 112.223 162.563 125.507 155.581 136.706C153.762 139.623 151.645 142.407 150.489 145.643C149.604 148.12 149.319 150.764 149.04 153.378C148.459 158.827 147.878 164.276 147.297 169.724C147.052 172.021 146.711 174.522 145.038 176.114C143.44 177.635 141.063 177.908 138.866 178.103C131.731 178.737 124.597 179.371 117.462 180.004C116.187 180.118 114.74 180.176 113.808 179.297C113.09 178.619 112.891 177.571 112.75 176.594C111.748 169.662 111.748 162.586 112.751 155.654C114.189 145.709 109.739 135.534 102.728 128.334C99.0748 124.582 94.7667 121.515 91.1193 117.757C87.4719 113.999 84.4192 109.276 84.2003 104.044C86.6822 110.92 91.2557 117.027 97.157 121.342C105.976 127.792 112.259 137.618 114.414 148.328C116.108 139.167 109.518 130.648 102.765 124.23ZM117.911 86.0994C120.78 86.3796 123.785 87.0928 126.463 86.0248C133.674 83.1487 142.039 83.3008 149.141 86.4372C152.172 87.7758 155.584 87.8496 158.848 88.4208C162.111 88.992 165.557 90.2943 167.219 93.1608C169.085 96.3798 174.569 95.49 176.694 98.5443C177.575 99.8109 179.743 99.3283 180.578 98.0303C181.412 96.7323 181.299 95.0615 181.113 93.5298C179.595 81.062 175.028 68.8377 167.149 59.057C159.269 49.2764 147.965 42.084 135.564 40.0955C123.163 38.107 109.781 41.6221 100.602 50.1954C95.0469 55.3845 91.1936 62.1163 87.8079 68.9227C81.911 80.7772 77.0838 93.7191 78.0363 106.925C81.994 102.136 86.2935 97.1109 92.2296 95.2771C93.6471 94.8392 95.2003 94.5579 96.2761 93.5363C101.979 88.121 110.084 85.3349 117.911 86.0994ZM124.254 167.808C124.232 170.992 124.709 174.178 125.662 177.216C125.743 177.475 125.844 177.755 126.075 177.898C126.299 178.038 126.585 178.012 126.847 177.98C130.037 177.599 133.227 177.217 136.418 176.836C136.535 176.822 136.665 176.8 136.736 176.705C136.808 176.607 136.786 176.47 136.761 176.351C136.186 173.652 135.612 170.953 135.038 168.254C135.005 168.102 134.969 167.942 134.861 167.83C134.73 167.692 134.525 167.659 134.336 167.636C131.202 167.239 128.037 167.091 124.879 167.194C124.695 167.2 124.488 167.217 124.366 167.357C124.263 167.476 124.255 167.649 124.254 167.808ZM134.379 156.558C134.274 156.415 134.075 156.386 133.898 156.371C130.682 156.086 127.436 156.133 124.229 156.509C124.043 156.531 123.846 156.559 123.702 156.678C123.467 156.874 123.465 157.229 123.483 157.535C123.59 159.352 123.697 161.168 123.804 162.985C123.83 163.429 124.003 164.014 124.447 163.992C127.592 163.834 130.751 163.949 133.877 164.336C134.306 164.389 134.472 163.796 134.472 163.363C134.468 161.222 134.464 159.081 134.461 156.94C134.461 156.807 134.457 156.665 134.379 156.558ZM114.439 168.901C114.197 169.012 113.948 169.135 113.784 169.345C113.522 169.679 113.533 170.144 113.557 170.568C113.639 172.055 113.721 173.542 113.804 175.029C113.845 175.781 113.889 176.546 114.145 177.255C114.4 177.964 114.9 178.623 115.607 178.885C116.189 179.101 116.833 179.028 117.45 178.953C118.616 178.809 119.782 178.666 120.949 178.523C121.427 178.464 121.923 178.399 122.333 178.145C121.24 174.825 120.514 171.384 120.171 167.906C120.147 167.662 119.82 167.605 119.576 167.62C117.805 167.732 116.055 168.168 114.439 168.901ZM145.821 164.92C146.166 162.786 146.512 160.651 146.857 158.517C146.887 158.33 146.913 158.121 146.803 157.967C146.691 157.81 146.481 157.767 146.291 157.737C143.763 157.331 141.228 156.964 138.688 156.637C138.498 156.613 138.266 156.605 138.156 156.763C138.091 156.857 138.093 156.981 138.098 157.096C138.189 159.321 138.281 161.546 138.373 163.771C138.381 163.974 138.401 164.201 138.553 164.336C138.66 164.431 138.81 164.458 138.952 164.481C141.084 164.825 143.216 165.169 145.348 165.514C145.627 165.559 145.776 165.199 145.821 164.92ZM123.655 152.329C123.61 152.575 123.594 152.89 123.813 153.011C123.918 153.068 124.046 153.059 124.165 153.047C127.508 152.726 130.852 152.405 134.196 152.084C134.368 152.067 134.55 152.047 134.689 151.944C134.878 151.803 134.936 151.549 134.981 151.318C135.254 149.907 135.526 148.497 135.799 147.087C135.838 146.887 135.861 146.642 135.702 146.514C135.591 146.425 135.433 146.433 135.291 146.445C132.086 146.713 128.881 146.981 125.675 147.25C125.414 147.271 125.14 147.297 124.919 147.438C124.544 147.677 124.431 148.164 124.349 148.601C124.118 149.844 123.887 151.086 123.655 152.329ZM138.719 147.691C138.594 148.914 138.469 150.136 138.344 151.359C138.323 151.56 138.305 151.776 138.403 151.953C138.548 152.215 138.882 152.291 139.177 152.34C141.86 152.792 144.542 153.244 147.225 153.696C147.337 153.715 147.455 153.733 147.559 153.688C147.756 153.603 147.8 153.348 147.815 153.133C147.922 151.555 147.945 149.972 147.887 148.392C147.876 148.119 147.862 147.84 147.751 147.591C147.415 146.836 146.414 146.71 145.588 146.693C143.651 146.654 141.714 146.615 139.778 146.575C139.577 146.571 139.366 146.569 139.189 146.663C138.84 146.845 138.759 147.3 138.719 147.691ZM167.28 95.6889C165.896 97.4937 165.516 99.8497 165.164 102.097C163.386 113.464 161.08 125.095 154.825 134.752C152.682 138.061 150.011 141.327 149.708 145.257C150.888 141.166 154.156 138.07 156.399 134.45C158.045 131.795 159.143 128.841 160.149 125.884C162.577 118.744 164.532 111.444 165.996 104.046C166.523 101.386 167.042 98.5886 168.755 96.4867C168.173 96.4809 167.603 96.1724 167.28 95.6889ZM119.282 164.416C119.468 164.368 119.667 164.311 119.788 164.162C119.917 164.002 119.923 163.778 119.923 163.572C119.92 161.61 119.918 159.648 119.915 157.686C119.915 157.545 119.911 157.392 119.822 157.282C119.693 157.125 119.455 157.131 119.254 157.153C117.697 157.323 116.155 157.63 114.652 158.068C114.476 158.119 114.291 158.178 114.166 158.312C114.022 158.466 113.985 158.689 113.956 158.898C113.664 161.016 113.547 163.159 113.607 165.296C113.612 165.47 113.638 165.677 113.793 165.757C113.9 165.813 114.029 165.783 114.146 165.753C115.858 165.307 117.57 164.862 119.282 164.416ZM144.354 174.984C145.488 173.622 145.498 171.677 145.451 169.905C145.442 169.56 145.036 169.389 144.701 169.306C142.91 168.865 141.09 168.538 139.257 168.33C139.096 168.312 138.92 168.298 138.786 168.389C138.582 168.527 138.584 168.823 138.611 169.068C138.859 171.356 139.334 173.619 140.027 175.814C140.107 176.069 140.213 176.349 140.454 176.464C140.584 176.526 140.734 176.528 140.878 176.524C142.184 176.486 143.519 175.988 144.354 174.984ZM116.962 148.596C116.516 148.724 116.062 148.874 115.711 149.177C115.379 149.465 115.167 149.867 115.002 150.275C114.479 151.571 114.36 152.988 114.247 154.381C114.238 154.487 114.232 154.605 114.297 154.689C114.395 154.816 114.587 154.799 114.745 154.77C116.102 154.516 117.459 154.261 118.816 154.007C119.202 153.934 119.63 153.836 119.849 153.51C119.998 153.288 120.016 153.006 120.03 152.739C120.113 151.136 120.196 149.533 120.279 147.93C119.158 148.061 118.047 148.284 116.962 148.596ZM124.579 155.461C127.543 155.14 130.536 155.1 133.507 155.343C133.844 155.371 134.214 155.393 134.487 155.193C134.914 154.881 134.857 154.237 134.754 153.718C134.728 153.582 134.697 153.439 134.602 153.338C134.451 153.178 134.199 153.185 133.979 153.203C131.013 153.452 128.048 153.701 125.082 153.949C124.673 153.984 124.236 154.029 123.919 154.289C123.601 154.549 123.498 155.107 123.825 155.354C124.033 155.512 124.321 155.489 124.579 155.461ZM147.157 155.225C146.801 154.861 146.264 154.754 145.763 154.665C143.543 154.27 141.324 153.876 139.105 153.482C138.815 153.43 138.459 153.403 138.285 153.64C138.209 153.744 138.188 153.876 138.169 154.003C138.075 154.634 138.152 155.514 138.785 155.597C141.308 155.929 143.831 156.262 146.354 156.594C146.604 156.627 146.872 156.657 147.096 156.54C147.547 156.303 147.513 155.589 147.157 155.225ZM121.59 167.746C121.44 168.158 121.515 168.615 121.593 169.047C122.072 171.692 122.591 174.328 123.186 176.949C123.266 177.302 123.355 177.669 123.589 177.945C123.824 178.221 124.252 178.368 124.558 178.174C125.017 177.883 124.848 177.187 124.65 176.68C123.629 174.062 123.339 171.221 123.198 168.415C123.174 167.922 123.079 167.321 122.616 167.151C122.203 166.999 121.741 167.333 121.59 167.746ZM145.233 168.233C145.77 168.028 145.399 167.112 145.783 166.684C143.552 166.127 141.277 165.746 138.987 165.544C138.447 165.496 138.196 166.31 138.518 166.747C138.84 167.183 139.428 167.308 139.962 167.4C140.444 167.483 140.925 167.566 141.407 167.65C142.538 167.845 143.669 168.041 144.8 168.236C144.944 168.261 145.096 168.286 145.233 168.233ZM125.105 166.228C127.874 166.065 130.658 166.17 133.407 166.538C133.956 166.612 134.718 166.547 134.791 165.998C134.868 165.43 134.102 165.181 133.529 165.152C130.747 165.014 127.959 164.994 125.176 165.094C124.683 165.112 124.007 165.362 124.137 165.837C124.237 166.202 124.727 166.25 125.105 166.228ZM135.735 156.894C135.605 157.165 135.602 157.477 135.601 157.778C135.595 159.474 135.589 161.169 135.582 162.865C135.581 163.241 135.583 163.631 135.741 163.973C135.899 164.314 136.261 164.592 136.631 164.526C137.246 164.418 137.359 163.595 137.325 162.972C137.227 161.168 137.128 159.364 137.03 157.56C137.006 157.116 136.89 156.558 136.455 156.467C136.16 156.406 135.865 156.623 135.735 156.894ZM137.627 168.627C137.504 168.272 137.22 167.945 136.848 167.894C136.476 167.842 136.065 168.177 136.137 168.545C136.573 170.791 137.009 173.036 137.445 175.282C137.547 175.808 137.688 176.393 138.141 176.678C138.595 176.963 139.384 176.581 139.214 176.073C138.525 174.011 137.831 171.914 137.758 169.741C137.745 169.366 137.75 168.982 137.627 168.627ZM122.451 163.836C122.653 163.475 122.637 163.035 122.616 162.621C122.541 161.177 122.465 159.732 122.39 158.288C122.367 157.839 122.328 157.351 122.024 157.02C121.72 156.689 121.055 156.686 120.909 157.111C120.87 157.224 120.874 157.346 120.878 157.466C120.947 159.398 121.016 161.331 121.085 163.263C121.097 163.598 121.133 163.982 121.405 164.178C121.741 164.421 122.249 164.198 122.451 163.836ZM121.412 148.029C121.028 148.56 121.011 149.263 121.009 149.917C121.005 150.819 121.002 151.722 120.999 152.624C120.997 153.107 121.174 153.768 121.655 153.721C122.032 153.684 122.182 153.224 122.245 152.851C122.526 151.176 122.808 149.501 123.089 147.826C122.694 147.303 121.796 147.499 121.412 148.029ZM118.771 166.847C119.167 166.812 119.609 166.778 119.877 166.484C120.144 166.189 119.977 165.562 119.583 165.616C118.366 165.782 117.15 165.949 115.933 166.116C115.302 166.202 114.632 166.306 114.152 166.723C113.671 167.141 113.512 167.99 114.004 168.395C115.45 167.53 117.093 166.997 118.771 166.847ZM114.336 155.954C113.973 156.301 113.907 156.997 114.337 157.256C115.73 156.791 117.173 156.476 118.632 156.316C118.992 156.277 119.374 156.239 119.662 156.021C119.95 155.802 120.077 155.329 119.816 155.079C119.611 154.881 119.284 154.91 119.001 154.952C117.91 155.116 116.818 155.279 115.727 155.443C115.23 155.517 114.7 155.608 114.336 155.954ZM137.091 146.632C136.963 146.769 136.924 146.965 136.89 147.15C136.634 148.56 136.378 149.97 136.121 151.38C136.075 151.635 136.046 151.943 136.245 152.109C136.448 152.278 136.78 152.174 136.94 151.963C137.1 151.753 137.135 151.476 137.165 151.213C137.324 149.799 137.482 148.386 137.641 146.972C137.656 146.845 137.666 146.703 137.587 146.603C137.47 146.456 137.22 146.495 137.091 146.632ZM136.612 165.306C136.079 165.241 135.562 165.923 135.894 166.345C136.127 166.64 136.4 166.941 136.767 167.022C137.134 167.102 137.591 166.834 137.555 166.46C137.505 165.925 137.146 165.371 136.612 165.306ZM136.823 154.483C137.003 154.051 137.046 153.359 136.581 153.305C136.4 153.284 136.228 153.396 136.103 153.53C135.524 154.151 135.823 155.339 136.628 155.612C136.886 155.314 136.977 154.88 136.86 154.504C136.732 154.093 136.658 154.88 136.823 154.483ZM122.422 155.274C122.314 154.876 121.983 154.502 121.571 154.497C121.036 154.492 120.686 155.251 121.037 155.654C121.389 156.057 122.188 155.814 122.256 155.284C122.316 154.814 122.546 155.731 122.422 155.274ZM122.748 166.213C122.875 166.105 122.966 165.955 123.004 165.793C122.652 165.4 122.035 165.273 121.556 165.494C121.45 165.543 121.347 165.611 121.287 165.711C121.115 165.998 121.401 166.383 121.731 166.438C122.061 166.492 122.384 166.332 122.68 166.175L122.748 166.213Z" fill="#00160A"/>
<defs>
<linearGradient id="paint0_linear" x1="31.3218" y1="42.3936" x2="207.487" y2="221.303" gradientUnits="userSpaceOnUse">
<stop offset="0.0552082" stop-color="#0080FF"/>
<stop offset="0.940625" stop-color="#0059B2"/>
</linearGradient>
</defs>
</svg>
