<svg width="120" height="113" viewBox="0 0 120 113" fill="none" xmlns="http://www.w3.org/2000/svg">
<path fill-rule="evenodd" clip-rule="evenodd" d="M60.1454 28.8108C46.5903 28.8108 35.0738 32.1955 27.5515 37.5007V47.3684H92.7444V37.5007C85.2221 32.1955 73.703 28.8108 60.1454 28.8108ZM120 23.7466L59.9875 0L0 23.7466L9.99958 27.6761V33.7199C7.49216 34.1655 7.48464 35.2938 7.48464 36.6352C7.48464 37.4275 7.79055 38.3555 8.37227 38.911L4.94212 45.2153H17.1783L13.7783 38.9067C14.35 38.3512 14.8188 37.533 14.8188 36.7407C14.8188 35.8914 13.8891 35.0828 13.2088 34.4912C12.8164 34.1499 12.507 33.8808 12.507 33.7177V28.6859L25.0441 33.5218V33.0933C32.5663 27.4758 45.7829 23.9103 60.1429 23.9103C74.5079 23.9103 87.7295 27.4758 95.2518 33.0933V33.5218L120 23.7466ZM104.053 85.6579H15.9475C13.2441 85.6579 11.0527 87.16 11.0527 89.0131V91.25C11.0527 91.5466 11.2246 91.8311 11.5306 92.0408C11.8366 92.2505 12.2516 92.3684 12.6843 92.3684H107.316C107.749 92.3684 108.164 92.2505 108.47 92.0408C108.776 91.8311 108.947 91.5466 108.947 91.25V89.0131C108.947 87.16 106.756 85.6579 104.053 85.6579ZM27.3685 52.1052V78.9473H20.0264C18.6749 78.9473 17.5791 79.6985 17.5791 80.625V83.421H102.421V80.625C102.421 79.6985 101.325 78.9473 99.9738 78.9473H92.6317V52.1052H79.579V78.9473H66.5264V52.1052H53.4738V78.9473H40.4212V52.1052H27.3685ZM15.2247 111.74C16.0514 112.073 16.9047 112.24 17.7847 112.24C18.518 112.24 19.1714 112.14 19.7447 111.94C20.3314 111.727 20.8247 111.447 21.2247 111.1C21.638 110.74 21.9514 110.327 22.1647 109.86C22.378 109.393 22.4847 108.893 22.4847 108.36C22.4847 107.88 22.418 107.46 22.2847 107.1C22.1514 106.727 21.9647 106.4 21.7247 106.12C21.498 105.84 21.2247 105.593 20.9047 105.38C20.5847 105.167 20.2314 104.98 19.8447 104.82L18.0647 104.08C17.798 103.973 17.538 103.867 17.2847 103.76C17.0314 103.64 16.8047 103.513 16.6047 103.38C16.418 103.233 16.2647 103.073 16.1447 102.9C16.038 102.713 15.9847 102.493 15.9847 102.24C15.9847 101.76 16.1714 101.387 16.5447 101.12C16.918 100.84 17.418 100.7 18.0447 100.7C18.6047 100.7 19.1114 100.8 19.5647 101C20.018 101.2 20.458 101.473 20.8847 101.82L22.0647 100.34C21.558 99.8333 20.9514 99.4333 20.2447 99.14C19.538 98.8333 18.8047 98.68 18.0447 98.68C17.4047 98.68 16.8114 98.7733 16.2647 98.96C15.7314 99.1467 15.2714 99.4067 14.8847 99.74C14.498 100.073 14.1914 100.467 13.9647 100.92C13.7514 101.36 13.6447 101.84 13.6447 102.36C13.6447 102.84 13.718 103.267 13.8647 103.64C14.0247 104.013 14.2314 104.34 14.4847 104.62C14.738 104.9 15.018 105.14 15.3247 105.34C15.6447 105.54 15.9647 105.707 16.2847 105.84L18.0847 106.62C18.378 106.74 18.6447 106.86 18.8847 106.98C19.138 107.1 19.3514 107.233 19.5247 107.38C19.7114 107.513 19.8514 107.673 19.9447 107.86C20.0514 108.047 20.1047 108.273 20.1047 108.54C20.1047 109.047 19.9114 109.453 19.5247 109.76C19.138 110.067 18.5714 110.22 17.8247 110.22C17.2247 110.22 16.6247 110.087 16.0247 109.82C15.4247 109.54 14.8914 109.18 14.4247 108.74L13.0647 110.32C13.6914 110.933 14.4114 111.407 15.2247 111.74ZM24.8631 98.92V112H27.1831V98.92H24.8631ZM30.5077 98.92V112H32.6077V106.02C32.6077 105.713 32.5943 105.38 32.5677 105.02C32.5543 104.66 32.5277 104.3 32.4877 103.94C32.461 103.567 32.4277 103.207 32.3877 102.86C32.361 102.5 32.3343 102.167 32.3077 101.86H32.3877L33.4277 104.9L35.5877 110.78H36.9677L39.1077 104.9L40.1677 101.86H40.2477C40.221 102.167 40.1877 102.5 40.1477 102.86C40.1077 103.207 40.0743 103.567 40.0477 103.94L39.9677 105.02C39.9543 105.38 39.9477 105.713 39.9477 106.02V112H42.0877V98.92H39.4477L37.1877 105.32C37.041 105.733 36.901 106.16 36.7677 106.6C36.6477 107.027 36.5143 107.453 36.3677 107.88H36.2877C36.141 107.453 36.001 107.027 35.8677 106.6C35.7343 106.16 35.5943 105.733 35.4477 105.32L33.1277 98.92H30.5077ZM48.05 100.88V112H50.37V100.88H54.15V98.92H44.27V100.88H48.05ZM61.0872 106.64H57.7472L58.2072 105.04C58.4205 104.347 58.6205 103.64 58.8072 102.92L59.3672 100.72H59.4472C59.6339 101.44 59.8205 102.167 60.0072 102.9C60.2072 103.633 60.4139 104.347 60.6272 105.04L61.0872 106.64ZM58.0872 98.92L53.8272 112H56.1872L57.2072 108.46H61.6072L62.6272 112H65.0672L60.8072 98.92H58.0872ZM66.6795 98.92V112H68.9995V108.18L70.8795 105.84L74.4195 112H76.9795L72.2795 104.02L76.2995 98.92H73.7195L69.0595 104.86H68.9995V98.92H66.6795ZM78.6131 98.92V112H80.9331V106.2H86.2331V112H88.5531V98.92H86.2331V104.18H80.9331V98.92H78.6131ZM91.8748 98.92V112H94.1948V98.92H91.8748ZM97.5194 98.92V112H99.8394V106.88H101.839L104.659 112H107.259L104.139 106.54C104.926 106.273 105.553 105.833 106.019 105.22C106.499 104.607 106.739 103.8 106.739 102.8C106.739 102.067 106.613 101.453 106.359 100.96C106.119 100.467 105.786 100.073 105.359 99.78C104.933 99.4733 104.426 99.2533 103.839 99.12C103.253 98.9867 102.619 98.92 101.939 98.92H97.5194ZM101.699 105.04H99.8394V100.78H101.699C102.593 100.78 103.273 100.927 103.739 101.22C104.219 101.513 104.459 102.04 104.459 102.8C104.459 103.547 104.219 104.107 103.739 104.48C103.273 104.853 102.593 105.04 101.699 105.04Z" fill="url(#paint0_linear)"/>
<defs>
<linearGradient id="paint0_linear" x1="101.5" y1="24.5" x2="18.5" y2="112" gradientUnits="userSpaceOnUse">
<stop stop-color="#08AEEA"/>
<!-- <stop offset="0.513542" stop-color="#0349B1"/> -->
<stop offset="1" stop-color="#2AF598"/>
</linearGradient>
</defs>
</svg>
