<svg width="200" height="200" viewBox="0 0 200 200" fill="none" xmlns="http://www.w3.org/2000/svg">
<path fill-rule="evenodd" clip-rule="evenodd" d="M128.777 42.6537C145.986 38.8015 161.929 43.3719 170.498 56.4265C179.067 69.4811 176.825 90.1962 174.969 99.3399C173.113 108.484 168.404 116.859 162.56 124.129C151.705 137.634 137.036 147.968 120.637 153.547C104.238 159.126 86.4331 160.269 69.3435 157.447C59.7568 155.864 29.7689 148.109 23.2957 124.704C16.8224 101.299 12.7256 81.2952 26.7436 73.1695C40.7615 65.0438 50.4713 71.1553 57.4109 74.1607C89.8318 88.2017 111.568 46.5059 128.777 42.6537Z" fill="url(#paint0_linear)"/>
<path fill-rule="evenodd" clip-rule="evenodd" d="M153.009 64.5758C155.77 64.3626 158.746 64.5005 160.995 66.1146C163.245 67.7287 164.267 71.2731 162.419 73.3356C164.508 72.5192 166.962 73.904 168.008 75.8873C169.054 77.8706 169 80.2469 168.685 82.467C167.906 87.9652 165.664 93.2494 162.253 97.6312C162.096 98.0931 161.939 98.555 161.782 99.0169C165.815 100.056 181.56 106.171 177.306 121.246C173.052 136.321 154.472 142.058 152.57 143.863C149.255 147.007 144.196 147.222 139.629 147.077C128.4 146.721 117.205 145.294 106.246 142.822C105.314 142.612 104.134 142.484 103.597 143.273C99.7094 148.989 91.58 149.5 84.6855 149.003C75.8293 148.364 67.0241 147.02 58.3802 144.99C53.4772 143.838 48.2707 142.235 45.2162 138.23C41.6554 133.562 42.0666 127.089 42.6444 121.246C40.304 122.547 36.4222 123.252 30.9992 123.36C27.8062 122.709 25.8145 121.552 25.0241 119.888C21.4096 112.28 20.1701 102.477 24.6712 94.9786C25.2119 94.0778 25.8357 93.1901 26.7161 92.6169C27.6496 92.0092 28.7875 91.8094 29.897 91.7111C34.273 91.3236 38.763 92.345 42.5407 94.5876C42.5069 82.3094 42.4732 70.0313 42.4394 57.7532C42.4375 57.05 42.4473 56.3039 42.8222 55.7091C43.3644 54.8487 44.475 54.582 45.4747 54.3954C54.5687 52.6977 63.7658 51.5528 72.9984 50.969C76.0151 50.7782 80.1436 51.6178 80.1573 54.6405C80.2099 66.2162 80.2625 77.792 80.3151 89.3677C80.3276 92.1229 80.5047 91.8925 81.7955 91.0941C80.9841 91.1782 81.1651 89.8019 81.78 89.2658C84.0756 87.2646 87.4209 87.191 90.4661 87.2221C97.2777 87.2919 104.089 87.3616 110.901 87.4313C117.501 87.4988 125.416 88.3358 128.404 94.221C128.317 92.4719 129.902 90.8214 131.653 90.8374C133.563 90.855 135.16 89.1983 135.718 87.3717C136.275 85.545 136.029 83.5823 135.778 81.689C132.699 78.7073 131.893 73.6388 133.895 69.8489C135.898 66.059 140.539 63.8685 144.737 64.7318C147.449 65.2895 150.249 64.789 153.009 64.5758ZM73.9703 121.358C73.8797 123.795 73.7838 126.265 73.0665 128.596L73.9703 121.358ZM71.1482 91.4476C71.7822 91.6331 72.5666 92.1953 72.2338 92.7659C74.9879 93.0411 74.1655 92.9136 74.2894 89.6681C74.4151 86.3749 74.4256 82.7335 72.2696 80.241C70.3618 78.0354 67.2505 77.3456 64.3449 77.0975C60.9535 76.808 57.5257 76.9471 54.1688 77.5105C52.5309 77.7854 50.7569 78.2591 49.8064 79.621C49.2744 80.3833 49.0787 81.3246 48.9224 82.2408C48.3077 85.845 48.1157 89.521 48.3517 93.1696C55.4125 89.8844 63.674 89.2604 71.1482 91.4476ZM132.426 115.644C132.599 115.469 132.86 115.427 133.103 115.393C134.074 115.26 135.044 115.126 136.014 114.993C133.787 113.987 132.438 111.598 132.034 109.188C131.631 106.778 132.025 104.314 132.423 101.903C130.998 103.488 131.101 105.88 131.287 108.003C131.696 112.65 132.254 115.818 132.426 115.644ZM114.105 138.531C114.296 137.91 114.946 137.577 115.422 137.135C116.278 136.339 116.596 135.136 116.875 134.001C117.84 130.079 118.812 126.108 118.799 122.069C118.797 121.213 118.753 120.334 119.037 119.527C119.32 118.719 120.03 117.989 120.886 117.985C121.788 117.98 122.004 116.728 121.923 115.83C121.645 112.731 121.367 109.632 121.089 106.533C121 105.543 120.909 104.544 120.609 103.597C119.498 100.094 115.218 97.9765 111.76 99.2182C111.337 99.3703 111.224 99.905 111.176 100.352C110.644 105.309 110.111 110.266 109.579 115.223C109.485 116.104 110.622 116.666 111.48 116.448C112.339 116.23 112.994 115.559 113.737 115.076C114.479 114.592 115.525 114.314 116.207 114.88C116.977 115.519 118.118 114.809 118.787 114.064C119.456 113.32 120.328 112.422 121.279 112.733C120.163 113.801 119.047 114.869 117.93 115.937C117.56 116.291 117.233 116.998 117.701 117.207C118.984 116.752 120.144 115.955 121.028 114.92C121.437 114.907 121.456 115.549 121.228 115.889C120.368 117.168 118.345 117.452 117.824 118.903C116.609 122.288 112.817 124.537 109.263 123.98C108.535 123.866 108.171 124.825 108.083 125.557C107.734 128.478 107.384 131.399 107.034 134.32C106.953 134.992 106.878 135.703 107.155 136.321C107.617 137.351 108.851 137.741 109.946 138.019C111.393 138.385 112.857 138.754 114.336 138.914C114.958 138.981 114.956 138.753 114.105 138.531ZM56.4588 133.175C58.5263 133.868 60.7146 134.102 62.8828 134.333C63.8023 134.43 64.7815 134.518 65.6063 134.1C66.5773 133.608 67.0946 132.543 67.5122 131.537C69.841 125.932 71.1706 119.914 71.4198 113.849C71.4552 112.987 70.352 112.607 69.4914 112.549C62.6215 112.088 56.0514 115.108 49.8297 118.057C49.5315 118.198 49.2123 118.36 49.065 118.655C48.9551 118.875 48.9609 119.133 48.969 119.379C49.0805 122.729 49.2211 126.199 50.7195 129.198C51.1241 130.008 51.6389 130.787 52.3676 131.325C52.8091 131.65 53.3144 131.876 53.8154 132.099C54.6849 132.486 55.5563 132.873 56.4588 133.175ZM100.901 120.776C101.816 115.851 102.462 110.876 102.833 105.881C102.96 104.172 103.053 102.435 102.684 100.761C102.314 99.0881 101.423 97.4615 99.9657 96.5596C99.0679 96.0039 98.0169 95.7545 96.9774 95.5691C95.0805 95.2307 93.1507 95.0772 91.2241 95.1114C89.524 95.1416 87.7396 95.3488 86.3517 96.3311C85.8928 96.656 85.4759 97.0812 85.3083 97.6179C85.1406 98.1546 85.2818 98.814 85.7474 99.1293C86.9241 99.9262 87.4038 101.417 87.6243 102.821C87.8448 104.225 87.8978 105.695 88.5376 106.964C88.8675 107.619 89.3405 108.19 89.8367 108.729C92.5267 111.654 96.0354 113.817 99.8565 114.908C100.528 115.1 101.383 115.515 101.241 116.199C103.354 117.532 100.866 120.965 100.901 120.776ZM95.0768 135.301C95.8548 134.828 96.3824 134.041 96.8468 133.258C98.8174 129.935 100.11 126.212 100.621 122.383C93.533 122.351 86.4872 119.677 81.163 114.998C80.9808 115.729 81.0156 116.495 81.0405 117.248C81.1959 121.951 80.9169 126.668 80.2081 131.319C80.0391 132.428 80.7016 133.537 81.6123 134.192C82.5229 134.846 83.6448 135.128 84.7462 135.34C87.2291 135.818 89.7663 136.014 92.2932 135.923C93.2542 135.889 94.2549 135.8 95.0768 135.301ZM139.804 94.7366C139.391 93.7409 139.081 92.6183 138.224 91.9646C137.367 91.3109 135.753 91.6307 135.703 92.7075C136.551 92.5513 137.199 93.5985 137.055 94.4489C136.91 95.2993 136.292 95.9755 135.801 96.6845C135.122 97.6643 134.658 98.7734 134.199 99.8732C133.106 102.49 132.681 105.382 132.974 108.203C133.147 109.863 133.602 111.569 134.725 112.805C135.848 114.04 137.772 114.658 139.252 113.885C140.523 113.22 141.157 111.756 141.448 110.352C141.739 108.948 141.791 107.479 142.342 106.155C143.358 103.712 145.862 102.236 148.34 101.31C144.615 100.804 141.245 98.2086 139.804 94.7366ZM129.504 97.3788C129.67 98.0191 129.899 98.6429 130.188 99.2379C130.361 98.3994 130.639 97.5826 131.014 96.8125C130.635 96.7692 130.253 96.7486 129.872 96.7509C129.78 96.7514 129.682 96.7548 129.604 96.8044C129.427 96.9161 129.452 97.1769 129.504 97.3788ZM84.6064 96.7197C84.3719 96.9085 84.2343 97.3147 84.4819 97.4859C84.8611 97.1063 85.2403 96.7267 85.6195 96.347C85.5411 96.2499 85.4271 96.1821 85.3043 96.1595C85.1539 96.4203 84.841 96.531 84.6064 96.7197Z" fill="white"/>
<path d="M150.267 93.9998C151.077 93.9998 151.734 93.3431 151.734 92.5331C151.734 91.7231 151.077 91.0664 150.267 91.0664C149.457 91.0664 148.8 91.7231 148.8 92.5331C148.8 93.3431 149.457 93.9998 150.267 93.9998Z" fill="#FFB61D"/>
<path d="M141.867 92.5331C142.309 92.5331 142.667 92.1749 142.667 91.7331C142.667 91.2913 142.309 90.9331 141.867 90.9331C141.425 90.9331 141.067 91.2913 141.067 91.7331C141.067 92.1749 141.425 92.5331 141.867 92.5331Z" fill="#FFB61D"/>
<path fill-rule="evenodd" clip-rule="evenodd" d="M66.1138 71.4869C68.5138 71.5021 70.9138 71.5173 73.3137 71.5325C73.4261 71.5333 73.5468 71.5366 73.6374 71.6031C73.8225 71.739 73.7486 72.0573 73.558 72.1854C73.3674 72.3135 73.1203 72.308 72.8908 72.3001C70.7787 72.2268 68.6604 72.3365 66.5672 72.6275C66.2489 72.6718 65.9131 72.7183 65.6153 72.5973C65.3176 72.4763 65.0898 72.1198 65.2269 71.8291C65.3701 71.5254 65.7781 71.4847 66.1138 71.4869ZM58.0883 71.2512C58.2403 71.4028 58.1675 71.6811 57.9985 71.8136C57.8296 71.9461 57.6033 71.9727 57.3896 71.9943C55.262 72.2097 53.1343 72.4252 51.0066 72.6406C50.755 72.6661 50.4948 72.6907 50.2541 72.6132C50.0133 72.5357 49.7955 72.3276 49.7898 72.0748C49.784 71.8139 50.0055 71.5924 50.2528 71.5091C50.5 71.4259 50.7687 71.4492 51.0288 71.4697C53.2089 71.6412 55.4101 71.5423 57.566 71.1759C57.7466 71.1452 57.9586 71.1219 58.0883 71.2512ZM57.7902 67.167C57.9492 67.2953 57.8926 67.5703 57.7331 67.6979C57.5736 67.8255 57.3565 67.8467 57.1528 67.8628L50.3199 68.4019C50.0641 68.422 49.7991 68.4411 49.5578 68.3538C49.3165 68.2665 49.1049 68.0417 49.1188 67.7855C49.1328 67.5259 49.3725 67.3246 49.6251 67.2633C49.8777 67.202 50.1422 67.2478 50.3994 67.2858C52.7185 67.6285 55.0767 67.316 57.4113 67.1038C57.5422 67.0919 57.6879 67.0844 57.7902 67.167ZM67.333 65.8132C68.7588 65.9954 70.2042 66.0231 71.6359 65.8957C72.205 65.8451 72.8931 65.8213 73.2164 66.2924C72.8326 66.6027 72.3051 66.6467 71.8125 66.6778C70.1798 66.7807 68.5472 66.8836 66.9146 66.9865C66.5422 67.01 66.078 66.9818 65.9246 66.6416C65.787 66.3363 66.0292 65.9692 66.3404 65.8456C66.6516 65.7219 67.0008 65.7708 67.333 65.8132ZM55.016 64.0677C55.0177 64.3143 54.7087 64.4207 54.4647 64.4565L50.8765 64.9824C50.6204 65.0199 50.3558 65.0571 50.1057 64.9903C49.8556 64.9235 49.6217 64.7245 49.5984 64.4667C49.5697 64.1511 49.866 63.8848 50.1754 63.816C50.4847 63.7473 50.8052 63.8192 51.1195 63.8597C52.2033 63.9993 53.2967 63.7611 54.3888 63.7236C54.6561 63.7144 55.0141 63.8003 55.016 64.0677ZM72.3295 63.2088C72.6071 63.2398 72.892 63.4055 72.9662 63.6748C72.4732 64.0477 71.8215 64.1156 71.2058 64.1701C70.1518 64.2636 69.0977 64.357 68.0437 64.4504C67.6724 64.4833 67.3011 64.5162 66.9298 64.5491C66.6583 64.5732 66.3759 64.5959 66.121 64.4995C65.866 64.4032 65.6482 64.1502 65.6861 63.8803C65.746 63.4549 66.3042 63.3445 66.7336 63.3538C68.3269 63.388 69.9402 63.6285 71.5012 63.3077C71.7748 63.2515 72.0519 63.1778 72.3295 63.2088ZM73.729 59.1855C65.9192 60.2385 57.9119 59.6932 50.2096 61.3592C49.7528 61.458 49.1152 61.4629 48.9971 61.0107C49.0077 60.4779 49.6968 60.2856 50.2284 60.2476C57.7213 59.7133 65.2142 59.1789 72.7071 58.6445C73.1467 58.6132 73.7636 58.7461 73.729 59.1855Z" fill="#E7EAEE"/>
<path fill-rule="evenodd" clip-rule="evenodd" d="M46.2568 140.141C46.3384 141.085 45.0359 141.406 44.0876 141.409C39.1587 141.429 34.2348 142.343 29.6275 144.094C28.9243 144.361 28.1718 144.698 27.8295 145.368C27.3764 146.255 27.871 147.39 28.6727 147.981C29.4743 148.572 30.4976 148.752 31.4807 148.912C57.0347 153.073 82.9687 154.897 108.853 154.354L109.27 154.345C112.255 154.276 115.302 154.116 118.037 152.934C115.773 151.347 113.508 149.76 111.244 148.173C115.164 147.39 119.208 147.948 123.185 148.34C132.288 149.239 141.478 149.257 150.585 148.395C149.944 149.42 148.535 149.562 147.326 149.588C135.871 149.834 124.402 149.427 112.993 148.369C114.481 149.349 115.97 150.329 117.458 151.308C117.998 151.663 118.594 152.114 118.625 152.759C118.672 153.728 117.481 154.212 116.524 154.37C113.347 154.895 110.115 154.979 106.895 155.026C81.7489 155.393 56.5713 153.594 31.7328 149.654C30.5208 149.462 29.265 149.247 28.2544 148.551C27.2439 147.855 26.5549 146.531 26.9796 145.38C27.402 144.235 28.6871 143.697 29.8474 143.318C35.1571 141.584 40.6834 140.514 46.2568 140.141ZM80.1571 54.6405C80.2097 66.2162 80.2623 77.792 80.3149 89.3677C80.3274 92.1229 80.8702 95.6093 83.5346 96.3109C87.2163 94.6112 91.3662 93.9398 95.396 94.3918C97.7029 94.6505 100.099 95.3479 101.66 97.0654C103.802 99.4213 103.806 102.969 103.576 106.145C103.11 112.583 102.191 118.988 100.83 125.297C101.911 125.229 103.015 125.663 103.76 126.45C102.612 126.975 101.245 126.997 100.081 126.509C100.88 130.842 97.35 135.118 93.1219 136.359C88.8939 137.601 84.3058 136.43 80.3301 134.53C79.9572 135.982 81.8997 136.835 83.3828 137.054C87.1474 137.611 90.9121 138.167 94.6768 138.724C90.0276 138.863 85.3629 138.483 80.7978 137.591C79.9572 138.782 81.8608 139.984 83.2994 140.217C87.1153 140.834 90.9312 141.452 94.7472 142.069C90.4372 142.041 86.1289 141.753 81.8533 141.209C84.5724 143.662 88.2843 144.981 91.9415 144.794C89.8785 145.472 87.5864 145.431 85.5489 144.68C88.0979 148.093 93.313 148.726 97.1215 146.817C100.93 144.907 103.417 141.001 104.633 136.918C105.85 132.835 105.968 128.52 106.183 124.265C106.581 116.411 107.342 108.568 108.717 100.825C109.644 95.6107 111.92 89.3936 117.164 88.657C107.821 88.2264 98.4692 87.9942 89.1166 87.9605C86.2746 87.9503 82.7443 88.4152 81.7953 91.0941C80.9839 91.1782 81.1649 89.8019 81.7798 89.2658C84.0754 87.2646 87.4207 87.191 90.4659 87.2221L110.901 87.4313C117.501 87.4988 125.415 88.3358 128.403 94.221C128.317 92.4719 129.902 90.8214 131.653 90.8374C133.563 90.855 135.16 89.1983 135.717 87.3717C136.275 85.545 136.029 83.5823 135.778 81.689C132.699 78.7073 131.893 73.6388 133.895 69.8489C134.461 68.7769 135.298 66.221 139.972 64.5758C143.087 63.4791 146.167 63.5996 149.211 64.9376C154.927 63.8323 158.855 64.2246 160.995 66.1146C164.205 68.9497 164.266 71.2731 162.419 73.3356C164.508 72.5192 166.962 73.904 168.008 75.8873C169.054 77.8706 169 80.2469 168.685 82.467C167.905 87.9652 165.664 93.2494 162.253 97.6312L161.782 99.0169C170.035 101.144 176.711 108.439 178.101 116.847C175.357 110.663 171.643 104.113 165.244 101.918C163.8 103.432 162.315 105.013 161.637 106.993C160.959 108.972 161.325 111.474 163.045 112.666C161.965 112.917 160.885 113.167 159.804 113.417C160.164 114.055 160.524 114.693 160.883 115.33C156.802 118.433 156.333 124.301 156.357 129.427C156.382 134.553 156.289 140.334 152.57 143.863C149.255 147.007 144.195 147.222 139.628 147.077C128.4 146.721 117.205 145.294 106.246 142.822C105.314 142.612 104.134 142.484 103.597 143.273C99.7092 148.989 91.5798 149.5 84.6852 149.003C75.8291 148.364 67.0239 147.02 58.38 144.99C53.477 143.838 48.2705 142.235 45.216 138.23C41.6552 133.562 42.0664 127.089 42.6442 121.246C39.1336 123.198 34.9717 123.954 30.999 123.36C35.1866 120.622 37.2174 115.385 37.2555 110.382C37.2937 105.379 35.6237 100.529 33.7657 95.8839C29.6721 98.2583 27.5183 103.263 27.8386 107.985C28.1589 112.706 30.664 117.089 34.0251 120.42C29.8817 117.805 27.1401 113.094 26.9131 108.2C26.6862 103.306 28.9802 98.3616 32.8638 95.3746C32.2433 93.2523 29.0416 92.993 27.3635 94.4329C25.6855 95.8728 25.1589 98.2099 24.7272 100.378C23.9297 104.385 23.1288 108.486 23.7083 112.53C24.2878 116.575 26.5218 120.623 30.2654 122.259C28.5159 123.52 26.1858 121.705 25.0239 119.888C20.3122 112.52 20.1699 102.477 24.671 94.9786C25.2116 94.0778 25.8355 93.1901 26.7159 92.6169C27.6493 92.0092 28.7873 91.8094 29.8968 91.7111C34.2728 91.3236 38.7627 92.345 42.5404 94.5876C42.5067 82.3094 42.473 70.0313 42.4392 57.7532C42.4373 57.05 42.4471 56.3039 42.822 55.7091C43.3641 54.8487 44.4748 54.582 45.4745 54.3954C54.5685 52.6977 63.7656 51.5528 72.9982 50.969C76.0149 50.7782 80.1434 51.6178 80.1571 54.6405ZM73.9909 51.7088C64.2022 52.1695 54.4488 53.3796 44.8443 55.3249C44.4356 55.4076 44.0027 55.5043 43.7056 55.797C43.3009 56.1957 43.2696 56.8274 43.2642 57.3955C43.1495 69.6212 43.198 81.8484 43.4097 94.0728C44.5851 93.7797 45.7605 93.4866 46.9358 93.1936C46.4764 90.6852 46.015 88.1428 46.2114 85.6002C46.4079 83.0576 47.3409 80.4718 49.2601 78.7924C51.3371 76.9749 54.2357 76.4613 56.989 76.268C59.6366 76.0821 62.3003 76.1251 64.9406 76.3965C67.6358 76.6736 70.4749 77.272 72.4193 79.1588C75.2281 81.8843 75.2735 86.2999 75.1281 90.2109C74.7421 100.593 74.3561 110.976 73.9701 121.358C73.8795 123.795 73.7835 126.265 73.0663 128.596C72.349 130.927 70.9254 133.142 68.7715 134.286C66.6579 135.408 64.1289 135.377 61.751 135.106C59.4808 134.848 57.2324 134.398 55.0378 133.763C53.7048 133.376 52.3709 132.911 51.238 132.11C47.4891 129.457 47.0458 124.163 46.9548 119.571C45.5153 119.311 44.1081 120.407 43.5137 121.743C42.9194 123.08 42.9457 124.599 42.9826 126.061C43.0747 129.709 43.2168 133.538 45.0789 136.676C47.9519 141.518 53.9865 143.306 59.4962 144.462C69.2757 146.514 79.2049 147.852 89.1787 148.463C84.7275 146.196 80.7811 142.315 79.8423 137.409C79.5873 136.076 79.5599 134.712 79.5333 133.355C79.0136 106.828 78.494 80.3001 77.9743 53.7725C77.9414 52.0948 75.6669 51.6299 73.9909 51.7088ZM111.937 95.2621C111.689 95.8659 111.509 96.5359 111.674 97.1674C111.839 97.7988 112.453 98.3502 113.096 98.243C115.98 97.7628 119.088 99.183 120.612 101.677C121.87 103.735 122.045 106.253 122.186 108.661L123.476 130.593C123.614 132.937 123.682 135.516 122.225 137.357C120.335 139.746 116.786 139.826 113.755 139.529C111.253 139.284 108.622 138.868 106.68 137.273C106.748 138.201 106.478 139.152 105.93 139.904C105.253 140.834 106.345 142.057 107.407 142.496C108.704 143.033 110.115 143.22 111.507 143.401C117.884 144.228 124.264 145.026 130.648 145.795C135.561 146.386 140.554 146.959 145.439 146.165C142.348 145.298 139.391 143.958 136.702 142.205C135.36 141.331 134.063 140.332 133.148 139.018C131.654 136.873 131.339 134.147 131.091 131.545C130.351 123.806 129.801 116.05 129.441 108.285C129.175 102.558 127.339 96.9113 124.184 92.1233C123.62 91.2672 122.931 90.3788 121.933 90.1404C117.969 89.1927 113.484 91.4907 111.937 95.2621ZM93.7581 144.825C94.0944 144.882 94.4395 144.957 94.7167 145.156C94.9939 145.355 95.1873 145.708 95.1019 146.038C95.0166 146.368 94.5807 146.586 94.3053 146.384C94.0014 146.162 93.5972 146.154 93.235 146.052C92.8729 145.95 92.4932 145.649 92.5583 145.278C92.6408 144.808 93.2877 144.745 93.7581 144.825ZM79.7959 144.964C80.2132 145.051 80.7016 145.348 80.6161 145.766C80.5407 146.134 80.0853 146.257 79.7127 146.306C79.2953 146.362 78.8496 146.414 78.4705 146.23C78.0914 146.047 77.8455 145.529 78.0942 145.189C78.262 144.96 78.5759 144.899 78.8597 144.887C79.1734 144.874 79.4886 144.9 79.7959 144.964ZM104.758 140.324C104.362 140.609 104.09 141.03 103.811 141.431C102.537 143.256 100.922 144.842 99.0752 146.084C99.1214 146.28 99.4149 146.23 99.589 146.129C101.728 144.89 103.254 142.843 104.719 140.852C104.839 140.689 104.938 140.417 104.758 140.324ZM123.883 91.0186C125.024 92.366 126.174 93.7262 127.008 95.2821C127.913 96.9689 128.422 98.838 128.831 100.708C131.121 111.169 130.51 122.044 131.994 132.649C132.262 134.563 132.616 136.517 133.611 138.173C134.778 140.113 136.714 141.458 138.686 142.569C140.281 143.468 141.946 144.257 143.697 144.789C146.483 145.636 149.829 145.695 151.964 143.716C153.164 142.605 153.794 141.019 154.287 139.46C156.399 132.779 156.631 125.514 154.95 118.711C154.992 122.78 155.521 126.839 155.4 130.906C155.279 134.973 154.444 139.161 152.053 142.453C151.58 143.106 151.031 143.731 150.315 144.102C149.373 144.591 148.253 144.581 147.199 144.452C145.359 144.228 143.559 143.671 141.913 142.819C140.662 142.171 139.505 141.357 138.384 140.505C137.081 139.514 135.801 138.446 134.888 137.087C133.983 135.74 133.479 134.167 133.079 132.595C130.158 121.113 132.246 108.727 128.78 97.398C127.963 94.728 126.544 91.8632 123.883 91.0186ZM54.1901 141.531C60.934 142.572 67.6779 143.613 74.4218 144.654C74.2509 145.1 73.6343 145.115 73.1608 145.052C67.3933 144.282 61.6258 143.511 55.8583 142.741C55.2063 142.654 54.5543 142.567 53.9023 142.48C53.5928 142.438 53.2085 142.326 53.1694 142.016C53.1143 141.58 53.7552 141.464 54.1901 141.531ZM132.422 101.903C130.998 103.488 131.101 105.88 131.287 108.003C131.696 112.65 132.104 117.297 132.512 121.943C132.531 122.161 132.555 122.39 132.682 122.567C132.891 122.857 133.294 122.907 133.65 122.932C138.499 123.274 143.347 123.615 148.196 123.957C147.833 124.53 147.016 124.538 146.34 124.486C141.775 124.134 137.192 124.02 132.616 124.144C132.537 126.491 132.883 128.852 133.632 131.078C133.956 132.042 135.206 132.248 136.223 132.289C140.101 132.446 143.98 132.603 147.858 132.76C148.036 133.162 147.41 133.413 146.97 133.408C142.984 133.362 138.997 133.316 135.011 133.27C134.465 133.264 134.267 134.037 134.473 134.543C135.011 135.865 136.723 136.15 138.147 136.239L147.06 136.797C147.263 136.81 147.306 137.13 147.157 137.269C147.008 137.409 146.782 137.412 146.578 137.408L136.143 137.187C138.841 140.398 142.626 142.68 146.725 143.567C147.608 143.758 148.545 143.884 149.403 143.601C150.43 143.262 151.187 142.39 151.78 141.485C154.924 136.689 154.715 130.517 154.393 124.79L154.029 118.3C154.156 118.125 154.418 118.064 154.609 118.165C154.683 117.847 154.269 117.658 153.948 117.599C146.855 116.297 139.576 114.992 132.478 116.264C132.251 116.171 132.253 115.818 132.426 115.644C132.598 115.469 132.86 115.427 133.103 115.393C134.073 115.26 135.044 115.126 136.014 114.993C133.787 113.987 132.437 111.598 132.034 109.188C131.631 106.778 132.025 104.314 132.422 101.903ZM97.5619 141.361C98.1936 141.478 98.9232 141.671 99.1697 142.265C98.4664 142.744 97.5427 142.695 96.6942 142.627C96.4607 142.608 96.2057 142.58 96.0416 142.413C95.7515 142.117 95.968 141.572 96.3413 141.392C96.7147 141.213 97.1546 141.285 97.5619 141.361ZM49.4468 137.025C56.7126 139.308 64.2418 140.751 71.8368 141.317C72.4259 141.361 73.2178 141.642 73.1047 142.222C65.0722 141.313 57.0889 139.971 49.2012 138.202C48.6978 138.089 48.0521 137.73 48.2395 137.25C48.4042 136.827 49.0143 136.889 49.4468 137.025ZM76.0594 140.549C76.4304 140.548 76.7886 140.675 77.1353 140.807C77.3117 140.874 77.5058 140.96 77.5742 141.136C77.7199 141.511 77.203 141.779 76.8072 141.851C76.5409 141.899 76.2745 141.948 76.0081 141.996C75.7834 142.037 75.5416 142.075 75.3348 141.979C74.9988 141.821 74.9116 141.336 75.1043 141.019C75.2969 140.702 75.6884 140.549 76.0594 140.549ZM110.274 139.748C113.488 140.359 116.78 140.393 120.051 140.426C120.304 140.429 120.372 140.827 120.192 141.004C120.011 141.181 119.728 141.189 119.475 141.184C116.421 141.124 113.364 140.802 110.319 141.042C109.987 141.069 109.643 141.1 109.332 140.983C109.02 140.866 108.755 140.552 108.814 140.225C108.865 139.943 109.14 139.745 109.421 139.69C109.703 139.636 109.992 139.694 110.274 139.748ZM117.534 89.3642C113.895 89.9076 110.838 93.1464 110.506 96.8106C110.195 100.233 109.25 103.561 108.578 106.931C106.418 117.753 107.073 128.968 105.164 139.837C105.862 138.567 106.05 137.089 106.225 135.651L110.855 97.7394C110.978 96.7306 111.104 95.7102 111.466 94.7608C112.457 92.1659 115.016 90.536 117.534 89.3642ZM100.989 138.466C101.187 138.529 101.39 138.612 101.522 138.772C101.654 138.933 101.688 139.192 101.543 139.342C101.434 139.455 101.264 139.475 101.107 139.489C100.596 139.534 100.084 139.58 99.5728 139.625C99.2967 139.649 99.0114 139.673 98.7483 139.585C98.4852 139.498 98.2479 139.27 98.2403 138.993C98.2274 138.524 98.8064 138.288 99.2749 138.257C99.8525 138.22 100.437 138.291 100.989 138.466ZM111.76 99.2182C111.337 99.3703 111.224 99.905 111.176 100.352L109.579 115.223C109.484 116.104 110.622 116.666 111.48 116.448C112.339 116.23 112.994 115.559 113.736 115.076C114.479 114.592 115.525 114.314 116.207 114.88C116.977 115.519 118.118 114.809 118.787 114.064C119.456 113.32 120.327 112.422 121.279 112.733C120.163 113.801 119.046 114.869 117.93 115.937C117.56 116.291 117.233 116.998 117.701 117.207C118.984 116.752 120.143 115.955 121.028 114.92C121.436 114.907 121.456 115.549 121.227 115.889C120.368 117.168 118.345 117.452 117.824 118.903C116.608 122.288 112.817 124.537 109.263 123.98C108.534 123.866 108.171 124.825 108.083 125.557C107.733 128.478 107.384 131.399 107.034 134.32C106.953 134.992 106.878 135.703 107.155 136.321C107.616 137.351 108.851 137.741 109.946 138.019C112.002 138.54 114.092 139.064 116.212 138.989C118.332 138.914 120.524 138.157 121.866 136.514C121.494 136.031 120.666 136.65 120.125 136.371C119.595 136.098 119.877 135.188 120.445 135.009C121.014 134.83 121.614 135.115 122.142 135.391C122.474 134.744 122.815 134.051 122.747 133.327C122.679 132.603 122.014 131.887 121.305 132.05C120.839 132.157 120.649 131.349 121.025 131.054C121.401 130.758 121.94 130.854 122.405 130.964C122.431 129.217 122.457 127.469 122.483 125.722C122.488 125.365 122.489 124.991 122.32 124.677C122.151 124.363 121.75 124.143 121.429 124.298C120.991 124.509 120.611 123.763 120.904 123.375C121.197 122.987 121.75 122.937 122.236 122.92C122.274 121.368 122.173 119.813 121.937 118.278C120.108 119.195 119.788 121.613 119.603 123.651C119.249 127.559 118.538 131.434 117.48 135.212C117.243 136.059 116.976 136.924 116.422 137.607C115.868 138.289 114.956 138.753 114.105 138.531C114.296 137.91 114.946 137.577 115.421 137.135C116.278 136.339 116.596 135.136 116.875 134.001C117.84 130.079 118.811 126.108 118.799 122.069L118.797 121.798C118.791 121.029 118.783 120.249 119.036 119.527C119.32 118.719 120.03 117.989 120.886 117.985C121.788 117.98 122.003 116.728 121.923 115.83C121.645 112.731 121.366 109.632 121.088 106.533C120.999 105.543 120.909 104.544 120.608 103.597C119.498 100.094 115.218 97.9765 111.76 99.2182ZM125.377 137.014C125.801 137.128 126.213 137.564 126.036 137.966C125.868 138.351 125.34 138.372 124.922 138.332C124.718 138.313 124.5 138.288 124.34 138.159C124.061 137.933 124.1 137.454 124.362 137.207C124.624 136.961 125.029 136.921 125.377 137.014ZM74.4086 136.585C74.6876 136.645 74.9783 136.726 75.1789 136.929C75.3795 137.133 75.4458 137.495 75.2465 137.699C75.0836 137.866 74.8208 137.869 74.5877 137.861C74.2525 137.849 73.9173 137.837 73.5821 137.826C73.388 137.819 73.1805 137.807 73.0247 137.692C72.6916 137.444 72.8378 136.864 73.1954 136.653C73.553 136.443 74.003 136.497 74.4086 136.585ZM48.5821 133.544C50.4585 134.416 52.5201 134.797 54.5587 135.152C58.6857 135.871 62.8251 136.519 66.9745 137.094C67.5551 137.175 68.1981 137.289 68.5519 137.756C66.9451 137.866 65.3392 137.599 63.7509 137.332C58.5149 136.453 53.279 135.573 48.0431 134.694C47.4942 134.602 46.7856 134.297 46.8925 133.751C47.0192 133.104 47.9839 133.266 48.5821 133.544ZM81.1628 114.998C80.9806 115.729 81.0154 116.495 81.0403 117.248C81.1957 121.951 80.9167 126.668 80.2079 131.319C80.0389 132.428 80.7014 133.537 81.6121 134.192C82.5227 134.846 83.6446 135.128 84.7459 135.34C87.2289 135.818 89.7661 136.014 92.293 135.923C93.254 135.889 94.2547 135.8 95.0765 135.301C95.8546 134.828 96.3822 134.041 96.8466 133.258C98.8172 129.935 100.109 126.212 100.621 122.383C93.5327 122.351 86.487 119.677 81.1628 114.998ZM99.7014 133.643C100.185 133.803 100.669 133.962 101.153 134.122C101.315 134.175 101.488 134.237 101.583 134.378C101.745 134.615 101.588 134.962 101.338 135.103C101.087 135.244 100.784 135.236 100.497 135.225C99.9741 135.204 99.397 135.16 99.0323 134.785C98.6676 134.411 98.7927 133.602 99.3145 133.568C99.4464 133.56 99.5758 133.602 99.7014 133.643ZM125.069 133.713C125.357 133.759 125.661 133.812 125.882 134.001C126.104 134.19 126.195 134.565 125.991 134.773C125.908 134.856 125.794 134.899 125.683 134.938C125.255 135.087 124.779 135.206 124.356 135.044C123.932 134.881 123.643 134.321 123.909 133.954C124.154 133.617 124.657 133.647 125.069 133.713ZM49.8294 118.057C49.5312 118.198 49.2121 118.36 49.0648 118.655C48.9549 118.875 48.9606 119.133 48.9688 119.379C49.0803 122.729 49.2209 126.199 50.7193 129.198C51.1239 130.008 51.6387 130.787 52.3674 131.325C52.8089 131.65 53.3142 131.876 53.8152 132.099C54.6847 132.486 55.5561 132.873 56.4586 133.175C58.5261 133.868 60.7144 134.102 62.8826 134.333C63.8021 134.43 64.7813 134.518 65.6061 134.1C66.577 133.608 67.0944 132.543 67.512 131.537C69.8408 125.932 71.1704 119.914 71.4196 113.849C71.455 112.987 70.3518 112.607 69.4912 112.549C62.6213 112.088 56.0512 115.108 49.8294 118.057ZM72.4864 113.606C72.3101 113.838 72.2882 114.148 72.2708 114.439C71.8597 121.297 70.1527 128.076 67.2665 134.311C70.0163 132.919 72.0652 130.217 72.6626 127.193C72.868 126.154 72.91 125.09 72.9515 124.031C73.0822 120.693 73.2129 117.354 73.3436 114.016C73.3505 113.84 73.3518 113.646 73.2398 113.51C73.0546 113.285 72.6627 113.374 72.4864 113.606ZM73.6253 130.311C73.9742 130.33 74.3022 130.475 74.6413 130.559C74.9451 130.635 75.0367 131.067 74.8672 131.33C74.6977 131.593 74.3707 131.708 74.0607 131.751C73.7372 131.797 73.3892 131.779 73.111 131.608C72.8328 131.437 72.6522 131.079 72.7633 130.772C72.8822 130.444 73.2764 130.292 73.6253 130.311ZM125.269 129.404C125.595 129.472 125.875 129.674 126.144 129.871C126.29 129.978 126.445 130.098 126.492 130.272C126.553 130.495 126.406 130.735 126.204 130.846C126.002 130.957 125.759 130.964 125.529 130.946C125.202 130.92 124.864 130.839 124.618 130.623C124.371 130.407 124.246 130.027 124.399 129.738C124.556 129.443 124.943 129.337 125.269 129.404ZM47.6551 119.032C47.5659 119.192 47.5839 119.387 47.6045 119.568L48.0892 123.836C48.3522 126.152 48.6967 128.648 50.3157 130.325C50.5856 130.197 50.4333 129.792 50.2631 129.546C48.9518 127.654 48.6992 125.247 48.4865 122.955C48.3618 121.611 48.2372 120.267 48.1125 118.923C47.9872 118.791 47.7443 118.873 47.6551 119.032ZM133.982 127.775C138.43 127.885 142.878 127.995 147.325 128.105C148.006 128.122 148.689 128.139 149.362 128.24C149.222 128.726 148.582 128.817 148.076 128.813C143.616 128.771 139.141 128.495 134.705 128.958C134.325 128.998 133.916 129.037 133.587 128.844C133.258 128.652 133.11 128.123 133.413 127.891C133.57 127.771 133.784 127.77 133.982 127.775ZM121.762 126.901C121.86 126.933 121.96 126.967 122.04 127.033C122.306 127.249 122.207 127.711 121.935 127.92C121.663 128.129 121.296 128.153 120.954 128.161C120.597 128.17 120.181 128.142 119.978 127.849C119.723 127.48 120.026 126.936 120.448 126.786C120.871 126.637 121.336 126.762 121.762 126.901ZM125.014 126.003C125.429 126.047 125.832 126.193 126.18 126.423C126.446 126.599 126.393 127.04 126.151 127.248C125.909 127.455 125.564 127.484 125.245 127.473C124.923 127.461 124.587 127.412 124.326 127.222C124.065 127.033 123.91 126.666 124.05 126.375C124.209 126.044 124.648 125.963 125.014 126.003ZM80.2078 115.852C79.9656 119.343 79.857 122.843 79.8825 126.342C79.8836 126.49 79.9842 126.7 80.1105 126.624C80.3784 123.682 80.5098 120.729 80.5043 117.775C80.5031 117.121 80.4898 116.443 80.2078 115.852ZM75.4531 124.808C75.8347 124.836 76.1714 125.058 76.4824 125.281C76.5781 125.35 76.6767 125.423 76.7302 125.528C76.8412 125.746 76.7082 126.025 76.4999 126.153C76.2915 126.28 76.0336 126.29 75.7898 126.278C75.2352 126.253 74.5379 125.951 74.5999 125.399C74.6427 125.019 75.0715 124.779 75.4531 124.808ZM125.938 122.456C126.309 122.609 126.691 123.007 126.5 123.359C126.37 123.598 126.053 123.65 125.781 123.652C125.466 123.656 125.15 123.63 124.839 123.576C124.402 123.499 124.335 122.812 124.674 122.526C125.014 122.24 125.527 122.288 125.938 122.456ZM169.218 115.626C169.371 115.882 169.374 116.197 169.372 116.496C169.359 118.608 169.346 120.721 169.333 122.833C169.331 123.09 169.297 123.4 169.064 123.508C168.863 123.601 168.615 123.47 168.503 123.279C168.391 123.088 168.381 122.855 168.377 122.634C168.344 120.748 168.555 118.817 168.021 117.008C167.862 116.471 167.672 115.799 168.087 115.423C168.411 115.128 168.993 115.25 169.218 115.626ZM114.91 115.381C113.309 116.375 111.624 117.396 109.745 117.532C109.403 117.556 109.249 117.965 109.181 118.301C108.878 119.813 108.71 121.352 108.682 122.894C108.68 122.989 108.681 123.09 108.735 123.167C108.822 123.289 108.999 123.294 109.148 123.287C110.615 123.21 112.101 123.057 113.463 122.508C114.825 121.959 116.063 120.964 116.618 119.605C117.173 118.246 116.906 116.512 115.773 115.578C115.529 115.377 115.178 115.215 114.91 115.381ZM102.651 121.327C103.166 121.462 103.68 121.597 104.195 121.732C104.387 121.783 104.601 121.85 104.693 122.026C104.801 122.234 104.675 122.501 104.479 122.63C104.283 122.758 104.039 122.782 103.806 122.803C103.436 122.836 103.056 122.867 102.701 122.758C102.346 122.649 102.019 122.363 101.979 121.994C101.938 121.625 102.292 121.233 102.651 121.327ZM31.2875 93.1775C33.2129 93.9573 34.6621 95.6441 35.561 97.5168C36.4599 99.3896 36.8692 101.455 37.2259 103.501C37.8163 106.888 38.2864 110.345 37.8559 113.757C37.4254 117.168 35.9995 120.569 33.3561 122.767C35.2817 122.87 37.5808 122.794 38.6261 121.174C39.0953 120.447 40.105 120.125 40.9084 120.446C40.4033 120.01 40.7845 119.197 41.1594 118.644C42.6953 116.38 43.7492 113.778 44.1258 111.069C44.856 105.815 43.0201 100.49 40.296 95.9383C38.5287 92.9852 34.4061 91.7217 31.2875 93.1775ZM76.9401 120.394C77.3374 120.55 77.2448 121.207 76.8735 121.418C76.5022 121.629 76.0394 121.534 75.6256 121.429C75.4326 121.379 75.2277 121.322 75.0967 121.172C74.7908 120.822 75.1418 120.23 75.5948 120.126C76.0478 120.021 76.5075 120.224 76.9401 120.394ZM91.2239 95.1114C89.5238 95.1416 87.7393 95.3488 86.3515 96.3311C85.8926 96.656 85.4757 97.0812 85.3081 97.6179C85.1404 98.1546 85.2816 98.814 85.7472 99.1293C86.9239 99.9262 87.4035 101.417 87.6241 102.821C87.8446 104.225 87.8976 105.695 88.5373 106.964C88.8673 107.619 89.3403 108.19 89.8364 108.729C92.5265 111.654 96.0352 113.817 99.8563 114.908C100.528 115.1 101.383 115.515 101.241 116.199C95.7434 115.046 90.7303 111.728 87.5203 107.119C86.5448 110.114 84.6207 112.793 82.0935 114.675C87.0233 118.87 93.4026 121.328 99.8727 121.525C100.166 121.533 100.497 121.522 100.695 121.306C100.825 121.164 100.865 120.965 100.9 120.776C101.816 115.851 102.462 110.876 102.833 105.881C102.96 104.172 103.053 102.435 102.683 100.761C102.314 99.0881 101.423 97.4615 99.9655 96.5596C99.0677 96.0039 98.0167 95.7545 96.9772 95.5691C95.0803 95.2307 93.1504 95.0772 91.2239 95.1114ZM125.002 119.078C125.448 119.078 126.011 119.209 126.089 119.647C126.167 120.085 125.668 120.411 125.228 120.467C124.905 120.508 124.555 120.469 124.299 120.268C124.044 120.068 123.925 119.675 124.102 119.403C124.284 119.124 124.669 119.078 125.002 119.078ZM157.937 110.296C157.119 113.466 156.641 116.711 156.165 119.95C156.142 120.111 156.128 120.301 156.25 120.41C157.525 118.825 158.695 117.156 159.749 115.417C159.853 115.245 159.955 115.021 159.839 114.857C159.574 114.488 159.31 114.119 159.046 113.749C158.85 113.475 158.648 113.114 158.82 112.825C158.961 112.589 159.274 112.54 159.547 112.514L161.788 112.308C161.764 112.169 161.679 112.05 161.597 111.935C160.997 111.1 160.343 110.223 159.382 109.856C158.85 109.653 158.08 109.745 157.937 110.296ZM54.1686 77.5105C52.5307 77.7854 50.7566 78.2591 49.8062 79.621C49.2742 80.3833 49.0785 81.3246 48.9222 82.2408C48.3075 85.845 48.1155 89.521 48.3514 93.1696C55.4123 89.8844 63.6738 89.2604 71.148 91.4476C71.782 91.6331 72.5664 92.1953 72.2336 92.7659C66.6269 90.6921 60.3819 90.3828 54.5978 91.8925C52.7261 92.381 50.9073 93.0528 49.0463 93.5804C46.2807 94.3646 43.4243 94.8282 40.5526 94.959C45.7827 102.06 46.4595 112.228 42.2167 119.96C44.8564 119.46 47.3368 118.351 49.7708 117.214C53.4049 115.515 57.0233 113.725 60.8836 112.634C64.7439 111.544 68.9176 111.188 72.7467 112.383C73.1946 112.523 73.4415 111.876 73.4594 111.407L74.2892 89.6681C74.4149 86.3749 74.4254 82.7335 72.2694 80.241C70.3616 78.0354 67.2503 77.3456 64.3447 77.0975C60.9533 76.808 57.5254 76.9471 54.1686 77.5105ZM104.755 117.86C104.862 117.929 104.973 118.018 104.998 118.143C105.049 118.398 104.739 118.56 104.489 118.631C104.126 118.734 103.752 118.837 103.377 118.798C103.001 118.758 102.62 118.543 102.496 118.186C102.373 117.829 102.621 117.361 102.998 117.354C103.617 117.343 104.237 117.521 104.755 117.86ZM158.014 104.18C156.648 104.946 155.016 105.226 153.473 104.959C153.671 105.509 154.536 105.701 154.54 106.286C154.543 106.642 154.208 106.892 154.017 107.193C153.87 107.424 153.807 107.697 153.748 107.965C153.198 110.482 152.883 113.051 152.807 115.626C152.794 116.07 152.904 116.656 153.345 116.704C154.259 116.804 155.12 117.317 155.644 118.073C156.073 115.373 156.502 112.672 156.931 109.972C157.031 109.345 157.115 108.645 156.748 108.128C156.242 107.416 156.682 106.441 157.125 105.689L158.014 104.18ZM76.6892 115.852C77.1554 115.945 77.6858 116.347 77.5092 116.789C77.4003 117.061 77.0718 117.17 76.7793 117.186C76.4868 117.202 76.1825 117.158 75.9086 117.262C75.5863 117.384 75.2068 117.099 75.1675 116.756C75.1281 116.414 75.3662 116.081 75.6763 115.931C75.9865 115.781 76.3511 115.784 76.6892 115.852ZM124.997 115.435C125.291 115.475 125.601 115.54 125.815 115.746C126.028 115.951 126.087 116.343 125.86 116.533C125.784 116.596 125.689 116.629 125.597 116.661C125.193 116.798 124.761 116.933 124.347 116.831C123.932 116.729 123.572 116.289 123.716 115.887C123.881 115.424 124.509 115.367 124.997 115.435ZM151.75 109.883C151.438 109.958 151.211 110.218 151.006 110.464L149.77 111.944C149.529 112.233 149.954 112.636 150.329 112.668C150.705 112.699 151.144 112.611 151.411 112.876C151.691 113.155 151.575 113.64 151.346 113.962C151.117 114.283 150.792 114.545 150.653 114.915C150.446 115.468 150.789 116.16 151.354 116.33C151.661 116.423 152.091 116.281 152.094 115.96C152.11 114.087 152.22 112.214 152.422 110.351C152.457 110.033 152.061 109.808 151.75 109.883ZM89.0389 110.814C89.2756 110.971 89.4288 111.223 89.5867 111.459C90.9426 113.49 93.2103 114.885 95.6338 115.18C96.1944 115.248 96.8558 115.316 97.1369 115.806C96.6088 116.329 95.7484 116.265 95.0245 116.097C92.4587 115.5 90.1076 114.018 88.4629 111.96C88.2006 111.632 87.9611 111.132 88.2536 110.831C88.4515 110.627 88.8022 110.657 89.0389 110.814ZM150.417 101.843C148.605 102.288 146.795 102.916 145.327 104.067C143.858 105.218 142.766 106.967 142.778 108.833C142.792 111.199 141.63 113.544 139.737 114.965L142.923 115.34C143.296 115.383 143.715 115.415 144.007 115.179C144.434 114.834 144.324 114.17 144.216 113.632C144.109 113.093 144.132 112.381 144.645 112.183C145.281 111.937 145.808 112.82 145.712 113.495C145.615 114.171 145.223 114.821 145.346 115.492C146.855 115.706 148.368 115.886 149.885 116.033C149.583 115.785 149.55 115.316 149.703 114.956C149.856 114.597 150.152 114.322 150.44 114.059C150.747 113.778 150.305 113.283 149.891 113.239C149.478 113.194 148.991 113.294 148.7 112.997C148.337 112.628 148.609 112.01 148.919 111.595C149.519 110.791 150.263 109.821 149.876 108.895C148.934 106.636 149.142 103.931 150.417 101.843ZM80.9283 95.6702C80.6758 101.854 80.7104 108.05 81.0319 114.23C83.3941 112.949 85.1201 110.693 86.1904 108.228C86.8435 106.724 87.2806 105.066 87.0195 103.448C86.8249 102.24 86.2534 101.125 85.5889 100.099C84.41 98.2782 82.8713 96.6346 80.9283 95.6702ZM135.702 92.7075C136.551 92.5513 137.199 93.5985 137.055 94.4489C136.91 95.2993 136.292 95.9755 135.801 96.6845C135.122 97.6643 134.658 98.7734 134.199 99.8732C133.106 102.49 132.681 105.382 132.974 108.203C133.147 109.863 133.602 111.569 134.724 112.805C135.847 114.04 137.772 114.658 139.252 113.885C140.522 113.22 141.156 111.756 141.448 110.352C141.739 108.948 141.791 107.479 142.342 106.155C143.357 103.712 145.862 102.236 148.34 101.31C144.615 100.804 141.245 98.2086 139.804 94.7366C139.391 93.7409 139.081 92.6183 138.224 91.9646C137.367 91.3109 135.753 91.6307 135.702 92.7075ZM104.217 112.628C104.479 112.678 104.736 112.754 104.983 112.855C105.391 113.021 105.829 113.479 105.567 113.833C105.424 114.026 105.148 114.049 104.908 114.055C104.47 114.067 103.997 114.068 103.639 113.815C103.281 113.562 103.157 112.949 103.518 112.7C103.716 112.564 103.981 112.582 104.217 112.628ZM123.965 111.584C124.319 111.614 124.672 111.663 125.022 111.731C125.195 111.765 125.381 111.812 125.49 111.951C125.654 112.161 125.551 112.49 125.342 112.657C125.134 112.824 124.857 112.871 124.593 112.912C124.19 112.975 123.761 113.035 123.389 112.867C123.017 112.699 122.764 112.208 122.991 111.869C123.189 111.574 123.61 111.554 123.965 111.584ZM22.5864 109.676C22.2861 109.673 22.1821 110.074 22.1913 110.374C22.2174 111.237 22.3921 112.095 22.7052 112.9C22.7924 112.989 22.8936 112.803 22.8814 112.679L22.5864 109.676ZM80.3039 111.898C80.1165 112 80.0451 112.269 80.1576 112.45L80.1621 112.457L80.1581 112.461C80.153 112.467 80.1476 112.474 80.142 112.483C80.0665 112.597 80.1723 112.778 80.3087 112.769C80.401 112.488 80.3993 112.177 80.3039 111.898ZM76.3999 110.677C76.8064 110.767 77.2476 111.104 77.1465 111.508C77.0794 111.775 76.7979 111.932 76.5287 111.992C76.2594 112.052 75.9748 112.048 75.7177 112.148C75.3907 112.275 74.9969 112.011 74.9295 111.667C74.8622 111.323 75.0731 110.963 75.3774 110.789C75.6818 110.614 76.0574 110.601 76.3999 110.677ZM78.7521 53.7168C78.7757 72.3322 79.2034 90.947 80.0347 109.544L80.1221 111.467L80.1353 110.848C80.1593 109.403 80.1381 107.957 80.1169 106.511C79.8688 89.5663 79.6206 72.6217 79.3724 55.677C79.362 54.9676 79.3062 54.1601 78.7521 53.7168ZM105.378 107.955C105.606 108.023 105.835 108.126 105.983 108.313C106.13 108.499 106.173 108.786 106.026 108.974C105.885 109.155 105.628 109.19 105.399 109.21L104.419 109.297C104.259 109.311 104.087 109.323 103.948 109.243C103.835 109.178 103.761 109.059 103.727 108.934C103.624 108.557 103.879 108.147 104.232 107.979C104.585 107.811 105.003 107.843 105.378 107.955ZM26.4883 93.3828C25.4701 94.3834 24.9404 95.7664 24.4511 97.1075C23.0875 100.844 21.7917 104.811 22.4645 108.731C22.6726 108.769 22.7717 108.486 22.7872 108.275C23.0638 104.493 23.8196 100.746 25.0308 97.1523C25.493 95.7811 26.0488 94.3886 27.0755 93.3689C27.0614 93.1205 26.6657 93.2085 26.4883 93.3828ZM151.67 101.557C151.492 101.601 151.377 101.769 151.284 101.926C150.408 103.413 149.995 105.169 150.118 106.89C150.168 107.601 150.397 108.42 151.061 108.679C151.601 108.161 152.14 107.643 152.68 107.124C152.766 107.042 152.853 106.957 152.901 106.848C153.019 106.575 152.85 106.271 152.694 106.018C151.925 104.766 151.348 103.18 151.988 101.858C152.068 101.694 151.847 101.514 151.67 101.557ZM162.884 99.9531C162.798 99.9981 162.731 100.072 162.667 100.145C161.074 101.947 159.535 103.797 158.054 105.692C157.744 106.087 157.422 106.534 157.452 107.035C157.479 107.481 157.792 107.869 158.172 108.104C158.552 108.338 158.995 108.445 159.43 108.548C159.546 108.576 159.672 108.603 159.781 108.555C159.882 108.51 159.946 108.411 160.004 108.318C160.911 106.856 161.83 105.364 162.259 103.698C162.35 103.342 162.658 103.094 162.905 102.822C163.388 102.288 163.672 101.576 163.688 100.855C163.694 100.611 163.665 100.354 163.524 100.155C163.383 99.9556 163.1 99.8402 162.884 99.9531ZM124.082 107.086C124.302 107.14 124.544 107.223 124.642 107.427C124.816 107.786 124.409 108.16 124.028 108.278C123.733 108.369 123.404 108.401 123.121 108.277C122.838 108.153 122.623 107.841 122.687 107.539C122.801 107.002 123.55 106.954 124.082 107.086ZM76.7633 106.302C76.8669 106.395 76.963 106.504 77.0023 106.638C77.0814 106.906 76.8938 107.202 76.6366 107.313C76.3793 107.423 76.0789 107.381 75.8197 107.275C75.5467 107.164 75.2808 106.951 75.2461 106.658C75.2064 106.323 75.5097 106.015 75.8434 105.967C76.177 105.918 76.5122 106.077 76.7633 106.302ZM106.29 103.359C106.556 103.467 106.584 103.87 106.401 104.091C106.217 104.313 105.911 104.386 105.624 104.41C105.338 104.434 105.041 104.424 104.774 104.529C104.363 104.69 103.915 104.193 104.013 103.762C104.111 103.331 104.574 103.064 105.015 103.043C105.456 103.023 105.881 103.192 106.29 103.359ZM123.626 102.711C124.003 102.73 124.377 102.829 124.714 103C124.86 103.074 125.011 103.177 125.052 103.335C125.138 103.662 124.728 103.886 124.397 103.95C124.103 104.006 123.805 104.04 123.506 104.05C123.136 104.063 122.691 103.992 122.544 103.653C122.43 103.39 122.569 103.067 122.803 102.901C123.037 102.734 123.339 102.697 123.626 102.711ZM147.962 78.602C145.759 78.9574 143.547 79.2519 141.329 79.4852C139.722 79.6541 138.208 80.5658 137.307 81.9074C137.122 82.183 136.995 82.6228 137.281 82.7918C138.089 81.859 139.187 81.1802 140.383 80.8735C140.81 80.7639 141.278 80.7041 141.681 80.8836C142.084 81.0632 142.372 81.5576 142.19 81.9595C141.91 82.5764 141.017 82.4039 140.34 82.3626C138.46 82.2479 136.833 84.4005 137.457 86.1785C137.895 84.4812 140.318 83.7443 141.676 84.8524C143.034 85.9605 142.868 88.394 141.416 89.375C140.936 89.6992 140.319 89.9252 140.1 90.4614C139.912 90.9212 140.093 91.4403 140.273 91.9031C140.556 92.6294 140.839 93.3558 141.122 94.0821C141.715 95.6049 142.344 97.1833 143.544 98.2924C144.467 99.1454 145.664 99.6528 146.885 99.9504C151.287 101.023 156.242 99.3158 159.048 95.7593C159.273 95.4743 159.787 95.7447 159.827 96.1055C159.867 96.4664 159.62 96.7909 159.376 97.0596C158.119 98.4429 156.535 99.5267 154.791 100.197C153.966 100.514 152.986 100.857 152.733 101.703C152.523 102.404 152.964 103.178 153.599 103.543C154.233 103.907 155.006 103.938 155.733 103.859C157.183 103.7 158.587 103.132 159.739 102.238C160.089 101.967 160.427 101.65 160.582 101.236C160.729 100.844 160.696 100.41 160.66 99.993L160.629 99.6343C160.493 98.0784 160.317 96.5044 159.683 95.0816C159.377 94.3972 158.969 93.756 158.745 93.0411C158.468 92.1595 158.484 91.2137 158.298 90.3085C158.112 89.4034 157.64 88.4632 156.779 88.1296C157.006 87.5512 157.574 87.1873 157.942 86.6863C158.31 86.1852 158.364 85.3099 157.785 85.0836C157.508 84.9754 157.193 85.0686 156.929 85.2056C155.817 85.7831 155.217 87.196 155.574 88.3969C155.807 89.1807 154.569 89.7065 153.902 89.2331C153.236 88.7597 153.072 87.8582 152.94 87.0513C152.431 83.9231 151.408 80.5508 148.736 78.8456C148.503 78.6966 148.235 78.5579 147.962 78.602ZM76.5298 100.791C76.881 100.905 77.2313 101.221 77.1582 101.583C77.0891 101.925 76.6953 102.085 76.3512 102.144C75.8631 102.228 75.2267 102.132 75.0895 101.656C74.9589 101.203 75.4329 100.77 75.9014 100.72C76.1126 100.698 76.3278 100.726 76.5298 100.791ZM132.86 94.2758C132.532 94.5862 132.373 95.0293 132.224 95.4552C131.888 96.4161 131.548 97.405 131.587 98.4221C131.612 99.0768 131.232 99.6666 130.961 100.263C130.69 100.86 130.542 101.624 130.968 102.122C131.983 101.269 132.226 99.8316 132.45 98.5242C132.717 96.9611 133.079 95.3407 134.09 94.1189C133.737 93.839 133.187 93.9655 132.86 94.2758ZM106.108 98.6323C106.369 98.7163 106.665 98.8842 106.668 99.1587C106.672 99.4926 106.261 99.6461 105.933 99.7062C105.768 99.7363 105.604 99.7665 105.439 99.7966C105.019 99.8733 104.57 99.947 104.18 99.7743C103.79 99.6016 103.53 99.0751 103.785 98.7329C103.949 98.5116 104.252 98.4513 104.528 98.4342C105.061 98.4013 105.6 98.4688 106.108 98.6323ZM67.9565 93.8106C68.4155 94.0302 68.9291 94.4628 68.7591 94.9424C64.0297 93.9113 58.9771 94.4213 54.5491 96.3766C52.5567 97.2565 50.6864 98.4199 48.6243 99.1212C47.9189 99.3612 47.1487 99.5454 46.436 99.3278C45.7233 99.1102 45.129 98.354 45.3374 97.6386C45.5331 96.967 46.2809 96.6479 46.9434 96.4236C50.2089 95.3181 53.5312 94.3806 56.8928 93.616C60.5606 92.7817 64.5631 92.1875 67.9565 93.8106ZM135.864 93.754C135.527 93.7526 135.243 94.0004 135.021 94.2548C134.482 94.8719 134.099 95.6121 133.815 96.3801C133.461 97.3343 133.251 98.3419 133.196 99.3581C134.174 97.6758 135.22 96.0329 136.329 94.4346C136.522 94.1572 136.202 93.7554 135.864 93.754ZM129.872 96.7509C129.779 96.7514 129.682 96.7548 129.603 96.8044C129.427 96.9161 129.452 97.1769 129.504 97.3788C129.67 98.0191 129.899 98.6429 130.188 99.2379C130.361 98.3994 130.639 97.5826 131.013 96.8125C130.635 96.7692 130.253 96.7486 129.872 96.7509ZM55.7632 94.5891C52.9638 95.4495 50.1644 96.3099 47.365 97.1703C47.0306 97.2731 46.6426 97.4317 46.5714 97.7743C46.799 98.1064 47.2325 98.2473 47.6346 98.2278C48.0367 98.2083 48.4185 98.054 48.7912 97.9017C51.6312 96.7413 54.4712 95.5809 57.3112 94.4205C56.804 94.2788 56.2666 94.4344 55.7632 94.5891ZM85.3041 96.1595C85.1537 96.4203 84.8408 96.531 84.6062 96.7197C84.3717 96.9085 84.2341 97.3147 84.4817 97.4859C84.8609 97.1063 85.2401 96.7267 85.6193 96.347C85.5409 96.2499 85.4269 96.1821 85.3041 96.1595ZM114.841 95.9575C116.875 96.1694 118.929 96.2777 120.967 96.1021C121.494 96.0567 122.125 96.0354 122.438 96.4623C122.043 96.8646 121.422 96.9132 120.858 96.9373C118.743 97.0279 116.627 97.1185 114.511 97.2091C114.099 97.2268 113.576 97.1743 113.442 96.7835C113.337 96.4758 113.576 96.1365 113.877 96.013C114.178 95.8896 114.517 95.9238 114.841 95.9575ZM146.299 93.7342C146.792 94.3331 146.972 95.1756 146.767 95.9233C146.716 96.1079 146.642 96.2888 146.524 96.4395C146.215 96.8346 145.643 96.9514 145.155 96.8344C144.667 96.7175 144.249 96.4067 143.876 96.0703C143.492 95.7236 143.132 95.3285 142.948 94.8451C142.764 94.3617 142.785 93.7736 143.112 93.3727C143.381 93.0422 143.817 92.8837 144.242 92.8526C145.015 92.796 145.807 93.1353 146.299 93.7342ZM77.7038 95.1265C77.8982 95.2836 77.8656 95.6099 77.6996 95.7968C77.5336 95.9836 77.2804 96.0634 77.0379 96.1239C76.7515 96.1953 76.4504 96.2511 76.1632 96.1829C75.8761 96.1146 75.6068 95.8919 75.5715 95.5988C75.5203 95.1737 75.9652 94.8411 76.3882 94.7744C76.8499 94.7016 77.3401 94.8328 77.7038 95.1265ZM144.046 93.8753C143.831 94.1544 143.973 94.6579 144.322 94.7057C144.726 94.7608 145.04 95.1849 144.975 95.5871C144.924 95.9028 145.309 96.1666 145.614 96.0719C145.92 95.9771 146.096 95.6346 146.089 95.3149C146.083 94.9951 145.93 94.697 145.757 94.4281C145.566 94.1315 145.333 93.8435 145.011 93.6991C144.69 93.5548 144.262 93.5962 144.046 93.8753ZM142.972 65.2097C140.038 65.747 137.132 67.0284 135.24 69.3336C133.348 71.6389 132.694 75.0889 134.173 77.6786C134.696 78.5937 135.494 79.3918 136.497 79.7139C137.501 80.036 138.714 79.799 139.384 78.985C140.143 78.0618 141.676 78.9473 142.819 78.5968C144.4 78.1121 146.043 77.8308 147.695 77.7621C148.087 77.7458 148.491 77.7434 148.857 77.8852C149.254 78.0391 149.567 78.3475 149.869 78.6479C150.915 79.6898 151.982 80.7619 152.601 82.102C153.583 84.2272 153.34 86.8186 154.58 88.804C154.725 87.559 154.87 86.3139 155.015 85.0689C155.069 84.6069 155.128 84.1271 155.378 83.7347C155.628 83.3424 156.127 83.067 156.564 83.2258C157.335 83.5059 158.138 83.8067 158.692 84.4124C159.245 85.0181 159.45 86.0276 158.918 86.6522C158.404 87.2557 158.987 88.128 159.26 88.8724C159.733 90.162 159.177 91.6356 159.549 92.9579C159.857 94.0533 160.747 94.8712 161.597 95.6275C161.846 95.8486 162.136 96.0843 162.467 96.0541C162.744 96.0289 162.967 95.8221 163.157 95.6179C164.287 94.4 165.061 92.8557 165.36 91.2216C165.481 90.5622 165.251 89.6016 164.587 89.6917C164.769 88.1098 166.223 87.0321 167.077 85.6883C167.998 84.2388 168.215 82.4565 168.258 80.7397C168.3 79.0142 168.131 77.139 166.981 75.8518C165.6 74.3054 162.916 74.1898 161.406 75.6118C161.03 75.9663 160.534 76.4348 160.086 76.1783C160.437 75.5472 160.789 74.9162 161.141 74.2852C161.714 73.2568 162.299 72.1911 162.416 71.0195C162.646 68.7079 160.886 66.5192 158.71 65.7063C156.534 64.8934 154.077 65.2305 151.895 66.0255C151.347 66.2248 150.701 66.6528 150.849 67.2159C150.935 67.5419 151.266 67.7388 151.435 68.0303C151.541 68.212 151.53 68.2703 151.411 68.4173C151.339 68.5062 151.209 68.7633 151.092 68.7132C149.854 67.2799 148.516 65.7794 146.702 65.2374C145.499 64.8781 144.206 64.9836 142.972 65.2097ZM128.917 94.769C128.762 94.6774 128.466 94.6172 128.495 94.7946C128.578 95.2288 128.969 95.5517 129.391 95.6844C129.813 95.8171 130.265 95.7947 130.707 95.771C130.88 95.7617 131.064 95.7484 131.201 95.6434C131.316 95.5555 131.38 95.4172 131.438 95.2846C131.539 95.0575 131.639 94.8304 131.74 94.6032C130.919 94.0693 129.759 95.2681 128.917 94.769ZM105.223 93.2861C105.568 93.312 105.911 93.3722 106.244 93.4656C106.533 93.5464 106.864 93.7155 106.879 94.015C106.897 94.4093 106.384 94.5704 105.991 94.6043C105.591 94.6389 105.191 94.6735 104.79 94.7081C104.499 94.7333 104.169 94.7462 103.955 94.5469C103.667 94.2793 103.783 93.7602 104.095 93.5208C104.406 93.2815 104.831 93.2567 105.223 93.2861ZM114.583 93.2004C116.497 93.4566 118.437 93.5184 120.364 93.3844C120.59 93.3687 120.836 93.3555 121.022 93.4847C121.209 93.6139 121.255 93.9471 121.052 94.0474C120.99 94.0778 120.919 94.0809 120.85 94.0835C118.521 94.1714 116.192 94.2593 113.863 94.3472C113.65 94.3552 113.417 94.3564 113.253 94.2204C112.961 93.977 113.129 93.4563 113.464 93.2765C113.799 93.0967 114.206 93.1499 114.583 93.2004ZM133.169 91.3032C132.425 91.3432 131.669 91.4122 130.982 91.7006C130.295 91.989 129.679 92.5316 129.474 93.2475C129.433 93.3928 129.417 93.5717 129.529 93.6738C129.615 93.7532 129.746 93.7544 129.864 93.7498C131.099 93.7012 132.329 93.5173 133.524 93.2022C134.119 93.0456 134.835 92.6678 134.755 92.0585C134.713 91.7377 134.436 91.4869 134.13 91.3807C133.824 91.2745 133.492 91.2858 133.169 91.3032ZM47.3783 91.2136C47.2597 91.8411 47.2307 92.4855 47.2924 93.1212C47.4461 93.287 47.6483 92.9632 47.6353 92.7375C47.6056 92.2221 47.5193 91.7101 47.3783 91.2136ZM87.1549 90.446C91.4368 90.6395 95.7187 90.833 100.001 91.0266C100.4 91.0446 100.931 91.1977 100.908 91.5971C100.397 91.9252 99.7373 91.8573 99.1341 91.7871C95.3172 91.3423 91.4557 91.2808 87.6265 91.6039C87.296 91.6318 86.9449 91.6588 86.6499 91.5071C86.3548 91.3555 86.1646 90.9512 86.3561 90.6804C86.5237 90.4434 86.865 90.4329 87.1549 90.446ZM76.7719 89.9969C76.9603 90.0254 77.1565 90.0746 77.2933 90.2072C77.6062 90.5103 77.413 91.0866 77.0367 91.3062C76.6605 91.5259 76.1945 91.4951 75.7604 91.4575C75.2841 91.4164 75.1295 90.7018 75.4424 90.3403C75.7553 89.9788 76.2991 89.9255 76.7719 89.9969ZM91.8318 88.4131C98.8103 88.7751 105.789 89.1371 112.767 89.4992C113.141 89.5186 113.636 89.6624 113.616 90.0361C112.465 90.2434 111.274 90.2203 110.132 89.9687L111.146 90.8412C110.662 91.146 110.147 91.4607 109.576 91.4733C109.005 91.486 108.383 91.0648 108.399 90.4936C108.688 90.3602 108.977 90.2268 109.266 90.0933C103.629 89.6104 97.9652 89.4341 92.3087 89.5657C91.9823 89.5733 91.634 89.5762 91.3583 89.4012C91.0827 89.2262 90.9432 88.8008 91.1714 88.5673C91.3346 88.4003 91.5987 88.401 91.8318 88.4131ZM137.019 89.3463C136.767 89.3601 136.554 89.527 136.359 89.6865C136.128 89.8756 135.897 90.0646 135.666 90.2537C135.424 90.4517 135.162 90.6881 135.147 91.0005C135.14 91.17 135.269 91.3713 135.434 91.3331C135.48 91.3225 135.52 91.2946 135.559 91.2672C136.109 90.8791 136.66 90.4909 137.21 90.1027C137.322 90.0235 137.442 89.9339 137.479 89.8014C137.545 89.5585 137.27 89.3326 137.019 89.3463ZM145.579 87.313C145.601 87.8791 145.32 88.4095 145.22 88.9671C145.12 89.5247 145.31 90.2348 145.862 90.3653C146.024 90.4038 146.071 90.6365 145.98 90.7761C145.888 90.9157 145.714 90.9759 145.55 91.0058C145.039 91.0986 144.434 90.9346 144.2 90.4716C144.082 90.2399 144.073 89.9702 144.066 89.7104C144.049 89.0149 144.031 88.3194 144.013 87.6239C144.001 87.1484 144.054 86.5628 144.489 86.3708C145.007 86.1423 145.557 86.7469 145.579 87.313ZM137.988 90.4682C137.887 90.5151 137.819 90.6238 137.82 90.7349L137.795 90.7414C137.851 90.8654 138.052 90.8847 138.13 90.7737C138.209 90.6626 138.124 90.4796 137.988 90.4682ZM137.025 86.833C136.794 86.8388 136.536 86.8808 136.4 87.0671C136.254 87.2663 136.313 87.5585 136.463 87.7548C136.613 87.951 136.834 88.0772 137.04 88.2132C137.908 88.786 138.601 89.6203 139.005 90.5787C139.28 90.2171 139.555 89.8554 139.83 89.4937C140.035 89.2236 140.251 88.9147 140.208 88.5782C140.177 88.3352 140.014 88.1308 139.84 87.9575C139.106 87.2229 138.064 86.8065 137.025 86.833ZM48.5184 81.2374C48.1957 81.2638 48.0284 81.6262 47.9269 81.9337C47.7723 82.4023 47.6177 82.8708 47.4631 83.3394C47.2942 83.8513 47.1241 84.3689 47.0778 84.9059C47.0471 85.2619 47.0714 85.62 47.0957 85.9764C47.1716 87.0894 47.2476 88.2024 47.3235 89.3155C47.3382 89.5306 47.5019 89.8278 47.6799 89.7059C47.606 86.8629 47.8884 84.0107 48.5184 81.2374ZM139.803 85.33C139.51 85.4416 139.199 85.6378 139.157 85.9484C139.114 86.259 139.572 86.5473 139.749 86.2888C139.975 85.9589 140.541 86.1312 140.728 86.4848C140.916 86.8384 140.861 87.2637 140.858 87.6638C140.855 88.0639 140.947 88.5229 141.296 88.7189C141.354 88.1837 141.413 87.6485 141.471 87.1133C141.543 86.4526 141.539 85.6332 140.958 85.3098C140.611 85.1163 140.175 85.1884 139.803 85.33ZM149.211 85.0277C149.686 85.0489 150.194 85.2146 150.454 85.6133C150.714 86.0119 150.576 86.6649 150.118 86.7933C149.464 86.9765 148.852 86.0549 148.213 86.2837C147.813 86.4268 147.566 86.9892 147.149 86.9085C146.891 86.8585 146.747 86.5487 146.799 86.2904C146.85 86.0321 147.043 85.8254 147.25 85.6618C147.8 85.226 148.51 84.9965 149.211 85.0277ZM76.395 84.557C76.8534 84.631 77.3021 85.1329 77.0605 85.5294C76.9927 85.6407 76.8824 85.7198 76.767 85.7805C76.4812 85.9309 76.1285 85.9821 75.8334 85.8509C75.5382 85.7196 75.3306 85.3791 75.4105 85.0662C75.5109 84.6729 75.9943 84.4922 76.395 84.557ZM149.956 81.9473C150.272 82.2472 150.517 82.8121 150.164 83.0666C149.791 83.3358 149.343 82.8813 148.986 82.5911C148.586 82.2667 148.045 82.1235 147.538 82.208C147.213 82.2619 146.907 82.403 146.582 82.4503C146.256 82.4976 145.877 82.4228 145.699 82.1458C145.513 81.8553 145.632 81.4441 145.888 81.213C146.144 80.9819 146.501 80.8974 146.844 80.8659C147.972 80.7628 149.136 81.1673 149.956 81.9473ZM76.3792 81.028C76.6607 81.1931 76.8123 81.5822 76.6556 81.8684C76.4487 82.2466 75.9061 82.2414 75.4877 82.1375C75.337 82.1 75.1785 82.0506 75.0787 81.9316C74.8406 81.6476 75.1076 81.2022 75.4399 81.0382C75.7326 80.8938 76.0977 80.863 76.3792 81.028Z" fill="#00160A"/>
<path fill-rule="evenodd" clip-rule="evenodd" d="M38.6008 119.062C38.6393 119.169 38.6748 119.288 38.6308 119.393C38.5519 119.581 38.295 119.588 38.0914 119.586C36.659 119.575 35.3274 120.805 35.2257 122.234C35.2149 122.385 35.0075 122.454 34.8733 122.384C34.7391 122.314 34.67 122.163 34.6236 122.019C34.3619 121.207 34.5305 120.297 34.9477 119.553C35.3648 118.809 36.0103 118.215 36.7116 117.73C36.9836 117.541 37.3224 117.36 37.6301 117.482C37.8335 117.562 37.9663 117.756 38.0771 117.945C38.2856 118.3 38.4612 118.674 38.6008 119.062ZM37.7688 118.899C37.6428 118.514 37.1311 118.375 36.7489 118.511C36.3667 118.648 36.0881 118.973 35.828 119.284C35.5815 119.579 35.3235 119.902 35.2944 120.285C35.9535 119.587 36.8293 119.097 37.7688 118.899Z" fill="#FFB61D"/>
<defs>
<linearGradient id="paint0_linear" x1="21.4631" y1="48.7292" x2="132.701" y2="185.504" gradientUnits="userSpaceOnUse">
<stop offset="0.0552082" stop-color="#0080FF"/>
<stop offset="0.940625" stop-color="#0059B2"/>
</linearGradient>
</defs>
</svg>
