<svg width="90" height="90" viewBox="0 0 90 90" fill="none" xmlns="http://www.w3.org/2000/svg">
<path fill-rule="evenodd" clip-rule="evenodd" d="M55.7293 18.5498C55.8703 13.316 49.2462 4.38107 38.3944 5.93783C26.5132 7.64222 17.8923 21.294 19.6097 36.5524L19.6751 37.1385C20.7294 46.6687 21.0817 54.1761 19.2601 64.7472C17.8981 72.6509 27.5831 90.1491 49.0066 87.381C70.4302 84.6129 82.1977 58.9239 72.0879 46.8027C58.5846 30.6125 55.4208 30.005 55.7293 18.5498Z" fill="url(#paint0_linear)"/>
<path fill-rule="evenodd" clip-rule="evenodd" d="M43.0062 33.809C42.6387 32.8631 41.9424 32.0906 41.3398 31.2742C39.7283 29.0914 38.729 26.4615 38.4842 23.7594C38.3535 22.3168 38.8497 15.2761 41.4738 13.6244C40.1783 13.2256 38.8497 12.8097 37.7871 11.9681C36.7245 11.1265 35.9725 9.75062 36.2584 8.42562C36.6912 6.42018 39.2959 5.55921 41.2387 6.21835C43.1815 6.8775 44.5791 8.54506 45.8722 10.1378C47.1087 10.0337 47.4156 8.2118 48.5449 7.69768C49.3067 7.35089 50.1923 7.70644 50.9308 8.10037C53.0799 9.24679 55.0927 10.8188 56.2291 12.9732C57.3655 15.1277 57.4638 17.9399 56.0159 19.8986C56.5434 19.2948 57.6363 20.0458 57.5739 20.8451C57.5114 21.6444 56.8053 22.2244 56.1313 22.6584C55.4572 23.0924 54.704 23.5424 54.4376 24.2986C53.7671 26.2021 52.7019 27.9656 51.3291 29.4449C50.4903 30.3487 49.5274 31.1619 48.9053 32.2265C48.2831 33.2911 48.0753 34.7218 48.801 35.7187C49.7659 34.6917 51.429 34.4029 52.6836 35.0445C53.9383 35.6861 54.6777 37.2035 54.41 38.587C56.1582 38.737 57.7289 40.122 58.0965 41.8377C61.6412 45.4108 64.5365 49.6262 66.5992 54.2172C67.9085 57.1314 68.8809 60.1833 69.8503 63.2274C70.2296 64.4186 70.6134 65.6663 70.4022 66.8984C69.9732 69.4003 67.259 70.8743 64.7378 71.1704C61.5989 71.5392 58.3281 70.6236 55.8368 68.6787C54.5061 72.817 53.1777 77.3372 54.6905 81.4125C55.0145 82.2852 54.3666 83.2765 53.5203 83.6643C52.674 84.0521 51.6999 83.9954 50.7712 83.931C45.566 83.5702 40.3608 83.2094 35.1556 82.8486C34.0648 82.773 32.5735 82.1313 32.9596 81.1083C33.8218 78.8238 34.0681 76.3102 33.6659 73.9018C33.359 75.5239 32.8269 77.1032 32.0895 78.5802C32.0895 78.5802 29.4913 83.931 26.9002 81.185C25.4234 78.2009 25.3597 74.7068 25.7956 71.406C26.2315 68.1052 27.1327 64.8752 27.4848 61.5644C27.8279 58.339 27.6456 55.0754 27.981 51.8492C28.3165 48.6231 29.2437 45.3193 31.4457 42.9377C33.188 41.0534 34.9302 39.1692 36.6725 37.2849C37.1416 36.7776 37.636 36.2529 38.2847 36.0149C38.9333 35.7769 39.7813 35.9282 40.1149 36.5333C40.5261 36.0217 41.0073 35.4703 41.6601 35.4018C42.313 35.3334 42.9943 36.1332 42.5752 36.6383C43.3263 35.956 43.3738 34.7548 43.0062 33.809Z" fill="white"/>
<path fill-rule="evenodd" clip-rule="evenodd" d="M56.8965 41.8376C60.4412 45.4107 63.3365 49.6261 65.3992 54.2171C66.7085 57.1313 67.6809 60.1832 68.6503 63.2273C69.0296 64.4185 69.4135 65.6662 69.2022 66.8983C68.7732 69.4002 66.059 70.8742 63.5379 71.1703C60.3989 71.5391 57.3295 70.4323 54.8382 68.4875C53.5075 72.6258 51.9778 77.3371 53.4905 81.4124C53.6276 81.7817 53.9852 82.1995 53.8328 82.5565C53.6252 83.0432 52.8085 83.4405 52.3203 83.6642C52.1918 83.7231 52.5349 82.5056 52.52 80.7188C52.4945 77.6779 51.2196 67.1134 54.2207 67.8113C61.5505 69.5158 67.0768 69.2515 67.1927 67.4332C67.7811 58.2016 56.5289 40.1219 56.8965 41.8376Z" fill="#E7EAEE"/>
<path fill-rule="evenodd" clip-rule="evenodd" d="M42.1664 33.809C41.8783 33.0674 41.3881 32.4324 40.8993 31.7993C40.7647 31.6249 40.6301 31.4506 40.4999 31.2742C38.8885 29.0914 37.8891 26.4615 37.6444 23.7594C37.5137 22.3168 38.0099 15.2761 40.6339 13.6244C39.3384 13.2256 38.0099 12.8097 36.9473 11.9681C35.8847 11.1265 35.1327 9.75062 35.4186 8.42562C35.8514 6.42018 38.456 5.55921 40.3989 6.21835C42.3417 6.8775 43.7393 8.54506 45.0324 10.1378C45.7134 10.0805 46.1124 9.502 46.5222 8.90796C46.8564 8.42347 47.1978 7.92863 47.7051 7.69768C48.4668 7.35089 49.3525 7.70644 50.0909 8.10037C52.24 9.24679 54.2529 10.8188 55.3893 12.9732C56.5256 15.1277 56.624 17.9399 55.1761 19.8986C55.7035 19.2948 56.7965 20.0458 56.734 20.8451C56.6716 21.6444 55.9655 22.2244 55.2914 22.6584L55.1832 22.7279C54.5386 23.1412 53.85 23.5826 53.5978 24.2986C52.9273 26.2021 51.8621 27.9656 50.4892 29.4449C50.266 29.6854 50.034 29.9195 49.8019 30.1536C49.1621 30.7993 48.522 31.4452 48.0654 32.2265C47.4433 33.2911 47.2355 34.7218 47.9611 35.7187C48.926 34.6917 50.5891 34.4029 51.8438 35.0445C53.0984 35.6861 53.8379 37.2035 53.5702 38.587C55.3184 38.737 56.889 40.122 57.2566 41.8377C60.8013 45.4108 63.6966 49.6262 65.7594 54.2172C67.0687 57.1314 68.041 60.1833 69.0104 63.2274C69.3897 64.4186 69.7736 65.6663 69.5624 66.8984C69.1333 69.4003 66.4191 70.8743 63.898 71.1704C60.7591 71.5392 57.4883 70.6236 54.997 68.6787C53.6662 72.817 52.3379 77.3372 53.8507 81.4125C53.9846 81.7733 53.9525 82.1543 53.8089 82.5046C52.8237 80.364 52.6433 77.9207 52.9068 75.578C53.1724 73.2163 53.8669 70.9269 54.5581 68.653C54.6727 68.2759 54.0738 68.1764 53.6833 68.1229C52.99 68.0279 52.4869 67.4371 52.0533 66.8879L50.2903 64.6546C49.1525 63.2132 47.8406 61.6662 46.0256 61.3871C45.5222 61.3097 45.0129 61.3378 44.5027 61.366C44.192 61.3832 43.8809 61.4004 43.5707 61.3938C42.3662 61.368 41.1722 60.9715 40.1914 60.2717C39.9563 60.1039 39.7176 59.8937 39.6694 59.6089C39.6222 59.3306 39.8736 59.0045 40.1406 59.0753L40.1595 59.081C40.1532 59.0789 40.1469 59.077 40.1406 59.0753C39.2908 58.819 38.4816 58.4286 37.752 57.923C37.6176 57.8299 37.4804 57.7265 37.4112 57.5783C37.2615 57.2582 37.5092 56.866 37.8358 56.7309C38.1623 56.5957 38.5322 56.645 38.8819 56.6965C38.4648 56.6118 38.0347 56.5216 37.6852 56.2787C37.3357 56.0359 37.0852 55.5974 37.1935 55.1857C37.3017 54.7741 37.8689 54.5193 38.1888 54.8002C38.0493 54.3846 38.3517 53.9242 38.7474 53.7357C39.1432 53.5471 39.6018 53.562 40.0395 53.5861C41.8761 53.6875 43.7074 53.8834 45.5238 54.173L45.2578 50.4365C45.2469 50.2841 45.2338 50.1245 45.1511 49.9959C45.0453 49.8313 44.8495 49.7528 44.666 49.6848C40.9687 48.3152 37.1652 47.2325 33.3008 46.4496L34.1665 62.668C34.1931 63.1652 34.3316 63.796 34.823 63.8769C37.876 64.3794 40.8707 65.2347 43.7287 66.4202C44.1301 66.5867 44.4237 66.0247 44.4975 65.5964L45.2298 61.3519C45.3316 63.1462 45.075 64.9601 44.4793 66.6556C44.9349 66.7627 45.1984 66.161 45.2713 65.6987L45.9326 61.5043C46.0453 62.9912 45.9153 64.4962 45.5493 65.9417C45.4653 66.2736 45.3376 66.6407 45.0272 66.7852C44.7645 66.9075 44.4568 66.8281 44.1787 66.747L34.5082 63.9269C34.3561 63.8825 34.1974 63.8344 34.0847 63.7231C33.917 63.5575 33.894 63.299 33.8811 63.0637L33.0763 48.4399C33.0241 47.4919 33.0759 46.5416 33.1277 45.5936L33.393 40.7385C31.8364 46.2217 31.6894 52.0339 32.3452 57.6959C33.0009 63.3578 34.4412 68.8984 36.0194 74.3754C35.3554 73.2396 34.8705 71.9994 34.5879 70.7144C33.816 71.8192 33.0061 73.0784 33.2263 74.408C33.5962 76.6411 33.3603 78.9714 32.5506 81.0851C32.3659 81.5671 32.6979 82.1231 33.1525 82.3676C33.6072 82.6121 34.1464 82.6242 34.6625 82.6307L41.5343 82.716C41.3448 82.4754 41.4131 82.0762 41.672 81.9124C41.6027 82.6593 42.5606 83.0109 43.3038 83.112C46.815 83.5896 50.5475 84.0375 53.7745 82.5832C53.5594 83.0473 53.1506 83.4489 52.6805 83.6643C51.8342 84.0521 50.8601 83.9954 49.9314 83.931L34.3158 82.8486C33.225 82.773 31.7336 82.1313 32.1197 81.1083C32.9819 78.8238 33.2283 76.3102 32.8261 73.9018C32.5192 75.5239 31.987 77.1032 31.2497 78.5802C31.5521 76.1139 32.3789 73.7133 33.6593 71.5838C34.5706 70.0681 34.0456 68.1394 33.5775 66.434C31.3613 58.3592 31.0177 49.7766 32.5814 41.5505C29.2441 43.99 27.8508 48.3188 27.455 52.4336C27.2895 54.154 27.2621 55.8863 27.2348 57.6175C27.1967 60.0271 27.1587 62.4345 26.7483 64.8048C26.5608 65.8876 26.2963 66.9578 26.0319 68.0271C25.6143 69.7167 25.1971 71.4043 25.085 73.137C24.91 75.8429 25.4869 78.5347 26.0603 81.185C24.5835 78.2009 24.5199 74.7068 24.9558 71.406C25.1558 69.8911 25.4539 68.3912 25.7519 66.8915C26.1032 65.1234 26.4545 63.3557 26.645 61.5644C26.8178 59.94 26.8573 58.3059 26.8968 56.6717C26.9357 55.0611 26.9747 53.4506 27.1412 51.8492C27.4766 48.6231 28.4039 45.3193 30.6059 42.9377L35.8326 37.2849C36.3017 36.7776 36.7962 36.2529 37.4448 36.0149C38.0935 35.7769 38.9415 35.9282 39.2751 36.5333C39.6863 36.0217 40.1675 35.4703 40.8203 35.4018C41.4731 35.3334 42.1545 36.1332 41.7353 36.6383C42.4865 35.956 42.534 34.7548 42.1664 33.809ZM53.7745 82.5832C53.7866 82.5572 53.798 82.531 53.8089 82.5046L53.833 82.5566L53.7745 82.5832ZM69.2055 65.5298C69.3823 67.0034 68.5922 68.4848 67.4199 69.3951C66.2476 70.3054 64.7467 70.7054 63.266 70.8071C60.1484 71.0212 56.9619 69.9524 54.6039 67.9017C56.414 66.0465 56.5151 62.7873 54.8235 60.8234C56.2789 60.1464 57.7669 59.46 59.3625 59.2845C60.9581 59.1091 62.7091 59.5325 63.7463 60.7576C63.9235 60.9669 64.0769 61.1953 64.2301 61.4234C64.4183 61.7037 64.6063 61.9837 64.8382 62.2279C64.6373 60.8995 63.6018 59.7899 62.3622 59.2717C61.1226 58.7534 59.7125 58.765 58.401 59.0566C57.0895 59.3482 55.854 59.9042 54.6293 60.4566C54.3964 60.5616 54.2222 60.2265 54.1843 59.9738L53.9649 58.5099C53.8744 57.9065 53.884 57.1167 54.4525 56.8951C54.8795 56.7287 54.7675 56.0773 54.4849 55.7165C54.4376 55.656 54.3869 55.5953 54.3357 55.5339C54.0812 55.2291 53.8141 54.909 53.8816 54.5335C54.5979 50.5452 55.3182 46.541 56.593 42.6947C56.6325 42.5755 56.6805 42.4464 56.7891 42.3834C56.9359 42.2983 57.1214 42.3719 57.2691 42.4554C58.4633 43.1302 59.177 44.3359 59.8891 45.539C60.1405 45.9636 60.3916 46.3879 60.6637 46.7884C61.0833 47.4063 61.5641 47.9784 62.0451 48.5507C62.4022 48.9756 62.7594 49.4006 63.0918 49.8446C65.1403 52.5812 66.1453 55.8727 67.1523 59.1712C67.6117 60.6759 68.0715 62.182 68.631 63.6375L68.6569 63.7046L68.6996 63.8148C68.9161 64.3734 69.1343 64.9363 69.2055 65.5298ZM53.1556 56.917C53.4478 56.9142 53.7539 56.908 54.0098 56.7668C54.2657 56.6256 54.4466 56.3022 54.3282 56.035C54.2158 55.7813 53.8919 55.6898 53.6168 55.7258C53.4574 55.7466 53.305 55.7988 53.1525 55.8509C53.0417 55.8888 52.9308 55.9268 52.817 55.9528C52.2506 56.0824 51.6724 55.9116 51.0974 55.7418C50.4749 55.5579 49.8561 55.3751 49.2598 55.5757C49.6455 54.9373 49.6201 54.1475 49.5959 53.3973L49.5922 53.28C49.4697 49.2958 50.3537 45.2846 52.1396 41.7209C51.4804 42.1925 51.0073 42.9173 50.8409 43.7105C50.8211 43.8048 50.8054 43.9003 50.7896 43.9959C50.7492 44.2415 50.7087 44.487 50.6003 44.7093C50.1611 45.6105 48.9208 45.6772 47.9224 45.5872C47.1041 45.5134 46.2466 45.4059 45.5802 44.9255C45.2459 44.6845 44.9768 44.361 44.7091 44.0393C44.3528 43.611 43.9991 43.1858 43.4979 42.9628C42.6665 42.5929 41.778 42.9012 40.879 43.2131C40.0668 43.4948 39.2461 43.7795 38.4513 43.5699C38.0034 43.4519 37.6936 44.0017 37.5592 44.445L36.9735 46.3763C36.7002 45.3206 37.034 44.1297 37.8161 43.3698C37.4811 43.1501 37.5713 42.699 37.6606 42.2525C37.751 41.8002 37.8406 41.3525 37.4865 41.1544C36.4177 40.5565 36.2061 39.1363 36.1149 37.915C34.755 38.4172 33.9791 39.8871 33.74 41.3169C33.599 42.1596 33.6007 43.015 33.6023 43.8713C33.6034 44.4677 33.6046 45.0645 33.5575 45.6578C37.6576 46.4605 41.699 47.5631 45.6386 48.9539C45.8798 49.039 46.1331 49.1339 46.294 49.3327C46.4671 49.5466 46.4994 49.8381 46.5248 50.112C46.6535 51.4973 46.7749 52.9399 46.2793 54.2399L46.2835 50.1887C46.2837 49.9644 46.2454 49.6836 46.0319 49.6149C45.6997 49.508 45.5441 50.0154 45.5714 50.3632L45.8086 53.3747C45.8411 53.787 45.901 54.2514 46.2327 54.4983L40.2718 53.8995C39.6526 53.8373 38.9106 53.8269 38.5484 54.333C38.608 54.8172 39.1868 55.0204 39.6644 55.12L43.4588 55.9111C42.2714 56.1565 41.0235 55.9364 39.9001 55.4801C39.815 55.4455 39.7301 55.4095 39.6451 55.3735L39.6448 55.3734L39.6445 55.3732C39.2888 55.2224 38.9319 55.071 38.5506 55.0207C38.078 54.9583 37.5439 55.0871 37.2694 55.4769C38.9671 56.5995 40.9402 57.3026 42.9653 57.5064C42.9531 57.7261 42.66 57.7919 42.4404 57.7759C41.8692 57.7343 41.3199 57.5668 40.7701 57.3991C40.5148 57.3213 40.2595 57.2434 40.0018 57.178C39.1889 56.972 38.2777 56.9037 37.5561 57.331C39.1802 58.6556 41.3216 59.1159 43.3749 59.5357L39.975 59.4632C40.5763 60.5332 41.9254 60.9274 43.151 60.9923C43.5134 61.0115 43.8791 61.011 44.2445 61.0105H44.2447C45.1154 61.0093 45.9852 61.0082 46.8081 61.2729C48.3019 61.7534 49.3838 63.021 50.3831 64.2309L52.3101 66.5639C52.5728 66.882 53.0734 66.9172 53.4447 66.7373C53.816 66.5574 54.078 66.2107 54.2833 65.8529C54.6913 65.1419 54.934 64.307 54.8023 63.4979C54.6706 62.6888 54.1124 61.9243 53.3258 61.6936C51.9745 61.2974 51.0152 60.0965 50.3521 58.8542C50.1244 58.4277 49.9199 57.9877 49.7155 57.548C49.3245 56.7068 48.934 55.8666 48.3829 55.124C48.2177 54.9014 48.0378 54.6869 47.8579 54.4723L47.8579 54.4723L47.8578 54.4722L47.8577 54.4721C47.413 53.9417 46.9686 53.4117 46.7485 52.7626C47.8805 53.858 48.8413 55.13 49.5853 56.5185C49.6659 56.669 49.7549 56.8314 49.9107 56.9014C50.0105 56.9462 50.1238 56.9459 50.2332 56.9449L53.1556 56.917ZM52.8441 22.9501C53.1176 22.9145 53.3339 22.7094 53.5295 22.5148L54.4814 21.5681C52.7231 25.925 50.2121 30.1375 46.4057 32.8918C45.6329 33.451 44.7142 33.966 43.7752 33.7982C43.2834 33.7103 42.8421 33.4405 42.4509 33.1297C41.6362 32.4823 40.9916 31.6441 40.4404 30.7616C38.8841 28.2698 38.0199 25.3415 38.033 22.4037C38.0462 19.4659 38.9446 16.5294 40.6261 14.1203C40.6839 14.0375 40.7487 13.9506 40.8441 13.9176C40.941 13.8841 41.0471 13.9138 41.1451 13.9436C44.6693 15.0149 48.1598 16.197 51.6097 17.4875C52.1558 17.6918 52.3832 18.3346 52.4825 18.9092C52.6869 20.0926 52.6324 21.3201 52.3239 22.4808C52.253 22.7474 52.5705 22.9857 52.8441 22.9501ZM50.5446 14.1416C50.9603 14.1453 51.2502 14.7013 51.0152 15.0442C50.7803 15.3872 50.1572 15.3177 50.0036 14.9314C49.8313 14.4981 49.3869 14.2629 48.9676 14.041C48.9232 14.0175 48.879 13.9941 48.8354 13.9706C47.4265 13.2118 46.3434 12.0068 45.2655 10.8076L45.2655 10.8076C44.9828 10.493 44.7004 10.1788 44.4125 9.8732C43.8657 9.29256 43.2922 8.73706 42.6944 8.20904C42.0388 7.62996 41.3431 7.07729 40.5403 6.7298C39.7376 6.38231 38.8094 6.25569 37.9832 6.54318C38.3554 6.56205 38.6469 6.98615 38.5313 7.34038C38.4156 7.69462 37.93 7.86497 37.6184 7.66061C37.3068 7.45625 37.2695 6.94295 37.5483 6.69573C36.7035 6.94583 35.9936 7.61398 35.6929 8.44214C35.6336 8.60544 35.5895 8.78602 35.6437 8.95106C35.6743 9.04412 35.7343 9.12676 35.7937 9.20846C35.8774 9.32388 35.9599 9.4374 35.9561 9.57572C35.9256 10.6829 37.0096 11.6853 38.111 11.5685C38.3267 11.5456 38.4136 11.7607 38.5038 11.9839L38.5038 11.9839C38.5468 12.0904 38.5905 12.1987 38.6494 12.2839C38.7545 12.436 38.9301 12.5208 39.0983 12.5977C40.8077 13.3796 42.5766 14.0316 44.3846 14.5463C44.5941 14.6059 44.881 14.6308 44.9698 14.4319C45.089 14.165 45.4355 14.0264 45.7059 14.1375C45.9763 14.2486 46.1253 14.5906 46.0225 14.8643C45.9765 14.9869 46.1276 15.0863 46.2507 15.1308L52.4098 17.3577C52.2961 16.9019 52.8752 16.4488 53.2903 16.6687C53.7054 16.8887 53.6558 17.6222 53.2148 17.7842L55.4659 18.9193L55.87 15.6159C55.8889 15.4615 55.8272 15.232 55.6782 15.2762C55.402 15.358 55.0764 15.2018 54.9673 14.9352C54.8583 14.6686 54.981 14.329 55.2354 14.1938C55.4311 14.0897 55.5041 13.8332 55.4608 13.6157C55.4175 13.3983 55.2836 13.2113 55.15 13.0344C53.7043 11.1208 51.873 9.49156 49.7726 8.33371C49.2097 8.02339 48.5273 7.74376 47.9456 8.01719C47.6089 8.17547 47.3824 8.48697 47.1609 8.79149L47.1608 8.79172L47.1607 8.79187L47.1606 8.7919C47.1255 8.84022 47.0905 8.88837 47.0552 8.9357C46.6123 9.52945 46.0643 10.0446 45.4443 10.4499L47.4068 12.4464C47.2444 12.096 47.4915 11.624 47.8719 11.5576C48.2523 11.4912 48.6446 11.8516 48.6106 12.2363C48.5766 12.621 48.1272 12.907 47.7643 12.7749C48.5838 13.4371 49.491 14.1322 50.5446 14.1416ZM53.0428 41.1848C53.341 41.2066 53.6439 41.0275 53.7684 40.7557C53.8929 40.4838 53.8308 40.1375 53.6194 39.9259C53.3554 39.6616 53.6611 39.1679 54.0328 39.1295C54.4044 39.0911 54.7421 39.3285 55.04 39.554L56.4759 40.6411C56.6501 40.7729 56.8453 40.9699 56.7692 41.1746C55.1292 45.5848 54.0511 50.2036 53.5693 54.8842C53.5303 55.2636 53.1646 55.5429 52.7893 55.6109C52.4141 55.6789 52.0306 55.5837 51.6611 55.4891L50.34 55.1511C50.2503 55.1281 50.1563 55.1028 50.0896 55.0386C49.9942 54.9468 49.9795 54.8017 49.9716 54.6695C49.7032 50.1623 50.6303 45.5892 52.633 41.5424C52.7186 41.3694 52.8502 41.1707 53.0428 41.1848ZM50.1329 38.3577C49.7755 38.088 49.8575 37.4295 50.2701 37.2557C49.2487 37.3439 48.3168 37.7992 47.3841 38.2549C46.4844 38.6944 45.5839 39.1343 44.6013 39.2458C45.1918 39.6464 45.4704 40.4141 45.3904 41.1231C45.3103 41.8321 44.9133 42.4776 44.3972 42.9703C44.839 43.8165 45.5688 44.509 46.4369 44.9058C46.7429 45.0457 47.0934 45.1502 47.412 45.0423C47.4815 45.0188 47.5557 44.9873 47.6312 44.9553C47.9063 44.8387 48.1977 44.7151 48.3358 44.9443C48.5948 45.3742 49.2558 45.2756 49.6845 45.0148C49.9774 44.8367 50.25 44.5954 50.3706 44.2745C50.4912 43.9536 50.4197 43.5438 50.1378 43.3487C49.9037 43.1866 49.8249 42.8368 49.9671 42.5901C50.1093 42.3434 50.4514 42.236 50.709 42.3573C50.934 42.4632 51.1446 42.1993 51.2789 41.99C51.5951 41.4975 52.061 41.1025 52.5986 40.8712C52.3834 40.5547 52.4136 40.0932 52.6683 39.8075C52.0104 39.3266 51.4826 38.6695 51.1549 37.9234C51.101 38.3679 50.4903 38.6274 50.1329 38.3577ZM41.4202 36.6364L41.4202 36.6364C41.4121 36.6895 41.404 36.7426 41.3976 36.7953C41.368 37.0409 41.3944 37.3266 41.5913 37.4764C42.3424 36.566 42.7839 35.4047 42.8274 34.2252C42.8361 33.9896 43.1933 34.0237 43.4159 34.1012C44.0732 34.3302 44.8111 34.216 45.4486 33.9368C46.0862 33.6576 46.6425 33.2252 47.1915 32.7973C47.0307 33.8667 47.1706 34.9797 47.5911 35.976L45.421 37.6056C45.3352 37.6701 45.2548 37.8177 45.3531 37.8607C46.1755 37.5941 46.8736 37.0519 47.5574 36.5208L47.6215 36.4711C48.3258 35.9245 49.0631 35.3761 49.9262 35.1526C50.7892 34.929 51.8162 35.1054 52.3662 35.8071C52.6373 36.1529 52.767 36.5857 52.8911 37.0072L53.2754 38.3128C53.3587 38.5958 53.4406 38.9077 53.3206 39.1771C53.2006 39.4466 52.7787 39.5794 52.6103 39.3372L51.8235 38.2052C51.4487 37.6659 51.0235 37.0897 50.3905 36.9147C49.7 36.7237 48.9878 37.0688 48.3457 37.3866C47.2205 37.9434 46.0685 38.4462 44.895 38.8924C44.5342 39.0296 44.134 38.8957 43.7425 38.7646C43.2968 38.6155 42.8623 38.4701 42.51 38.7328C42.3793 38.8302 42.1945 38.777 42.0437 38.7147C41.0071 38.2863 40.0785 37.5994 39.3654 36.7336L40.8582 35.7639C41.0657 35.6292 41.3542 35.8227 41.4247 36.0598C41.48 36.2461 41.45 36.4419 41.4202 36.6364ZM42.5178 42.4205C41.8385 41.8651 41.5102 40.9131 41.7028 40.057C41.7517 39.8395 41.5255 39.671 41.3428 39.5432C41.16 39.4154 40.979 39.1663 41.1201 38.9936C41.1961 38.9006 41.0925 38.7703 40.9975 38.6967L39.171 37.2807C38.9518 37.1108 38.7259 36.9328 38.5994 36.6861C38.3707 36.2401 37.7604 36.0389 37.3113 36.2615C36.6736 36.5776 36.5847 37.4347 36.5812 38.1465C36.5804 38.3142 36.6276 38.5369 36.7951 38.5464C37.2232 38.5706 37.4258 39.2353 37.084 39.4942C36.7493 39.7478 36.9882 40.2976 37.3211 40.5536C37.3937 40.6094 37.4714 40.6629 37.5495 40.7166L37.5495 40.7166L37.5497 40.7167C37.8297 40.9094 38.1148 41.1056 38.1877 41.4257C38.2421 41.664 38.1617 41.9165 38.0833 42.1632C37.9851 42.4716 37.8899 42.7709 38.0646 43.0217C38.2784 43.3288 38.7345 43.2989 39.1022 43.2299C40.2527 43.0143 41.3929 42.7441 42.5178 42.4205ZM50.6349 57.3038C51.4628 57.237 52.2963 57.2386 53.1239 57.3086C53.1933 57.3145 53.2666 57.3223 53.3224 57.364C53.4082 57.4283 53.4235 57.5486 53.4332 57.6554C53.5124 58.5324 53.679 59.4016 53.9297 60.2457C53.8908 60.3493 53.7801 60.3744 53.6651 60.4004C53.5901 60.4175 53.5132 60.4349 53.453 60.4748C53.259 60.6037 53.3156 60.9124 53.4597 61.0954C53.5107 61.16 53.5698 61.2192 53.6287 61.2781C53.7365 61.3859 53.8437 61.4932 53.8996 61.633C52.1241 61.0768 50.8298 59.4867 50.1383 57.7594C50.0964 57.6547 50.0559 57.538 50.094 57.4319C50.1321 57.3258 50.2887 57.2632 50.3605 57.3502C50.3888 57.3844 50.396 57.4309 50.4022 57.4749L50.523 58.338C50.5388 58.4507 50.7235 58.452 50.7861 58.3568C50.8487 58.2617 50.8256 58.1363 50.8001 58.0253L50.6349 57.3038ZM44.8796 40.3234C44.6411 39.636 43.9985 39.1064 43.2783 39.0034C43.0148 38.9657 42.7177 38.9925 42.529 39.1803C42.1143 39.5932 41.9504 40.2229 42.0477 40.8C42.145 41.377 42.4838 41.8978 42.9305 42.2759C43.2643 42.5585 43.7351 42.7724 44.1315 42.5874C44.2495 42.5324 44.3502 42.4458 44.44 42.3514C44.9417 41.8245 45.1181 41.0107 44.8796 40.3234ZM52.7934 22.196C52.9892 20.833 53.1714 19.3633 52.5279 18.1459C52.4831 18.0612 52.4369 17.9497 52.501 17.8785L54.5211 18.8794C54.6813 18.9588 54.871 19.1124 54.7964 19.2749C54.7094 19.4647 54.6929 19.6744 54.6764 19.8844V19.8844C54.6694 19.9731 54.6624 20.0619 54.6501 20.1492C54.5757 20.6772 54.3013 21.1608 53.9532 21.5647C53.6052 21.9687 53.1843 22.3022 52.7661 22.633C52.7518 22.4874 52.7726 22.3408 52.7934 22.196ZM54.8274 61.3399C54.5956 61.0136 54.2858 60.694 53.8875 60.6542C53.7339 60.6389 53.5272 60.7948 53.6388 60.9016C54.6033 61.8237 55.2493 63.1434 55.1298 64.4725C55.0104 65.8015 54.0077 67.07 52.6888 67.2724C53.079 67.7356 53.8232 67.7717 54.352 67.4763C54.8807 67.1809 55.2207 66.6307 55.4352 66.0643C56.0204 64.5183 55.7849 62.6875 54.8274 61.3399ZM34.1247 46.0301C35.588 46.2594 37.0157 46.6708 38.4388 47.0812L42.3168 48.1995C43.4972 48.5399 44.6907 48.8858 45.7551 49.499C45.2503 49.4806 44.7594 49.3364 44.2762 49.1887C43.422 48.9276 42.5706 48.6518 41.7191 48.376L41.7189 48.3759L41.7189 48.3759C38.9564 47.4811 36.1919 46.5856 33.3217 46.1871C33.505 45.9677 33.8422 45.9859 34.1247 46.0301ZM55.328 20.262C55.1059 20.4615 54.9998 20.7591 54.936 21.0508C54.9173 21.1365 54.9014 21.223 54.8855 21.3095L54.8855 21.3095C54.8473 21.5175 54.8091 21.7254 54.7314 21.9215C54.7187 21.9536 54.7048 21.9861 54.6909 22.0188C54.6209 22.1827 54.5486 22.3523 54.6008 22.5178C55.4384 22.464 56.1962 21.7891 56.3463 20.9633C56.3967 20.6862 56.3668 20.3606 56.1473 20.184C55.9147 19.9968 55.5501 20.0624 55.328 20.262ZM51.0396 9.42065C51.1359 9.69418 50.9905 10.0299 50.725 10.1466C50.4595 10.2634 50.1138 10.1436 49.9773 9.88769C49.8272 9.60593 49.9643 9.20991 50.2566 9.0814C50.5489 8.95289 50.9335 9.11952 51.0396 9.42065ZM41.0686 9.67869C41.0852 9.42999 40.929 9.1791 40.6985 9.08418C40.4052 8.96338 40.0281 9.12402 39.912 9.41924C39.7958 9.71446 39.9625 10.089 40.2595 10.2004C40.6083 10.3312 41.0438 10.0503 41.0686 9.67869ZM52.4136 12.1839C52.4218 12.4986 52.7105 12.779 53.0253 12.7782C53.3592 12.7772 53.6567 12.4562 53.6323 12.1232C53.6092 11.8093 53.3076 11.5427 52.9933 11.5584C52.6789 11.574 52.4053 11.8693 52.4136 12.1839ZM43.4409 12.5493C43.2126 12.8345 42.7145 12.8353 42.4854 12.5507C42.2563 12.2662 42.3634 11.7796 42.6908 11.6176C43.0182 11.4555 43.47 11.6654 43.5574 12.0201C43.6021 12.2018 43.5578 12.4032 43.4409 12.5493ZM41.59 17.3034C41.3969 17.6052 41.3557 17.9991 41.4821 18.3343C41.529 18.4586 41.5989 18.5763 41.6981 18.6646C42.0166 18.9479 42.561 18.8282 42.829 18.4968C43.0971 18.1654 43.134 17.6979 43.0549 17.2791C43.0234 17.1121 42.9653 16.9339 42.8228 16.8413C42.7237 16.7768 42.5989 16.7652 42.4809 16.7737C42.1236 16.7992 41.7832 17.0017 41.59 17.3034ZM48.0031 20.3916C47.8978 20.284 47.8283 20.1454 47.7852 20.0012C47.6254 19.4665 47.8505 18.8402 48.3141 18.5297C48.5238 18.3892 48.7942 18.3112 49.0315 18.3972C49.3224 18.5026 49.4823 18.82 49.5375 19.1245C49.6165 19.5602 49.5215 20.0487 49.2007 20.3539C48.8798 20.6592 48.3129 20.7081 48.0031 20.3916ZM39.9687 26.4026C39.9794 26.1333 40.0012 25.8645 40.0342 25.5971C40.0456 25.5045 40.1258 25.4248 40.2186 25.414C40.2615 26.0736 40.2815 26.7346 40.2786 27.3955C39.9869 27.1817 39.9543 26.764 39.9687 26.4026ZM50.8043 23.5393C50.7166 23.1383 50.4155 22.7906 50.0311 22.6466C49.9668 22.6225 49.9698 22.5197 50.0238 22.4773C50.0779 22.435 50.1547 22.4393 50.2214 22.4556C50.5869 22.5448 50.813 22.9034 50.9801 23.2405C51.0243 23.3296 51.0678 23.4336 51.0289 23.5252C50.9899 23.6168 50.8255 23.6365 50.8043 23.5393ZM44.1218 81.9736C44.0834 81.8869 43.9858 81.8455 43.8966 81.813C42.5007 81.3041 41.0187 81.0324 39.5331 81.013C39.3213 81.0103 39.0739 81.0307 38.9573 81.2075C39.0708 81.3029 39.2336 81.3028 39.3818 81.3006C40.9548 81.2769 42.5319 81.5689 43.9921 82.1542C44.0802 82.1895 44.1603 82.0604 44.1218 81.9736ZM44.895 21.1506C44.811 21.2198 44.7183 21.2775 44.6257 21.3351C44.5211 21.4001 44.4166 21.4651 44.3247 21.5466C44.1514 21.7004 44.026 21.9491 44.1156 22.1628C44.2264 22.4267 44.582 22.4766 44.8636 22.4258L44.8991 22.4192C44.9881 22.4024 45.0791 22.3852 45.1658 22.409C45.264 22.4359 45.3503 22.5393 45.3167 22.6354C45.293 22.7029 45.2222 22.7405 45.1557 22.7666C44.743 22.928 44.2279 22.8679 43.9218 22.5476C43.6157 22.2273 43.6079 21.6408 43.9577 21.3687L45.3239 20.3058C45.31 20.6308 45.1461 20.9438 44.895 21.1506ZM50.127 23.8945C50.2118 24.3744 50.0888 24.8676 49.9146 25.3228C49.1647 27.2827 47.3937 28.8186 45.3475 29.2839C44.524 29.4712 43.6156 29.4822 42.8827 29.0625C42.1499 28.6428 41.6788 27.6988 42.0002 26.9178C42.3773 26.0012 43.5451 25.7441 44.5361 25.7233C44.6228 25.7215 44.7103 25.7202 44.7985 25.7189L44.799 25.7189C45.7186 25.7052 46.7002 25.6907 47.3658 25.0784C47.6026 24.8605 47.7735 24.5863 47.9446 24.3116C48.0889 24.0801 48.2334 23.8482 48.4179 23.6493C48.8212 23.2145 49.611 23.0067 49.9655 23.4822C50.0545 23.6017 50.1011 23.7478 50.127 23.8945ZM49.7059 24.6258C49.8081 24.2352 49.7632 23.6733 49.3638 23.6143C49.2152 23.5923 49.0672 23.6588 48.9438 23.7444C48.6369 23.9574 48.4402 24.2781 48.2424 24.6006C48.0855 24.8566 47.9278 25.1136 47.7139 25.3188C47.1552 25.8546 46.3194 25.9494 45.5482 26.0161L44.0661 26.1445C43.6881 26.1772 43.2964 26.2141 42.9674 26.4031C42.3494 26.7583 42.1351 27.666 42.529 28.26C42.955 28.9023 43.8432 29.0418 44.6104 28.9676C46.9751 28.7389 49.1047 26.9243 49.7059 24.6258ZM50.5504 54.6489C50.47 54.6581 50.3864 54.6354 50.3217 54.5868C50.278 54.5539 50.2429 54.5096 50.2209 54.4594C50.1495 54.2963 50.2459 54.0818 50.4153 54.0269C50.5848 53.972 50.7887 54.0893 50.8265 54.2633C50.8643 54.4373 50.7274 54.6286 50.5504 54.6489ZM53.2919 54.6709C53.2334 54.6197 53.1552 54.5916 53.0776 54.5939C52.8865 54.5997 52.7331 54.8152 52.7902 54.9976C52.8474 55.18 53.0964 55.2695 53.2566 55.1652C53.4167 55.0609 53.4356 54.7969 53.2919 54.6709ZM47.5285 40.7856C47.33 40.5572 47.347 40.1733 47.5649 39.9633C47.7828 39.7532 48.167 39.7503 48.3881 39.9571C48.6242 40.1779 48.6273 40.5996 48.3946 40.824C48.1618 41.0483 47.7406 41.0297 47.5285 40.7856ZM44.9309 42.6908C44.8853 42.8127 44.8815 42.9498 44.9203 43.0741C45.0304 43.4277 45.5191 43.5959 45.8235 43.385C46.1278 43.1742 46.1421 42.6575 45.8498 42.4302C45.5575 42.2029 45.0603 42.3438 44.9309 42.6908ZM39.6746 41.7915C39.6061 42.0179 39.3893 42.1914 39.1534 42.2086C38.8052 42.234 38.48 41.8885 38.5264 41.5425C38.5728 41.1965 38.9775 40.9489 39.3067 41.0651C39.5892 41.1648 39.7614 41.5047 39.6746 41.7915Z" fill="#00160A"/>
<defs>
<linearGradient id="paint0_linear" x1="20.6017" y1="10.9103" x2="91.8547" y2="55.6023" gradientUnits="userSpaceOnUse">
<stop offset="0.0552082" stop-color="#0080FF"/>
<stop offset="0.940625" stop-color="#0059B2"/>
</linearGradient>
</defs>
</svg>
