<svg width="90" height="90" viewBox="0 0 90 90" fill="none" xmlns="http://www.w3.org/2000/svg">
<path fill-rule="evenodd" clip-rule="evenodd" d="M70.198 46.6614C70.3552 66.0324 61.882 80.1831 45.6827 80.9865C33.8758 81.5721 40.9388 63.0472 26.1412 50.7476C16.6693 42.8746 10.4176 22.4187 33.7622 17.1296C57.1067 11.8406 70.0407 27.2905 70.198 46.6614Z" fill="url(#paint0_linear)"/>
<path d="M22.3948 74.7892C20.9252 72.0801 21.1653 68.802 21.4686 65.7349C22.1665 58.6801 23.2409 51.0832 28.1824 46C29.4894 44.6556 31.0847 43.5157 32.9155 43.1109C34.3342 42.7973 35.7009 42.25 36.944 41.4977C37.2436 39.743 35.5927 38.3613 34.4392 37.0056C33.1474 35.4873 32.3416 33.5618 32.1669 31.5761C32.0635 30.4006 31.8167 28.7991 30.6377 28.749C29.6687 28.7078 28.9392 27.5385 29.3282 26.65C29.7172 25.7615 31.0712 25.5044 31.7588 26.1885C30.778 22.5115 32.8499 18.2691 36.3529 16.7819C35.7817 15.9651 37.0284 14.9862 38.0182 15.1032C39.008 15.2201 39.9661 15.818 40.938 15.5971C40.6049 15.0106 41.1386 14.2314 41.7961 14.0812C42.4537 13.931 43.1284 14.2164 43.7182 14.5436C47.5042 16.6441 50.0061 20.8799 50.0181 25.2095C50.1159 24.4192 51.3019 24.1486 51.8819 24.6942C52.462 25.2398 52.4344 26.2163 52.0225 26.8979C51.6106 27.5794 50.9086 28.0268 50.2137 28.4158C50.2313 31.287 49.1394 34.1508 47.2148 36.2815C45.8144 37.8319 43.8302 39.4765 44.2898 41.5146C45.0348 41.3497 45.7884 42.2092 45.5277 42.9263C48.7219 42.6602 51.7027 44.5881 53.9657 46.858C57.2831 50.1855 59.6674 54.4337 60.7799 58.9987C60.9742 59.7962 62.1086 60.0135 62.8105 59.5881C63.5124 59.1627 63.8731 58.3581 64.193 57.6022L70.5114 42.6707C70.1042 40.6592 70.4337 38.5801 70.7637 36.5545L71.859 29.8317C71.9585 29.2215 72.3853 28.4162 72.9488 28.6706C73.1435 28.7585 73.2522 28.9486 73.3209 29.158C73.3527 29.255 73.3759 29.3563 73.3952 29.4535C73.7368 31.1773 73.846 32.947 73.7189 34.6997L75.9061 30.9582C76.2601 30.3527 76.9935 29.6829 77.541 29.9334C77.7468 29.9738 77.8863 30.1791 77.9157 30.3885C77.9938 30.6732 77.9276 31.0154 77.8385 31.3108C77.4396 32.6334 76.7892 33.8796 75.9324 34.9633C77.0876 35.3573 78.4255 35.9556 78.6278 37.1592C78.5077 39.3412 76.8994 41.8463 75.7136 43.1468C75.9857 42.9826 76.1636 43.4711 76.1095 43.7843C74.8089 51.3093 71.6395 58.5041 66.9651 64.5429C65.5856 66.325 63.9837 67.7042 61.4705 67.9529C58.0459 68.2917 55.8002 63.24 53.9405 63.3752C53.9405 63.3752 52.2002 72.36 50.9402 73.56C49.6802 74.76 41.4002 77.28 38.9051 76.44C36.41 75.6 33.9142 77.8463 30.6377 77.6212C27.242 77.3878 22.3948 74.7892 22.3948 74.7892Z" fill="white"/>
<path d="M74.4319 44.7728C74.4022 44.7332 74.3819 44.6865 74.3733 44.6377C74.3407 44.4535 74.5055 44.2609 74.6925 44.2647C74.8795 44.2685 75.0364 44.4676 74.9964 44.6503C74.9563 44.833 74.7304 44.9482 74.559 44.8734C74.509 44.8516 74.4647 44.8166 74.4319 44.7728V44.7728Z" fill="#00160A"/>
<path d="M43.9111 25.5599C43.7841 25.5312 43.7222 25.3719 43.7573 25.2464C43.7924 25.121 43.8957 25.0269 44.0021 24.9519C44.7275 24.4406 45.831 24.5729 46.4149 25.2412C46.4614 25.2944 46.5071 25.3569 46.5048 25.4275C46.5025 25.4982 46.4252 25.5667 46.3625 25.534C46.0338 25.3625 45.6987 25.1889 45.3339 25.1227C44.9691 25.0565 44.5633 25.1131 44.2856 25.3588C44.1748 25.4568 44.0554 25.5925 43.9111 25.5599V25.5599Z" fill="#00160A"/>
<path d="M37.6841 25.5352C37.6443 25.6577 37.4847 25.7025 37.3607 25.6679C37.2366 25.6332 37.1369 25.5437 37.0317 25.4693C36.6859 25.2246 36.2474 25.1312 35.8247 25.1586C35.402 25.186 34.9932 25.3276 34.6146 25.5175C34.5278 25.561 34.4245 25.46 34.4299 25.3631C34.4352 25.2661 34.5081 25.1874 34.5816 25.1241C34.9755 24.7849 35.5108 24.63 36.0299 24.6568C36.5489 24.6835 37.0507 24.8828 37.4782 25.1784C37.5997 25.2624 37.7297 25.3947 37.6841 25.5352Z" fill="black"/>
<path d="M74.6102 46.1415C74.5662 46.2003 74.5031 46.2417 74.4392 46.2779C74.3728 46.3155 74.2998 46.3498 74.2237 46.344C74.1227 46.3362 74.0383 46.2567 73.9967 46.1643C73.8943 45.9367 74.0683 45.6257 74.3177 45.6169C74.5672 45.608 74.7596 45.9417 74.6102 46.1415V46.1415Z" fill="#00160A"/>
<path d="M52.4139 55.6289C52.5351 55.6845 52.4487 55.8802 52.3252 55.9302C52.2016 55.9801 52.046 55.9817 51.9655 56.0879C51.9081 56.1635 51.9105 56.2671 51.9162 56.3618C51.9278 56.5553 51.9401 56.7607 51.8479 56.9311C51.7558 57.1016 51.5154 57.2067 51.3617 57.0887C51.2205 56.9804 51.2331 56.77 51.2282 56.5921C51.2233 56.4142 51.1339 56.1916 50.9561 56.1997C50.0859 56.2395 49.2156 56.2792 48.3454 56.319C48.2351 56.3241 48.1096 56.3232 48.0344 56.2424C47.9314 56.1316 48.0013 55.936 48.1313 55.8587C48.2613 55.7813 48.4227 55.7877 48.5737 55.7964C49.2132 55.8334 49.8526 55.8703 50.4921 55.9073C50.5914 55.913 50.6956 55.9178 50.7854 55.8752C50.8753 55.8325 50.9429 55.7253 50.9065 55.6328C50.8088 55.3847 50.9386 55.0707 51.1829 54.9639C51.2677 54.9269 51.3062 54.829 51.3272 54.7388C51.3483 54.6487 51.3634 54.5506 51.4276 54.4839C51.4917 54.4172 51.6266 54.4129 51.6603 54.4991C51.7381 54.6981 51.9285 54.8265 52.0622 54.993C52.196 55.1595 52.2579 55.4361 52.0886 55.5663C52.098 55.6884 52.3027 55.5779 52.4139 55.6289Z" fill="#00160A"/>
<path d="M35.3941 33.1674C35.2727 33.16 35.2223 32.9654 35.3249 32.9C35.4538 32.8909 35.5106 33.1117 35.3932 33.1659L35.3941 33.1674Z" fill="#FFB61D"/>
<path d="M45.1012 30.121C45.0663 30.0582 45.1028 29.9675 45.1714 29.9463C45.2401 29.925 45.3214 29.9793 45.3281 30.0508C45.3091 30.1439 45.1733 30.1862 45.1049 30.1203L45.1012 30.121Z" fill="#FFB61D"/>
<path d="M44.694 28.9219C44.6427 29.0233 44.4572 28.995 44.4385 28.8829C44.476 28.8318 44.5299 28.7928 44.5901 28.7732C44.6413 28.8108 44.6806 28.8642 44.7014 28.9242L44.694 28.9219Z" fill="#FFB61D"/>
<path d="M42.21 33.4453C42.286 33.4402 42.3629 33.4858 42.3948 33.555C42.3692 33.6333 42.272 33.6876 42.1991 33.6492C42.1262 33.6107 42.1333 33.4762 42.2142 33.4607L42.21 33.4453Z" fill="#FFB61D"/>
<path d="M44.4892 33.5586C44.5267 33.4651 44.7009 33.5008 44.6986 33.6015C44.646 33.6537 44.5778 33.6898 44.5052 33.7041C44.4466 33.684 44.4321 33.5917 44.4816 33.5547L44.4892 33.5586Z" fill="#FFB61D"/>
<path d="M40.5657 29.3355C40.4889 29.3358 40.4324 29.4346 40.4711 29.501C40.5098 29.5673 40.6236 29.5668 40.6617 29.5001C40.6998 29.4334 40.6425 29.3352 40.5657 29.3355Z" fill="#FFB61D"/>
<path d="M35.9333 30.5062C35.8713 30.4598 35.766 30.5049 35.7568 30.5817C35.7477 30.6585 35.8394 30.7271 35.9105 30.6967C35.9816 30.6663 35.9952 30.5525 35.9333 30.5062Z" fill="#FFB61D"/>
<path d="M46.2861 30.6906C46.2121 30.7149 46.1282 30.6321 46.1504 30.5575C46.1726 30.4828 46.2864 30.4585 46.3381 30.5168C46.3897 30.5751 46.3536 30.684 46.2776 30.701L46.2861 30.6906Z" fill="#FFB61D"/>
<path d="M40.1244 32.9755C40.0958 32.9036 39.9824 32.887 39.9344 32.9478C39.8864 33.0085 39.9288 33.115 40.0054 33.1262C40.082 33.1374 40.153 33.0474 40.1244 32.9755Z" fill="#FFB61D"/>
<path d="M40.0034 34.8759C39.9496 34.8916 39.9081 34.8261 39.8989 34.7708C39.9519 34.6702 40.1358 34.6983 40.1564 34.8101C40.124 34.8592 40.0613 34.8863 40.0032 34.8763L40.0034 34.8759Z" fill="#FFB61D"/>
<path d="M40.7379 34.7859C40.6545 34.8065 40.5371 34.7657 40.5455 34.6801C40.5952 34.6288 40.6729 34.5918 40.7377 34.6221C40.8025 34.6523 40.8061 34.7715 40.7355 34.7833L40.7379 34.7859Z" fill="#FFB61D"/>
<path d="M44.505 34.7466C44.4705 34.7213 44.4469 34.6816 44.4411 34.6393C44.4771 34.5875 44.5308 34.5483 44.5911 34.5299C44.6267 34.5658 44.6622 34.6018 44.6978 34.6377C44.6586 34.7052 44.5829 34.75 44.5048 34.7518L44.505 34.7466Z" fill="#FFB61D"/>
<path d="M41.2139 29.5512C41.1529 29.6339 40.9943 29.5936 40.9802 29.4917C41.0321 29.3816 41.2384 29.4307 41.2351 29.5524L41.2139 29.5512Z" fill="#FFB61D"/>
<path d="M42.904 33.6197C42.835 33.6861 42.6954 33.6168 42.7067 33.5217C42.7179 33.4266 42.8699 33.3919 42.9214 33.4726C42.8834 33.5005 42.868 33.5553 42.8859 33.5989L42.904 33.6197Z" fill="#FFB61D"/>
<path d="M38.6977 29.3669C38.7716 29.3425 38.8556 29.4254 38.8334 29.5C38.8112 29.5747 38.6974 29.599 38.6457 29.5407C38.5941 29.4824 38.6302 29.3735 38.7062 29.3565L38.6977 29.3669Z" fill="#FFB61D"/>
<path d="M40.5037 31.7846C40.5763 31.724 40.7084 31.7767 40.7193 31.8707C40.6696 31.9159 40.6017 31.953 40.5374 31.9337C40.473 31.9143 40.4425 31.8123 40.501 31.7793L40.5037 31.7846Z" fill="#FFB61D"/>
<path d="M42.1514 32.3912C42.2012 32.29 42.3857 32.3166 42.4048 32.4278C42.3496 32.5289 42.165 32.5018 42.1412 32.389L42.1514 32.3912Z" fill="#FFB61D"/>
<path d="M42.2532 32.9718C42.3042 32.8968 42.4493 32.9455 42.4447 33.0361C42.4116 33.0885 42.3585 33.1278 42.2987 33.1441C42.239 33.1122 42.2147 33.028 42.2481 32.9691L42.2532 32.9718Z" fill="#FFB61D"/>
<path d="M44.6564 29.4442C44.6089 29.3823 44.4944 29.3973 44.4645 29.4694C44.4346 29.5415 44.5049 29.6332 44.5823 29.623C44.6596 29.6129 44.7039 29.5061 44.6564 29.4442Z" fill="#FFB61D"/>
<path d="M43.4247 35.183C43.4394 35.1155 43.5581 35.1482 43.5655 35.2169C43.5729 35.2856 43.5173 35.3431 43.4662 35.3896C43.4275 35.3648 43.3864 35.3371 43.37 35.2942C43.3537 35.2512 43.3782 35.1907 43.4241 35.1895L43.4247 35.183Z" fill="#FFB61D"/>
<path d="M37.7005 28.8634C37.6719 28.7915 37.5584 28.7749 37.5105 28.8357C37.4625 28.8964 37.5048 29.0029 37.5814 29.0141C37.658 29.0253 37.7291 28.9353 37.7005 28.8634Z" fill="#FFB61D"/>
<path d="M40.6468 35.1832C40.6076 35.1209 40.4987 35.125 40.4644 35.1901C40.43 35.2552 40.4881 35.3474 40.5616 35.3446C40.6351 35.3418 40.686 35.2454 40.6468 35.1832Z" fill="#FFB61D"/>
<path d="M35.8239 32.8657C35.8653 32.8189 35.9499 32.8758 35.9481 32.9382C35.9462 33.0006 35.8959 33.0494 35.8492 33.0909C35.7487 33.0748 35.7316 32.9026 35.827 32.8672L35.8239 32.8657Z" fill="#FFB61D"/>
<path d="M41.2159 34.1851C41.1733 34.2114 41.1307 34.2378 41.0882 34.2642C41.0103 34.2355 41.0012 34.1062 41.0742 34.067C41.1473 34.0277 41.2501 34.1066 41.231 34.1874L41.2159 34.1851Z" fill="#FFB61D"/>
<path d="M46.179 32.9268C46.1552 32.8532 46.299 32.8294 46.3273 32.9015C46.3557 32.9735 46.2984 33.0513 46.2346 33.095C46.1716 33.067 46.1307 32.9959 46.1383 32.9274L46.179 32.9268Z" fill="#FFB61D"/>
<path d="M44.4403 32.9941C44.487 32.9267 44.5892 32.9059 44.6585 32.9497C44.6766 33.0505 44.5489 33.1432 44.4586 33.0947C44.4497 33.0616 44.4408 33.0285 44.4319 32.9954L44.4403 32.9941Z" fill="#FFB61D"/>
<path d="M37.5723 32.3102C37.6462 32.2859 37.7302 32.3688 37.708 32.4434C37.6857 32.518 37.572 32.5424 37.5203 32.4841C37.4686 32.4258 37.5048 32.3169 37.5808 32.2999L37.5723 32.3102Z" fill="#FFB61D"/>
<path d="M45.6048 28.3624C45.6057 28.2975 45.6734 28.2421 45.7372 28.2541C45.801 28.2661 45.8439 28.3422 45.8212 28.403C45.754 28.4539 45.6463 28.4381 45.5965 28.3702L45.6048 28.3624Z" fill="#FFB61D"/>
<path d="M43.9633 31.7815C44.0257 31.7314 44.1371 31.7881 44.1332 31.868C44.0784 31.9533 43.9322 31.9533 43.8773 31.8681C43.906 31.8394 43.9348 31.8106 43.9636 31.7818L43.9633 31.7815Z" fill="#FFB61D"/>
<path d="M36.8842 33.49C36.9471 33.4234 37.0722 33.4348 37.1221 33.5116C37.0842 33.564 37.0345 33.6175 36.9699 33.6206C36.9054 33.6237 36.8444 33.5398 36.8891 33.4931L36.8842 33.49Z" fill="#FFB61D"/>
<path d="M46.3009 34.1621C46.2752 34.1964 46.2358 34.2201 46.1935 34.2266C46.1165 34.1826 46.1166 34.0455 46.1994 34.0136C46.2821 33.9818 46.3715 34.1102 46.3052 34.1691L46.3009 34.1621Z" fill="#FFB61D"/>
<path d="M35.9 34.1972C35.9605 34.1551 35.9514 34.0464 35.8847 34.015C35.818 33.9837 35.7284 34.046 35.7346 34.1194C35.7408 34.1928 35.8395 34.2392 35.9 34.1972Z" fill="#FFB61D"/>
<path d="M46.2671 31.9613C46.2066 32.0231 46.1045 31.8947 46.1631 31.8311C46.2216 31.7675 46.3349 31.8001 46.3872 31.8689C46.3512 31.9048 46.3153 31.9407 46.2793 31.9766L46.2671 31.9613Z" fill="#FFB61D"/>
<path d="M35.2276 29.0103C35.211 28.9054 35.381 28.8368 35.4418 28.9239C35.3912 28.9903 35.3407 29.0568 35.2901 29.1233C35.2532 29.0976 35.2276 29.0564 35.221 29.012L35.2276 29.0103Z" fill="#FFB61D"/>
<path d="M35.8787 31.9613C35.8182 32.0231 35.7161 31.8947 35.7747 31.8311C35.8332 31.7675 35.9465 31.8001 35.9988 31.8689C35.9628 31.9048 35.9269 31.9407 35.8909 31.9766L35.8787 31.9613Z" fill="#FFB61D"/>
<path d="M45.0983 28.9612C45.0466 28.912 45.0567 28.8142 45.1173 28.7765C45.1779 28.7388 45.27 28.773 45.2914 28.8411C45.2613 28.9098 45.1848 28.9553 45.1101 28.9488L45.0983 28.9612Z" fill="#FFB61D"/>
<path d="M37.474 29.4905C37.5217 29.4051 37.6648 29.4001 37.7183 29.482C37.7014 29.6017 37.4872 29.6082 37.4631 29.4897L37.474 29.4905Z" fill="#FFB61D"/>
<path d="M41.8332 29.9847C41.8345 30.0457 41.8134 30.107 41.7747 30.1542C41.7075 30.192 41.6175 30.1074 41.6408 30.0338C41.6641 29.9603 41.7681 29.934 41.832 29.9771L41.8332 29.9847Z" fill="#FFB61D"/>
<path d="M40.068 34.1043C40.0463 34.0349 39.9412 34.0113 39.892 34.0648C39.8427 34.1182 39.8748 34.221 39.9457 34.2369C40.0167 34.2529 40.0896 34.1737 40.068 34.1043Z" fill="#FFB61D"/>
<path d="M42.3308 34.6763C42.3621 34.7584 42.3001 34.8617 42.2129 34.8728C42.1554 34.8484 42.1285 34.7701 42.1589 34.7155C42.1893 34.6609 42.2699 34.6424 42.321 34.6784L42.3308 34.6763Z" fill="#FFB61D"/>
<path d="M38.6348 35.2876C38.6348 35.2088 38.6814 35.1318 38.7511 35.0951C38.8017 35.1456 38.8379 35.2236 38.807 35.288C38.7761 35.3524 38.6567 35.3543 38.6464 35.2836L38.6348 35.2876Z" fill="#FFB61D"/>
<path d="M45.1229 34.6323C45.1834 34.5705 45.2854 34.6988 45.2269 34.7624C45.1684 34.8261 45.0551 34.7935 45.0028 34.7247C45.0387 34.6888 45.0747 34.6529 45.1106 34.617L45.1229 34.6323Z" fill="#FFB61D"/>
<path d="M39.972 29.438C40.0325 29.3763 40.1345 29.5046 40.076 29.5682C40.0175 29.6318 39.9041 29.5993 39.8519 29.5304C39.8878 29.4945 39.9238 29.4587 39.9597 29.4228L39.972 29.438Z" fill="#FFB61D"/>
<path d="M36.4119 33.0588C36.3678 33.0109 36.428 32.9266 36.493 32.9287C36.5581 32.9309 36.6091 32.9846 36.6453 33.0387C36.5939 33.1137 36.4715 33.1251 36.4072 33.0607L36.4119 33.0588Z" fill="#FFB61D"/>
<path d="M37.6643 31.0633C37.7259 31.0584 37.7507 31.155 37.7084 31.2C37.6661 31.2451 37.5959 31.2472 37.5345 31.2401C37.4785 31.1638 37.576 31.038 37.6638 31.0732L37.6643 31.0633Z" fill="#FFB61D"/>
<path d="M40.6953 36.4776C40.631 36.5596 40.4722 36.5175 40.4571 36.4144C40.512 36.3171 40.6958 36.3663 40.6947 36.478L40.6953 36.4776Z" fill="#FFB61D"/>
<path d="M37.5075 33.0916C37.4731 33.0245 37.5183 32.9288 37.5929 32.9177C37.6674 32.9065 37.7395 32.9919 37.7116 33.0619C37.6837 33.132 37.566 33.1401 37.5325 33.0726L37.5075 33.0916Z" fill="#FFB61D"/>
<path d="M39.9601 35.3519C39.9061 35.3693 39.8672 35.3003 39.8527 35.2454C39.9081 35.1603 40.0539 35.1594 40.1103 35.2439C40.0734 35.2952 40.0202 35.3345 39.9604 35.3547L39.9601 35.3519Z" fill="#FFB61D"/>
<path d="M40.4491 30.6558C40.4699 30.5445 40.6501 30.5128 40.7077 30.6103C40.6806 30.7146 40.5173 30.7462 40.4533 30.6596L40.4491 30.6558Z" fill="#FFB61D"/>
<path d="M46.301 32.4162C46.2793 32.3468 46.1743 32.3232 46.125 32.3767C46.0758 32.4301 46.1079 32.5329 46.1788 32.5488C46.2497 32.5647 46.3227 32.4856 46.301 32.4162Z" fill="#FFB61D"/>
<path d="M41.2802 33.0806C41.2178 33.1307 41.1064 33.074 41.1103 32.9941C41.1651 32.9089 41.3113 32.9088 41.3662 32.994C41.3375 33.0228 41.3087 33.0516 41.2799 33.0804L41.2802 33.0806Z" fill="#FFB61D"/>
<path d="M40.0459 36.3059C40.1 36.2887 40.1389 36.3575 40.1533 36.4125C40.0979 36.4977 39.9521 36.4985 39.8957 36.414C39.9326 36.3627 39.9858 36.3234 40.0457 36.3032L40.0459 36.3059Z" fill="#FFB61D"/>
<path d="M46.9502 28.2757C46.9786 28.3041 47.0069 28.3324 47.0353 28.3608C46.985 28.4376 46.8551 28.4644 46.8044 28.3878C46.7538 28.3112 46.8962 28.2025 46.9379 28.2843L46.9502 28.2757Z" fill="#FFB61D"/>
<path d="M44.5079 30.1549C44.5637 30.2038 44.6678 30.1686 44.6823 30.0958C44.6968 30.023 44.6142 29.9505 44.5439 29.9743C44.4737 29.9981 44.4522 30.1059 44.5079 30.1549Z" fill="#FFB61D"/>
<path d="M41.0448 34.7493C41.0672 34.6974 41.1488 34.6855 41.185 34.7289C41.2257 34.7944 41.1888 34.9 41.1122 34.9088C41.0357 34.9176 40.9832 34.7935 41.0504 34.7557L41.0448 34.7493Z" fill="#FFB61D"/>
<path d="M37.5787 33.4924C37.6328 33.4752 37.6716 33.5441 37.6861 33.5991C37.6498 33.6506 37.5963 33.6899 37.5362 33.7089C37.502 33.6822 37.4783 33.6425 37.471 33.5998C37.507 33.5637 37.543 33.5276 37.579 33.4916L37.5787 33.4924Z" fill="#FFB61D"/>
<path d="M45.2994 31.8871C45.3144 31.988 45.1668 32.0655 45.0923 31.9958C45.0605 31.8948 45.2273 31.8012 45.2838 31.8908L45.2994 31.8871Z" fill="#FFB61D"/>
<path d="M39.4392 31.8052C39.4887 31.8354 39.5161 31.898 39.5048 31.9549C39.4433 31.9788 39.3755 31.9864 39.3102 31.9768C39.29 31.945 39.2823 31.9055 39.289 31.8684C39.3395 31.8468 39.3899 31.8251 39.4403 31.8035L39.4392 31.8052Z" fill="#FFB61D"/>
<path d="M42.3001 34.096C42.3225 34.1421 42.3279 34.1964 42.3148 34.2461C42.256 34.2972 42.1457 34.2499 42.1423 34.172C42.1389 34.0942 42.2446 34.0373 42.3077 34.0831L42.3001 34.096Z" fill="#FFB61D"/>
<path d="M45.8649 33.0761C45.7964 33.1384 45.6645 33.0888 45.654 32.9967C45.6768 32.9435 45.7449 32.915 45.7989 32.936C45.8528 32.957 45.8836 33.0241 45.8644 33.0787L45.8649 33.0761Z" fill="#FFB61D"/>
<path d="M40.0672 28.9242C40.1068 28.9508 40.1245 29.0059 40.1078 29.0505C40.0482 29.1069 39.9286 29.0879 39.9081 29.0085C39.8876 28.9291 40.0195 28.8618 40.0596 28.9333L40.0672 28.9242Z" fill="#FFB61D"/>
<path d="M35.9179 32.4519C35.9217 32.3791 35.8311 32.3204 35.7662 32.3535C35.7013 32.3867 35.6957 32.4945 35.7569 32.5341C35.818 32.5738 35.9142 32.5247 35.9179 32.4519Z" fill="#FFB61D"/>
<path d="M41.6892 32.0346C41.6176 32.0118 41.6123 31.893 41.6785 31.8575C41.7447 31.8219 41.8367 31.8794 41.8418 31.9544C41.8108 32.0034 41.7483 32.0303 41.6913 32.019L41.6892 32.0346Z" fill="#FFB61D"/>
<path d="M35.801 29.4364C35.7529 29.3719 35.9025 29.3166 35.9364 29.3895C35.9703 29.4624 35.9101 29.5448 35.8447 29.5915C35.7972 29.561 35.7718 29.4995 35.784 29.4443L35.801 29.4364Z" fill="#FFB61D"/>
<path d="M40.6304 34.1623C40.6046 34.1967 40.565 34.2203 40.5225 34.2268C40.4881 34.2017 40.4647 34.1622 40.459 34.12C40.4934 34.0683 40.547 34.0296 40.607 34.0134C40.666 34.0335 40.6817 34.1257 40.6328 34.1643L40.6304 34.1623Z" fill="#FFB61D"/>
<path d="M45.7383 34.2058C45.6878 34.2274 45.6373 34.2491 45.5868 34.2707C45.5524 34.2434 45.5283 34.2034 45.5202 34.1602C45.5649 34.1234 45.6166 34.0858 45.6743 34.0904C45.732 34.095 45.7817 34.1687 45.7436 34.2123L45.7383 34.2058Z" fill="#FFB61D"/>
<path d="M41.7009 34.5985C41.7502 34.624 41.7995 34.6496 41.8488 34.6752C41.7951 34.732 41.724 34.772 41.6476 34.7886C41.6132 34.7635 41.5895 34.7241 41.5836 34.6819C41.6091 34.6474 41.6488 34.6238 41.6913 34.6179L41.7009 34.5985Z" fill="#FFB61D"/>
<path d="M35.9119 34.6378C35.9515 34.6644 35.9692 34.7195 35.9524 34.7641C35.8928 34.8205 35.7732 34.8015 35.7527 34.7221C35.7322 34.6427 35.8642 34.5754 35.9042 34.6469L35.9119 34.6378Z" fill="#FFB61D"/>
<path d="M39.9449 32.5165C39.9622 32.6198 40.1595 32.5868 40.1422 32.4834C40.1249 32.3801 39.9275 32.4132 39.9449 32.5165Z" fill="#FFB61D"/>
<path d="M42.1872 29.9037C42.2803 29.8938 42.3585 30.0124 42.3128 30.0941C42.2675 30.1289 42.1939 30.1176 42.1612 30.0708C42.1284 30.024 42.1429 29.951 42.1912 29.9204L42.1872 29.9037Z" fill="#FFB61D"/>
<path d="M35.2977 32.4241C35.3485 32.3734 35.4454 32.4501 35.4228 32.5182C35.4002 32.5863 35.3061 32.608 35.242 32.5757C35.1989 32.5264 35.225 32.4357 35.2876 32.4167L35.2977 32.4241Z" fill="#FFB61D"/>
<path d="M39.959 31.1966C40.0113 31.1219 40.1564 31.1719 40.1516 31.263C40.1095 31.3207 40.0284 31.3465 39.9608 31.3236C39.9291 31.2891 39.9279 31.2308 39.958 31.1949L39.959 31.1966Z" fill="#FFB61D"/>
<path d="M45.1532 29.3801C45.1884 29.4032 45.2117 29.4437 45.2139 29.4858C45.177 29.5788 45.0043 29.5451 45.0049 29.4451C45.0344 29.3955 45.0974 29.3683 45.1537 29.3808L45.1532 29.3801Z" fill="#FFB61D"/>
<path d="M37.0879 35.2766C37.1223 35.3437 37.0771 35.4394 37.0025 35.4506C36.928 35.4617 36.8559 35.3763 36.8838 35.3063C36.9117 35.2363 37.0293 35.2281 37.0629 35.2956L37.0879 35.2766Z" fill="#FFB61D"/>
<path d="M38.6611 34.0997C38.7331 34.0919 38.8252 34.0953 38.8527 34.1623C38.8202 34.2139 38.7671 34.2521 38.7078 34.2664C38.6736 34.2477 38.6372 34.2266 38.6214 34.191C38.6057 34.1553 38.6252 34.1028 38.6642 34.1017L38.6611 34.0997Z" fill="#FFB61D"/>
<path d="M46.2793 29.5527C46.3485 29.5287 46.3688 29.4222 46.3135 29.3744C46.2582 29.3265 46.1558 29.3621 46.142 29.4339C46.1283 29.5058 46.2102 29.5767 46.2793 29.5527Z" fill="#FFB61D"/>
<path d="M43.4863 30.0075C43.5633 30.0544 43.5146 30.2021 43.4248 30.194C43.3736 30.1766 43.3427 30.1143 43.3598 30.0629C43.377 30.0116 43.4391 29.9804 43.4905 29.9973L43.4863 30.0075Z" fill="#FFB61D"/>
<path d="M41.224 35.2038C41.2041 35.1036 41.0128 35.1417 41.0327 35.2418C41.0526 35.342 41.2439 35.304 41.224 35.2038Z" fill="#FFB61D"/>
<path d="M36.3147 29.5285C36.3346 29.6287 36.526 29.5906 36.5061 29.4904C36.4861 29.3903 36.2948 29.4283 36.3147 29.5285Z" fill="#FFB61D"/>
<path d="M45.8029 34.789C45.7559 34.866 45.6082 34.8173 45.6164 34.7275C45.6338 34.6762 45.6961 34.6453 45.7474 34.6625C45.7987 34.6796 45.8299 34.7418 45.813 34.7932L45.8029 34.789Z" fill="#FFB61D"/>
<path d="M35.8663 28.7873C35.941 28.759 36.0281 28.8507 35.996 28.9238C35.93 28.9592 35.8465 28.9593 35.7803 28.9243C35.789 28.8714 35.8237 28.8234 35.8711 28.7985L35.8663 28.7873Z" fill="#FFB61D"/>
<path d="M40.0038 30.158C39.9685 30.1349 39.9452 30.0944 39.943 30.0523C39.98 29.9593 40.1527 29.9929 40.152 30.0929C40.1225 30.1426 40.0596 30.1698 40.0032 30.1573L40.0038 30.158Z" fill="#FFB61D"/>
<path d="M43.3597 33.6861C43.3264 33.6257 43.383 33.5387 43.4519 33.5439C43.5207 33.5491 43.564 33.6422 43.5243 33.6987C43.4847 33.7552 43.3836 33.7472 43.3525 33.6855L43.3597 33.6861Z" fill="#FFB61D"/>
<path d="M41.5835 30.6571C41.6066 30.6219 41.6471 30.5986 41.6892 30.5964C41.7822 30.6334 41.7486 30.8061 41.6486 30.8054C41.5989 30.7759 41.5717 30.7129 41.5842 30.6566L41.5835 30.6571Z" fill="#FFB61D"/>
<path d="M46.3748 28.8154C46.3798 28.8518 46.3848 28.8882 46.3898 28.9245C46.3228 28.9586 46.2396 28.9589 46.1724 28.9252C46.1701 28.8299 46.2905 28.7563 46.3743 28.8018L46.3748 28.8154Z" fill="#FFB61D"/>
<path d="M39.5045 35.8077C39.4591 35.7166 39.2851 35.8033 39.3306 35.8944C39.376 35.9855 39.5499 35.8988 39.5045 35.8077Z" fill="#FFB61D"/>
<path d="M43.5333 31.1733C43.4612 31.1017 43.3245 31.2393 43.3966 31.3108C43.4686 31.3824 43.6053 31.2448 43.5333 31.1733Z" fill="#FFB61D"/>
<path d="M41.7553 28.8388C41.7099 28.7477 41.536 28.8344 41.5814 28.9255C41.6268 29.0166 41.8008 28.9298 41.7553 28.8388Z" fill="#FFB61D"/>
<path d="M45.7434 33.6407C45.6994 33.5459 45.5184 33.6299 45.5623 33.7247C45.6063 33.8195 45.7874 33.7355 45.7434 33.6407Z" fill="#FFB61D"/>
<path d="M35.7201 33.6203C35.7647 33.7107 35.9373 33.6255 35.8927 33.5351C35.8482 33.4448 35.6755 33.5299 35.7201 33.6203Z" fill="#FFB61D"/>
<path d="M42.8809 35.3304C42.8577 35.3657 42.8172 35.3889 42.7751 35.3911C42.6822 35.3542 42.7158 35.1815 42.8158 35.1822C42.8654 35.2117 42.8926 35.2746 42.8801 35.331L42.8809 35.3304Z" fill="#FFB61D"/>
<path d="M39.5245 32.4106C39.48 32.3202 39.3073 32.4053 39.3519 32.4957C39.3965 32.5861 39.5691 32.501 39.5245 32.4106Z" fill="#FFB61D"/>
<path d="M45.1518 30.5921C45.2065 30.6493 45.1485 30.7645 45.07 30.7545C45.0129 30.738 44.9814 30.6637 45.0093 30.6113C45.0371 30.5588 45.1163 30.5432 45.162 30.5813L45.1518 30.5921Z" fill="#FFB61D"/>
<path d="M41.0635 36.4999C41.0348 36.4712 41.0061 36.4424 40.9774 36.4137C41.0308 36.3281 41.1765 36.3264 41.2319 36.4107C41.2043 36.4754 41.1324 36.5181 41.0624 36.5115L41.0635 36.4999Z" fill="#FFB61D"/>
<path d="M46.4092 30.1153C46.3805 30.144 46.3517 30.1727 46.323 30.2014C46.2374 30.148 46.2357 30.0023 46.32 29.9469C46.3847 29.9745 46.4274 30.0464 46.4208 30.1164L46.4092 30.1153Z" fill="#FFB61D"/>
<path d="M38.1207 30.0079C38.1438 29.9726 38.1843 29.9494 38.2264 29.9472C38.3194 29.9841 38.2858 30.1568 38.1858 30.1561C38.1361 30.1266 38.1089 30.0637 38.1214 30.0073L38.1207 30.0079Z" fill="#FFB61D"/>
<path d="M36.0144 30.1596C35.9608 30.1885 35.8847 30.1607 35.8623 30.1041C35.8399 30.0474 35.8765 29.9751 35.9354 29.9596C36.0143 29.9725 36.0574 30.0817 36.0087 30.1451L36.0144 30.1596Z" fill="#FFB61D"/>
<path d="M42.8874 30.6997C42.887 30.5989 42.6945 30.5997 42.6949 30.7005C42.6954 30.8012 42.8879 30.8004 42.8874 30.6997Z" fill="#FFB61D"/>
<path d="M41.7986 34.1628C41.7532 34.0717 41.5792 34.1585 41.6247 34.2496C41.6701 34.3407 41.8441 34.2539 41.7986 34.1628Z" fill="#FFB61D"/>
<path d="M46.7031 29.5285C46.7231 29.6287 46.9144 29.5906 46.8945 29.4904C46.8745 29.3903 46.6832 29.4283 46.7031 29.5285Z" fill="#FFB61D"/>
<path d="M40.9963 32.4076C41.0598 32.3411 41.1854 32.3531 41.2351 32.4305C41.1995 32.482 41.1462 32.5209 41.0863 32.5391C41.041 32.5095 41.0068 32.4635 40.9916 32.4115L40.9963 32.4076Z" fill="#FFB61D"/>
<path d="M45.0154 32.3959C45.0861 32.3538 45.1918 32.3985 45.2108 32.4785C45.1699 32.5345 45.0905 32.5587 45.0252 32.5353C44.9935 32.501 44.9922 32.4429 45.0222 32.4073L45.0154 32.3959Z" fill="#FFB61D"/>
<path d="M41.0719 31.8224C41.0465 31.7759 41.1041 31.7186 41.1565 31.7258C41.209 31.7331 41.247 31.7792 41.2726 31.8256C41.2331 31.9071 41.0953 31.91 41.0523 31.8303L41.0719 31.8224Z" fill="#FFB61D"/>
<path d="M46.7991 32.9733C46.846 32.8962 46.9937 32.9449 46.9856 33.0348C46.9682 33.086 46.9059 33.1169 46.8546 33.0998C46.8032 33.0826 46.772 33.0205 46.7889 32.9691L46.7991 32.9733Z" fill="#FFB61D"/>
<path d="M40.5226 32.3682C40.5831 32.3349 40.67 32.3916 40.6648 32.4604C40.6596 32.5293 40.5666 32.5725 40.5101 32.5329C40.4535 32.4932 40.4616 32.3921 40.5233 32.3611L40.5226 32.3682Z" fill="#FFB61D"/>
<path d="M41.0213 33.5571C41.0577 33.526 41.1164 33.5252 41.1536 33.5553C41.1569 33.633 41.1108 33.7105 41.041 33.7449C40.9716 33.7125 40.9588 33.6014 41.0191 33.5541L41.0213 33.5571Z" fill="#FFB61D"/>
<path d="M46.1253 33.6456C46.1974 33.7171 46.334 33.5796 46.262 33.508C46.1899 33.4364 46.0533 33.574 46.1253 33.6456Z" fill="#FFB61D"/>
<path d="M39.4588 30.183C39.3766 30.1146 39.4728 29.9505 39.5727 29.9889C39.6177 30.066 39.5508 30.1808 39.4616 30.1795L39.4588 30.183Z" fill="#FFB61D"/>
<path d="M39.4813 29.4672C39.4367 29.3768 39.2641 29.4619 39.3086 29.5523C39.3532 29.6427 39.5258 29.5576 39.4813 29.4672Z" fill="#FFB61D"/>
<path d="M35.1987 29.5957C35.1643 29.5703 35.1407 29.5308 35.1348 29.4885C35.1701 29.4373 35.2229 29.3985 35.2823 29.38C35.3425 29.4525 35.2923 29.5837 35.1991 29.5975L35.1987 29.5957Z" fill="#FFB61D"/>
<path d="M45.0698 34.2823C45.0017 34.2821 44.9499 34.1966 44.9822 34.1367C45.0145 34.0768 45.1157 34.0738 45.1505 34.1323C45.1853 34.1908 45.1329 34.279 45.065 34.2755L45.0698 34.2823Z" fill="#FFB61D"/>
<path d="M46.2381 28.2907C46.2989 28.3106 46.3525 28.3522 46.3868 28.4062C46.3383 28.477 46.2285 28.4957 46.1592 28.445C46.179 28.3936 46.1989 28.3422 46.2187 28.2908L46.2381 28.2907Z" fill="#FFB61D"/>
<path d="M40.5225 33.5567C40.5235 33.497 40.5874 33.4468 40.6458 33.46C40.7041 33.4732 40.7402 33.546 40.7153 33.6004C40.6479 33.6463 40.5441 33.6241 40.5012 33.5547L40.5225 33.5567Z" fill="#FFB61D"/>
<path d="M41.5721 31.268C41.5403 31.2076 41.5904 31.1218 41.6587 31.1198C41.7269 31.1178 41.782 31.2003 41.7539 31.2626C41.7034 31.2963 41.6327 31.2965 41.582 31.2631L41.5721 31.268Z" fill="#FFB61D"/>
<path d="M37.0706 28.9055C37.0497 28.9868 36.9322 29.0226 36.8695 28.9668C36.8459 28.9167 36.8714 28.8482 36.9235 28.8293C36.9755 28.8103 37.0412 28.8501 37.0452 28.9053L37.0706 28.9055Z" fill="#FFB61D"/>
<path d="M36.2726 32.5002C36.2531 32.4501 36.2815 32.3868 36.3319 32.3681C36.3822 32.3493 36.4451 32.3787 36.463 32.4293C36.4467 32.5086 36.3401 32.5527 36.2726 32.508L36.2726 32.5002Z" fill="#FFB61D"/>
<path d="M38.1419 33.6645C38.1076 33.6385 38.0839 33.599 38.077 33.5565C38.1127 33.5212 38.1484 33.486 38.1841 33.4507C38.2764 33.4903 38.2425 33.6617 38.1421 33.6632L38.1419 33.6645Z" fill="#FFB61D"/>
<path d="M36.4093 34.2644C36.3408 34.2895 36.2827 34.1779 36.3332 34.1253C36.3837 34.0727 36.4823 34.0993 36.5174 34.1632C36.4817 34.199 36.446 34.2349 36.4103 34.2707L36.4093 34.2644Z" fill="#FFB61D"/>
<path d="M36.3236 29.0334C36.2732 28.9714 36.3301 28.8597 36.4099 28.864C36.4597 28.8936 36.4872 28.9565 36.4751 29.0131C36.4287 29.0358 36.3746 29.0424 36.324 29.0316L36.3236 29.0334Z" fill="#FFB61D"/>
<path d="M44.6326 31.847C44.6938 31.8636 44.6684 31.9694 44.6065 31.9831C44.5447 31.9968 44.4856 31.9546 44.437 31.9139C44.4803 31.8549 44.5631 31.8284 44.6326 31.8513L44.6326 31.847Z" fill="#FFB61D"/>
<path d="M45.6643 31.9032C45.6306 31.8785 45.5969 31.8539 45.5632 31.8292C45.6163 31.7403 45.7668 31.7376 45.8231 31.8245C45.7929 31.8739 45.7301 31.9009 45.6735 31.8889L45.6643 31.9032Z" fill="#FFB61D"/>
<path d="M46.7014 29.0052C46.6634 28.9521 46.7136 28.8654 46.7788 28.8678C46.844 28.8702 46.889 28.9533 46.8591 29.0113C46.8099 29.0456 46.7395 29.0459 46.6901 29.0121L46.7014 29.0052Z" fill="#FFB61D"/>
<path d="M42.8817 32.5178C42.8195 32.5681 42.708 32.5114 42.7121 32.4315C42.7327 32.3956 42.7733 32.372 42.8147 32.3718C42.8729 32.3925 42.9094 32.461 42.8941 32.5209L42.8817 32.5178Z" fill="#FFB61D"/>
<path d="M37.6325 34.5604C37.6664 34.5862 37.7003 34.6119 37.7342 34.6376C37.6792 34.6904 37.6098 34.7281 37.5355 34.7455C37.4847 34.6843 37.543 34.5726 37.6223 34.5793L37.6325 34.5604Z" fill="#FFB61D"/>
<path d="M37.0806 30.0075C37.0352 29.9164 36.8612 30.0031 36.9066 30.0942C36.952 30.1853 37.126 30.0986 37.0806 30.0075Z" fill="#FFB61D"/>
<path d="M36.3023 34.6821C36.3282 34.6477 36.3678 34.624 36.4103 34.6174C36.4446 34.6433 36.4683 34.6828 36.4751 34.7252C36.4392 34.7611 36.4033 34.797 36.3674 34.8329C36.3186 34.8015 36.2919 34.7391 36.3029 34.6821L36.3023 34.6821Z" fill="#FFB61D"/>
<path d="M40.4608 28.9656C40.5212 29.0396 40.6627 28.9243 40.6023 28.8502C40.5419 28.7761 40.4004 28.8915 40.4608 28.9656Z" fill="#FFB61D"/>
<path d="M45.6073 31.2637C45.6021 31.1643 45.7736 31.1246 45.8126 31.2162C45.7999 31.3074 45.6562 31.3419 45.6036 31.2662L45.6073 31.2637Z" fill="#FFB61D"/>
<path d="M46.7994 32.4963C46.764 32.5635 46.6352 32.5035 46.6639 32.4332C46.6711 32.3787 46.7397 32.3426 46.7887 32.3675C46.8377 32.3924 46.849 32.469 46.8092 32.507L46.7994 32.4963Z" fill="#FFB61D"/>
<path d="M41.1707 30.6718C41.1022 30.6968 41.044 30.5852 41.0946 30.5326C41.1451 30.48 41.2436 30.5067 41.2788 30.5705C41.2431 30.6064 41.2074 30.6422 41.1717 30.678L41.1707 30.6718Z" fill="#FFB61D"/>
<path d="M37.0181 34.6256C37.0644 34.599 37.1229 34.6571 37.1156 34.71C37.1082 34.7629 37.0615 34.8011 37.0149 34.8272C36.9368 34.7893 36.94 34.654 37.0199 34.6198L37.0181 34.6256Z" fill="#FFB61D"/>
<path d="M38.6848 29.0558C38.6628 28.9645 38.7804 28.8591 38.8485 28.9239C38.8443 28.9754 38.8381 29.0314 38.8019 29.0683C38.7657 29.1052 38.689 29.1026 38.6744 29.053L38.6848 29.0558Z" fill="#FFB61D"/>
<path d="M42.9691 35.7628C42.9743 35.8622 42.8029 35.9019 42.7639 35.8103C42.7765 35.719 42.9202 35.6846 42.9728 35.7602L42.9691 35.7628Z" fill="#FFB61D"/>
<path d="M38.2065 34.637C38.1077 34.6505 38.1335 34.8391 38.2322 34.8256C38.331 34.8121 38.3052 34.6235 38.2065 34.637Z" fill="#FFB61D"/>
<path d="M42.7719 34.6184C42.8575 34.6731 42.8587 34.8194 42.774 34.8756C42.6886 34.8197 42.6883 34.6733 42.7734 34.6171L42.7719 34.6184Z" fill="#FFB61D"/>
<path d="M38.8116 30.6559C38.7433 30.7022 38.6384 30.6803 38.5943 30.6105C38.6394 30.5741 38.6911 30.5364 38.7488 30.5411C38.8066 30.5457 38.8563 30.6198 38.8178 30.6631L38.8116 30.6559Z" fill="#FFB61D"/>
<path d="M40.6096 35.9158C40.5743 35.983 40.4454 35.923 40.4741 35.8527C40.4814 35.7982 40.5499 35.7621 40.5989 35.787C40.6479 35.8119 40.6592 35.8885 40.6195 35.9265L40.6096 35.9158Z" fill="#FFB61D"/>
<path d="M35.3272 31.321C35.2587 31.3461 35.2006 31.2345 35.2511 31.1819C35.3016 31.1293 35.4001 31.1559 35.4353 31.2198C35.3996 31.2556 35.3639 31.2915 35.3282 31.3273L35.3272 31.321Z" fill="#FFB61D"/>
<path d="M44.6784 28.4275C44.6431 28.4947 44.5142 28.4347 44.5429 28.3644C44.5502 28.3099 44.6187 28.2738 44.6677 28.2987C44.7168 28.3236 44.728 28.4002 44.6883 28.4382L44.6784 28.4275Z" fill="#FFB61D"/>
<path d="M42.2262 29.4469C42.2525 29.5152 42.2258 29.6 42.1651 29.6409C42.1253 29.5919 42.083 29.5332 42.0965 29.4715C42.11 29.4097 42.2165 29.3852 42.2314 29.4466L42.2262 29.4469Z" fill="#FFB61D"/>
<path d="M40.6092 32.9719C40.6595 33.0341 40.6027 33.1456 40.5229 33.1415C40.487 33.1208 40.4634 33.0803 40.4631 33.0388C40.4839 32.9807 40.5524 32.9442 40.6123 32.9595L40.6092 32.9719Z" fill="#FFB61D"/>
<path d="M41.0499 28.9904C41.044 29.0847 41.2241 29.096 41.23 29.0017C41.2359 28.9074 41.0559 28.8961 41.0499 28.9904Z" fill="#FFB61D"/>
<path d="M44.0282 30.5484C44.0627 30.5737 44.0863 30.6134 44.092 30.6558C44.0613 30.7049 43.9989 30.732 43.9421 30.7207C43.8908 30.6596 43.9489 30.5472 44.0284 30.5538L44.0282 30.5484Z" fill="#FFB61D"/>
<path d="M41.7126 36.4131C41.6867 36.4475 41.6471 36.4712 41.6046 36.4777C41.5703 36.4519 41.5466 36.4124 41.5401 36.37C41.5729 36.331 41.6199 36.2956 41.6704 36.3034C41.7208 36.3111 41.7541 36.3853 41.7129 36.4155L41.7126 36.4131Z" fill="#FFB61D"/>
<path d="M45.7808 30.6118C45.737 30.6796 45.6351 30.7011 45.5677 30.6568C45.5369 30.6106 45.5856 30.5443 45.6409 30.5401C45.6962 30.5359 45.7462 30.5728 45.7839 30.6134L45.7808 30.6118Z" fill="#FFB61D"/>
<path d="M37.5258 30.1284C37.4838 30.0776 37.5323 29.9864 37.5982 29.9891C37.6641 29.9919 37.7065 30.0801 37.6708 30.1355C37.6351 30.191 37.5424 30.1925 37.5015 30.1408L37.5258 30.1284Z" fill="#FFB61D"/>
<path d="M39.4593 35.2881C39.4719 35.3225 39.4645 35.3635 39.4407 35.3912C39.3743 35.4223 39.2805 35.3595 39.2971 35.2881C39.3136 35.2167 39.4454 35.219 39.4491 35.2922L39.4593 35.2881Z" fill="#FFB61D"/>
<path d="M45.1121 33.615C45.0638 33.6108 45.0604 33.5317 45.1003 33.5041C45.1402 33.4766 45.1939 33.4857 45.2413 33.4959C45.2639 33.526 45.2719 33.5665 45.2624 33.6029C45.2156 33.6249 45.1615 33.631 45.1109 33.62L45.1121 33.615Z" fill="#FFB61D"/>
<path d="M40.5224 29.9855C40.5658 29.9854 40.6091 29.9854 40.6525 29.9853C40.6729 30.0174 40.6805 30.0572 40.6735 30.0945C40.6248 30.114 40.5685 30.1332 40.5218 30.1093C40.475 30.0854 40.4719 29.9974 40.5241 29.9915L40.5224 29.9855Z" fill="#FFB61D"/>
<path d="M42.9759 30.034C42.9422 29.9458 42.7737 30.0102 42.8074 30.0984C42.8411 30.1867 43.0097 30.1222 42.9759 30.034Z" fill="#FFB61D"/>
<path d="M45.6109 30.181C45.5999 30.1321 45.6103 30.0738 45.6517 30.0457C45.6931 30.0175 45.7645 30.043 45.7647 30.093C45.7569 30.1366 45.7467 30.1844 45.7113 30.211C45.6759 30.2375 45.6095 30.2191 45.6114 30.1749L45.6109 30.181Z" fill="#FFB61D"/>
<path d="M35.3369 30.2223C35.2688 30.2453 35.192 30.1642 35.2187 30.0975C35.2454 30.0308 35.3569 30.0249 35.3904 30.0885C35.3695 30.1261 35.3486 30.1638 35.3276 30.2014L35.3369 30.2223Z" fill="#FFB61D"/>
<path d="M38.0336 35.8947C38.0264 35.8151 38.1393 35.7564 38.2003 35.8082C38.2266 35.852 38.2085 35.9164 38.1632 35.94C38.1179 35.9637 38.0547 35.9418 38.0338 35.8952L38.0336 35.8947Z" fill="#FFB61D"/>
<path d="M43.4966 33.0903C43.5658 33.0269 43.4446 32.8948 43.3754 32.9582C43.3063 33.0217 43.4274 33.1538 43.4966 33.0903Z" fill="#FFB61D"/>
<path d="M40.046 33.7465C39.9864 33.7655 39.926 33.6886 39.9513 33.6315C39.9766 33.5743 40.0617 33.5603 40.1106 33.5993C40.1251 33.656 40.0966 33.7209 40.045 33.7485L40.046 33.7465Z" fill="#FFB61D"/>
<path d="M43.9133 28.5426C43.8483 28.4791 43.9453 28.3474 44.0253 28.3907C44.0877 28.4523 43.9949 28.5792 43.9173 28.5382L43.9133 28.5426Z" fill="#FFB61D"/>
<path d="M40.0895 30.6327C40.0168 30.6409 39.924 30.6359 39.8964 30.5682C39.94 30.5116 40.0205 30.4865 40.0886 30.5083C40.1201 30.5431 40.1214 30.6012 40.0914 30.6373L40.0895 30.6327Z" fill="#FFB61D"/>
<path d="M43.3546 29.4376C43.4281 29.4071 43.5164 29.4995 43.4826 29.5716C43.448 29.6081 43.3825 29.6085 43.3475 29.5724C43.3124 29.5363 43.3147 29.4709 43.3522 29.4374L43.3546 29.4376Z" fill="#FFB61D"/>
<path d="M42.7518 28.8819C42.7777 28.8475 42.8173 28.8238 42.8598 28.8173C42.8941 28.843 42.9178 28.8826 42.9242 28.925C42.8985 28.9593 42.8589 28.983 42.8165 28.9894C42.7821 28.9638 42.7585 28.924 42.7525 28.8815L42.7518 28.8819Z" fill="#FFB61D"/>
<path d="M40.0829 31.8761C40.0366 31.9553 39.8989 31.951 39.8576 31.869C39.897 31.7869 40.0354 31.7831 40.0792 31.8629L40.0829 31.8761Z" fill="#FFB61D"/>
<path d="M37.0151 34.0944C37.0616 34.0882 37.0967 34.1471 37.0815 34.1915C37.0663 34.2359 37.0191 34.2619 36.9729 34.2702C36.9387 34.2444 36.9151 34.2049 36.9087 34.1625C36.9343 34.1281 36.974 34.1044 37.0165 34.0985L37.0151 34.0944Z" fill="#FFB61D"/>
<path d="M41.7889 35.3072C41.7908 35.341 41.7928 35.3748 41.7947 35.4086C41.7529 35.4685 41.638 35.4362 41.6335 35.3633C41.6289 35.2904 41.7389 35.2441 41.7879 35.2984L41.7889 35.3072Z" fill="#FFB61D"/>
<path d="M44.0283 33.4918C44.0627 33.5176 44.0864 33.5572 44.0929 33.5997C44.0672 33.6341 44.0276 33.6577 43.9852 33.6642C43.9509 33.6384 43.9273 33.5989 43.9208 33.5565C43.9465 33.522 43.9862 33.4984 44.0287 33.4924L44.0283 33.4918Z" fill="#FFB61D"/>
<path d="M38.6871 35.9371C38.6713 35.8891 38.6846 35.8292 38.7275 35.8026C38.7703 35.7759 38.839 35.7996 38.8463 35.8495C38.8279 35.8869 38.8096 35.9243 38.7913 35.9616C38.7547 35.9574 38.7181 35.9532 38.6815 35.949L38.6871 35.9371Z" fill="#FFB61D"/>
<path d="M41.8032 29.5312C41.8082 29.5892 41.7463 29.6424 41.6897 29.6287C41.6331 29.6151 41.6023 29.5395 41.6332 29.4902C41.6808 29.4446 41.7741 29.4704 41.7915 29.534L41.8032 29.5312Z" fill="#FFB61D"/>
<path d="M36.926 33.0129C36.9692 32.9501 37.0917 33.0044 37.0742 33.0786C37.0561 33.1159 37.0155 33.1413 36.974 33.1412C36.9262 33.1229 36.9026 33.0589 36.9272 33.0139L36.926 33.0129Z" fill="#FFB61D"/>
<path d="M45.6771 29.3786C45.7301 29.4609 45.6259 29.5858 45.5354 29.5485C45.5229 29.4672 45.5914 29.3829 45.6736 29.3785L45.6771 29.3786Z" fill="#FFB61D"/>
<path d="M36.3004 31.2196C36.2979 31.1386 36.4093 31.0815 36.4735 31.1309C36.5069 31.2206 36.3533 31.3006 36.2989 31.2219L36.3004 31.2196Z" fill="#FFB61D"/>
<path d="M46.7115 31.1536C46.7409 31.1149 46.7957 31.0978 46.8418 31.1128C46.8632 31.1426 46.8708 31.1819 46.8623 31.2176C46.8266 31.2384 46.791 31.2592 46.7553 31.28C46.708 31.2609 46.6853 31.1972 46.7096 31.1524L46.7115 31.1536Z" fill="#FFB61D"/>
<path d="M42.278 28.8779C42.3408 28.9211 42.2864 29.0437 42.2123 29.0261C42.1749 29.008 42.1496 28.9675 42.1496 28.9259C42.168 28.8781 42.232 28.8546 42.2769 28.8791L42.278 28.8779Z" fill="#FFB61D"/>
<path d="M37.0405 29.4839C37.1033 29.5271 37.0489 29.6497 36.9748 29.6322C36.9375 29.614 36.9121 29.5735 36.9122 29.5319C36.9305 29.4841 36.9945 29.4606 37.0395 29.4851L37.0405 29.4839Z" fill="#FFB61D"/>
<path d="M42.3613 31.1324C42.3147 31.1996 42.2126 31.2203 42.1435 31.1766C42.1422 31.0744 42.3189 31.0397 42.3564 31.1347L42.3613 31.1324Z" fill="#FFB61D"/>
<path d="M38.6397 33.6433C38.6656 33.6089 38.7052 33.5852 38.7477 33.5787C38.782 33.6044 38.8057 33.6439 38.8121 33.6864C38.7864 33.7207 38.7469 33.7443 38.7045 33.7507C38.67 33.7251 38.6464 33.6854 38.6404 33.6429L38.6397 33.6433Z" fill="#FFB61D"/>
<path d="M39.505 30.6995C39.4792 30.7338 39.4395 30.7575 39.397 30.7641C39.3627 30.7384 39.339 30.6988 39.3326 30.6564C39.3583 30.6221 39.3979 30.5984 39.4403 30.592C39.4748 30.6176 39.4984 30.6574 39.5044 30.6999L39.505 30.6995Z" fill="#FFB61D"/>
<path d="M45.6131 32.4772C45.6472 32.3981 45.7813 32.3949 45.819 32.4724C45.7806 32.5553 45.6413 32.5601 45.5973 32.4801L45.6131 32.4772Z" fill="#FFB61D"/>
<path d="M42.274 36.4108C42.2381 36.4327 42.2022 36.4546 42.1663 36.4764C42.1322 36.4516 42.1091 36.4123 42.1038 36.3704C42.1348 36.3214 42.1972 36.2944 42.2542 36.3055C42.2748 36.3367 42.2822 36.3765 42.274 36.4131L42.274 36.4108Z" fill="#FFB61D"/>
<path d="M42.189 35.2449C42.1689 35.1967 42.2477 35.1729 42.2994 35.1804C42.3218 35.2269 42.3282 35.2809 42.3173 35.3313C42.2862 35.352 42.2468 35.3597 42.2102 35.3523C42.1895 35.3211 42.1822 35.2814 42.1904 35.2448L42.189 35.2449Z" fill="#FFB61D"/>
<path d="M38.6397 30.1372C38.6656 30.1028 38.7052 30.0791 38.7477 30.0726C38.782 30.0983 38.8057 30.1378 38.8121 30.1803C38.7864 30.2146 38.7469 30.2382 38.7045 30.2446C38.67 30.219 38.6464 30.1793 38.6404 30.1368L38.6397 30.1372Z" fill="#FFB61D"/>
<path d="M44.5474 31.1544C44.5951 31.1332 44.6197 31.2123 44.6119 31.2639C44.5655 31.2865 44.5117 31.2933 44.4611 31.2832C44.4406 31.2518 44.4329 31.2123 44.4402 31.1755C44.4714 31.1548 44.5112 31.1474 44.5477 31.1556L44.5474 31.1544Z" fill="#FFB61D"/>
<path d="M37.079 30.6569C37.0899 30.693 37.083 30.7339 37.061 30.7645C37.0236 30.7733 36.9825 30.7656 36.9509 30.7438C36.9512 30.7004 36.9515 30.6569 36.9519 30.6135C36.9884 30.5666 37.0804 30.597 37.0817 30.6564L37.079 30.6569Z" fill="#FFB61D"/>
<path d="M38.8381 32.5418C38.7949 32.6046 38.6724 32.5503 38.6899 32.4761C38.708 32.4388 38.7486 32.4135 38.7901 32.4135C38.8379 32.4318 38.8614 32.4959 38.8369 32.5408L38.8381 32.5418Z" fill="#FFB61D"/>
<path d="M37.6853 30.5324C37.7274 30.5416 37.743 30.6061 37.7098 30.6336C37.6379 30.6409 37.546 30.6371 37.5185 30.5702C37.5487 30.5105 37.6334 30.4866 37.6903 30.5218L37.6853 30.5324Z" fill="#FFB61D"/>
<path d="M40.0461 35.8292C40.0804 35.855 40.1041 35.8946 40.1107 35.9371C40.085 35.9715 40.0454 35.9951 40.003 36.0016C39.9687 35.9758 39.945 35.9363 39.9386 35.8939C39.9642 35.8594 40.004 35.8358 40.0465 35.8298L40.0461 35.8292Z" fill="#FFB61D"/>
<path d="M41.5824 32.3868C41.6373 32.3468 41.7266 32.3709 41.7539 32.4331C41.7102 32.4896 41.6297 32.5145 41.5617 32.4926C41.5326 32.4633 41.5461 32.4049 41.5851 32.3913L41.5824 32.3868Z" fill="#FFB61D"/>
<path d="M38.2321 31.9791C38.1889 32.0419 38.0664 31.9876 38.0839 31.9134C38.102 31.8761 38.1426 31.8507 38.1841 31.8508C38.2319 31.8691 38.2555 31.9332 38.2309 31.9781L38.2321 31.9791Z" fill="#FFB61D"/>
<path d="M41.6933 33.5335C41.6462 33.4612 41.5082 33.5511 41.5552 33.6233C41.6023 33.6956 41.7403 33.6057 41.6933 33.5335Z" fill="#FFB61D"/>
<path d="M37.0679 32.4532C37.0585 32.5437 36.9009 32.5602 36.8729 32.4736C36.9039 32.4039 37.0156 32.3911 37.0616 32.4519L37.0679 32.4532Z" fill="#FFB61D"/>
<path d="M41.0879 35.9522C40.9943 35.9168 41.028 35.7428 41.128 35.7449C41.1741 35.8117 41.153 35.9151 41.0845 35.9585L41.0879 35.9522Z" fill="#FFB61D"/>
<path d="M36.4447 30.648C36.4117 30.6238 36.3786 30.5996 36.3456 30.5755C36.3799 30.4923 36.5211 30.4892 36.5591 30.5708C36.5346 30.6052 36.4953 30.6286 36.4533 30.6337L36.4447 30.648Z" fill="#FFB61D"/>
<path d="M42.7945 34.0749C42.858 34.1182 42.8457 34.2332 42.7745 34.2622C42.6886 34.2337 42.7041 34.0778 42.794 34.0668L42.7945 34.0749Z" fill="#FFB61D"/>
<path d="M45.6279 29.0346C45.675 29.1069 45.813 29.017 45.7659 28.9447C45.7189 28.8725 45.5809 28.9623 45.6279 29.0346Z" fill="#FFB61D"/>
<path d="M41.5875 35.7667C41.6222 35.6874 41.7569 35.685 41.7944 35.763C41.758 35.8422 41.6219 35.8415 41.5863 35.7618L41.5875 35.7667Z" fill="#FFB61D"/>
<path d="M39.3621 28.916C39.3863 28.883 39.4105 28.85 39.4346 28.817C39.5178 28.8513 39.5209 28.9925 39.4393 29.0304C39.4049 29.006 39.3815 28.9666 39.3765 28.9247L39.3621 28.916Z" fill="#FFB61D"/>
<path d="M44.5506 30.6292C44.4953 30.6203 44.5023 30.525 44.5549 30.5061C44.6076 30.4872 44.6652 30.524 44.6976 30.5697C44.6671 30.6187 44.6046 30.6455 44.5481 30.6337L44.5506 30.6292Z" fill="#FFB61D"/>
<path d="M43.925 32.4334C43.9524 32.3722 44.0392 32.3473 44.0949 32.3846C44.1118 32.4318 44.0811 32.4903 44.0327 32.5033C43.9842 32.5164 43.9284 32.4812 43.9193 32.4318L43.925 32.4334Z" fill="#FFB61D"/>
<path d="M38.7884 31.7656C38.8436 31.7746 38.8367 31.8699 38.784 31.8888C38.7313 31.9077 38.6738 31.8709 38.6413 31.8252C38.6718 31.7762 38.7344 31.7494 38.7909 31.7612L38.7884 31.7656Z" fill="#FFB61D"/>
<path d="M43.3771 32.5407C43.4242 32.6129 43.5622 32.5231 43.5151 32.4508C43.4681 32.3785 43.33 32.4684 43.3771 32.5407Z" fill="#FFB61D"/>
<path d="M39.5499 34.7706C39.6222 34.7236 39.5323 34.5856 39.46 34.6326C39.3878 34.6797 39.4776 34.8177 39.5499 34.7706Z" fill="#FFB61D"/>
<path d="M45.1017 31.2973C45.0687 31.2731 45.0356 31.2489 45.0026 31.2247C45.0369 31.1416 45.1782 31.1385 45.2161 31.2201C45.1916 31.2545 45.1523 31.2779 45.1104 31.2829L45.1017 31.2973Z" fill="#FFB61D"/>
<path d="M44.6515 32.4284C44.6169 32.5077 44.4821 32.5101 44.4447 32.4321C44.4811 32.3528 44.6172 32.3536 44.6527 32.4332L44.6515 32.4284Z" fill="#FFB61D"/>
<path d="M46.3396 31.2164C46.305 31.2957 46.1703 31.2982 46.1328 31.2201C46.1692 31.1409 46.3053 31.1416 46.3409 31.2213L46.3396 31.2164Z" fill="#FFB61D"/>
<path d="M38.0163 34.1976C38.0399 34.1481 38.0636 34.0986 38.0872 34.0491C38.1344 34.0814 38.1771 34.1353 38.1636 34.1909C38.1502 34.2465 38.0522 34.2623 38.0408 34.2063L38.0163 34.1976Z" fill="#FFB61D"/>
<path d="M46.8772 30.652C46.8277 30.6283 46.7782 30.6047 46.7287 30.581C46.761 30.5339 46.8149 30.4912 46.8705 30.5047C46.9261 30.5181 46.9419 30.6161 46.8858 30.6274L46.8772 30.652Z" fill="#FFB61D"/>
<path d="M43.9428 34.619C43.9809 34.6087 44.0233 34.6161 44.0556 34.6387C44.0385 34.7002 43.997 34.7544 43.9422 34.787C43.875 34.762 43.876 34.6454 43.9437 34.6217L43.9428 34.619Z" fill="#FFB61D"/>
<path d="M35.2393 31.8761C35.2122 31.7777 35.4017 31.7281 35.4263 31.8272C35.3989 31.8864 35.3138 31.9093 35.2604 31.8717L35.2393 31.8761Z" fill="#FFB61D"/>
<path d="M35.2443 30.6725C35.1891 30.6636 35.196 30.5683 35.2487 30.5494C35.3013 30.5305 35.3589 30.5673 35.3913 30.613C35.3609 30.662 35.2983 30.6888 35.2418 30.677L35.2443 30.6725Z" fill="#FFB61D"/>
<path d="M43.491 34.0757C43.4886 34.1191 43.4615 34.1604 43.4226 34.1799C43.3429 34.1433 43.3437 34.0063 43.4239 33.9707C43.4581 33.9952 43.4814 34.0345 43.4864 34.0763L43.491 34.0757Z" fill="#FFB61D"/>
<path d="M36.4113 33.7582C36.3458 33.7589 36.3358 33.6642 36.3489 33.6001C36.3819 33.5673 36.4414 33.567 36.4747 33.5994C36.4892 33.6561 36.4607 33.7209 36.409 33.7486L36.4113 33.7582Z" fill="#FFB61D"/>
<path d="M44.0877 34.1639C44.0665 34.0793 43.9048 34.1197 43.926 34.2044C43.9472 34.289 44.1088 34.2486 44.0877 34.1639Z" fill="#FFB61D"/>
<path d="M44.0038 29.6122C43.9571 29.6386 43.9065 29.5627 43.9339 29.5167C43.9613 29.4707 44.0238 29.4605 44.0771 29.4652C44.0989 29.5217 44.0624 29.593 44.004 29.6084L44.0038 29.6122Z" fill="#FFB61D"/>
<path d="M42.2512 30.5537C42.3064 30.5626 42.2995 30.6579 42.2468 30.6768C42.1941 30.6957 42.1366 30.6589 42.1041 30.6133C42.1346 30.5642 42.1971 30.5375 42.2537 30.5493L42.2512 30.5537Z" fill="#FFB61D"/>
<path d="M35.9366 31.1681C35.9637 31.2664 35.7742 31.316 35.7496 31.217C35.777 31.1578 35.8621 31.1349 35.9154 31.1725L35.9366 31.1681Z" fill="#FFB61D"/>
<path d="M38.8328 32.9723C38.8765 33.0208 38.8545 33.1111 38.7934 33.134C38.6968 33.112 38.7439 32.9269 38.8392 32.9537L38.8328 32.9723Z" fill="#FFB61D"/>
<path d="M40.5739 31.1097C40.5799 31.1465 40.5858 31.1833 40.5918 31.2201C40.5369 31.2611 40.4463 31.2377 40.4182 31.1752C40.4474 31.1261 40.51 31.0994 40.5657 31.1124L40.5739 31.1097Z" fill="#FFB61D"/>
<path d="M37.5589 35.3745C37.4698 35.3957 37.4572 35.2327 37.5347 35.1839C37.6049 35.2164 37.6191 35.3279 37.5592 35.3768L37.5589 35.3745Z" fill="#FFB61D"/>
<path d="M39.5242 36.3972C39.5795 36.4061 39.5726 36.5014 39.5199 36.5203C39.4672 36.5392 39.4096 36.5024 39.3772 36.4567C39.4077 36.4077 39.4702 36.3809 39.5267 36.3927L39.5242 36.3972Z" fill="#FFB61D"/>
<path d="M44.0046 31.1331C44.0153 31.1691 44.0086 31.2097 43.9871 31.2404C43.9303 31.2534 43.8648 31.228 43.8378 31.1764C43.8681 31.1167 43.9528 31.0927 44.01 31.1277L44.0046 31.1331Z" fill="#FFB61D"/>
<path d="M43.834 28.9256C43.8582 28.8906 43.8985 28.8672 43.9409 28.8635C44.0071 28.8908 44.0076 29.0044 43.9416 29.0322C43.9056 28.9964 43.8697 28.9607 43.8337 28.925L43.834 28.9256Z" fill="#FFB61D"/>
<path d="M36.9945 31.2176C36.946 31.2614 36.8557 31.2393 36.8328 31.1782C36.8548 31.0816 37.0399 31.1287 37.0131 31.224L36.9945 31.2176Z" fill="#FFB61D"/>
<path d="M41.7801 33.0293C41.8072 33.1277 41.6176 33.1773 41.5931 33.0783C41.6205 33.019 41.7055 32.9962 41.7589 33.0337L41.7801 33.0293Z" fill="#FFB61D"/>
<path d="M42.7059 29.4396C42.7528 29.4173 42.8159 29.4407 42.8369 29.4882C42.8015 29.5235 42.766 29.5588 42.7306 29.5941C42.6724 29.5723 42.6577 29.4811 42.7062 29.4422L42.7059 29.4396Z" fill="#FFB61D"/>
<path d="M43.3113 29.0165C43.2683 28.9865 43.2677 28.9127 43.3102 28.8819C43.3527 28.8512 43.4227 28.8749 43.4377 28.9252C43.4127 28.9721 43.3661 29.007 43.314 29.0178L43.3113 29.0165Z" fill="#FFB61D"/>
<path d="M43.4509 34.7253C43.4464 34.7854 43.3545 34.8142 43.3165 34.7675C43.2969 34.7106 43.3333 34.6465 43.3846 34.615C43.4067 34.6503 43.4287 34.6857 43.4508 34.7211L43.4509 34.7253Z" fill="#FFB61D"/>
<path d="M47.4041 30.1131C47.3682 30.1237 47.3276 30.1171 47.2969 30.0955C47.2838 30.0388 47.3092 29.9732 47.3609 29.9462C47.4206 29.9766 47.4446 30.0613 47.4096 30.1184L47.4041 30.1131Z" fill="#FFB61D"/>
<path d="M41.0413 30.1159C41.0007 30.0622 41.0241 29.9728 41.0859 29.9461C41.1348 29.976 41.1614 30.0382 41.1494 30.0942C41.1182 30.1147 41.0785 30.122 41.0421 30.1139L41.0413 30.1159Z" fill="#FFB61D"/>
<path d="M43.9071 30.0414C43.9315 30.008 43.9559 29.9746 43.9803 29.9412C44.0334 29.9685 44.0632 30.0345 44.0485 30.0924C44.0134 30.1403 43.9202 30.1095 43.9205 30.0501L43.9071 30.0414Z" fill="#FFB61D"/>
<path d="M44.5907 35.3534C44.55 35.2997 44.5735 35.2103 44.6353 35.1836C44.6841 35.2135 44.7108 35.2757 44.6988 35.3317C44.6676 35.3522 44.6279 35.3595 44.5914 35.3514L44.5907 35.3534Z" fill="#FFB61D"/>
<path d="M38.0981 31.2425C38.0705 31.2044 38.0861 31.1428 38.1285 31.1225C38.171 31.1021 38.2288 31.1287 38.241 31.1741C38.2235 31.2332 38.1532 31.2706 38.0945 31.2521L38.0981 31.2425Z" fill="#FFB61D"/>
<path d="M37.5872 35.6819C37.6364 35.7054 37.6856 35.7289 37.7348 35.7524C37.7072 35.8076 37.6405 35.8402 37.5799 35.8282C37.5491 35.7922 37.5475 35.7343 37.5764 35.6967L37.5872 35.6819Z" fill="#FFB61D"/>
<path d="M42.3056 35.8276C42.3111 35.864 42.3166 35.9004 42.3222 35.9367C42.2912 35.9585 42.2502 35.9652 42.214 35.9544C42.1507 35.9049 42.2315 35.7809 42.3024 35.8188L42.3056 35.8276Z" fill="#FFB61D"/>
<path d="M44.0539 35.3311C44.051 35.3746 44.0239 35.4158 43.9851 35.4358C43.9342 35.4089 43.9066 35.3442 43.9224 35.2887C43.9578 35.2412 44.0504 35.2724 44.05 35.3316L44.0539 35.3311Z" fill="#FFB61D"/>
<path d="M42.8599 31.2407C42.8314 31.2674 42.8029 31.2942 42.7744 31.321C42.715 31.3088 42.6921 31.2182 42.7386 31.1792C42.7851 31.1403 42.8703 31.1787 42.8719 31.2393L42.8599 31.2407Z" fill="#FFB61D"/>
<path d="M46.8601 30.0514C46.8853 30.1174 46.8272 30.1998 46.7566 30.1982C46.6961 30.1341 46.7868 30.0086 46.8667 30.0458L46.8601 30.0514Z" fill="#FFB61D"/>
<path d="M46.8425 31.9334C46.7941 31.9537 46.7702 31.8745 46.7779 31.8225C46.8324 31.7834 46.9206 31.8081 46.947 31.8698C46.9226 31.904 46.8834 31.9272 46.8417 31.9322L46.8425 31.9334Z" fill="#FFB61D"/>
<path d="M36.4741 30.0935C36.4849 30.1577 36.4017 30.215 36.3455 30.182C36.3434 30.1349 36.344 30.0811 36.3792 30.0498C36.4145 30.0186 36.4895 30.0498 36.4722 30.0936L36.4741 30.0935Z" fill="#FFB61D"/>
<path d="M43.3366 35.9152C43.3016 35.891 43.2782 35.8508 43.2745 35.8084C43.3018 35.7421 43.4153 35.7417 43.4431 35.8077C43.4074 35.8436 43.3717 35.8796 43.3359 35.9155L43.3366 35.9152Z" fill="#FFB61D"/>
<path d="M39.3972 34.2272C39.3629 34.2013 39.3391 34.1617 39.3326 34.1192C39.3585 34.0849 39.398 34.0612 39.4405 34.0546C39.4823 34.1074 39.4575 34.1981 39.3946 34.2224L39.3972 34.2272Z" fill="#FFB61D"/>
<path d="M43.3335 31.9789C43.2996 31.924 43.3547 31.8405 43.4185 31.8499C43.4824 31.8993 43.4025 32.0243 43.3309 31.9871L43.3335 31.9789Z" fill="#FFB61D"/>
<path d="M36.5331 31.8157C36.5743 31.8882 36.4456 31.9739 36.3946 31.9079C36.3503 31.8468 36.4686 31.7696 36.5185 31.8261L36.5331 31.8157Z" fill="#FFB61D"/>
<path d="M45.1111 28.3867C45.1456 28.3734 45.1873 28.3814 45.2145 28.4065C45.2436 28.4603 45.1834 28.536 45.1244 28.5197C45.0654 28.5033 45.0527 28.4074 45.1054 28.3763L45.1111 28.3867Z" fill="#FFB61D"/>
<path d="M44.637 34.052C44.6708 34.1068 44.6157 34.1904 44.552 34.181C44.4881 34.1316 44.5679 34.0066 44.6396 34.0437L44.637 34.052Z" fill="#FFB61D"/>
<path d="M42.7941 31.9955C42.7373 32.022 42.7019 31.9304 42.7091 31.8682C42.7397 31.8319 42.8053 31.8354 42.8318 31.8747C42.8584 31.914 42.8371 31.9762 42.792 31.991L42.7941 31.9955Z" fill="#FFB61D"/>
<path d="M38.8361 31.196C38.8627 31.2354 38.845 31.297 38.8015 31.3164C38.7581 31.3357 38.7005 31.3078 38.6889 31.2616C38.7165 31.2119 38.7797 31.185 38.8347 31.1996L38.8361 31.196Z" fill="#FFB61D"/>
<path d="M39.4633 31.2707C39.4269 31.2765 39.3904 31.2822 39.354 31.288C39.3177 31.2343 39.3749 31.1485 39.4384 31.1614C39.481 31.1708 39.4965 31.2362 39.4627 31.2638L39.4633 31.2707Z" fill="#FFB61D"/>
<path d="M38.1433 29.5973C38.0656 29.6168 38.076 29.475 38.1403 29.4272C38.2083 29.45 38.208 29.5681 38.14 29.5906L38.1433 29.5973Z" fill="#FFB61D"/>
<path d="M37.5815 34.0952C37.6153 34.1501 37.5603 34.2337 37.4965 34.2242C37.4326 34.1749 37.5125 34.0498 37.5841 34.087L37.5815 34.0952Z" fill="#FFB61D"/>
<path d="M36.8935 31.9459C36.9171 31.916 36.9407 31.8862 36.9643 31.8564C37.0186 31.8586 37.0552 31.9309 37.0248 31.9759C36.9944 32.0209 36.9137 32.014 36.8914 31.9645L36.8935 31.9459Z" fill="#FFB61D"/>
<path d="M43.3751 30.5937C43.3512 30.5479 43.3754 30.4837 43.4236 30.4651C43.4582 30.4882 43.4813 30.5277 43.4844 30.5692C43.47 30.6106 43.408 30.6247 43.3771 30.5937L43.3751 30.5937Z" fill="#FFB61D"/>
<path d="M37.4884 31.9355C37.4644 31.8897 37.4886 31.8255 37.5368 31.8069C37.5715 31.83 37.5946 31.8695 37.5977 31.911C37.5832 31.9524 37.5212 31.9665 37.4903 31.9355L37.4884 31.9355Z" fill="#FFB61D"/>
<path d="M47.4135 29.4653C47.4192 29.5032 47.4249 29.5412 47.4306 29.5791C47.3928 29.5866 47.3551 29.594 47.3174 29.6015C47.2818 29.545 47.3377 29.4579 47.4038 29.4668L47.4135 29.4653Z" fill="#FFB61D"/>
<path d="M38.189 32.4074C38.22 32.4654 38.1632 32.5477 38.0979 32.5392C38.0779 32.5073 38.0703 32.4678 38.0772 32.4308C38.1085 32.4101 38.1483 32.4027 38.1849 32.4109L38.189 32.4074Z" fill="#FFB61D"/>
<path d="M38.1009 30.7153C38.0329 30.695 38.031 30.5773 38.0983 30.5547C38.1658 30.577 38.1642 30.695 38.0961 30.7155L38.1009 30.7153Z" fill="#FFB61D"/>
<path d="M38.2081 35.3302C38.2122 35.3721 38.1833 35.4148 38.143 35.4267C38.0901 35.4201 38.0598 35.3466 38.0929 35.3047C38.126 35.2628 38.2045 35.2752 38.2232 35.3252L38.2081 35.3302Z" fill="#FFB61D"/>
<path d="M38.7004 34.7924C38.6764 34.7465 38.7006 34.6823 38.7488 34.6637C38.7834 34.6868 38.8066 34.7263 38.8097 34.7678C38.7952 34.8092 38.7332 34.8233 38.7023 34.7923L38.7004 34.7924Z" fill="#FFB61D"/>
<path d="M38.1172 28.8824C38.1215 28.8174 38.1983 28.7524 38.2481 28.7944C38.2548 28.8368 38.255 28.8861 38.2237 28.9154C38.1923 28.9447 38.1244 28.9228 38.1331 28.8808L38.1172 28.8824Z" fill="#FFB61D"/>
<path d="M44.0063 33.1195C43.9652 33.1399 43.9149 33.0903 43.9239 33.0453C43.933 33.0003 43.9818 32.9721 44.0277 32.9717C44.0656 33.0153 44.0552 33.0916 44.007 33.1235L44.0063 33.1195Z" fill="#FFB61D"/>
<path d="M39.3603 33.547C39.3842 33.5179 39.4081 33.4887 39.432 33.4596C39.4832 33.4574 39.5226 33.5239 39.496 33.5678C39.4694 33.6117 39.3923 33.6076 39.3704 33.5612L39.3603 33.547Z" fill="#FFB61D"/>
<path d="M42.8594 33.1434C42.8225 33.1527 42.7819 33.1466 42.7494 33.1267C42.7499 33.0685 42.8005 33.007 42.8574 33.0191C42.9143 33.0313 42.9142 33.1388 42.8561 33.1357L42.8594 33.1434Z" fill="#FFB61D"/>
<path d="M42.2948 31.767C42.3437 31.7804 42.3688 31.8469 42.341 31.8893C42.3 31.8992 42.2548 31.8896 42.2213 31.8639C42.2442 31.8278 42.267 31.7918 42.2898 31.7558L42.2948 31.767Z" fill="#FFB61D"/>
<path d="M38.1178 32.9426C38.1884 32.94 38.1539 33.0562 38.098 33.0994C38.0611 33.0561 38.0725 32.981 38.1206 32.9507L38.1178 32.9426Z" fill="#FFB61D"/>
<path d="M45.0881 32.9504C45.1445 32.9777 45.1297 33.0805 45.0678 33.0907C44.9944 33.0763 45.0161 32.9373 45.0905 32.946L45.0881 32.9504Z" fill="#FFB61D"/>
<path d="M41.0138 31.2336C40.9785 31.2143 41.0006 31.1532 41.0397 31.1438C41.0788 31.1344 41.1177 31.157 41.1516 31.1786C41.1499 31.2379 41.0559 31.2654 41.0225 31.2164L41.0138 31.2336Z" fill="#FFB61D"/>
<path d="M39.4837 33.1011C39.4564 33.1575 39.3536 33.1427 39.3434 33.0808C39.3578 33.0074 39.4968 33.0291 39.4881 33.1035L39.4837 33.1011Z" fill="#FFB61D"/>
<path d="M36.3927 35.2032C36.4087 35.1523 36.4965 35.1509 36.514 35.2012C36.4967 35.2517 36.4086 35.2505 36.3928 35.1995L36.3927 35.2032Z" fill="#FFB61D"/>
<path d="M38.7301 36.3718C38.7461 36.321 38.8339 36.3196 38.8514 36.3699C38.8341 36.4204 38.746 36.4191 38.7302 36.3682L38.7301 36.3718Z" fill="#FFB61D"/>
<path d="M47.3762 28.9222C47.3641 28.9706 47.2989 28.9963 47.257 28.9692C47.2362 28.9303 47.2523 28.8737 47.2935 28.858C47.3348 28.8423 47.3878 28.8824 47.378 28.9254L47.3762 28.9222Z" fill="#FFB61D"/>
<path d="M46.2266 34.8051C46.1974 34.7813 46.1683 34.7574 46.1391 34.7335C46.1369 34.6822 46.2034 34.6429 46.2473 34.6695C46.2912 34.696 46.2872 34.7732 46.2408 34.795L46.2266 34.8051Z" fill="#FFB61D"/>
<path d="M45.0892 35.3759C45.0467 35.3571 45.0624 35.2782 45.1089 35.2771C45.1709 35.2791 45.1381 35.4076 45.0907 35.3675L45.0892 35.3759Z" fill="#FFB61D"/>
<path d="M38.9051 76.0801C36.1805 73.591 33.8743 70.6452 32.1119 67.403C31.3685 66.0354 30.7042 64.4988 30.9824 62.9673C31.5029 60.1026 30.4272 57.224 29.5798 54.4385C28.7324 51.653 28.1322 48.5074 29.4952 45.9346C27.3451 47.9174 26.4827 50.9219 26.0218 53.8101C24.9531 60.5062 25.5546 67.4623 27.7567 73.8755C25.171 69.1422 25.0694 63.4792 25.3146 58.0913C25.5053 53.8988 25.9742 49.4342 28.6078 46.1665C24.5534 49.4731 23.3197 55.0549 22.425 60.2097C21.585 65.0499 20.8372 70.13 22.3948 74.7892C20.9252 72.0801 21.1653 68.802 21.4686 65.7349C22.1665 58.6802 23.2409 51.0832 28.1824 46C29.4894 44.6556 31.0847 43.5157 32.9155 43.1109C34.3342 42.7973 35.7009 42.25 36.944 41.4977C37.2436 39.743 35.5927 38.3614 34.4392 37.0056C33.1474 35.4873 32.3416 33.5618 32.1669 31.5761C32.0635 30.4006 31.8167 28.7991 30.6378 28.749C29.6687 28.7078 28.9391 27.5385 29.3282 26.65C29.7172 25.7615 31.0712 25.5044 31.7588 26.1885C30.778 22.5115 32.8499 18.2691 36.3529 16.7819C35.7817 15.9651 37.0284 14.9862 38.0182 15.1032C39.008 15.2201 39.9661 15.818 40.938 15.5971C40.6049 15.0106 41.1386 14.2314 41.7961 14.0812C42.4537 13.931 43.1284 14.2164 43.7182 14.5436C47.5042 16.6441 50.0061 20.8799 50.0181 25.2095C50.1159 24.4192 51.3019 24.1486 51.8819 24.6942C52.462 25.2398 52.4344 26.2163 52.0225 26.8979C51.6106 27.5794 50.9086 28.0268 50.2137 28.4158C50.2313 31.287 49.1394 34.1508 47.2148 36.2815C45.8144 37.8319 43.8302 39.4765 44.2898 41.5146C45.0348 41.3497 45.7884 42.2092 45.5277 42.9263C48.7219 42.6602 51.7027 44.5881 53.9657 46.858C57.2831 50.1855 59.6674 54.4337 60.7799 58.9988C60.9742 59.7962 62.1086 60.0136 62.8105 59.5881C63.5124 59.1627 63.8731 58.3581 64.193 57.6022C66.2991 52.6251 68.4053 47.6479 70.5114 42.6707C69.8064 38.3388 70.4337 38.5801 70.7637 36.5545C71.6664 34.2 71.4939 32.0727 71.859 29.8317C71.9585 29.2215 72.3853 28.4162 72.9488 28.6706C73.2338 28.7993 73.3344 29.1467 73.3952 29.4535C73.7368 31.1773 73.846 32.947 73.7189 34.6997C74.448 33.4526 75.177 32.2054 75.9061 30.9582C76.3052 30.2756 77.1865 29.5112 77.7399 30.0759C78.0439 30.3861 77.964 30.895 77.8385 31.3108C77.4396 32.6334 76.7892 33.8796 75.9324 34.9633C77.0875 35.3573 78.4255 35.9556 78.6277 37.1592C78.7116 37.6584 78.5702 38.1666 78.4025 38.6443C77.8198 40.3049 76.8994 41.8463 75.7136 43.1468C75.9857 42.9826 76.1636 43.4711 76.1095 43.7843C74.8089 51.3093 71.6395 58.5041 66.9651 64.5429C65.5856 66.325 63.7144 68.1631 61.4705 67.9529C60.0661 67.8213 58.8793 66.8997 57.7805 66.0152C56.5973 65.0628 55.4141 64.1104 54.2309 63.1581C56.9851 63.7733 58.519 67.2092 61.3207 67.5484C63.5986 67.8241 65.5109 65.9163 66.8876 64.0806C71.38 58.0907 74.4483 51.04 75.7696 43.6701C73.9732 43.9717 72.1032 43.8246 70.376 43.2458C68.6622 48.5592 66.5039 53.7292 63.9311 58.6841C63.4864 59.5405 62.6953 60.536 61.7819 60.2245C61.3731 60.0852 61.0968 59.7099 60.8665 59.3445C58.5641 55.693 58.0292 50.8238 54.6713 48.1111C56.0246 56.5043 53.8909 65.0394 51.4757 73.1907C53.3246 66.839 54.4509 60.2771 54.8259 53.6724C54.912 52.156 54.955 50.6063 54.5258 49.1494C54.0967 47.6925 53.117 46.3216 51.695 45.7882C50.7688 51.812 45.344 56.2929 43.9712 62.2308C42.8612 67.0323 41.1553 71.6957 38.9051 76.0801ZM44.4814 59.5903C46.5453 55.6666 49.2511 52.0747 50.9311 47.972C51.3131 47.0393 51.6281 45.9305 51.1088 45.0666C50.9214 44.7548 50.6419 44.5107 50.3672 44.2721C49.9327 43.8948 49.4563 43.4991 48.8828 43.4525C48.1218 43.3906 47.4618 43.9598 46.9722 44.5457C45.785 45.9664 45.0183 47.6836 44.2892 49.3855C42.5452 53.4565 40.9241 57.5998 39.9045 61.9096C38.8849 66.2194 38.4784 70.7181 39.1796 75.091C40.0674 71.0807 43.0529 67.6827 43.4621 63.5957C43.5295 62.9226 43.525 62.2393 43.6714 61.5789C43.8269 60.8779 44.1472 60.2257 44.4814 59.5903ZM48.5672 22.5596C48.2878 22.0208 47.939 21.5055 47.4621 21.1299C46.3999 20.2934 44.9042 20.2912 43.5752 20.5398C42.7257 20.6987 41.8923 20.9437 41.092 21.2699C40.8831 21.3551 40.6611 21.4476 40.4392 21.4073C40.2172 21.3669 40.0175 21.1276 40.1084 20.9211C40.1259 20.8814 40.1531 20.8445 40.1577 20.8014C40.1707 20.6805 40.0171 20.62 39.8967 20.6027C38.0677 20.3389 36.1201 20.6474 34.5825 21.6724C33.0449 22.6974 31.9804 24.4847 32.0374 26.3318C32.0502 26.7463 32.3619 27.0854 32.6747 27.3576C33.1531 27.774 33.6803 28.1342 34.2421 28.4286C34.4943 28.5607 34.8402 28.6656 35.0329 28.456C35.4153 28.0405 36.0504 28.0081 36.6149 28.0202C38.5773 28.0623 40.5501 28.2886 42.4954 28.0272C43.6805 27.8679 44.8347 27.5297 46.0152 27.3394C46.3768 27.2811 46.7501 27.2372 47.1065 27.3216C47.4629 27.406 47.8032 27.6431 47.9167 27.9913C48.3763 27.4719 48.7897 26.9116 49.1502 26.3191C49.2584 26.1414 49.3635 25.9565 49.4035 25.7523C49.4391 25.571 49.4215 25.3839 49.3974 25.2007C49.2765 24.2811 48.9942 23.383 48.5672 22.5596ZM45.6241 35.4621C46.3167 35.1584 46.7058 34.4219 46.9678 33.7125C47.5922 32.0218 47.7929 30.1764 47.5466 28.391C47.5218 28.2116 47.4886 28.0235 47.3742 27.8831C47.1929 27.6606 46.8688 27.6261 46.582 27.6378C45.9076 27.6653 45.2513 27.8511 44.5948 28.0078C43.2125 28.3378 41.7964 28.5429 40.3752 28.5477C38.9708 28.5524 37.5686 28.3619 36.1652 28.4164C35.8859 28.4273 35.5905 28.4535 35.3638 28.617C35.0043 28.8763 34.9411 29.3787 34.9268 29.8217C34.8721 31.5058 35.0709 33.1979 35.5143 34.8236C35.5409 34.9212 35.571 35.0231 35.642 35.0953C35.7186 35.173 35.8297 35.2032 35.9345 35.2339C37.63 35.7304 39.0967 37.1525 40.8592 37.0298C42.1666 36.9388 43.2659 36.0011 44.5457 35.7186C44.9073 35.6387 45.2849 35.6108 45.6241 35.4621ZM31.1294 63.2827C31.0242 64.8108 31.8888 66.2178 32.7203 67.5041C33.562 68.8063 34.4037 70.1084 35.2454 71.4106C34.004 67.2791 33.4184 62.9792 33.0201 58.6837C32.6043 54.1984 32.3978 49.5973 33.6243 45.263C33.8189 44.5752 34.0521 43.8905 34.4286 43.283C33.2996 43.2536 32.0985 43.3401 31.1776 43.9937C30.5789 44.4187 30.1539 45.0492 29.8391 45.7125C28.8664 47.7621 28.864 50.1541 29.2941 52.3816C29.7241 54.6091 30.5583 56.7349 31.212 58.9073C31.402 59.5386 31.5784 60.1868 31.5553 60.8456C31.5264 61.671 31.1861 62.4587 31.1294 63.2827ZM36.6129 35.8986C36.031 35.6751 35.3252 35.4927 35.0939 34.9139C34.9852 34.6421 35.0116 34.3381 34.9803 34.0471C34.949 33.7561 34.827 33.437 34.5548 33.3294C33.8989 33.0703 33.2698 32.7435 32.6806 32.356C32.9729 34.0751 33.7513 35.7087 34.9022 37.0186C35.4786 37.6747 36.1469 38.2524 36.6576 38.9608C37.1684 39.6692 37.5158 40.5604 37.3277 41.4132C37.2677 41.685 37.6581 41.8033 37.9364 41.7967C39.7844 41.753 41.6323 41.7014 43.48 41.6418C43.7931 41.6317 43.9777 41.266 43.9704 40.9528C43.9631 40.6397 43.837 40.337 43.8411 40.0238C43.8471 39.5635 44.1294 39.157 44.4166 38.7972C45.2675 37.7315 46.2613 36.7884 47.1458 35.7504C48.0303 34.7124 48.8184 33.5494 49.1548 32.2278C48.5694 33.2151 47.3344 33.7241 46.8765 34.7767C46.6167 35.374 45.9881 35.7255 45.3656 35.9176C44.7431 36.1096 44.0833 36.1876 43.4891 36.4549C43.1845 36.5919 42.9036 36.776 42.6053 36.9262C41.5573 37.454 40.2944 37.5377 39.1859 37.1529C38.2835 36.8397 37.5046 36.241 36.6129 35.8986ZM73.6207 38.5095C74.2628 38.4714 75.0384 38.7212 75.4637 38.2387C75.561 38.1282 75.6253 37.9761 75.59 37.8332C75.5419 37.6386 75.3371 37.5315 75.1507 37.4579C73.9599 36.9875 72.6271 36.8841 71.3779 37.165C70.9429 37.2628 70.6887 37.6645 70.5934 38.1C70.498 38.5356 70.5212 39.0072 70.5934 39.4472C70.7767 40.5648 70.9601 41.6824 71.1434 42.8C71.1517 42.8503 71.1606 42.9024 71.1889 42.9449C71.2314 43.0086 71.3086 43.0382 71.3811 43.0629C72.2836 43.3703 73.2437 43.5074 74.196 43.4649C74.5747 43.4479 74.9843 43.388 75.2501 43.1178C76.551 41.795 77.5021 40.1311 77.9816 38.3388C77.7205 38.5724 77.3852 38.7543 77.0359 38.7273C76.6866 38.7003 76.3471 38.403 76.3699 38.0534C75.7002 38.5695 74.9114 39.1156 74.0835 38.9442C73.4504 38.8132 72.7516 39.0937 72.3849 39.626C72.1613 39.5672 72.2473 39.2212 72.41 39.057C72.7288 38.7352 73.1686 38.5364 73.6207 38.5095ZM35.1687 48.4575C34.7303 48.5258 34.294 48.6075 33.8612 48.7052C33.5568 48.7739 33.1945 48.9137 33.1551 49.2232C33.0766 49.8404 33.0339 50.462 33.0275 51.0841C36.3374 50.3034 39.8519 50.4083 43.1093 51.3851C43.4554 50.5742 43.8015 49.7634 44.1476 48.9525C41.2331 48.1632 38.1524 47.9934 35.1687 48.4575ZM47.3973 43.5934C46.8735 43.3162 46.2636 43.2049 45.6757 43.2792C45.5597 43.2938 45.4293 43.3259 45.3734 43.4287C45.1503 43.8388 44.6623 44.0161 44.2109 44.1357C41.9395 44.7372 39.5412 44.7237 37.2131 44.4064C36.7803 44.3474 36.3416 44.2759 35.9484 44.0856C35.5551 43.8954 35.2075 43.5683 35.0908 43.1473C34.7809 43.1427 34.5948 43.4813 34.4846 43.771C34.1516 44.6471 33.8638 45.5405 33.6227 46.4463C37.3972 45.5913 41.3864 45.7018 45.1077 46.7647C45.4629 46.331 45.7265 45.8228 45.8763 45.2827C45.9463 45.0306 46.1398 44.8347 46.326 44.6509C46.6831 44.2984 47.0402 43.9459 47.3973 43.5934ZM41.2323 56.3649C41.597 55.5583 41.9068 54.7268 42.1587 53.8781C39.2527 53.3966 36.2765 53.3402 33.3543 53.7112C33.2304 53.7269 33.0929 53.751 33.018 53.851C32.9521 53.939 32.9555 54.059 32.9618 54.1687C32.9929 54.7129 33.0241 55.2571 33.0552 55.8013C33.0636 55.9476 33.1334 56.1452 33.2768 56.1156C35.8993 55.5749 38.6488 55.661 41.2323 56.3649ZM77.4819 31.3877C77.5651 31.1812 77.645 30.964 77.6269 30.7421C77.6088 30.5202 77.4642 30.2929 77.2454 30.2517C77.109 30.226 76.9683 30.2755 76.8502 30.3483C76.5606 30.527 76.3791 30.8337 76.209 31.1285C75.4389 32.4628 74.6688 33.7971 73.8986 35.1314C73.7988 35.3043 73.5102 35.2507 73.4007 35.0837C73.2912 34.9167 73.3058 34.7006 73.3213 34.5014C73.4508 32.8326 73.3536 31.1463 73.0334 29.5034C73.0135 29.4013 72.9912 29.2959 72.9299 29.212C72.752 28.9688 72.3369 29.0533 72.1579 29.2956C71.9788 29.5378 71.9684 29.8614 71.9661 30.1626C71.9482 32.4574 71.9699 34.8336 71.0429 36.9329C71.9845 36.5674 73.0444 36.5147 74.0176 36.7849C74.1567 36.8235 74.3009 36.8689 74.4427 36.8421C74.5846 36.8153 74.7193 36.686 74.6945 36.5438C74.6017 36.011 74.9842 35.5265 75.3205 35.1029C76.2144 33.9768 76.9448 32.7213 77.4819 31.3877ZM45.1938 42.3753C45.1297 42.1123 44.8939 41.8707 44.6242 41.8949C41.873 42.1412 39.1059 42.2112 36.3457 42.1044C36.1823 42.0981 36.0102 42.0929 35.8653 42.1686C35.7629 42.222 35.683 42.3125 35.6287 42.4144C35.4084 42.8279 35.6321 43.3671 36.0076 43.6473C36.3831 43.9274 36.8668 44.0092 37.3316 44.0679C39.3607 44.324 41.4287 44.2971 43.443 43.9432C43.878 43.8668 44.3242 43.7693 44.6842 43.5136C45.0442 43.2579 45.2984 42.8043 45.1938 42.3753ZM40.2889 59.2229C40.3049 59.1679 40.3201 59.1055 40.2912 59.0561C40.2603 59.0033 40.1926 58.9877 40.1324 58.9775C37.9452 58.6065 35.7065 58.7888 33.4957 58.972C33.4332 58.9772 33.3621 58.9872 33.3269 59.0391C33.2995 59.0797 33.3034 59.1329 33.3084 59.1815C33.3725 59.8092 33.4365 60.4368 33.5006 61.0645C33.5129 61.185 33.5639 61.3413 33.6849 61.3351C35.6073 61.237 37.5391 61.3221 39.4455 61.5891C39.5666 61.6061 39.6394 61.4616 39.6735 61.3442C39.8786 60.6371 40.0838 59.93 40.2889 59.2229ZM39.0353 64.8703C39.0448 64.78 39.0502 64.6771 38.9877 64.6113C38.9398 64.5609 38.8657 64.5479 38.7969 64.5383C37.3003 64.3299 35.7797 64.4778 34.276 64.626C34.2008 64.6334 34.1139 64.6483 34.0776 64.7145C34.0527 64.76 34.0606 64.8156 34.0692 64.8667C34.17 65.4681 34.2709 66.0694 34.3718 66.6708C34.3863 66.7573 34.4321 66.8684 34.5189 66.8555C35.9532 66.6417 37.4796 66.5788 38.7915 67.197C38.8727 66.4214 38.954 65.6459 39.0353 64.8703ZM33.019 32.1234C33.5608 32.4955 34.1556 32.7904 34.7799 32.9963C34.5081 31.7427 34.4548 30.4421 34.6233 29.1706C34.6445 29.0098 34.4635 28.906 34.314 28.843C33.44 28.4745 32.6467 27.9158 32.0054 27.2169C32.0717 28.5435 32.2151 29.8661 32.4346 31.176C32.4676 31.3725 32.5044 31.5744 32.6107 31.7428C32.7108 31.9012 32.8645 32.0173 33.019 32.1234ZM47.4624 33.4702C48.0444 32.9972 48.5542 32.4394 49.0054 31.8403C49.2488 31.517 49.4782 31.1765 49.613 30.795C49.7486 30.4114 49.7838 30.0002 49.7999 29.5937C49.8421 28.5298 49.7609 27.461 49.5584 26.4156C49.0911 27.0505 48.6237 27.6854 48.1564 28.3203C48.0847 28.4178 48.0112 28.5188 47.9836 28.6365C47.9615 28.731 47.9704 28.8295 47.9783 28.9262C48.1031 30.4552 47.9268 32.0081 47.4624 33.4702ZM38.4335 72.2987C38.5358 72.3194 38.5827 72.1764 38.5852 72.0721C38.6 71.4481 38.6148 70.8242 38.6296 70.2003C38.631 70.1441 38.6318 70.0855 38.6075 70.0348C38.5627 69.9412 38.4501 69.9055 38.3496 69.8794C37.7817 69.7317 37.2055 69.583 36.6187 69.5901C36.1313 69.596 35.6487 69.7097 35.1614 69.6976C35.1062 69.6963 35.0342 69.7054 35.0225 69.7594C35.0185 69.7781 35.0238 69.7975 35.0291 69.8159C35.2442 70.5623 35.5272 71.2891 35.8737 71.9843C35.9191 72.0754 35.9733 72.1732 36.0682 72.2101C36.1351 72.2362 36.2099 72.2265 36.2811 72.2176C36.9967 72.1281 37.7267 72.1556 38.4335 72.2987ZM50.1238 25.4486C50.0123 25.6209 49.9137 25.8092 49.8954 26.0136C49.8842 26.1389 49.9037 26.2648 49.9232 26.3891C49.9984 26.8683 50.0736 27.3475 50.1488 27.8267C50.1531 27.8546 50.1582 27.884 50.1768 27.9052C50.2203 27.955 50.3012 27.9286 50.3602 27.8986C50.5981 27.7778 50.8388 27.6551 51.0397 27.4795C51.2008 27.3386 51.3321 27.1671 51.4557 26.9924C51.7141 26.6273 51.9513 26.22 51.9681 25.773C51.9849 25.326 51.7107 24.8401 51.2707 24.7594C50.8048 24.6739 50.381 25.0508 50.1238 25.4486ZM29.8788 26.3975C29.7002 26.5539 29.6356 26.8024 29.6059 27.0379C29.5787 27.2536 29.5741 27.4782 29.6488 27.6824C29.752 27.9639 29.9973 28.175 30.2687 28.3026C30.5401 28.4302 30.839 28.4849 31.1341 28.5384C31.2797 28.5648 31.4254 28.5912 31.5711 28.6176C31.6071 28.6242 31.6498 28.6287 31.6753 28.6024C31.6965 28.5805 31.6965 28.5464 31.6951 28.516C31.6711 27.9766 31.647 27.4372 31.6229 26.8978C31.6127 26.6686 31.4489 26.4667 31.2469 26.3579C31.045 26.2491 30.8099 26.2198 30.5806 26.214C30.333 26.2077 30.0651 26.2342 29.8788 26.3975ZM76.6944 35.6278C76.5872 35.5107 76.4291 35.4571 76.2771 35.4116C76.1159 35.3633 75.942 35.3192 75.7823 35.3718C75.6009 35.4315 75.481 35.6011 75.3852 35.7663C75.2405 36.0161 75.1204 36.2803 75.0273 36.5536C74.9944 36.6504 74.9644 36.7522 74.9782 36.8535C74.992 36.9548 75.0611 37.0555 75.1615 37.0744C75.5718 37.1513 75.9302 37.4605 76.0664 37.855C76.257 37.4557 76.4475 37.0564 76.6381 36.6571C76.7169 36.4919 76.7967 36.3237 76.8238 36.1427C76.8509 35.9617 76.818 35.7627 76.6944 35.6278ZM78.1224 36.464C77.9272 36.2805 77.6025 36.2934 77.3769 36.4378C77.1513 36.5822 77.0108 36.8291 76.92 37.0811C76.8166 37.3681 76.7663 37.6741 76.7724 37.9792C76.7738 38.052 76.7791 38.1273 76.8127 38.1919C76.8937 38.3479 77.1076 38.3828 77.278 38.3397C77.6503 38.2457 77.8984 37.8998 78.0824 37.5628C78.1772 37.3891 78.2654 37.2069 78.2901 37.0106C78.3148 36.8143 78.2665 36.5995 78.1224 36.464ZM38.8549 75.4096C38.7633 74.8801 38.6717 74.3506 38.5802 73.8212C38.5695 73.7595 38.5552 73.6918 38.505 73.6545C38.4721 73.63 38.4296 73.6236 38.3889 73.6183C37.9169 73.5569 37.4374 73.5538 36.9647 73.6091C37.5226 74.2793 38.1583 74.8848 38.8549 75.4096Z" fill="#00160A"/>
<path d="M11.7516 23.7861C11.2804 24.6893 11.036 25.6914 11.042 26.7051C10.6507 25.9344 10.1822 25.1374 9.2788 24.9038C8.52217 24.7015 7.64592 25.1172 7.54347 25.9345C7.42092 26.9164 8.3052 27.7738 8.96849 28.379C9.74556 29.0939 10.6437 29.6681 11.5643 30.1857C12.0356 30.4495 12.512 30.6933 12.9904 30.9425C12.8846 31.2774 12.7834 31.6589 12.9854 31.9603C13.1439 32.1928 13.4638 32.2941 13.6966 32.0884C13.9294 31.8828 13.9234 31.5282 13.7704 31.2936C13.6363 31.0945 13.427 30.959 13.2053 30.8401C13.2174 30.8055 13.2259 30.7782 13.2379 30.7436C13.3247 30.458 13.4189 30.1758 13.5204 29.897C13.7162 29.3359 13.9321 28.7796 14.1259 28.2132C14.4708 27.2168 14.7603 26.1863 14.8063 25.1294C14.8397 24.3251 14.8022 23.1232 14.0248 22.6442C13.0844 22.0553 12.1545 23.0166 11.7516 23.7861ZM13.6551 31.4504C13.7278 31.5994 13.7376 31.7953 13.6127 31.9255C13.402 32.1412 13.138 31.9229 13.0765 31.7034C13.0151 31.4838 13.0755 31.2441 13.1472 31.0185C13.3522 31.1253 13.5576 31.2501 13.6551 31.4504ZM14.6279 24.5715C14.6522 25.0948 14.6144 25.6165 14.518 26.1293C14.333 27.1763 13.9644 28.1752 13.5958 29.1741C13.4047 29.6972 13.2101 30.2276 13.0465 30.7588C12.9192 30.6963 12.7957 30.6445 12.6812 30.5834C12.2289 30.355 11.7855 30.1172 11.3436 29.8668C10.4413 29.3487 9.56839 28.7593 8.82197 28.0271C8.3909 27.6035 7.91282 27.1184 7.73009 26.5318C7.53764 25.9185 7.77719 25.275 8.4222 25.0523C9.64159 24.6327 10.5288 25.8699 11.0385 26.7971C11.042 26.8744 11.0456 26.9517 11.0491 27.0291C11.0569 27.1351 11.2133 27.1084 11.2094 27.0131C11.1778 25.9965 11.3547 24.9948 11.7979 24.0655C12.0178 23.6045 12.3024 23.1018 12.7658 22.8364C13.2795 22.5406 13.8944 22.607 14.2393 23.0983C14.5334 23.5174 14.6059 24.0715 14.6279 24.5715Z" fill="#FFB61D"/>
<path d="M74.4053 11.2839C73.4638 11.6729 72.6325 12.2835 71.9854 13.0639C72.1811 12.222 72.3345 11.3103 71.7926 10.5507C71.343 9.90931 70.4046 9.66449 69.8007 10.2248C69.0757 10.8982 69.202 12.1234 69.3211 13.0133C69.4568 14.0605 69.7757 15.0776 70.1482 16.0658C70.3397 16.5709 70.5479 17.064 70.7542 17.5623C70.4579 17.7508 70.1352 17.9781 70.0962 18.3388C70.0682 18.6188 70.2481 18.902 70.5586 18.8941C70.8692 18.8862 71.0925 18.6107 71.126 18.3326C71.1514 18.0939 71.0781 17.8556 70.9847 17.6221C71.0162 17.6033 71.0402 17.5878 71.0717 17.5691C71.3218 17.4061 71.5753 17.2504 71.8323 17.1021C72.3429 16.7981 72.8659 16.5108 73.3785 16.2014C74.2831 15.6599 75.1673 15.0565 75.8819 14.2765C76.4245 13.6818 77.1683 12.737 76.8807 11.8704C76.5389 10.8147 75.2086 10.9534 74.4053 11.2839ZM70.937 18.3787C70.8969 18.5395 70.7784 18.6959 70.5991 18.7153C70.299 18.7452 70.2371 18.4082 70.3311 18.2006C70.4252 17.9929 70.6256 17.8481 70.8255 17.7213C70.9139 17.9349 70.991 18.1626 70.937 18.3787ZM76.1038 13.7344C75.7861 14.1509 75.4218 14.5263 75.0183 14.8572C74.2036 15.5403 73.2792 16.0685 72.3547 16.5968C71.872 16.8747 71.382 17.1559 70.9153 17.4577C70.8579 17.328 70.7967 17.2089 70.7482 17.0885C70.5485 16.6228 70.3617 16.1556 70.1842 15.6798C69.826 14.7028 69.5362 13.6903 69.435 12.6496C69.3771 12.048 69.3227 11.3691 69.5598 10.8023C69.8065 10.2088 70.4037 9.86978 71.0409 10.1138C72.2448 10.5762 72.1291 12.0942 71.9236 13.1321C71.8766 13.1936 71.8296 13.2551 71.7826 13.3166C71.7205 13.4029 71.8575 13.483 71.9157 13.4074C72.545 12.6084 73.3243 11.9548 74.2612 11.5278C74.7259 11.3159 75.2671 11.1138 75.7926 11.2083C76.3764 11.3119 76.8047 11.7581 76.7531 12.3561C76.709 12.8662 76.4083 13.3373 76.1038 13.7344Z" fill="#FFB61D"/>
<defs>
<linearGradient id="paint0_linear" x1="19.0022" y1="20.1631" x2="78.8573" y2="64.1343" gradientUnits="userSpaceOnUse">
<stop offset="0.0552082" stop-color="#0080FF"/>
<stop offset="0.940625" stop-color="#0059B2"/>
</linearGradient>
</defs>
</svg>
