<svg width="250" height="250" viewBox="0 0 250 250" fill="none" xmlns="http://www.w3.org/2000/svg">
<path fill-rule="evenodd" clip-rule="evenodd" d="M199.059 69.1637C166.752 50.6245 141.563 105.044 123.266 111.894C86.3933 125.701 17.9046 137.709 30.9661 164.552C48.9004 201.408 111.302 205.085 155.926 201.408C213.969 196.625 262.578 105.614 199.059 69.1637Z" fill="url(#paint0_linear)"/>
<path fill-rule="evenodd" clip-rule="evenodd" d="M194.374 128.566C194.707 128.86 194.82 129.32 194.903 129.76L195.409 132.521C195.48 132.905 195.802 133.087 195.926 132.868C196.057 132.637 196.408 132.733 196.643 132.858L199.577 134.419C198.579 135.136 197.401 135.6 196.182 135.757C195.582 135.835 195.485 136.657 195.548 137.26L195.722 138.898C195.776 139.409 194.973 139.583 194.572 139.262C194.171 138.942 194.018 138.406 193.702 138.001C193.191 137.347 192.289 137.104 191.463 137.179C190.637 137.255 189.863 137.601 189.107 137.943C188.62 138.163 188.084 137.58 188.122 137.047C188.156 136.576 188.457 136.181 188.764 135.814L188.886 135.669C189.231 135.26 189.575 134.775 189.517 134.243C189.468 133.801 189.152 133.444 188.835 133.126L188.65 132.94C188.356 132.639 188.077 132.305 188.025 131.895C187.967 131.425 188.395 130.885 188.845 131.03C190.579 131.591 192.667 130.498 193.195 128.754C193.332 128.301 194.019 128.253 194.374 128.566Z" fill="white"/>
<path fill-rule="evenodd" clip-rule="evenodd" d="M194.374 128.566C194.707 128.86 194.82 129.32 194.903 129.76L195.409 132.521C195.48 132.905 195.325 133.5 194.958 133.365C194.436 132.258 194.159 131.037 194.151 129.813C193.952 129.622 193.655 129.907 193.531 130.153L192.293 132.62C192.075 133.054 191.424 132.958 190.995 132.731L190.765 132.609C190.392 132.416 189.986 132.245 189.633 132.435C189.452 132.976 190.254 133.245 190.67 133.634C191.145 134.078 191.117 134.875 190.785 135.434C190.453 135.993 189.892 136.369 189.349 136.727C190.129 136.856 190.96 136.628 191.566 136.12C191.839 135.89 192.09 135.596 192.439 135.522C192.98 135.409 193.466 135.878 193.747 136.354C194.027 136.83 194.249 137.387 194.729 137.662C194.969 137.283 194.841 136.808 194.69 136.371L194.618 136.167C194.444 135.678 194.366 135.031 194.792 134.734C194.952 134.623 195.15 134.59 195.346 134.569L197.438 134.359L196.233 133.481C196.03 133.333 195.802 133.087 195.926 132.868C196.057 132.637 196.408 132.733 196.643 132.858L199.577 134.419C198.579 135.136 197.401 135.6 196.182 135.757C195.582 135.835 195.485 136.657 195.548 137.26L195.722 138.898C195.776 139.409 194.973 139.583 194.572 139.262C194.171 138.942 194.018 138.406 193.702 138.001C193.191 137.347 192.289 137.104 191.463 137.179C190.637 137.255 189.863 137.601 189.107 137.943C188.62 138.163 188.084 137.58 188.122 137.047C188.156 136.576 188.457 136.181 188.764 135.814L188.886 135.669C189.231 135.26 189.575 134.775 189.517 134.243C189.468 133.801 189.152 133.444 188.835 133.126L188.65 132.94C188.356 132.639 188.077 132.305 188.025 131.895C187.967 131.425 188.395 130.885 188.845 131.03C190.579 131.591 192.667 130.498 193.195 128.754C193.332 128.301 194.019 128.253 194.374 128.566Z" fill="#FFB61D"/>
<path fill-rule="evenodd" clip-rule="evenodd" d="M78.9411 79.042C77.6856 73.4626 81.1061 64.201 87.2174 60.4772C93.3287 56.7533 101.146 56.4983 107.952 58.7096C107.735 52.1346 114.403 46.4925 120.959 47.0358C127.515 47.579 132.955 53.4651 133.836 59.9845C134.522 65.0642 131.915 71.1149 126.872 72.035C128.654 78.4037 129.646 85.1046 128.667 91.6453C127.689 98.186 124.576 104.575 119.323 108.593C117.873 110.544 118.968 113.487 120.878 114.991C122.787 116.496 125.258 117.025 127.543 117.855C137.115 121.334 143.855 130.779 145.426 140.842C146.997 150.906 143.859 161.342 138.188 169.803C134.304 175.598 129.02 180.745 122.409 182.973C113.13 186.102 102.956 183.056 93.9459 179.221C90.5112 177.76 87.0134 176.099 84.5889 173.261C81.9897 170.218 77.0773 171.861 73.5347 173.722C75.8902 174.7 78.2458 175.677 80.6013 176.654C81.1075 176.864 81.6566 177.114 81.8913 177.609C82.3854 178.651 81.1683 179.654 80.138 180.173C79.0309 180.731 77.9238 181.288 76.8166 181.846C70.021 185.268 62.9436 188.764 55.338 188.975C47.0227 189.206 39.168 185.49 31.6844 181.857C30.8526 181.454 29.9709 181.004 29.5186 180.198C29.0663 179.391 29.3191 178.134 30.213 177.897C38.6083 175.677 46.5567 171.781 53.4535 166.504C52.926 163.219 53.0503 159.831 53.8172 156.593C53.9282 156.125 54.0877 155.612 54.505 155.372C55.5309 154.783 56.4219 156.335 56.6032 157.504C57.0607 160.455 57.5182 163.407 57.9758 166.358C63.4697 165.75 68.8017 163.732 73.3213 160.55C69.7963 157.711 66.2713 154.872 62.7463 152.033C60.7124 150.395 58.7492 149.415 57.6507 146.208C56.9184 144.07 57.5095 141.873 59.4238 139.619C57.2868 128.969 56.3517 120.94 56.6186 115.534C56.6898 114.091 56.8514 112.533 57.8227 111.463C59.5373 109.575 62.9039 110.389 64.4689 112.403C66.034 114.417 66.2959 117.119 66.4983 119.662C72.4572 118.934 78.4161 118.206 84.3751 117.478C86.5553 117.211 88.8129 116.951 90.9113 117.6C93.5439 118.414 95.6582 120.72 96.2417 123.413C98.7562 122.733 101.495 121.896 102.915 119.713C104.335 117.529 103.132 113.731 100.53 113.844C92.3899 114.196 84.4289 108.156 82.5762 100.221C82.105 98.2033 81.9219 95.9608 80.5052 94.4484C78.2604 92.0519 76.55 88.9622 76.5609 85.6786C76.5719 82.3949 77.9477 82.0031 78.9411 79.042ZM30.3506 180.097C30.5339 180.371 30.8537 180.514 31.1567 180.644C34.2652 181.974 37.3737 183.305 40.4822 184.635C41.8966 185.24 43.3156 185.847 44.7947 186.271C48.9198 187.451 53.3649 187.163 57.4664 188.423C57.9639 188.576 58.4979 188.418 58.9932 188.258C62.5704 187.106 66.1056 185.823 69.5892 184.413C73.2338 182.938 76.8456 181.311 80.0815 179.077C80.3758 178.874 80.6814 178.648 80.8157 178.317C80.95 177.985 80.8263 177.524 80.4822 177.427C78.2984 176.806 76.1462 176.075 74.0368 175.236C73.3586 174.966 72.5952 174.581 72.4513 173.866C70.593 173.94 68.968 175.112 67.5973 176.369C66.2266 177.626 64.9389 179.046 63.25 179.825C61.561 180.603 59.2941 180.536 58.1241 179.09C57.9991 178.936 57.8736 178.758 57.6815 178.708C57.4893 178.658 57.2425 178.849 57.3321 179.027C57.564 179.486 57.0658 180.067 56.5523 180.035C56.0388 180.003 55.6373 179.535 55.5109 179.036C55.3845 178.537 54.6984 179.428 53.704 179.577C52.7096 179.725 51.6547 179.087 51.3244 178.137C51.0522 177.355 49.9849 177.341 49.1694 177.194C47.3151 176.861 45.907 174.918 46.1678 173.053C40.8386 174.83 35.6061 176.897 30.501 179.241C30.2016 179.379 30.1673 179.823 30.3506 180.097Z" fill="white"/>
<path d="M105.166 103.333C106.731 103.333 108 102.065 108 100.5C108 98.935 106.731 97.6665 105.166 97.6665C103.602 97.6665 102.333 98.935 102.333 100.5C102.333 102.065 103.602 103.333 105.166 103.333Z" fill="#FFB61D"/>
<path d="M85.4995 101C86.3279 101 86.9995 100.328 86.9995 99.4995C86.9995 98.6711 86.3279 97.9995 85.4995 97.9995C84.6711 97.9995 83.9995 98.6711 83.9995 99.4995C83.9995 100.328 84.6711 101 85.4995 101Z" fill="#FFB61D"/>
<path fill-rule="evenodd" clip-rule="evenodd" d="M118.697 111.871C118.956 113.218 119.728 114.523 120.754 115.332C122.664 116.837 126.955 118.386 129.24 119.216C129.448 119.292 128.275 119.954 126.762 121.418C122.666 125.381 113.708 132.478 104.957 128.911C103.934 128.494 103.079 128.014 102.382 127.506C101.74 127.037 107.632 127.712 113.14 126.668C118.678 125.618 123.83 122.844 122.451 120.645C121.155 118.578 117.509 115.077 117.225 113.017C116.846 110.274 118.473 110.714 118.697 111.871Z" fill="#E7EAEE"/>
<path fill-rule="evenodd" clip-rule="evenodd" d="M30.2378 179.318C30.2378 178.219 33.7034 177.33 39.628 175.101C43.7028 173.568 51.6454 169.133 55.5531 168.926C58.1534 168.789 68.545 172.593 75.3268 175.326C78.7368 176.699 81.3672 177.56 81.3672 178.001C81.3672 178.886 74.1269 183.16 66.7268 185.969C63.1148 187.34 59.7261 188.568 56.6182 188.485C47.1433 188.232 30.2378 182.1 30.2378 179.318Z" fill="white"/>
<path fill-rule="evenodd" clip-rule="evenodd" d="M164.094 88.0306C150.507 93.8337 139.156 103.75 128.341 113.833L127.68 114.451C127.049 115.04 126.091 115.657 125.411 115.126L127.512 113.213C138.508 103.223 149.876 93.3171 163.48 87.4318C173.94 82.907 173.829 83.8727 164.094 88.0306ZM105.569 184.692L111.942 191.634C112.255 191.975 112.58 192.34 112.667 192.793C112.755 193.247 112.492 193.8 112.033 193.848L98.9097 195.221C96.73 195.449 94.5071 193.937 93.8795 191.838C93.2518 189.738 94.2564 187.278 96.1548 186.183C98.0533 185.088 100.657 185.433 102.233 186.957C102.623 187.334 103.309 187.013 103.586 186.546C103.863 186.08 103.923 185.507 104.209 185.046C104.496 184.585 105.202 184.292 105.569 184.692ZM94.9862 188.699C94.1724 190.243 94.687 192.335 96.0798 193.388C96.7624 193.903 97.6003 194.18 98.4448 194.316C99.6377 194.508 101.022 194.363 101.788 193.429C102.068 193.088 102.24 192.67 102.357 192.245C102.747 190.83 102.549 189.262 101.819 187.988C101.62 187.641 101.315 187.279 100.916 187.296C100.726 187.305 100.55 187.401 100.361 187.42C100.046 187.452 99.7552 187.273 99.4687 187.14C97.8862 186.403 95.7999 187.155 94.9862 188.699ZM105.002 186.084C104.752 187.129 104.233 188.109 103.51 188.903C103.306 189.127 103.356 189.473 103.398 189.773C103.599 191.232 103.266 192.76 102.477 194.004C103.771 193.698 105.094 193.515 106.422 193.458C108.243 193.381 110.143 193.527 111.812 192.794C110.92 192.406 110.163 191.716 109.695 190.864C109.42 190.363 109.039 189.929 108.661 189.5L105.759 186.202C105.549 185.964 105.076 185.776 105.002 186.084ZM72.0454 186.022C72.4616 187.321 74.0268 187.767 75.3828 188.001L84.4321 189.512C86.5245 189.861 88.6721 190.21 90.753 189.797C91.1456 189.72 91.3532 190.343 91.0942 190.648C90.8352 190.953 90.3845 190.99 89.9842 190.991C88.1713 190.997 86.369 190.756 84.5747 190.486L82.6636 190.195C79.2811 189.675 75.9003 189.122 72.5895 188.26C72.0228 188.113 71.4357 187.944 71.0019 187.551C70.5681 187.157 70.3425 186.47 70.6477 185.971C70.953 185.471 71.8668 185.464 72.0454 186.022ZM120.959 47.0358C127.515 47.579 132.955 53.4651 133.836 59.9845C134.522 65.0642 131.915 71.1149 126.872 72.035C128.654 78.4037 129.646 85.1046 128.667 91.6453C127.689 98.186 124.576 104.575 119.323 108.593C117.873 110.544 118.968 113.487 120.878 114.991C122.787 116.496 125.258 117.025 127.543 117.855C137.115 121.334 143.855 130.779 145.426 140.842C146.997 150.906 143.859 161.342 138.188 169.803C134.304 175.598 129.02 180.745 122.409 182.973C113.223 186.07 103.16 183.116 94.2166 179.336L93.9459 179.221C90.5828 177.79 87.1591 176.168 84.7418 173.436L84.5889 173.261C81.9897 170.218 77.0773 171.861 73.5347 173.722L80.6013 176.654C81.1075 176.864 81.6566 177.114 81.8913 177.609C82.3854 178.651 81.1682 179.654 80.138 180.173L75.9887 182.262C69.4463 185.546 62.6353 188.772 55.338 188.975C47.1194 189.204 39.3507 185.576 31.9456 181.984L31.4757 181.755C30.7086 181.376 29.9332 180.937 29.5186 180.198C29.0663 179.391 29.3191 178.134 30.213 177.897C38.6083 175.677 46.5567 171.781 53.4535 166.504C52.9259 163.219 53.0503 159.831 53.8172 156.593L53.8563 156.436C53.9668 156.014 54.1341 155.585 54.505 155.372C55.5309 154.783 56.4219 156.335 56.6032 157.504L57.9758 166.358C63.4697 165.75 68.8017 163.732 73.3213 160.55L62.462 151.804C60.5178 150.231 58.5493 148.53 57.6507 146.208C56.7083 143.773 57.4665 140.471 59.9019 139.529C60.0941 130.303 59.6078 121.064 58.4483 111.909C56.8449 121.052 58.1335 130.426 59.4238 139.619C57.2113 131.96 56.2533 123.941 56.5981 115.976L56.6186 115.534C56.6898 114.091 56.8514 112.533 57.8227 111.463C59.5373 109.575 62.9039 110.389 64.4689 112.403C66.034 114.417 66.2959 117.119 66.4983 119.662L84.7847 117.428C86.8368 117.182 88.944 116.992 90.9113 117.6C93.5438 118.414 95.6582 120.72 96.2417 123.413L96.6706 123.296C99.062 122.634 101.575 121.773 102.915 119.713C104.32 117.552 103.158 113.812 100.613 113.841L100.53 113.844C92.3899 114.196 84.4289 108.156 82.5762 100.221C82.105 98.2033 81.9219 95.9608 80.5052 94.4484C78.2604 92.0519 76.55 88.9622 76.5609 85.6786C76.5719 82.3949 78.6657 79.0085 81.8542 78.2235C85.0427 77.4385 88.8163 80.0988 88.5411 83.371C90.0881 83.2134 91.6704 83.4148 93.1286 83.9546C92.297 81.7126 94.4525 79.2379 96.8215 78.9125C99.1905 78.5871 101.499 79.7704 103.469 81.1257C105.439 82.481 107.322 84.0767 109.612 84.7636L109.718 84.5193C110.191 83.4141 110.627 82.2337 110.388 81.0653C110.132 79.8104 108.718 78.7251 107.574 79.2997C106.77 76.9974 105.491 74.8621 103.841 73.0667L99.2552 75.2289C98.6643 74.3439 98.3024 73.3075 98.2139 72.2471C95.1859 73.9776 91.8992 75.2547 88.4972 76.0228L88.8454 73.4254L78.679 78.7059C77.1779 71.7086 81.1061 64.201 87.2174 60.4772C93.3287 56.7533 101.146 56.4983 107.952 58.7096C107.735 52.1346 114.403 46.4925 120.959 47.0358ZM170.973 161.083C165.117 162.496 159.431 164.618 154.08 167.388L153.694 167.59C150.729 169.152 147.819 171.024 145.96 173.801C147.215 173.583 148.555 173.911 149.569 174.682C150.209 175.169 150.744 175.9 150.705 176.703C150.686 177.12 150.513 177.517 150.279 177.863C149.368 179.214 147.437 179.762 145.952 179.093C144.466 178.423 143.598 176.614 144.006 175.036C137.704 177.188 132.285 181.818 129.17 187.704L129.066 187.903C128.913 188.199 128.725 188.531 128.4 188.604C127.952 188.705 127.554 188.206 127.574 187.747C127.595 187.289 127.888 186.894 128.172 186.534C131.845 181.87 136.137 177.43 141.631 175.179L142.044 175.013C143.34 174.499 144.697 173.995 145.533 172.898C147.563 170.239 150.485 168.414 153.452 166.869C156.108 165.487 158.854 164.28 161.669 163.259C164.493 162.234 167.381 161.399 170.275 160.589L180.078 157.86C177.427 159.723 174.124 160.323 170.973 161.083ZM46.1678 173.053C40.8386 174.83 35.6061 176.897 30.501 179.241C30.2016 179.379 30.1673 179.823 30.3506 180.097C30.5339 180.371 30.8537 180.514 31.1567 180.644L40.4822 184.635C41.8966 185.24 43.3156 185.847 44.7947 186.271C48.9198 187.451 53.3649 187.163 57.4664 188.423C57.9639 188.576 58.4979 188.418 58.9932 188.258C62.5704 187.106 66.1056 185.823 69.5892 184.413C73.2338 182.938 76.8456 181.311 80.0815 179.077C80.3758 178.874 80.6814 178.648 80.8157 178.317C80.95 177.985 80.8263 177.524 80.4822 177.427C78.2984 176.806 76.1462 176.075 74.0368 175.236L73.8904 175.176C73.2527 174.909 72.5849 174.53 72.4513 173.866C70.593 173.94 68.968 175.112 67.5973 176.369C66.2266 177.626 64.9389 179.046 63.25 179.825C61.561 180.603 59.2941 180.536 58.1241 179.09L58.0485 178.996C57.9463 178.87 57.8352 178.748 57.6815 178.708C57.4893 178.658 57.2425 178.849 57.3321 179.027C57.564 179.486 57.0658 180.067 56.5523 180.035C56.0388 180.003 55.6373 179.535 55.5109 179.036C55.4296 178.716 55.4368 178.384 55.4756 178.054L55.4854 177.972C55.2571 178.781 54.5414 179.452 53.704 179.577C52.7096 179.725 51.6547 179.087 51.3244 178.137C51.0522 177.355 49.9849 177.341 49.1694 177.194C47.3151 176.861 45.907 174.918 46.1678 173.053ZM58.7617 141.91C57.6632 143.864 58.6835 146.337 60.0366 148.124C64.2795 153.728 71.3862 156.418 76.2351 161.507C77.4535 162.786 78.5155 164.202 79.5639 165.624L82.8592 170.1C83.4648 170.922 84.0727 171.748 84.7794 172.485C86.6223 174.408 89.0487 175.649 91.4487 176.804C96.3183 179.147 101.328 181.3 106.615 182.419C111.902 183.537 117.52 183.575 122.607 181.751C127.368 180.044 131.47 176.77 134.658 172.843C137.77 169.009 140.053 164.565 141.884 159.977L142.017 159.641C142.281 158.972 142.539 158.272 142.485 157.555C142.427 156.797 142.023 156.107 141.551 155.511C139.754 153.236 136.749 151.95 133.872 152.306C131.039 152.655 128.446 154.621 127.408 157.277L127.36 157.404C125.105 163.516 119.491 168.113 113.183 169.744C106.876 171.375 100.016 170.206 94.2585 167.157C88.5014 164.108 83.8036 159.28 80.301 153.787L80.1098 153.484C79.4771 152.468 78.9018 151.4 78.679 150.228C78.434 148.939 78.6831 147.49 79.6139 146.565C80.2287 145.954 81.1038 145.596 81.551 144.854C81.9982 144.111 81.473 142.8 80.6479 143.065L80.0976 143.239C76.3056 144.419 71.9062 145.335 68.8554 142.879L68.5623 142.645C67.1389 141.514 65.6178 140.434 63.8495 140.045C61.9591 139.629 59.7102 140.223 58.7617 141.91ZM73.8775 161.717C69.278 164.624 64.0873 166.59 58.7167 167.46C58.0076 167.575 57.8171 168.494 57.8059 169.212C57.7705 171.495 57.881 173.779 58.1366 176.048C58.7184 175.774 58.9563 175.09 59.353 174.584C59.7496 174.078 60.6547 173.801 60.9612 174.366C61.1754 174.761 60.8896 175.255 60.5246 175.517C60.1597 175.779 59.7108 175.92 59.3854 176.23C58.5757 177 58.9989 178.514 59.9854 179.039C60.9719 179.564 62.2197 179.29 63.1655 178.695C64.1113 178.1 64.842 177.227 65.644 176.449C67.3591 174.785 69.457 173.518 71.7281 172.774C74.6113 171.829 77.8218 171.689 80.3584 170.024C80.5292 169.912 80.706 169.781 80.7705 169.587C80.8585 169.322 80.7096 169.047 80.5515 168.811L77.5167 164.405C77.0332 163.703 76.4769 162.949 75.6486 162.748C75.2699 162.656 74.8661 162.692 74.4945 162.574C74.1228 162.457 73.7727 162.093 73.8775 161.717ZM52.689 168.119C51.5058 168.671 50.8055 169.97 50.6497 171.267C50.4938 172.563 50.7999 173.869 51.1634 175.123C51.3865 175.893 51.6339 176.661 52.0029 177.372C52.2382 177.826 52.5498 178.279 53.0213 178.476C53.4928 178.673 54.1472 178.496 54.3005 178.008C54.3636 177.807 54.3353 177.59 54.2988 177.383C54.1615 176.603 53.9151 175.843 53.5693 175.132L53.4241 174.843C53.2161 174.427 53.0202 173.936 53.2877 173.573C53.543 173.226 54.1707 173.083 54.1107 172.656L53.5247 168.49C53.5076 168.369 53.4874 168.24 53.4084 168.146C53.2419 167.948 52.9235 168.009 52.689 168.119ZM146.501 174.544C146.11 174.542 145.699 174.596 145.385 174.829C145.202 174.965 145.063 175.156 144.966 175.363C144.553 176.237 144.934 177.361 145.715 177.93C146.496 178.499 147.579 178.552 148.483 178.211C149.175 177.951 149.84 177.36 149.817 176.621C149.799 176.038 149.356 175.551 148.868 175.232C148.171 174.776 147.334 174.548 146.501 174.544ZM54.9092 156.314C54.8092 156.389 54.7597 156.512 54.7175 156.629C54.1022 158.336 54.0268 160.187 54.0438 162.001C54.0864 166.551 54.6709 171.095 55.7811 175.508L55.8363 175.722C56.0632 176.584 56.3735 177.468 57.0762 178.001C57.207 171.008 56.7533 164.005 55.7215 157.088C55.6545 156.639 55.2735 156.044 54.9092 156.314ZM49.3681 171.344C49.2213 171.385 49.127 171.525 49.0536 171.659C48.4536 172.754 48.4131 174.137 48.948 175.265C49.1879 175.771 49.5991 176.263 50.1554 176.325C50.3822 176.043 50.2786 175.636 50.1515 175.29L50.0418 174.997C49.6334 173.89 49.2983 172.692 49.6582 171.58C49.7052 171.434 49.515 171.303 49.3681 171.344ZM47.3665 172.861C46.9457 173.796 47.1332 174.973 47.8237 175.732C48.1088 175.44 47.9834 174.963 47.886 174.567C47.7337 173.948 47.6993 173.299 47.7852 172.667C47.6791 172.512 47.4438 172.689 47.3665 172.861ZM56.2355 139.519C56.8734 140.068 57.2789 141.254 56.5214 141.621C56.0361 141.856 55.4862 141.512 55.0279 141.228C52.6466 139.751 49.6018 139.642 46.9021 140.393C44.2023 141.145 41.7887 142.676 39.5234 144.326C37.2676 145.969 35.0924 147.772 33.3962 149.988C31.6999 152.204 30.5001 154.875 30.4017 157.664C30.2837 161.006 31.7275 164.201 33.3971 167.098C34.4612 168.945 35.6612 170.765 37.313 172.106L37.6526 172.375C38.1212 172.751 38.6023 173.218 38.4828 173.783C36.8637 173.71 35.6886 172.262 34.7969 170.908C33.529 168.984 32.3732 166.985 31.3375 164.927C30.4762 163.215 29.6889 161.431 29.4273 159.532C28.9352 155.962 30.3847 152.332 32.6378 149.519C34.8908 146.706 37.8893 144.595 40.922 142.647C43.2256 141.168 45.5964 139.749 48.1823 138.851C50.8492 137.924 54.0964 137.676 56.2355 139.519ZM124.674 123.794C120.839 127.373 115.742 129.572 110.507 129.905C108.193 130.052 105.804 129.831 103.71 128.835C101.617 127.839 99.8531 125.982 99.3665 123.715L99.1927 123.768C97.6774 124.248 95.9424 125.115 95.9577 126.677C96.0224 133.3 95.8683 139.925 95.4956 146.538C95.4241 147.807 94.9409 149.473 93.6705 149.436C89.1569 149.303 84.6137 150.345 80.6092 152.432C85.1166 159.501 91.5266 165.681 99.5002 168.27C107.474 170.859 117.09 169.241 122.678 162.991C124.469 160.988 125.787 158.619 127.057 156.247L127.349 155.699C127.619 155.193 127.893 154.592 127.653 154.071C127.5 153.738 127.831 153.393 128.134 153.187C132.593 150.17 139.231 150.988 142.823 154.999C142.539 154.442 142.797 153.675 143.361 153.404C143.809 154.124 143.904 155.053 143.61 155.849C143.804 156.123 144.161 155.681 144.191 155.346C144.67 150.133 144.633 144.872 144.079 139.666C143.88 137.789 143.609 135.9 142.937 134.136C142.348 132.589 141.463 131.171 140.493 129.829C138.261 126.742 135.549 124.005 132.483 121.745L132.26 121.583C131.774 121.235 131.262 120.914 130.688 120.758C128.414 120.139 126.397 122.186 124.674 123.794ZM93.6955 120.795C91.1604 121.648 88.4154 121.484 85.747 121.668C81.9867 121.928 78.2773 122.906 74.8775 124.533C73.4133 125.234 71.9968 126.058 70.4483 126.546C67.1596 127.582 63.3897 126.942 60.6265 124.88C60.0308 129.427 60.2065 134.075 61.1438 138.565C61.204 138.853 61.3939 139.222 61.6755 139.136C63.5444 138.562 65.5544 139.374 67.216 140.404C68.8776 141.434 70.4392 142.718 72.3266 143.228C74.5406 143.826 76.8869 143.273 79.0784 142.578L79.2425 142.526C80.3658 142.165 81.8187 141.864 82.5391 142.799C83.1466 143.587 82.763 144.764 82.1197 145.523C81.4765 146.283 80.6041 146.847 80.0794 147.693C79.4351 148.731 79.4317 150.133 80.0711 151.174C84.2564 149.495 88.7361 148.554 93.243 148.405C94.1468 148.375 94.4639 147.206 94.5194 146.303C95.0061 138.394 95.1555 130.464 94.9671 122.542C94.9471 121.698 94.496 120.525 93.6955 120.795ZM161.457 142.182L161.636 142.272C162.746 142.836 163.928 143.587 164.093 144.803C164.147 145.203 164.079 145.61 163.984 146.002C163.852 146.546 163.651 147.103 163.229 147.47C162.781 147.858 162.151 147.969 161.559 147.946C160.392 147.9 159.225 147.357 158.549 146.405C157.873 145.453 157.765 144.091 158.395 143.108C159.025 142.125 160.411 141.663 161.457 142.182ZM159.727 143.542C159.035 143.83 158.786 144.765 159.075 145.457C159.364 146.148 160.049 146.603 160.761 146.836C161.489 147.075 162.428 147.055 162.862 146.424C163.006 146.214 163.074 145.96 163.114 145.708C163.201 145.16 163.149 144.552 162.795 144.124C162.357 143.593 161.61 143.486 160.912 143.447L160.739 143.438C160.397 143.423 160.043 143.41 159.727 143.542ZM72.4287 129.246C72.5161 129.578 72.4489 129.928 72.3891 130.266C71.9682 132.647 71.9378 135.097 72.2985 137.488L72.3652 137.911C72.4091 138.21 72.4271 138.526 72.2552 138.767C72.0568 139.045 71.5008 139.017 71.473 138.676C71.2362 135.78 71.0845 132.876 71.0181 129.97C71.0054 129.415 71.1503 128.677 71.7038 128.635C72.046 128.608 72.3412 128.914 72.4287 129.246ZM52.9495 123.441C53.3589 123.564 53.7521 123.845 53.8708 124.255C53.9894 124.666 53.7194 125.185 53.2927 125.212C52.8951 125.237 52.5917 124.875 52.2263 124.716C51.5704 124.431 50.8346 124.829 50.2316 125.214L49.9247 125.412C49.3458 125.793 48.785 126.221 48.4671 126.829C48.1419 127.451 48.1147 128.182 48.1247 128.883C48.1317 129.371 48.1546 129.866 48.3054 130.33C48.6326 131.337 49.5662 132.091 50.6019 132.309C51.6375 132.527 52.7451 132.244 53.6212 131.65L53.7927 131.534C53.9474 131.432 54.1096 131.343 54.2915 131.334C54.5417 131.322 54.8156 131.558 54.7306 131.794C54.7051 131.864 54.6527 131.922 54.6003 131.975C53.1683 133.446 50.6956 133.761 48.9407 132.696C48.6276 132.506 48.3358 132.277 48.0992 131.997C47.3881 131.157 47.2554 129.98 47.2358 128.879C47.2252 128.283 47.2399 127.679 47.4092 127.108C47.775 125.874 48.8086 124.957 49.883 124.248C50.7951 123.646 51.903 123.126 52.9495 123.441ZM44.6647 120.909L48.2347 125.149C48.0383 125.361 47.6941 125.375 47.4288 125.26C47.1929 125.157 47.0048 124.974 46.8275 124.786L44.7329 122.533C44.4474 124.819 43.7556 127.054 42.6996 129.102C42.5968 129.302 42.888 129.47 43.1111 129.493C43.6559 129.549 44.2068 129.487 44.744 129.38L45.0209 129.324C45.4547 129.238 45.8997 129.171 46.3041 129.331C46.7952 129.525 47.0982 130.24 46.7044 130.592C46.4617 130.809 46.0939 130.782 45.7708 130.742L42.294 130.312L42.1871 130.297C41.8439 130.241 41.4666 130.106 41.4163 129.775C41.386 129.576 41.4968 129.386 41.6004 129.213C42.8379 127.147 43.6624 124.836 44.0124 122.453L44.0651 122.076C44.1331 121.612 44.2536 121.109 44.6647 120.909ZM166.294 127.57C166.724 127.875 167.131 128.474 166.797 128.882C166.588 129.138 166.186 129.144 165.885 129.007C165.585 128.869 165.352 128.622 165.093 128.418C164.031 127.578 162.435 127.489 161.286 128.207C161.123 128.309 160.96 128.435 160.894 128.616C160.828 128.797 160.901 129.041 161.086 129.095C162.552 128.474 164.3 128.561 165.697 129.324C165.899 129.435 166.111 129.582 166.161 129.806C166.211 130.031 165.969 130.301 165.769 130.188C164.857 129.678 163.768 129.49 162.738 129.665C162.258 129.747 161.788 129.905 161.301 129.92C160.814 129.936 160.282 129.773 160.023 129.36C159.785 128.979 159.841 128.465 160.074 128.08C160.307 127.696 160.688 127.423 161.087 127.215C162.71 126.371 164.8 126.513 166.294 127.57ZM117.655 106.959C114.174 109.885 110.084 112.083 105.723 113.371L105.432 113.456C104.865 113.617 104.153 113.976 104.272 114.553L104.345 114.91C104.563 115.986 104.747 117.082 104.592 118.164C104.425 119.332 103.781 120.5 102.716 120.991L102.618 121.034C100.722 121.815 100.455 124.647 101.699 126.278C102.943 127.909 105.099 128.541 107.137 128.776C113.116 129.468 119.356 127.463 123.813 123.418C125.43 121.951 126.877 120.195 128.879 119.323L123.873 117.491C122.522 116.997 121.154 116.493 119.979 115.665C118.804 114.837 117.823 113.63 117.583 112.213C117.289 110.476 118.121 108.658 117.655 106.959ZM59.9124 111.655C59.7868 111.711 59.6585 111.785 59.5981 111.908C59.5376 112.032 59.558 112.178 59.5794 112.314L60.7263 119.543C61.0643 121.674 61.5391 124.035 63.2962 125.286C65.221 126.657 67.8642 126.12 70.1055 125.337L70.2252 125.295C74.3974 123.813 78.4127 121.75 82.7855 121.056C85.9251 120.558 89.2174 120.771 92.1861 119.635C91.1003 117.996 88.7477 118.005 86.7798 118.22L70.7024 120.047C69.4569 120.188 68.1486 120.354 67.1371 121.094C66.6945 121.418 66.2755 121.863 65.7275 121.886C65.1943 121.908 64.7308 121.131 65.1487 120.846L65.1856 120.823C65.6438 120.571 65.613 119.913 65.5192 119.398L65.0329 116.732C64.7871 115.41 64.4868 114.064 63.6956 112.984C62.8411 111.818 61.2335 111.068 59.9124 111.655ZM170.905 122.46C171.293 122.912 171.309 123.604 171.051 124.14C170.793 124.676 170.303 125.07 169.774 125.342C169.135 125.67 168.432 125.841 167.727 125.987L167.375 126.058C167.237 126.086 167.091 126.113 166.957 126.069C166.846 126.032 166.756 125.948 166.683 125.857C166.32 125.401 166.333 124.728 166.579 124.2C166.824 123.671 167.265 123.26 167.717 122.892C168.18 122.516 168.683 122.162 169.262 122.024C169.842 121.887 170.517 122.008 170.905 122.46ZM169.004 123.254L168.818 123.378C168.541 123.569 168.274 123.776 168.087 124.053C167.859 124.392 167.78 124.865 168.005 125.205L169.496 124.376C169.739 124.241 169.991 124.098 170.148 123.869C170.306 123.64 170.337 123.298 170.143 123.1C169.85 122.802 169.351 123.023 169.004 123.254ZM145.216 106.933C145.32 106.975 145.39 107.069 145.451 107.166L147.636 110.734C148.026 111.372 148.915 111.443 149.661 111.39C151.09 111.29 152.506 110.998 153.859 110.525C154.086 110.446 154.301 110.735 154.252 110.97C154.203 111.205 154.001 111.373 153.811 111.521L150.53 114.079C150.127 114.05 150.241 113.39 150.568 113.153L150.665 113.086C150.98 112.873 151.362 112.663 151.342 112.298L149.446 112.891C149.083 113.004 148.681 113.115 148.337 112.956C148.108 112.85 147.947 112.643 147.802 112.434L145.393 108.918L145.352 111.997C145.348 112.25 145.337 112.523 145.177 112.719C145.063 112.857 144.893 112.932 144.723 112.994L141.399 114.187C142.287 115.075 143.948 114.141 145.011 114.81C145.739 115.268 145.863 116.289 145.706 117.135C145.549 117.98 145.189 118.803 145.236 119.662C145.842 119.222 146.288 118.565 146.472 117.838C146.546 117.545 146.583 117.234 146.746 116.979C147.195 116.278 148.267 116.421 149.011 116.796C149.754 117.171 150.526 117.711 151.339 117.532L150.159 115.646C150.051 115.474 149.94 115.287 149.949 115.084C149.959 114.882 150.151 114.677 150.346 114.735C150.431 114.761 150.494 114.829 150.55 114.899L153.183 118.312C152.258 118.921 151.038 118.537 149.971 118.243L149.813 118.202C148.771 117.944 147.5 117.918 146.925 118.801C146.52 119.423 146.044 119.999 145.51 120.515C145.285 120.732 145.028 120.949 144.718 120.984C144.407 121.02 144.05 120.784 144.077 120.473L144.383 117.022C144.403 116.798 144.418 116.555 144.294 116.369C144.163 116.172 143.916 116.096 143.688 116.033L140.812 115.239C140.187 115.066 140.182 114.093 140.651 113.645C141.12 113.196 141.811 113.102 142.436 112.929C143.061 112.756 143.737 112.388 143.85 111.749L144.58 107.615C144.642 107.261 144.883 106.798 145.216 106.933ZM67.8386 48.6461L67.3075 49.0777C63.7686 51.9616 60.2814 54.985 57.6859 58.7339C54.9607 62.6702 53.2876 67.5514 54.099 72.2698C55.2813 79.1457 61.4316 84.6215 61.6945 91.5934C61.7294 92.5195 62.6725 93.0958 63.4615 93.582C66.5752 95.501 68.8826 98.5465 70.4051 101.872C71.8801 105.094 72.6676 108.585 73.2402 112.083L73.295 112.422C73.3802 112.955 73.4425 113.563 73.0984 113.979C72.7542 114.395 71.8693 114.25 71.9036 113.71C72.3075 107.371 70.0037 100.905 65.683 96.2486C64.5606 95.0392 63.2568 93.918 61.6761 93.4444C61.5755 95.8861 60.7534 98.3742 59.0131 100.09C57.2729 101.805 54.5275 102.589 52.2746 101.642C50.0218 100.696 48.6435 97.8372 49.6574 95.6137C50.5068 93.7511 52.6162 92.8102 54.6245 92.4137C56.5951 92.0246 58.6379 92.0043 60.6158 92.3542C60.8819 92.4012 60.9979 92.0292 60.9926 91.759C60.8495 84.5122 54.1509 78.8386 53.2716 71.644C52.791 67.7121 54.1326 63.7541 56.0795 60.3044C58.6362 55.7742 62.2734 51.8585 66.6031 48.9751L66.7164 48.9016C67.0632 48.6833 67.4675 48.4971 67.8386 48.6461ZM89.8945 85.5554C88.9252 86.1789 88.9501 87.5626 88.8699 88.7124C88.7599 90.2895 88.2177 91.868 87.1601 93.0432C86.1026 94.2183 84.4959 94.9402 82.9274 94.7429C82.5215 94.6919 82.3982 95.2791 82.4514 95.6846C83.3633 102.635 87.5795 109.459 94.1329 111.948C98.1393 113.469 102.665 113.267 106.749 111.97C110.737 110.704 114.346 108.453 117.644 105.875L117.885 105.686C118.363 105.308 118.844 104.915 119.176 104.404C119.513 103.886 119.679 103.273 119.76 102.66C120.193 99.3771 117.999 95.9419 114.838 94.9538C114.466 94.8375 114.552 94.2341 114.879 94.0211C115.205 93.8081 115.625 93.8226 115.998 93.7087C117.008 93.4002 117.472 92.2502 117.703 91.2199C118.019 89.8043 118.108 88.1898 117.231 87.0346C116.045 85.4733 113.74 85.4753 111.785 85.6249L108.613 85.8677C107.519 85.9515 106.11 86.3374 106.058 87.434C105.948 89.7961 104.907 92.149 103.069 93.6363C101.23 95.1236 98.5831 95.6378 96.4008 94.7274C94.2531 93.8314 92.7358 91.4934 92.9839 89.1851L92.9973 89.0735C93.1266 88.097 93.0554 87.0367 92.4834 86.2349C91.9113 85.4331 90.7229 85.0225 89.8945 85.5554ZM116.092 48.6446C114.678 49.0467 113.319 49.6952 112.202 50.6519C110.642 51.989 109.605 53.9211 109.352 55.9604C109.263 56.683 109.407 57.615 110.108 57.8091C111.823 58.2833 113.356 59.383 114.356 60.8543C112.735 59.8899 110.959 59.1881 109.116 58.7847L116.903 63.1909C117.355 63.4463 117.823 63.7176 118.107 64.1516C118.391 64.5857 118.421 65.2335 118.031 65.5753L117.486 65.1517C116.122 64.0958 114.727 63.0723 113.2 62.2732C112.039 61.6656 110.814 61.1942 109.582 60.7451L108.91 60.5017C106.629 59.6788 104.327 58.8507 101.925 58.522C99.6949 58.2168 97.4057 58.3523 95.2274 58.9183L94.7978 59.0284C91.8553 59.7731 88.7871 60.3819 86.3544 62.181C84.9072 63.2512 83.774 64.6839 82.698 66.1267L82.4441 66.471C80.3062 69.4063 78.3527 73.0252 79.6035 76.3929C85.3463 75.6855 89.8202 71.2422 95.0225 68.7094C95.4202 68.5158 96.0759 68.4565 96.1364 68.8946L90.315 72.3347C90.4766 73.223 90.3239 74.1652 89.89 74.957C94.1432 73.7552 98.1195 71.5851 101.432 68.6599L101.643 68.4722C102.169 67.9991 103.181 67.6077 103.405 68.2784L103.12 68.4375C102.076 69.0251 101.036 69.6679 100.316 70.6194C99.5305 71.6575 99.2177 73.1666 99.9141 74.2666L107.263 69.9396C107.561 69.7638 107.887 69.5817 108.232 69.6179C108.576 69.6541 108.899 70.0251 108.75 70.338L108.5 70.3901C107.707 70.5586 106.903 70.7697 106.285 71.2864C105.602 71.8575 105.249 72.9282 105.756 73.6595C106.666 74.9713 107.405 76.4019 107.947 77.9035C107.958 77.2469 108.853 76.9111 109.443 77.1994C110.034 77.4877 110.346 78.1384 110.56 78.7593C111.171 80.5357 111.333 82.465 111.025 84.3183C112.873 84.9708 115.041 84.2 116.818 85.0254C118.468 85.7915 119.275 87.7787 119.161 89.5942C119.046 91.4097 118.188 93.0884 117.272 94.66C119.832 96.6436 121.2 100.06 120.716 103.263C121.162 103.19 121.539 102.805 121.603 102.357L122.618 102.998C121.03 103.895 119.9 105.561 119.653 107.369C126.631 100.839 128.948 90.49 127.941 80.9865L127.902 80.632C127.503 77.2002 126.553 73.623 123.972 71.3498C125.356 70.552 127.131 70.8658 128.611 70.2667C130.01 69.7007 130.972 68.3888 131.621 67.0265C133.792 62.4724 133.044 56.6781 129.789 52.8241C126.533 48.9702 120.945 47.265 116.092 48.6446ZM93.2803 105.759C93.5005 105.795 93.7502 105.869 93.8364 106.075C93.974 106.404 93.5883 106.704 93.2545 106.829C92.7698 107.009 92.261 107.125 91.7459 107.171C91.3137 107.21 90.7684 107.127 90.6347 106.714C90.5468 106.443 90.6995 106.138 90.9306 105.97C91.1616 105.803 91.4538 105.746 91.7375 105.715C92.2506 105.66 92.7712 105.674 93.2803 105.759ZM85.3867 101.049C86.9053 102.834 89.281 103.779 91.6243 103.797C93.9676 103.816 96.2665 102.969 98.2119 101.662L98.3756 101.552C98.6227 101.388 98.879 101.234 99.1688 101.184C99.523 101.122 99.944 101.271 100.064 101.609C98.0297 103.338 95.4791 104.479 92.8204 104.72C90.1616 104.961 87.4078 104.279 85.2384 102.723C84.847 102.443 84.4425 102.073 84.4263 101.592C84.4101 101.111 85.0746 100.682 85.3867 101.049ZM53.5563 93.4898C52.5003 93.8267 51.4376 94.3203 50.7714 95.2062C49.7818 96.5221 49.9549 98.5187 51.0237 99.7711C52.0926 101.024 53.9 101.524 55.5125 101.191C57.125 100.858 58.5249 99.7699 59.4311 98.3952C60.3372 97.0204 60.7808 95.3792 60.9152 93.7382C60.9378 93.4632 60.8878 93.099 60.6164 93.0485C58.2746 92.6128 55.8256 92.7659 53.5563 93.4898ZM90.9745 87.0777C91.0186 87.4562 90.8721 87.8276 90.7375 88.184C89.9771 90.1983 89.5142 92.3247 89.3685 94.4728C89.3449 94.8208 89.3315 95.1816 89.4591 95.5062C89.5796 95.8127 89.8592 96.0794 90.1835 96.0977L90.2412 96.0983C90.5365 96.0879 90.6765 96.5279 90.4908 96.7577C90.3051 96.9874 89.9567 97.0132 89.6736 96.9289C89.0923 96.7558 88.6755 96.2147 88.5068 95.6321C88.3381 95.0495 88.3813 94.4274 88.4658 93.8268C88.7521 91.7904 89.4956 89.816 89.532 87.7599C89.5423 87.1796 89.6609 86.3975 90.2394 86.3513C90.6192 86.321 90.9304 86.6992 90.9745 87.0777ZM98.2006 80.205C96.993 80.4535 96.071 81.4442 95.4447 82.5062C94.1616 84.6819 93.7961 87.3797 94.4538 89.8184C94.7492 90.9135 95.254 91.9718 96.0462 92.7835C96.8383 93.5952 97.9388 94.14 99.0728 94.1212C99.8643 94.1081 100.633 93.8272 101.32 93.4349C103.616 92.1249 105.075 89.47 104.949 86.8294C104.824 84.1889 103.12 81.6843 100.71 80.5979C99.9253 80.2441 99.0438 80.0315 98.2006 80.205ZM81.5332 79.1224C79.3755 79.9218 77.9825 82.1627 77.6856 84.4445C77.3887 86.7264 78.0288 89.0346 78.9411 91.1471C79.1868 91.716 79.4661 92.2945 79.9378 92.6963C80.4096 93.0982 81.1238 93.2783 81.6598 92.9673C81.9093 92.8225 82.1424 93.1611 82.3318 93.3788C82.709 93.8124 83.3727 93.8493 83.9363 93.7367C85.7932 93.3657 87.2201 91.743 87.7977 89.9397C88.356 88.1966 88.2369 86.3097 87.907 84.5059L87.8721 84.3196C87.5242 82.5004 86.7381 80.456 84.9669 79.9143C84.0382 79.6302 82.918 79.7962 82.2001 79.1422C82.0268 78.9843 81.7531 79.041 81.5332 79.1224ZM115.824 86.8357C116.553 87.6444 116.255 88.9003 115.89 89.9379L115.86 90.0216C115.714 90.4285 115.562 90.845 115.283 91.175C115.004 91.505 114.565 91.7355 114.142 91.6474C113.719 91.5593 113.389 91.0684 113.567 90.6744C113.787 90.1852 114.537 90.1603 114.808 89.6969L114.077 89.6279C113.584 89.5814 113.054 89.5189 112.689 89.1847C112.324 88.8506 112.278 88.1435 112.722 87.9246C113.029 87.7728 113.4 87.9215 113.684 88.1128C113.969 88.3041 114.241 88.5462 114.58 88.5983C114.919 88.6504 115.331 88.3842 115.262 88.0484C115.164 87.5811 115.404 87.0637 115.824 86.8357ZM99.1292 89.9927C99.187 90.3143 99.2083 90.6553 99.0879 90.959C98.9676 91.2627 98.6743 91.5168 98.3479 91.5032C97.8424 91.4822 97.5717 90.9 97.4834 90.4018C97.3743 89.7863 97.5447 88.9393 98.1681 88.8935C98.7016 88.8543 99.0345 89.4663 99.1292 89.9927ZM83.5547 88.6862C83.8065 89.0531 83.771 89.5434 83.6709 89.9771C83.5429 90.5319 83.2211 91.1509 82.6547 91.2089C82.1432 91.2612 81.7064 90.8035 81.5391 90.3173C81.335 89.724 81.4341 88.999 81.8973 88.5758C82.3606 88.1526 83.1997 88.1688 83.5547 88.6862ZM84.0263 82.4241C84.2524 82.528 84.4117 82.8129 84.2973 83.0339L84.0786 83.0913C82.8338 83.4234 81.5067 83.8857 80.9121 85.0113C80.7696 85.281 80.6772 85.5786 80.4998 85.8268C80.3223 86.0749 80.0232 86.2722 79.7247 86.2093C79.3845 86.1377 79.1876 85.7462 79.224 85.4004C79.2603 85.0547 79.4707 84.7533 79.696 84.4885C80.6124 83.4118 81.9037 82.6607 83.2927 82.3965C83.5371 82.35 83.8002 82.3202 84.0263 82.4241ZM99.936 83.0458C100.308 83.3457 100.591 83.7454 100.967 84.0405C101.285 84.2897 101.687 84.4868 101.831 84.864C101.975 85.2412 101.541 85.7739 101.226 85.5213C100.403 84.8619 99.4895 84.3157 98.5192 83.9027C98.0793 83.7155 98.1792 82.9754 98.6082 82.7646C99.0373 82.5539 99.5638 82.7458 99.936 83.0458ZM95.3255 80.6803C94.5144 80.9477 93.938 81.8012 93.9931 82.6535C94.3033 82.4947 94.5396 82.1981 94.625 81.8602L94.6128 81.8261C94.9729 81.5416 95.2295 81.129 95.3255 80.6803Z" fill="#00160A"/>
<path fill-rule="evenodd" clip-rule="evenodd" d="M49.6223 182.822C49.9486 182.825 50.2487 182.976 50.5338 183.142L50.6879 183.234C52.4353 184.28 54.2793 185.165 56.1887 185.874C56.4511 185.971 56.3696 186.412 56.1138 186.525C55.858 186.639 55.5629 186.538 55.302 186.436L49.6631 184.242C49.3023 184.102 48.8834 183.888 48.8518 183.502C48.8203 183.117 49.2366 182.818 49.6223 182.822Z" fill="#E7EAEE"/>
<path fill-rule="evenodd" clip-rule="evenodd" d="M40.6329 176.678L58.0769 182.866L58.1865 182.907C58.6476 183.087 59.1462 183.395 59.0969 183.872C59.0568 184.26 58.6275 184.51 58.2377 184.497C57.9079 184.486 57.6033 184.339 57.3118 184.178L57.1541 184.089C54.7218 182.709 52.17 181.571 49.5528 180.588C46.5881 179.474 43.5396 178.559 40.4862 177.717C40.0193 177.588 39.4275 177.17 39.6953 176.767C39.8831 176.484 40.3127 176.565 40.6329 176.678Z" fill="#E7EAEE"/>
<defs>
<linearGradient id="paint0_linear" x1="34.5079" y1="73.9622" x2="162.099" y2="242.456" gradientUnits="userSpaceOnUse">
<stop offset="0.0552082" stop-color="#0080FF"/>
<stop offset="0.940625" stop-color="#0059B2"/>
</linearGradient>
</defs>
</svg>
