<svg width="250" height="250" viewBox="0 0 250 250" fill="none" xmlns="http://www.w3.org/2000/svg">
<path fill-rule="evenodd" clip-rule="evenodd" d="M76.034 159.631C44.7757 166.918 26.8914 156.744 22.3812 129.11C15.6159 87.658 38.5337 44.1101 69.9791 39.9355C101.425 35.7609 114.644 47.669 136.745 62.6227C158.846 77.5764 222.904 112.761 230.182 118.733C237.459 124.704 253.031 148.039 221.885 162.819C201.121 172.673 175.29 170.817 144.392 157.252C133.53 152.503 123.639 149.99 114.718 149.713C105.797 149.435 92.9026 152.742 76.034 159.631Z" fill="url(#paint0_linear)"/>
<path d="M111.666 107.005C114.475 108.839 115.605 111.211 115.055 114.122C112.423 118.066 111.108 121.481 111.108 124.368C111.108 127.255 110.91 131.01 110.514 135.633L88.644 136.095L88.5977 136.067C88.0133 136.079 87.4387 136.088 86.874 136.095C82.0066 136.158 77.6883 136.803 77.4845 136.835C75.8909 137.082 73.0187 134.125 72.2216 133.123C70.9409 131.514 70.3321 129.609 70.0615 127.536C69.8062 125.58 70.1663 123.762 70.8733 122.019C71.6994 119.982 72.9925 118.22 74.6319 116.668C76.4297 115.019 78.3656 113.674 80.5359 112.682C80.6201 112.643 82.1777 111.877 82.2525 111.887C82.3024 111.894 84.7926 112.691 88.2558 114.309C92.1864 111.515 96.4377 108.559 101.01 105.44C105.304 104.65 108.856 105.171 111.666 107.005Z" fill="white"/>
<path fill-rule="evenodd" clip-rule="evenodd" d="M83.3673 154.601C86.8061 155.309 88.8792 153.96 89.5866 150.553C90.6476 145.443 84.2369 146.356 82.2748 143.726C80.3128 141.096 84.6646 140.569 89.5866 142.148C94.5129 141.932 95.9348 142.214 96.2177 140.855C96.5006 139.497 93.9341 138.641 87.0787 138.865C80.2233 139.089 81.2317 139.098 81.7533 144.826C82.101 148.644 82.639 151.902 83.3673 154.601Z" fill="white"/>
<path d="M168.83 165.515C166.187 163.329 164.325 161.954 163.328 161.075C160.945 158.975 158.504 156.941 156.101 154.865C155.606 154.438 155.126 153.978 154.72 153.47C154.209 152.832 154.326 152.391 155.131 152.081C155.767 151.835 156.462 151.723 157.141 151.614C159.165 151.291 161.192 150.988 163.221 150.698C164.112 150.57 165.011 150.495 165.905 150.384C166.064 150.364 166.217 150.284 166.372 150.232C166.295 150.107 166.236 149.964 166.138 149.858C165.355 149.013 164.565 148.174 163.776 147.334C163.707 147.26 163.633 147.19 163.562 147.118C163.674 147.091 163.785 147.055 163.898 147.038C165.975 146.731 168.052 146.423 170.13 146.124C171.495 145.928 172.859 145.725 174.228 145.564C175.629 145.399 177.034 145.265 178.44 145.149C179.697 145.045 180.959 145.002 182.216 144.897C183.021 144.83 183.819 144.671 184.624 144.606C185.631 144.525 186.644 144.512 187.652 144.443C188.911 144.357 190.168 144.23 191.427 144.146C192.486 144.075 193.548 144.056 194.607 143.984C195.461 143.927 196.31 143.801 197.164 143.749C197.999 143.699 198.837 143.704 199.673 143.685C201.839 143.634 204.005 143.572 206.17 143.536C207.496 143.515 208.832 143.432 210.143 143.573C210.826 143.647 211.607 144 212.094 144.481C213.325 145.696 214.416 147.054 215.56 148.357C216.261 149.156 216.964 149.954 217.654 150.762C219.109 152.466 220.553 154.18 222.009 155.883C222.461 156.412 222.945 156.914 223.399 157.442C223.529 157.593 223.606 157.791 223.707 157.967C223.564 157.85 223.137 157.485 223.279 157.614C237.325 170.392 178.174 173.109 168.83 165.515Z" fill="white"/>
<path d="M8.83069 118.298C8.87857 116.982 8.91928 115.666 8.97037 114.351C8.98687 113.926 9.03495 113.502 9.06119 113.077C9.27909 109.55 9.69818 106.045 10.6009 102.625C11.3212 99.8965 12.2724 97.2422 13.4284 94.6495C14.7471 91.6922 16.3504 88.9112 18.1977 86.267C19.1389 84.9198 20.1668 83.6215 21.2606 82.3936C22.5766 80.9162 23.9287 79.4535 25.4035 78.1376C27.0872 76.6354 28.8966 75.2663 30.7136 73.9225C31.1182 73.6233 31.8334 73.4775 32.3162 73.6024C33.1639 73.8218 33.2865 74.5587 32.638 75.1215C31.1656 76.3994 30.4649 78.0308 30.357 79.9254C30.2974 80.9719 30.3954 82.0272 30.3373 83.0739C30.1458 86.5242 31.1534 89.7002 32.6455 92.7299C34.072 95.6264 36.1491 98.0117 39.1295 99.4053C40.8397 100.205 42.6685 100.766 44.4695 101.358C46.0338 101.871 47.6367 102.268 49.2178 102.733C50.7688 103.189 52.2966 103.602 53.94 103.054C54.7831 102.773 55.4156 103.527 55.0928 104.344C53.8719 107.434 52.8317 110.641 50.6872 113.246C49.4008 114.809 47.9125 116.255 46.3205 117.51C43.9832 119.352 41.2956 120.666 38.6111 121.959C35.9927 123.221 33.4333 124.605 30.8034 125.842C27.8406 127.235 24.8381 128.546 21.8337 129.849C19.4098 130.9 16.9628 131.9 14.5134 132.891C13.9278 133.128 13.3004 133.294 12.6762 133.398C12.0508 133.502 10.6768 132.521 10.4313 131.873C9.80844 130.228 9.38503 128.536 9.21017 126.783C9.10376 125.716 8.96052 124.653 8.79582 123.588C8.75781 123.513 8.75781 123.437 8.79582 123.324C8.85917 121.865 8.88574 120.443 8.90338 119.022C8.90387 118.983 8.80849 118.943 8.75781 118.903C8.75781 118.726 8.75781 118.55 8.75781 118.336C8.78315 118.298 8.83066 118.299 8.83069 118.298Z" fill="white"/>
<path fill-rule="evenodd" clip-rule="evenodd" d="M110.251 135.587L156.276 134.414H158.164C160.916 136.464 163.936 137.348 167.223 137.064C172.153 136.64 176.506 131.198 177.523 123.612C177.673 123.02 178.036 122.878 178.613 123.185C179.249 124.423 180.376 124.964 181.995 124.806C182.698 124.73 183.089 124.894 183.486 125.657C183.883 126.42 185.981 127.38 187.296 126.61C188.611 125.84 194.674 116.019 194.674 114.367C194.674 112.714 195.014 109.105 195.282 108.872C195.549 108.639 196.052 108.828 197.03 108.519C198.007 108.209 198.843 108.517 201.976 100.293C205.109 92.0689 209.902 79.7747 210.413 71.166C210.924 62.5574 204.843 65.6 201.976 69.1924C199.109 72.7847 191.118 82.0345 183.721 87.0574C182.816 87.7334 182.078 88.0512 181.505 88.0108C181.162 85.8729 179.756 85.0763 177.288 85.6211C176.328 85.7935 175.543 85.0351 174.932 83.346C173.35 74.5768 169.742 68.2315 164.11 64.31C155.661 58.4277 141.264 55.0661 137.8 67.3651C135.491 75.5644 136.879 85.526 141.965 97.2499L139.848 99.0826C131.516 101.965 124.709 105.523 119.428 109.757C111.506 116.108 111.354 122.303 110.934 127.413C110.654 130.819 110.426 133.544 110.251 135.587Z" fill="white"/>
<path d="M93.2212 100.175C93.2917 99.5092 93.3236 98.8388 93.4006 98.1735C93.4048 98.1377 93.743 98.0612 93.8405 98.1281C94.7463 98.7504 95.6424 99.3881 96.5202 100.049C96.7581 100.229 96.7768 100.407 96.8847 99.938C97.0534 99.2049 98.0963 99.0002 98.721 99.5212C100.153 100.716 100.876 102.322 101.4 104.069C101.855 105.584 101.675 107.124 101.719 108.654C101.747 109.637 102.668 110.378 103.633 110.417C104.347 110.447 105.098 110.76 105.741 111.114C107.295 111.972 108.295 113.324 108.786 115.028C109.315 116.863 108.823 118.497 107.759 120.022C106.792 121.408 105.911 122.861 104.507 123.878C103.73 124.44 102.836 124.907 102.228 125.617C101.575 126.38 100.825 126.878 99.9361 127.221C97.7461 128.066 95.3531 126.97 94.2807 125.144C93.1479 122.734 89.1048 124.698 87.5382 121.144C86.7476 119.971 86.4397 118.987 86.6103 118.889C86.8185 118.769 86.5306 118.465 86.1621 118.078C84.5533 116.388 83.1243 114.558 82.1466 112.415C81.9922 112.077 81.8331 111.728 81.7656 111.367C81.7242 111.146 81.7859 110.829 81.9296 110.676C82.0199 110.58 82.3796 110.649 82.5615 110.749C82.8341 110.898 83.0502 111.147 83.3019 111.338C83.731 111.664 83.9692 111.526 83.853 111.017C83.5227 109.571 83.8262 108.199 84.3347 106.873C84.6089 106.158 85.055 105.505 85.4691 104.854C85.5084 104.792 85.9067 104.885 86.08 104.997C86.4015 105.205 86.6798 105.48 86.9761 105.727C86.9961 105.332 87.0023 104.935 87.041 104.542C87.0641 104.308 87.1215 104.074 87.1923 103.85C87.5474 102.724 87.7377 102.667 88.6774 103.373C88.8034 103.468 88.9543 103.529 89.0936 103.606C89.1127 103.463 89.1379 103.32 89.15 103.176C89.2537 101.939 89.006 100.816 88.1015 99.8977C88.0908 99.8868 88.2871 99.5639 88.4 99.5551C89.7028 99.4527 91.006 99.3987 92.1978 100.095C92.4414 100.237 92.6845 100.38 92.9656 100.561C93.0789 100.458 93.2056 100.323 93.2212 100.175Z" fill="white"/>
<path fill-rule="evenodd" clip-rule="evenodd" d="M112.54 54.6641C108.693 57.853 106.948 62.4697 107.306 68.5141C107.843 77.5808 118.39 84.0402 123.492 81.3061C128.594 78.572 134.228 74.5891 134.9 66.1112C135.186 74.1785 136.032 78.1049 125.155 83.9555C114.278 89.806 102.907 80.728 101.262 76.9862C99.6176 73.2445 95.6582 64.9843 103.694 55.4014C104.794 54.134 107.743 53.8882 112.54 54.6641Z" fill="white"/>
<path fill-rule="evenodd" clip-rule="evenodd" d="M204.216 160.747C205.146 160.645 206.004 160.563 206.855 160.437C208.788 160.15 210.717 159.834 212.65 159.544C213.8 159.371 214.967 159.287 216.101 159.042C216.896 158.87 217.617 158.982 218.35 159.223C218.467 159.262 218.558 159.384 218.661 159.468C218.537 159.537 218.419 159.652 218.289 159.669C216.59 159.883 214.886 160.062 213.189 160.294C211.483 160.527 209.785 160.822 208.081 161.066C206.893 161.236 205.698 161.357 204.508 161.515C203.888 161.598 203.275 161.732 202.655 161.814C201.777 161.931 200.894 162.009 200.016 162.128C198.986 162.266 197.961 162.438 196.932 162.581C196.104 162.695 195.273 162.778 194.445 162.891C193.391 163.035 192.339 163.199 191.285 163.347C190.507 163.456 189.729 163.555 188.95 163.654C188.13 163.758 187.306 163.84 186.489 163.967C185.995 164.044 185.54 164.04 185.393 163.472C185.259 162.953 185.524 162.546 186.03 162.435C186.721 162.281 187.431 162.198 188.138 162.131C188.977 162.052 189.82 162.018 190.662 161.972C191.698 161.916 192.736 161.888 193.771 161.813C194.872 161.734 195.97 161.607 197.07 161.514C198.364 161.404 199.661 161.324 200.953 161.199C201.625 161.135 202.29 160.999 202.959 160.901C203.351 160.844 203.746 160.798 204.216 160.747Z" fill="#E7EAEE"/>
<path fill-rule="evenodd" clip-rule="evenodd" d="M184.026 153.579C184.957 153.529 185.813 153.493 186.667 153.424C187.574 153.35 188.476 153.228 189.383 153.158C190.401 153.079 191.423 153.047 192.441 152.971C193.596 152.885 194.749 152.764 195.903 152.676C196.757 152.61 197.615 152.586 198.468 152.518C199.539 152.432 200.607 152.309 201.678 152.223C202.531 152.155 203.389 152.133 204.243 152.065C205.371 151.975 206.495 151.807 207.625 151.769C208.913 151.726 210.207 151.325 211.495 151.769C211.648 151.822 211.787 151.915 211.933 151.99C211.794 152.016 211.657 152.052 211.517 152.067C210.54 152.17 209.562 152.259 208.586 152.373C207.401 152.512 206.221 152.695 205.034 152.816C204.166 152.904 203.289 152.898 202.42 152.981C201.229 153.094 200.044 153.266 198.853 153.385C197.989 153.472 197.12 153.509 196.254 153.581C195.125 153.674 193.996 153.777 192.868 153.882C191.84 153.978 190.811 154.074 189.785 154.185C188.474 154.328 187.167 154.502 185.855 154.632C184.61 154.755 183.36 154.823 182.115 154.944C181.248 155.028 180.389 155.187 179.522 155.255C179.184 155.281 178.807 155.208 178.497 155.07C178.275 154.972 178.135 154.69 177.958 154.49C178.182 154.337 178.396 154.073 178.632 154.051C180.069 153.913 181.512 153.836 182.952 153.726C183.286 153.701 183.617 153.629 184.026 153.579Z" fill="#E7EAEE"/>
<path fill-rule="evenodd" clip-rule="evenodd" d="M104.842 172.635C104.764 172.697 104.723 172.745 104.684 172.744C104.329 172.734 103.973 172.715 103.618 172.698C103.957 172.464 104.267 172.104 104.641 172.018C106.113 171.681 107.439 171.087 108.668 170.21C110.272 169.065 111.263 167.563 111.624 165.643C111.679 165.348 111.596 165.215 111.239 165.217C110.73 165.22 110.22 165.136 109.711 165.079C108.715 164.966 107.923 164.262 107.836 163.423C107.78 162.885 108.588 161.758 109.184 161.467C110.573 160.791 112.115 162.126 112.51 163.283C112.669 163.749 112.744 163.58 112.954 163.388C113.945 162.483 114.269 161.32 114.19 160.043C114.106 158.678 113.505 157.58 112.321 156.812C111.91 156.546 111.753 156.167 112.071 155.683C112.418 155.156 113.381 155.12 113.757 155.586C114.265 156.217 114.711 156.944 114.992 157.699C115.672 159.532 115.498 161.313 114.353 162.953C114.271 163.07 114.204 163.206 114.098 163.297C113.2 164.078 112.716 165.049 112.35 166.192C111.267 169.585 108.78 171.588 105.409 172.591C105.247 172.639 105.057 172.597 104.842 172.635ZM109.427 162.374C108.777 162.759 108.599 163.865 109.215 164.058C109.926 164.28 110.748 164.157 111.523 164.165C111.556 164.165 111.612 163.97 111.622 163.863C111.723 162.823 110.748 162.105 109.427 162.374Z" fill="#FFB61D"/>
<path fill-rule="evenodd" clip-rule="evenodd" d="M195.654 156.896C197.802 156.692 199.872 156.473 201.946 156.29C203.415 156.16 204.89 156.094 206.361 155.974C207.268 155.899 208.172 155.779 209.076 155.672C210.325 155.523 211.574 155.247 212.82 155.261C213.53 155.269 214.357 155.5 214.841 156.219C214.878 156.275 214.92 156.328 214.96 156.382C214.867 156.4 214.766 156.451 214.68 156.433C213.055 156.089 211.457 156.422 209.844 156.57C208.72 156.674 207.578 156.551 206.447 156.601C205.311 156.653 204.18 156.798 203.046 156.895C201.794 157.002 200.54 157.084 199.29 157.208C198.618 157.275 197.955 157.424 197.284 157.503C196.288 157.622 195.286 157.698 194.289 157.817C193.15 157.954 192.009 158.091 190.877 158.28C189.531 158.503 188.198 158.801 186.853 159.031C185.521 159.26 184.186 159.504 182.843 159.622C182.23 159.676 181.582 159.485 180.97 159.328C180.5 159.207 180.607 158.875 180.906 158.658C181.148 158.482 181.445 158.33 181.735 158.285C182.61 158.148 183.493 158.066 184.373 157.967C185.303 157.862 186.232 157.747 187.165 157.664C188.492 157.548 189.822 157.471 191.149 157.35C191.955 157.276 192.755 157.138 193.561 157.053C194.231 156.982 194.905 156.947 195.654 156.896Z" fill="#E7EAEE"/>
<path fill-rule="evenodd" clip-rule="evenodd" d="M181.41 150.575C183.182 150.373 184.876 150.16 186.574 149.973C187.677 149.851 188.786 149.781 189.889 149.66C190.533 149.589 191.171 149.456 191.813 149.364C192.255 149.301 192.7 149.266 193.142 149.209C194.495 149.036 195.845 148.838 197.201 148.688C198.58 148.535 199.965 148.441 201.344 148.296C202.608 148.163 203.865 147.957 205.131 147.866C205.585 147.834 206.065 148.022 206.517 148.163C206.667 148.21 206.765 148.424 206.887 148.563C206.714 148.62 206.544 148.714 206.368 148.727C205.383 148.798 204.395 148.833 203.411 148.911C202.371 148.993 201.333 149.1 200.296 149.213C199.502 149.3 198.711 149.42 197.917 149.512C196.964 149.621 196.007 149.696 195.057 149.822C193.662 150.006 192.273 150.228 190.879 150.422C189.37 150.632 187.856 150.806 186.35 151.037C185.049 151.236 183.759 151.504 182.461 151.721C180.755 152.007 179.044 152.265 177.339 152.552C176.715 152.656 176.337 152.301 176.281 151.806C176.23 151.358 176.625 151.194 177.129 151.161C178.454 151.072 179.772 150.881 181.092 150.722C181.177 150.712 181.253 150.626 181.41 150.575Z" fill="#E7EAEE"/>
<path fill-rule="evenodd" clip-rule="evenodd" d="M201.204 166.469C199.55 166.676 197.973 166.878 196.397 167.091C195.726 167.182 195.058 167.356 194.387 167.364C194.169 167.367 193.736 166.919 193.77 166.756C193.839 166.425 194.122 165.931 194.381 165.886C195.486 165.695 196.614 165.646 197.733 165.538C198.742 165.44 199.75 165.328 200.76 165.23C201.878 165.121 202.998 165.017 204.117 164.92C205.371 164.811 206.626 164.705 207.881 164.611C208.74 164.547 209.603 164.522 210.462 164.449C211.472 164.364 212.479 164.235 213.489 164.147C214.298 164.077 215.11 164.06 215.918 163.983C216.751 163.904 217.58 163.781 218.411 163.68C218.512 163.668 218.622 163.654 218.715 163.683C219.036 163.782 219.352 163.899 219.67 164.009C219.39 164.105 219.116 164.253 218.828 164.29C217.127 164.514 215.421 164.706 213.718 164.921C212.585 165.064 211.456 165.244 210.322 165.379C209.282 165.504 208.235 165.575 207.194 165.7C206.647 165.766 206.11 165.927 205.562 165.988C204.395 166.116 203.224 166.202 202.056 166.318C201.795 166.343 201.539 166.417 201.204 166.469Z" fill="#E7EAEE"/>
<path fill-rule="evenodd" clip-rule="evenodd" d="M74.6319 116.668C76.4297 115.02 78.3656 113.674 80.5359 112.682C80.6201 112.644 80.7064 112.55 80.7811 112.56C81.1072 112.605 81.4293 112.679 81.7529 112.742C81.5187 112.902 81.3008 113.097 81.0478 113.216C78.5368 114.406 76.1981 115.85 74.2956 117.919C72.4465 119.929 71.1208 122.186 70.8283 125.002C70.5595 127.592 70.888 130.013 72.3528 132.197C73.1389 133.37 74.2003 134.244 75.49 134.825C75.5924 134.871 75.6889 134.931 75.7882 134.984C75.673 135.007 75.5585 135.035 75.4424 135.053C73.8487 135.301 73.0187 134.125 72.2216 133.124C70.9409 131.514 70.3321 129.609 70.0615 127.536C69.8062 125.58 70.1663 123.762 70.8733 122.019C71.6994 119.983 72.9925 118.22 74.6319 116.668Z" fill="#00160A"/>
<path fill-rule="evenodd" clip-rule="evenodd" d="M174.345 150.122C174.075 149.526 174.467 148.866 175.09 148.872C176.154 148.882 177.218 148.953 178.282 149.007C179.096 149.048 179.909 149.102 180.723 149.15C180.821 149.155 180.944 149.125 181.012 149.171C181.238 149.323 181.445 149.503 181.659 149.672C181.452 149.774 181.252 149.948 181.039 149.964C180.379 150.013 179.709 150.06 179.054 150.001C177.893 149.896 176.797 150.156 175.725 150.484C175.142 150.663 174.774 150.477 174.345 150.122Z" fill="#E7EAEE"/>
<path fill-rule="evenodd" clip-rule="evenodd" d="M20.6495 101.037C20.4978 101.959 20.3298 102.802 20.2002 103.651C20.118 104.189 20.0997 104.736 20.041 105.278C19.9454 106.162 19.7772 107.044 19.7515 107.929C19.6894 110.075 19.7089 112.222 19.6631 114.368C19.619 116.437 20.0178 118.44 20.5002 120.434C20.5939 120.821 20.6223 121.277 20.852 121.566C21.2045 122.009 20.8772 122.224 20.6297 122.292C20.3933 122.357 19.932 122.241 19.8372 122.063C19.5774 121.575 19.4014 121.023 19.2949 120.477C19.0251 119.092 18.6981 117.705 18.6032 116.304C18.4748 114.409 18.5638 112.501 18.5193 110.599C18.4655 108.294 18.8051 106.03 19.1218 103.758C19.6445 100.006 20.3919 96.3081 21.5773 92.7082C21.7204 92.2736 22.0417 91.8539 22.3838 91.5391C22.8016 91.1546 23.4454 91.5061 23.5375 92.0863C23.6464 92.7726 23.3336 93.2981 22.9564 93.8171C21.8208 95.3795 21.2531 97.161 20.9532 99.0434C20.8513 99.6828 20.7507 100.322 20.6495 101.037Z" fill="#E7EAEE"/>
<path fill-rule="evenodd" clip-rule="evenodd" d="M28.3062 117.395C28.2527 117.866 29.1004 118.431 28.1553 118.609C27.8997 118.657 27.3406 118.146 27.223 117.8C26.8668 116.751 26.5221 115.668 26.4263 114.579C26.2941 113.074 26.3932 111.551 26.3932 110.035C26.3932 109.859 26.3932 109.684 26.3932 109.508C26.3932 107.122 26.4041 104.736 26.3859 102.351C26.3811 101.718 26.2331 101.085 26.2516 100.455C26.2652 99.991 26.3614 99.4938 26.5747 99.0831C26.7272 98.7896 27.1211 98.4646 27.4334 98.439C27.648 98.4214 28.0785 98.8736 28.1135 99.1497C28.2051 99.8726 28.1682 100.616 28.1142 101.347C28.0722 101.915 27.8729 102.473 27.8386 103.04C27.7531 104.458 27.7157 105.878 27.67 107.297C27.6108 109.135 27.4434 110.978 27.5461 112.808C27.6309 114.32 28.0405 115.816 28.3062 117.395Z" fill="#E7EAEE"/>
<path fill-rule="evenodd" clip-rule="evenodd" d="M35.5386 114.333C34.1026 112.113 33.0322 109.768 32.3624 107.251C32.2274 106.743 32.3448 106.1 32.5351 105.594C32.6266 105.351 33.2617 105.079 33.4674 105.187C33.7463 105.334 33.9684 105.82 34.0069 106.184C34.1556 107.588 34.2512 108.978 34.7143 110.344C35.277 112.004 36.2422 113.39 37.1769 114.813C37.3715 115.109 37.9535 115.402 37.543 115.778C37.134 116.152 36.7184 115.718 36.41 115.374C36.12 115.051 35.8527 114.706 35.5386 114.333Z" fill="#E7EAEE"/>
<path fill-rule="evenodd" clip-rule="evenodd" d="M42.1299 109.576C41.2662 108.736 40.4014 107.97 39.6281 107.116C39.2259 106.671 39.3013 106.107 39.7847 105.683C40.2668 105.26 40.5684 105.655 40.8461 105.977C41.8968 107.194 42.9328 108.424 43.9697 109.654C44.0284 109.724 44.0907 109.899 44.0758 109.909C43.9063 110.027 43.6872 110.243 43.5481 110.201C43.0732 110.055 42.6251 109.817 42.1299 109.576Z" fill="#E7EAEE"/>
<path fill-rule="evenodd" clip-rule="evenodd" d="M87.6288 211.737C89.5818 212.226 91.4667 212.688 93.3274 213.228C93.6687 213.327 93.9113 213.739 94.1994 214.007C93.7952 214.032 93.3652 214.157 92.9909 214.067C91.0583 213.604 89.1227 213.14 87.2215 212.573C85.3561 212.016 83.5305 211.337 81.6887 210.708C81.6009 210.678 81.5279 210.61 81.4436 210.568C80.9927 210.343 80.5123 210.114 80.8675 209.508C81.1951 208.95 81.7048 208.964 82.2095 209.249C82.9494 209.667 83.6308 210.195 84.4015 210.546C85.4192 211.009 86.4992 211.346 87.6288 211.737Z" fill="#E7EAEE"/>
<path fill-rule="evenodd" clip-rule="evenodd" d="M90.1796 205.986C90.9733 206.444 91.7347 206.852 92.4785 207.291C92.6365 207.384 92.7304 207.59 92.8538 207.744C92.5904 207.849 92.2696 208.109 92.0726 208.034C90.4939 207.432 88.9341 206.777 87.3779 206.116C86.523 205.753 85.678 205.362 84.8448 204.95C84.3786 204.72 83.8473 204.478 84.251 203.764C84.5029 203.318 85.1006 203.208 85.6564 203.511C87.1494 204.327 88.6459 205.136 90.1796 205.986Z" fill="#E7EAEE"/>
<path fill-rule="evenodd" clip-rule="evenodd" d="M85.7905 197.524C85.7597 196.428 86.4622 195.965 87.3744 196.506C88.9255 197.426 90.4369 198.414 91.9523 199.394C92.404 199.686 92.8309 200.024 93.2332 200.382C93.3837 200.516 93.4317 200.766 93.5264 200.963C93.2638 200.958 92.9649 201.034 92.7446 200.935C91.4471 200.349 90.1635 199.731 88.8841 199.106C87.8592 198.605 86.8469 198.078 85.7905 197.524Z" fill="#E7EAEE"/>
<path fill-rule="evenodd" clip-rule="evenodd" d="M91.0485 189.891C92.3813 189.908 93.0877 190.795 93.8488 191.579C94.0675 191.804 94.2446 192.086 94.3758 192.371C94.5059 192.653 94.6819 193.038 94.3204 193.23C94.1575 193.316 93.7973 193.145 93.5796 193.009C92.9546 192.62 92.3657 192.175 91.7435 191.781C91.52 191.639 91.2075 191.626 90.997 191.473C90.6896 191.25 90.4377 190.953 90.1621 190.688C90.4329 190.422 90.7038 190.156 91.0485 189.891Z" fill="#E7EAEE"/>
<path fill-rule="evenodd" clip-rule="evenodd" d="M95.3101 168.244C96.4095 170.525 97.291 172.878 97.585 175.416C97.7427 176.777 97.9231 178.137 98.0308 179.502C98.1286 180.741 98.204 181.989 98.1763 183.23C98.1433 184.716 97.983 186.198 97.8917 187.682C97.8283 188.714 97.818 189.751 97.7305 190.781C97.6073 192.229 97.4103 193.672 97.2908 195.12C97.2004 196.217 97.1401 197.32 97.1424 198.42C97.1451 199.672 97.2352 200.924 97.2822 202.176C97.3359 203.605 97.2153 205.065 97.4741 206.455C97.8614 208.536 98.3925 210.608 99.0819 212.608C100.095 215.549 101.849 218.105 103.784 220.511C104.979 221.998 106.358 223.317 108.3 223.83C108.325 223.836 108.347 224.07 108.297 224.114C107.58 224.741 106.689 224.486 105.934 224.385C104.244 224.159 102.573 223.76 100.914 223.354C96.6971 222.323 92.4862 221.267 88.2823 220.185C86.2342 219.658 84.2085 219.043 82.1687 218.483C81.8686 218.4 81.4817 218.263 81.246 218.379C80.0568 218.962 79.138 218.321 78.2639 217.728C76.348 216.43 75.2614 214.544 74.6979 212.328C73.9205 209.271 74.5454 206.353 75.6735 203.525C76.4173 201.661 77.3045 199.85 78.1953 198.049C79.0995 196.221 80.2343 194.531 81.6101 193.02C82.075 192.51 82.64 192.092 83.145 191.616C83.8378 190.964 83.8741 190.07 83.9312 189.218C83.9973 188.23 83.8476 187.219 83.9893 186.247C84.471 182.945 85.9281 179.98 87.4607 177.076C88.2247 175.629 89.1953 174.254 90.2729 173.022C91.0723 172.107 92.1236 171.368 93.3618 171.017C93.7414 170.909 93.8488 170.822 93.5658 170.349C93.156 169.663 92.5795 168.867 93.3042 167.949C94.1712 167.081 94.797 167.179 95.3101 168.244ZM96.4625 175.131C96.4328 175.16 96.3832 175.186 96.3767 175.22C96.3207 175.51 96.314 175.816 96.2148 176.09C95.7766 177.298 95.4378 178.564 94.8314 179.684C93.6153 181.929 92.0628 183.951 90.2289 185.741C88.63 187.302 87.0081 188.839 85.4225 190.413C84.5186 191.311 83.5886 192.2 82.81 193.201C81.5611 194.808 80.2489 196.408 79.2929 198.189C78.1823 200.257 77.3498 202.488 76.5459 204.702C76.0409 206.093 75.6985 207.568 75.4871 209.035C75.2598 210.61 75.5636 212.182 76.2763 213.619C76.8017 214.678 77.5415 215.555 78.7533 215.937C80.2025 216.394 81.6255 216.933 83.0714 217.401C86.2798 218.439 89.4772 219.518 92.714 220.46C95.1374 221.165 97.6092 221.71 100.072 222.272C101.466 222.591 102.885 222.806 104.296 223.049C104.407 223.068 104.545 222.934 104.671 222.871C104.608 222.782 104.553 222.685 104.48 222.604C103.965 222.033 103.39 221.505 102.938 220.888C101.693 219.19 100.329 217.547 99.322 215.712C97.5343 212.456 96.3362 208.964 96.0675 205.208C95.9848 204.052 95.8683 202.898 95.7672 201.592C95.7672 200.142 95.7087 198.689 95.785 197.243C95.8505 196.003 96.0735 194.772 96.2209 193.536C96.3274 192.644 96.3631 191.737 96.5381 190.859C96.8728 189.179 96.7153 188.501 95.2869 187.543C94.6228 187.098 93.7885 186.669 93.7563 185.736C93.7427 185.341 94.0586 184.873 94.357 184.568C94.4471 184.476 95.0842 184.733 95.2917 184.98C95.762 185.541 96.1174 186.197 96.5287 186.808C96.595 186.907 96.709 186.973 96.801 187.054C96.8606 186.953 96.9633 186.855 96.9728 186.749C97.0368 186.038 97.1247 185.325 97.1204 184.613C97.115 183.698 97.0239 182.784 96.9814 181.869C96.9245 180.643 96.8842 179.416 96.8264 178.19C96.7853 177.317 96.7361 176.445 96.6682 175.573C96.6564 175.421 96.5339 175.278 96.4625 175.131ZM93.3421 172.007C91.7177 172.567 90.6 173.761 89.721 175.14C87.9666 177.894 86.5696 180.839 85.6575 183.978C85.2326 185.44 85.0516 186.977 85.6207 188.479C85.6541 188.567 85.888 188.677 85.9046 188.66C88.0799 186.361 90.265 184.071 92.4019 181.736C94.5825 179.354 95.406 176.513 94.9986 173.328C94.8138 171.883 94.7117 171.846 93.3421 172.007ZM210.142 143.573C210.825 143.647 211.606 144 212.093 144.481C213.324 145.696 214.415 147.053 215.559 148.356C216.261 149.155 216.963 149.953 217.654 150.762C219.108 152.466 220.552 154.18 222.008 155.883C222.461 156.412 222.945 156.913 223.399 157.441C223.529 157.592 223.605 157.79 223.706 157.966C223.563 157.849 223.408 157.744 223.278 157.613C219.838 154.169 216.411 150.71 212.955 147.281C211.824 146.158 210.538 145.208 208.986 144.765C207.35 144.299 205.684 144.14 203.97 144.421C203.106 144.563 202.2 144.417 201.315 144.452C199.345 144.531 197.377 144.661 195.408 144.733C194.254 144.775 193.095 144.708 191.942 144.761C190.708 144.818 189.478 144.958 188.246 145.064C187.113 145.161 185.979 145.252 184.848 145.363C183.951 145.451 183.058 145.574 182.162 145.662C181.023 145.775 179.879 145.843 178.742 145.977C177.779 146.092 176.825 146.281 175.865 146.425C174.797 146.585 173.727 146.724 172.659 146.885C171.016 147.133 169.373 147.389 167.733 147.658C167.673 147.668 167.572 147.905 167.607 147.955C167.91 148.393 168.223 148.827 168.566 149.234C170.278 151.268 172.014 153.282 173.717 155.323C175.647 157.638 177.516 160.005 179.48 162.291C180.858 163.896 182.216 165.55 184.162 166.539C184.224 166.571 184.279 166.616 184.338 166.655C184.267 166.667 184.188 166.705 184.126 166.687C182.938 166.338 181.698 166.195 180.831 165.072C179.229 162.997 177.504 161.019 175.857 158.98C173.818 156.457 171.88 153.847 169.458 151.662C169.261 151.484 169.055 151.3 168.821 151.183C168.302 150.924 167.825 150.837 167.421 151.451C166.615 152.672 165.736 153.845 164.932 155.067C164.395 155.883 164.569 156.282 165.54 156.943C168.096 158.681 170.871 159.919 173.841 160.763C175.078 161.114 176.304 161.559 177.183 162.6C177.245 162.674 177.312 162.744 177.376 162.816C177.272 162.806 177.16 162.817 177.064 162.783C173.065 161.368 169.061 159.967 165.075 158.516C164.42 158.277 163.817 157.855 163.245 157.441C162.88 157.177 162.897 156.781 163.136 156.356C163.955 154.897 164.738 153.418 165.527 151.943C165.581 151.843 165.604 151.611 165.586 151.605C165.385 151.536 165.162 151.436 164.965 151.466C164.137 151.592 163.303 151.711 162.495 151.922C160.671 152.398 158.859 152.924 157.047 153.444C156.941 153.475 156.871 153.633 156.785 153.732C157.243 154.09 157.702 154.449 158.198 154.845C160.119 156.516 162.004 158.148 163.884 159.784C164.892 160.66 165.893 161.544 166.896 162.424C166.938 162.461 166.98 162.495 167.023 162.53C166.928 162.546 166.825 162.594 166.739 162.572C165.52 162.264 164.325 161.953 163.327 161.074C160.944 158.974 158.504 156.94 156.1 154.864C155.606 154.437 155.126 153.978 154.719 153.469C154.209 152.831 154.325 152.391 155.131 152.08C155.767 151.835 156.461 151.722 157.14 151.614C159.164 151.29 161.191 150.988 163.22 150.697C164.111 150.569 165.01 150.495 165.904 150.383C166.064 150.364 166.216 150.284 166.372 150.232C166.294 150.106 166.235 149.964 166.137 149.857C165.354 149.012 164.564 148.173 163.776 147.333C163.706 147.259 163.633 147.189 163.561 147.117C163.673 147.09 163.784 147.054 163.897 147.037C165.975 146.731 168.051 146.422 170.13 146.123C171.494 145.927 172.858 145.724 174.227 145.563C175.628 145.398 177.033 145.265 178.439 145.149C179.696 145.045 180.958 145.001 182.215 144.897C183.021 144.83 183.818 144.671 184.624 144.606C185.631 144.524 186.643 144.511 187.651 144.442C188.91 144.356 190.167 144.23 191.426 144.145C192.485 144.075 193.547 144.056 194.606 143.984C195.46 143.926 196.31 143.8 197.164 143.749C197.998 143.698 198.836 143.704 199.673 143.684C201.838 143.634 204.004 143.572 206.17 143.536C207.495 143.514 208.832 143.432 210.142 143.573ZM84.171 138.461C84.7488 138.521 85.3394 138.443 85.9213 138.477C87.3403 138.561 88.7567 138.692 90.1759 138.771C91.4968 138.845 92.824 138.83 94.1412 138.942C95.4898 139.056 96.2974 139.619 96.2109 141.236C96.1329 142.693 96.1063 144.154 96.0545 145.613C96.0062 146.971 95.9533 148.329 95.9062 149.687C95.8993 149.888 95.9065 150.09 95.9194 150.29C95.9306 150.464 95.9593 150.637 95.9802 150.81C95.9302 150.81 95.8425 150.825 95.8361 150.808C95.7647 150.621 95.6723 150.433 95.6498 150.237C95.5709 149.552 95.5194 148.863 95.4536 148.177C95.3554 147.152 95.2561 146.128 95.1528 145.104C95.1005 144.586 95.041 144.069 94.9801 143.552C94.9423 143.231 94.9057 142.909 94.8488 142.591C94.8245 142.455 94.7498 142.329 94.698 142.198C94.5919 142.259 94.4644 142.298 94.3828 142.383C93.3872 143.417 92.7066 144.624 92.4456 146.059C92.417 146.217 92.322 146.361 92.2578 146.512C92.2048 146.379 92.1611 146.241 92.0973 146.113C90.9345 143.786 89.1028 142.24 86.6014 141.712C85.4581 141.47 84.2241 141.676 83.0312 141.668C82.4308 141.665 82.3314 142.01 82.3836 142.522C82.4973 143.638 82.5828 144.757 82.6895 145.873C82.8345 147.392 82.9905 148.911 83.1381 150.43C83.2416 151.496 83.3261 152.564 83.4474 153.628C83.4815 153.927 83.6177 154.214 83.703 154.507C83.743 154.645 83.7735 154.785 83.8083 154.924C83.6558 154.818 83.4077 154.74 83.3669 154.601C83.161 153.897 83.0099 153.176 82.8382 152.461C82.6388 151.632 82.4379 150.802 82.2376 149.897C82.0374 148.484 81.7618 147.153 81.655 145.809C81.5039 143.908 81.2133 141.987 81.6365 140.095C81.8761 139.024 83.0983 138.349 84.171 138.461ZM80.0979 142.194C80.4104 142.305 80.6462 142.638 80.9154 142.874C80.7296 143.09 80.575 143.349 80.3516 143.513C79.8623 143.87 79.2792 144.113 78.84 144.519C77.797 145.485 78.2904 147.405 79.373 147.912C79.8724 148.146 80.3711 148.384 80.8533 148.652C81.0278 148.748 81.1534 148.935 81.3012 149.081C81.1213 149.086 80.9413 149.091 80.7614 149.096C79.6059 149.126 78.7392 148.592 78.0917 147.662C77.1163 146.262 77.6341 144.894 78.7826 143.798C78.8908 143.695 78.9888 143.581 79.0994 143.481C79.2419 143.351 79.3923 143.231 79.5393 143.107C79.2535 143.07 78.9383 142.937 78.6872 143.015C77.7496 143.306 77.2175 144.089 76.9328 144.946C75.9551 147.89 78.2661 150.274 80.888 149.968C81.1649 149.935 81.464 150.098 81.7528 150.17C81.6833 150.214 81.6191 150.274 81.5436 150.298C79.3484 151.014 77.4782 150.203 76.4177 148.082C76.3446 147.936 76.2444 147.803 76.1569 147.589C75.6496 144.989 76.7331 143.049 79.1107 142.274C79.4222 142.172 79.8108 142.093 80.0979 142.194ZM82.771 139.243C82.3057 139.35 82.1422 139.852 82.3886 140.298C82.7256 140.909 83.2453 140.932 83.8719 140.87C84.8605 140.772 85.8677 140.696 86.8529 140.78C88.1022 140.887 89.3315 141.228 90.5806 141.346C91.621 141.444 92.6776 141.366 93.802 141.29C94.2414 141.264 94.6805 141.231 95.1202 141.215C95.6487 141.196 95.9507 140.773 95.6661 140.32C95.4913 140.042 95.1311 139.753 94.8243 139.715C93.5402 139.555 92.2461 139.461 90.953 139.395C90.0389 139.348 89.1188 139.422 88.2045 139.377C86.8202 139.308 85.4396 139.164 84.0553 139.092C83.63 139.07 83.1899 139.147 82.771 139.243ZM151.282 133.744C152.811 133.775 154.336 134.022 155.862 134.18C155.976 134.192 156.099 134.228 156.194 134.29C156.393 134.42 156.576 134.575 156.766 134.72C156.524 134.744 156.282 134.774 156.039 134.79C154.516 134.895 152.994 135.006 151.471 135.089C151.218 135.103 150.956 134.941 150.702 134.954C149.129 135.038 147.557 135.163 145.983 135.242C145.629 135.26 145.266 135.091 144.911 135.109C143.388 135.187 141.867 135.314 140.344 135.396C140.065 135.411 139.777 135.247 139.499 135.262C137.925 135.345 136.354 135.469 134.78 135.549C134.451 135.566 134.113 135.399 133.784 135.416C132.26 135.496 130.739 135.622 129.216 135.703C128.912 135.719 128.599 135.553 128.296 135.569C126.722 135.651 125.15 135.774 123.576 135.857C123.298 135.872 123.01 135.708 122.732 135.722C121.158 135.805 119.586 135.927 118.013 136.011C117.759 136.025 117.497 135.862 117.244 135.876C115.67 135.96 114.098 136.085 112.525 136.164C112.17 136.181 111.807 136.012 111.453 136.03C109.929 136.109 108.408 136.235 106.885 136.318C106.607 136.333 106.319 136.168 106.041 136.183C104.467 136.266 102.895 136.39 101.321 136.471C101.018 136.487 100.705 136.321 100.401 136.337C98.8524 136.418 97.306 136.543 95.7574 136.625C95.4538 136.641 95.1409 136.475 94.8372 136.49C93.2634 136.572 91.6917 136.697 90.1179 136.778C89.8142 136.794 89.5013 136.628 89.1977 136.644C87.6743 136.725 86.1531 136.85 84.6298 136.932C84.3514 136.947 84.0637 136.783 83.7853 136.797C82.2115 136.88 80.6397 137.001 79.066 137.086C78.838 137.099 78.6004 136.937 78.3729 136.951C77.075 137.03 75.7796 137.152 74.4817 137.233C73.5983 137.288 72.7092 137.264 71.8281 137.341C70.5694 137.45 69.3078 137.57 68.0621 137.777C67.0876 137.939 66.1433 138.29 65.1682 138.445C64.8935 138.488 64.4886 138.19 64.2822 137.934C64.1949 137.826 64.3915 137.327 64.5872 137.166C65.3895 136.506 66.3548 136.394 67.4296 136.481C68.0985 136.43 68.692 136.382 69.2848 136.327C70.3619 136.227 71.4368 136.091 72.5159 136.028C73.9398 135.945 75.3672 135.87 76.7926 135.877C79.1858 135.889 81.5786 136.002 83.9718 136.009C85.7505 136.014 87.5297 135.921 89.3085 135.866C90.81 135.819 92.3113 135.763 93.8127 135.713C95.3898 135.661 96.9669 135.612 98.544 135.559C100.045 135.509 101.548 135.473 103.048 135.402C104.832 135.317 106.614 135.189 108.398 135.109C108.778 135.092 109.165 135.257 109.546 135.243C111.809 135.159 114.071 135.045 116.334 134.948C116.746 134.93 117.16 134.968 117.57 134.941C118.917 134.85 120.261 134.727 121.608 134.648C121.912 134.63 122.225 134.799 122.529 134.781C123.901 134.702 125.27 134.576 126.643 134.494C126.895 134.479 127.159 134.644 127.411 134.628C128.758 134.546 130.102 134.42 131.449 134.341C131.753 134.323 132.066 134.492 132.37 134.474C133.742 134.395 135.111 134.267 136.483 134.187C136.787 134.17 137.1 134.339 137.404 134.32C138.725 134.242 140.044 134.111 141.366 134.034C141.694 134.015 142.034 134.186 142.362 134.167C143.684 134.09 145.003 133.963 146.324 133.879C146.552 133.865 146.79 134.028 147.018 134.014C148.44 133.93 149.863 133.716 151.282 133.744ZM151.256 58.4744C154.589 58.7827 157.73 59.8508 160.621 61.5009C162.32 62.4707 163.9 63.6701 165.447 64.8758C167.847 66.7461 169.733 69.0894 171.36 71.6446C172.575 73.5502 173.636 75.5404 174.266 77.7073C174.84 79.6774 175.352 81.6802 175.672 83.7029C175.903 85.1638 175.766 86.6813 175.809 88.1731C175.853 89.6978 175.693 91.2015 175.531 92.7182C175.135 96.4203 174.44 100.047 173.4 103.624C172.949 105.177 173.274 106.783 173.57 108.355C173.829 109.732 174.307 111.018 175.04 112.215C175.129 112.359 175.121 112.561 175.159 112.737C174.971 112.724 174.773 112.746 174.597 112.695C173.326 112.323 172.914 111.287 172.61 110.152C172.393 109.338 172.196 108.507 171.864 107.737C171.485 106.857 171.337 106.94 170.504 107.355C168.788 108.209 167.043 109.021 165.262 109.729C162.85 110.689 160.313 111.186 157.746 111.588C156.353 111.806 154.946 112.231 153.897 113.248C153.41 113.721 153.032 114.392 152.824 115.043C152.563 115.857 152.504 116.716 152.988 117.56C153.276 118.06 153.577 118.144 154.055 118.013C156.373 117.376 158.675 116.668 161.015 116.124C162.813 115.706 164.666 115.531 166.481 115.183C168.365 114.822 170.262 114.733 172.171 114.742C172.315 114.742 172.458 114.78 172.601 114.8C172.471 114.83 172.342 114.863 172.211 114.89C170.437 115.253 168.662 115.609 166.889 115.979C165.283 116.315 163.681 116.671 162.075 117.007C160.28 117.384 158.478 117.73 156.687 118.125C155.813 118.317 154.939 118.54 154.097 118.837C152.921 119.251 152.552 119.981 152.487 121.314C152.414 122.814 152.673 124.219 153.034 125.611C153.682 128.111 154.793 130.39 156.589 132.318C158.099 133.938 159.801 135.25 161.965 135.809C163.132 136.111 164.352 136.301 165.555 136.346C167.056 136.403 168.515 136.122 169.938 135.524C171.721 134.775 173.099 133.596 174.121 132.02C175.244 130.288 175.982 128.373 176.249 126.322C176.47 124.62 176.7 122.9 176.687 121.19C176.668 118.724 176.157 116.318 175.203 114.022C175.144 113.879 174.912 113.678 175.367 113.665C176.57 113.63 177.764 114.726 177.78 115.976C177.794 117.119 177.832 118.266 177.772 119.406C177.662 121.472 179.87 124.174 181.689 124.64C182.086 124.741 182.122 124.601 182.025 124.395C180.916 122.049 181.597 119.755 182.255 117.488C183.527 113.111 185.271 108.905 187.016 104.699C188.723 100.586 190.363 96.4449 192.02 92.3115C193.426 88.8055 194.81 85.2905 196.215 81.7841C197.567 78.4077 198.935 75.0372 200.297 71.6647C200.341 71.5567 200.413 71.4599 200.455 71.3516C200.536 71.1463 200.606 70.9366 200.68 70.7287C200.468 70.8719 200.206 70.9746 200.052 71.1644C198.231 73.41 196.536 75.7681 194.588 77.8967C192.506 80.1717 190.245 82.2952 187.955 84.3675C186.319 85.8479 184.508 87.1362 182.771 88.5057C182.609 88.6339 182.421 88.7303 182.245 88.8415C182.262 88.6367 182.299 88.4312 182.292 88.2271C182.239 86.6619 183.693 86.5211 184.567 85.8375C185.884 84.8083 187.252 83.8409 188.525 82.761C190.896 80.7488 192.784 78.293 194.707 75.8736C195.226 75.2196 195.783 74.5946 196.361 73.9184C198.046 72.0885 199.633 70.2349 201.36 68.5229C202.875 67.0216 204.559 65.7091 206.686 65.0913C207.635 64.8158 209.358 65.448 209.996 66.4478C210.662 67.4909 210.927 68.6349 210.924 69.8786C210.917 72.4602 210.391 74.9613 209.845 77.4616C209.25 80.1897 208.672 82.9227 208.009 85.6346C207.62 87.2254 207.162 88.8102 206.589 90.3436C205.226 93.9911 203.843 97.6341 202.336 101.224C201.478 103.267 200.418 105.233 199.34 107.173C198.742 108.249 197.859 109.069 196.438 109.004C195.856 108.978 195.482 109.655 195.402 110.482C195.285 111.683 195.186 112.896 194.938 114.074C194.436 116.46 193.366 118.629 192.083 120.684C191.114 122.237 190.037 123.723 189.036 125.257C188.343 126.319 187.426 127.177 186.169 127.243C185.381 127.285 184.562 126.786 183.764 126.512C183.634 126.467 183.519 126.346 183.424 126.238C183.032 125.789 182.731 125.128 182.243 124.938C181.786 124.76 181.121 125.208 180.571 125.152C179.631 125.058 178.845 124.57 178.271 123.785C178.159 123.632 178.031 123.276 177.909 123.862C177.578 125.45 177.159 127.023 176.711 128.584C175.896 131.429 174.387 133.875 172.08 135.738C170.65 136.892 169.002 137.657 167.072 137.763C165.115 137.87 163.36 137.339 161.609 136.561C159.129 135.46 156.951 133.958 154.915 132.176C151.995 129.62 149.782 126.558 148.262 123.043C147.412 121.077 146.913 118.954 146.338 116.879C145.757 114.788 145.028 112.782 143.828 110.949C142.741 109.287 141.948 107.47 141.647 105.503C141.547 104.848 141.77 104.119 141.949 103.45C142.305 102.121 142.501 100.778 142.2 99.4321C142.05 98.7612 141.64 98.1524 141.402 97.4959C140.448 94.8621 139.444 92.243 138.599 89.5745C138.016 87.7343 137.613 85.8322 137.225 83.9383C136.977 82.7256 136.9 81.4779 136.752 80.2451C136.645 79.3457 136.514 78.4473 136.456 77.5445C136.372 76.2474 136.39 74.943 136.284 73.6482C136.148 71.9781 136.396 70.3242 136.807 68.7545C137.209 67.2192 137.994 65.7637 138.746 64.3443C139.618 62.6998 140.811 61.2879 142.426 60.2883C143.868 59.3955 145.407 58.7322 147.117 58.6067C148.494 58.5057 149.892 58.3482 151.256 58.4744ZM140.283 98.7744C140.188 98.9323 140.13 99.1594 139.99 99.2368C139.17 99.6899 138.35 100.15 137.495 100.528C136.044 101.17 134.567 101.753 133.025 102.36C130.615 103.433 128.233 104.414 125.961 105.605C123.697 106.791 121.593 108.247 119.628 109.912C116.752 112.351 114.432 115.212 112.933 118.666C112.32 120.077 111.9 121.624 111.696 123.149C111.425 125.168 111.458 127.227 111.349 129.267C111.257 130.98 111.156 132.693 111.044 134.404C111.002 135.05 110.5 134.571 110.236 134.688C110.215 134.698 109.996 134.438 110.01 134.319C110.136 133.18 110.364 132.048 110.424 130.908C110.498 129.469 110.43 128.024 110.444 126.582C110.471 123.819 110.997 121.166 112.147 118.638C113.217 116.283 114.661 114.197 116.375 112.267C118.961 109.354 122.058 107.124 125.433 105.246C128.627 103.469 131.937 101.952 135.363 100.68C136.85 100.129 138.297 99.4716 139.766 98.8719C139.925 98.807 140.11 98.8054 140.283 98.7744ZM180.821 132.215C182.134 132.4 183.44 132.629 184.752 132.826C185.552 132.946 186.353 133.096 187.158 133.131C188.337 133.183 189.521 133.125 190.702 133.151C191.568 133.171 192.432 133.244 193.297 133.305C193.909 133.347 194.52 133.444 195.132 133.454C196.55 133.476 197.967 133.476 199.385 133.458C202.705 133.415 206.025 133.321 209.345 133.326C210.193 133.328 211.041 133.619 211.89 133.776C211.939 133.785 212.011 133.754 212.038 133.78C212.232 133.965 212.418 134.16 212.606 134.352C212.36 134.371 212.115 134.406 211.869 134.406C210.19 134.411 208.51 134.423 206.832 134.402C206.169 134.393 205.507 134.274 204.844 134.256C202.41 134.19 199.976 134.141 197.542 134.095C196.673 134.079 195.803 134.093 194.858 134.093C193.77 134.093 192.757 134.112 191.745 134.088C190.196 134.053 188.648 133.962 187.1 133.941C185.142 133.915 183.184 133.972 181.227 133.918C180.311 133.893 179.396 133.716 178.488 133.562C177.98 133.477 177.861 133.006 178.03 132.623C178.146 132.36 178.535 132.082 178.815 132.068C179.48 132.034 180.156 132.122 180.821 132.215ZM141.965 100.516C141.911 100.546 141.841 100.563 141.806 100.608C140.701 102.004 139.471 103.323 138.527 104.822C137.26 106.835 136.213 108.991 135.586 111.308C135.248 112.561 135.003 113.839 134.709 115.104C134.516 115.934 134.078 116.619 133.361 117.079C132.409 117.689 131.401 118.214 130.463 118.844C128.127 120.412 126.648 122.633 125.786 125.268C125.303 126.742 124.999 128.251 125.278 129.83C125.448 130.79 125.519 131.768 125.625 132.738C125.642 132.893 125.61 133.052 125.6 133.21C125.395 133.191 125.092 133.25 125.004 133.139C124.764 132.835 124.503 132.476 124.448 132.11C124.284 131.015 124.22 129.906 124.106 128.804C124.082 128.574 124.013 128.349 123.965 128.122C123.76 128.349 123.527 128.556 123.357 128.806C122.223 130.476 121.107 132.159 119.971 133.828C119.887 133.95 119.693 133.996 119.55 134.078C119.513 133.823 119.363 133.509 119.46 133.323C119.819 132.635 120.213 131.953 120.68 131.335C121.775 129.887 123.016 128.541 124.01 127.031C124.666 126.035 125.021 124.836 125.465 123.71C125.92 122.558 126.639 121.614 127.568 120.812C128.74 119.8 129.907 118.781 131.113 117.728C131.933 116.859 132.811 116.096 133.474 115.179C134.35 113.97 134.661 112.496 135.015 111.061C135.764 108.025 137.098 105.272 139.068 102.835C139.558 102.228 140.023 101.59 140.583 101.052C140.886 100.76 141.362 100.644 141.766 100.46C141.814 100.439 141.898 100.496 141.965 100.516ZM32.3162 73.6024C33.1639 73.8217 33.2865 74.5587 32.638 75.1214C31.1656 76.3993 30.4649 78.0307 30.357 79.9253C30.2974 80.9718 30.3954 82.0271 30.3373 83.0738C30.1458 86.5242 31.1534 89.7002 32.6455 92.7298C34.072 95.6263 36.1491 98.0117 39.1295 99.4052C40.8397 100.205 42.6685 100.766 44.4695 101.357C46.0338 101.871 47.6367 102.268 49.2178 102.733C50.7688 103.189 52.2966 103.602 53.94 103.054C54.7831 102.773 55.4156 103.527 55.0928 104.344C53.8719 107.434 52.8317 110.641 50.6872 113.246C49.4008 114.809 47.9125 116.255 46.3205 117.51C43.9832 119.352 41.2956 120.666 38.6111 121.959C35.9927 123.221 33.4333 124.605 30.8034 125.842C27.8406 127.235 24.8381 128.546 21.8337 129.849C19.4098 130.9 16.9628 131.9 14.5134 132.891C13.9278 133.128 13.3004 133.294 12.6762 133.398C12.0508 133.501 10.6768 132.521 10.4313 131.873C9.80844 130.228 9.38503 128.536 9.21017 126.783C9.10376 125.716 8.96052 124.653 8.79582 123.588C8.75781 123.513 8.75781 123.437 8.79582 123.324C8.85917 121.865 8.88574 120.443 8.90338 119.022C8.90387 118.983 8.80849 118.942 8.75781 118.903V118.336C8.78315 118.298 8.83069 118.298 8.83069 118.298C8.87857 116.982 8.91928 115.666 8.97037 114.351C8.98687 113.926 9.03495 113.502 9.06119 113.077C9.27909 109.55 9.69818 106.045 10.6009 102.625C11.3212 99.8964 12.2724 97.2421 13.4284 94.6495C14.7471 91.6921 16.3504 88.9112 18.1977 86.2669C19.1389 84.9198 20.1668 83.6215 21.2606 82.3936C22.5766 80.9162 23.9287 79.4534 25.4035 78.1376C27.0872 76.6353 28.8966 75.2662 30.7136 73.9225C31.1182 73.6233 31.8334 73.4774 32.3162 73.6024ZM30.1067 75.6756C30.0213 75.7139 29.9248 75.7377 29.8522 75.7927C27.5677 77.5244 25.2969 79.2736 23.4051 81.4464C22.2299 82.7962 21.0286 84.1271 19.9191 85.5291C17.2225 88.9365 15.1357 92.6918 13.5468 96.8357C13.4929 96.9901 13.4303 97.1421 13.3863 97.2992C12.7036 99.7384 11.9812 102.168 11.3616 104.623C11.0868 105.712 11.0079 106.852 10.8637 107.971C10.705 109.203 10.5283 110.436 10.4442 111.674C10.375 112.694 10.4683 113.724 10.4197 114.746C10.3594 116.016 10.1838 117.282 10.1412 118.552C10.1125 119.41 10.251 120.272 10.2721 121.133C10.2976 122.174 10.2587 123.216 10.2842 124.257C10.3051 125.11 10.3256 125.97 10.4439 126.813C10.5889 127.846 10.847 128.862 11.0356 129.89C11.3078 131.373 11.9172 131.947 13.3696 132.052C14.3875 132.126 15.1612 131.524 15.3037 130.571C15.321 130.455 15.5035 130.253 15.5272 130.264C16.8105 130.867 17.9244 130.26 19.0491 129.783C21.4388 128.769 23.8392 127.777 26.205 126.71C29.725 125.123 33.2305 123.502 36.7187 121.847C38.3508 121.073 39.9535 120.228 41.5245 119.338C44.5905 117.599 47.3932 115.537 49.6632 112.795C51.4224 110.669 52.5099 108.253 53.1401 105.61C53.2598 105.108 53.0835 104.672 52.4833 104.543C50.8561 104.194 49.2328 103.826 47.6031 103.489C44.2908 102.803 41.0891 101.848 38.1123 100.176C34.2901 98.0287 31.8417 94.7862 30.3713 90.7807C29.6737 88.8806 29.1135 86.9114 29.1279 84.8422C29.1388 83.2887 29.002 81.7213 29.1676 80.1853C29.3206 78.7657 29.7898 77.38 30.114 75.9781C30.136 75.8828 30.1102 75.7766 30.1067 75.6756ZM93.8403 98.1285C94.7462 98.7507 95.6423 99.3885 96.5201 100.05C96.758 100.229 96.7766 100.407 96.8846 99.9383C97.0533 99.2053 98.0962 99.0006 98.7209 99.5216C100.153 100.716 100.876 102.322 101.4 104.069C101.855 105.584 101.675 107.124 101.719 108.655C101.747 109.637 102.667 110.378 103.633 110.418C104.347 110.447 105.098 110.76 105.741 111.115C107.295 111.972 108.295 113.325 108.786 115.029C109.315 116.864 108.822 118.497 107.759 120.022C106.792 121.409 105.911 122.861 104.507 123.878C103.73 124.441 102.835 124.907 102.228 125.618C101.575 126.381 100.825 126.878 99.936 127.221C97.746 128.066 95.353 126.97 94.2806 125.144C93.3143 123.499 90.9878 123.86 90.0862 125.194C89.693 125.775 89.585 126.544 89.291 127.202C89.1107 127.606 89.2856 127.544 89.5559 127.504C90.8943 127.305 92.234 127.115 93.5739 126.926C93.6426 126.916 93.7165 126.943 93.788 126.952C93.7349 126.993 93.6858 127.041 93.6282 127.073C92.2995 127.824 90.8614 128.248 89.3575 128.428C88.2181 128.564 87.0533 128.781 85.9301 128.666C85.0449 128.575 84.1443 128.136 83.3624 127.665C82.4404 127.11 82.1635 126.167 82.1813 125.065C82.216 122.926 83.0365 121.121 84.3912 119.557C84.7814 119.106 85.4704 118.917 86.0187 118.601C86.227 118.481 86.5305 118.466 86.162 118.079C84.5532 116.389 83.1242 114.558 82.1465 112.416C81.9921 112.077 81.8329 111.728 81.7655 111.368C81.724 111.146 81.7858 110.83 81.9295 110.677C82.0198 110.581 82.3795 110.65 82.5614 110.749C82.834 110.898 83.0501 111.147 83.3018 111.339C83.7309 111.665 83.9691 111.526 83.8529 111.017C83.5225 109.572 83.8261 108.2 84.3346 106.873C84.6088 106.158 85.0549 105.506 85.469 104.854C85.5083 104.792 85.9066 104.886 86.0799 104.998C86.4014 105.205 86.6797 105.48 86.976 105.727C86.9959 105.332 87.0022 104.936 87.0409 104.542C87.0639 104.309 87.1214 104.075 87.1922 103.85C87.5472 102.724 87.7376 102.667 88.6773 103.373C88.8033 103.468 88.9541 103.53 89.0935 103.607L89.1341 103.32C89.1404 103.272 89.1459 103.225 89.1499 103.177C89.2536 101.939 89.0059 100.817 88.1014 99.8981C88.0907 99.8872 88.287 99.5643 88.3999 99.5554C89.7027 99.453 91.0059 99.399 92.1977 100.095C92.4413 100.237 92.6844 100.381 92.9655 100.561C93.0788 100.458 93.2055 100.323 93.2211 100.176C93.2915 99.5096 93.3235 98.8391 93.4005 98.1738C93.4047 98.138 93.7429 98.0615 93.8403 98.1285ZM85.1598 119.674C85.1305 119.729 85.1117 119.794 85.0703 119.838C83.5879 121.403 82.8966 123.262 82.9514 125.417C82.9812 126.588 83.6052 127.45 84.7761 127.664C85.5202 127.799 86.2921 127.793 87.0526 127.814C87.1445 127.816 87.2944 127.602 87.3295 127.465C87.5536 126.595 87.5377 125.624 88.471 124.956C88.7314 124.856 88.9921 124.755 89.2521 124.653C89.3702 124.607 89.5797 124.565 89.5848 124.506C89.5957 124.382 89.5363 124.19 89.4407 124.13C89.1855 123.973 88.9059 123.798 88.6183 123.758C87.2922 123.574 86.3514 122.875 85.8116 121.672C85.555 121.1 85.4154 120.475 85.2229 119.875C85.2015 119.808 85.1808 119.741 85.1598 119.674ZM88.6976 125.486C88.5969 125.867 88.4816 126.246 88.4098 126.632C88.3978 126.697 88.6011 126.883 88.6602 126.865C88.901 126.792 88.9783 125.635 88.6976 125.486ZM94.1951 98.9518C94.2763 99.2296 94.3909 99.5025 94.4317 99.7861C94.5243 100.43 94.4689 101.045 93.8367 101.424C93.3315 101.727 92.9533 101.363 92.6096 101.097C91.8296 100.493 90.9078 100.415 89.9919 100.3C89.4919 100.237 89.4689 100.443 89.6324 100.873C89.8728 101.506 90.172 102.179 90.1532 102.826C90.1415 103.232 89.6224 103.651 89.2764 104.012C88.9537 104.348 88.6444 104.189 88.389 103.857C88.3499 103.806 88.2237 103.822 88.1377 103.807C88.1437 103.944 88.1259 104.087 88.1595 104.216C88.3598 104.985 88.0728 105.728 87.2665 106.17C86.7083 106.476 86.3149 106.009 85.9757 105.648C85.7204 105.376 85.6971 105.541 85.5889 105.748C84.6467 107.551 84.5388 109.436 85.0388 111.374C85.1632 111.856 84.9417 112.095 84.5441 112.077C84.0809 112.056 83.6266 111.874 83.1645 111.781C82.9506 111.738 82.7273 111.741 82.5083 111.724C82.5678 111.934 82.5952 112.161 82.6918 112.354C83.4912 113.944 84.519 115.383 85.8529 116.552C86.6399 117.241 87.1228 117.846 87.0992 119.036C87.0685 120.59 87.8955 121.861 89.3299 122.706C90.4725 123.379 91.6874 123.238 92.8928 123.28C93.5096 123.301 93.9582 123.514 94.3252 124.003L94.4711 124.199C95.2237 125.208 95.9682 126.214 97.3156 126.567C98.8347 126.965 100.223 126.806 101.395 125.735C101.639 125.512 101.641 124.979 101.652 124.586C101.654 124.515 101.159 124.389 100.886 124.358C99.7952 124.237 98.6984 124.513 97.5968 124.215C96.0405 123.794 94.6106 123.174 93.4315 122.051C93.2092 121.84 93.022 121.591 92.8187 121.359C93.1772 121.444 93.5365 121.525 93.8938 121.615C93.9831 121.637 94.0851 121.663 94.1494 121.723C95.8168 123.259 97.7734 123.928 100.035 123.75C102.33 123.569 103.513 122.364 103.631 120.35C103.753 118.269 103.352 116.255 102.394 114.369C102.256 114.096 102.257 113.717 102.291 113.398C102.42 112.157 102.732 110.905 101.4 110.023C101.176 109.874 101.114 109.378 101.099 109.037C101.054 108.026 100.735 107.649 99.7486 107.558C99.1467 107.502 98.8095 107.141 98.6721 106.576C98.6322 106.413 98.6341 106.239 98.6169 106.069C98.4567 106.214 98.2535 106.331 98.1436 106.507C97.5852 107.401 96.7528 107.953 95.8773 108.488C95.4338 108.759 95.2906 108.728 95.1807 108.226C95.129 107.99 94.9373 107.785 94.8089 107.566C94.6855 107.741 94.5574 107.914 94.4396 108.093C94.284 108.33 94.1742 108.61 93.9784 108.805C93.2798 109.5 92.5739 110.192 91.8207 110.825C91.6568 110.963 91.1647 110.965 91.04 110.83C90.8756 110.652 90.8976 110.277 90.8898 109.985C90.882 109.695 90.9536 109.403 90.9552 109.111C90.9558 108.997 90.8658 108.791 90.8076 108.788C90.6827 108.78 90.49 108.841 90.433 108.938L90.1368 109.437C89.8407 109.937 89.5499 110.44 89.3117 110.967C88.6735 112.378 88.412 113.877 88.3768 115.426C88.3719 115.644 88.1392 115.879 87.9642 116.059C87.9044 116.121 87.5954 116.075 87.5766 116.019C87.4947 115.774 87.4309 115.505 87.4481 115.251C87.4753 114.848 87.5796 114.45 87.6389 114.048C87.9969 111.623 89.0469 109.56 90.8593 107.901C90.9257 107.84 91.1576 107.835 91.1616 107.849C91.3262 108.411 91.4799 108.977 91.6184 109.547C91.6497 109.675 91.6208 109.819 91.6197 109.955C91.7412 109.9 91.8771 109.864 91.9821 109.786C93.1283 108.938 94.0457 107.893 94.7035 106.62C94.862 106.313 95.0838 106.039 95.2765 105.75L95.6147 106.366C95.7269 106.571 95.8375 106.778 95.9434 106.986C95.9841 107.067 95.9198 107.199 95.9589 107.281C95.988 107.342 96.1574 107.411 96.1766 107.392C96.7622 106.787 97.3248 106.159 97.9193 105.564C98.1472 105.336 98.5766 104.96 98.6853 105.026C99.0388 105.243 99.2985 105.623 99.566 105.963C99.6273 106.04 99.5286 106.237 99.5852 106.327C99.6886 106.493 99.9096 106.766 99.9825 106.738C100.35 106.596 100.719 106.41 101.016 106.155C101.135 106.053 101.068 105.735 101.01 105.44C100.705 103.512 99.9438 101.806 98.5537 100.409C98.4662 100.321 98.3759 100.236 98.2869 100.149C98.2631 100.265 98.2394 100.382 98.2154 100.498C98.0828 101.138 97.3938 101.524 96.8965 101.136C96.2692 100.647 95.7715 99.9944 95.1719 99.4646C94.9041 99.2281 94.5242 99.1188 94.1951 98.9518ZM147.301 114.751C147.247 114.805 147.156 114.852 147.146 114.913C147.111 115.129 147.058 115.358 147.092 115.569C147.279 116.723 147.514 117.871 147.688 119.027C147.99 121.045 148.495 123.003 149.537 124.769C149.906 125.395 150.506 125.887 151.01 126.433C151.067 126.495 151.179 126.507 151.265 126.542C151.261 126.488 151.263 126.434 151.253 126.381C151.131 125.751 151.083 125.094 150.869 124.496C150.359 123.07 149.77 121.672 149.137 120.187C148.757 119.158 148.355 118.137 148.004 117.098C147.763 116.384 147.592 115.645 147.387 114.918C147.371 114.859 147.33 114.807 147.301 114.751ZM187.955 111.363C187.952 111.432 187.808 111.489 187.741 111.562C187.559 111.762 187.346 111.946 187.21 112.174C185.714 114.685 184.927 117.45 184.319 120.276C184.157 121.026 184.013 121.78 183.861 122.684C183.811 123.116 183.709 123.551 183.723 123.981C183.739 124.482 183.734 125.042 183.955 125.465C184.572 126.65 186.229 126.617 187.246 125.992C188.186 125.415 188.638 124.483 189.148 123.604C190.016 122.105 190.741 120.522 191.643 119.046C192.87 117.037 194.08 115.036 194.634 112.717C194.8 112.019 194.444 111.544 193.7 111.565C191.947 111.616 190.243 111.27 188.537 110.95C187.964 110.843 187.977 110.813 187.955 111.363ZM103.18 111.048C102.877 112.353 103.071 113.598 103.447 114.829C103.994 116.622 104.59 118.402 104.407 120.319C104.279 121.66 103.677 122.719 102.524 123.459C102.347 123.573 102.268 123.839 102.143 124.034C102.377 124.083 102.612 124.173 102.843 124.164C102.985 124.159 103.139 124.021 103.258 123.91C104.11 123.118 105.066 122.404 105.771 121.495C106.48 120.582 106.938 119.474 107.582 118.375C107.73 117.673 107.904 116.975 108.019 116.267C108.278 114.679 107.483 113.151 106.034 112.612C105.086 112.258 104.047 112.127 103.644 110.975C103.578 110.787 103.333 110.391 103.18 111.048ZM57.2907 76.6042C59.1423 76.8241 61.007 77.1673 62.7835 77.7236C64.6875 78.3197 66.3557 79.4542 67.7058 80.9487C69.5464 82.9861 70.7472 85.354 71.2808 88.0735C71.5068 89.225 71.5778 90.3682 71.556 91.5256C71.5422 92.2603 71.4665 92.994 71.4109 93.7276C71.2922 95.2963 71.6859 96.7889 72.0752 98.2836C72.4739 99.8147 72.3287 101.349 72.1883 102.904C71.9807 105.201 71.1166 107.28 70.179 109.324C69.5753 110.64 68.7581 111.861 67.9965 113.1C67.3521 114.148 66.6501 115.161 65.9358 116.227C64.9724 117.743 64.0321 119.213 63.1279 120.705C62.7293 121.362 62.405 122.065 62.0451 122.746C62.0011 122.829 61.9572 122.917 61.8927 122.983C61.6693 123.212 61.4369 123.432 61.2079 123.655C61.1862 123.329 61.0575 122.964 61.1599 122.684C61.9793 120.438 63.242 118.434 64.6113 116.489C66.2692 114.134 68.0307 111.842 69.2063 109.183C69.9786 107.437 70.5881 105.64 70.8032 103.732C70.9279 102.627 71.0677 101.518 71.0931 100.409C71.1184 99.307 71.0105 98.2021 70.9542 97.0989C70.9514 97.0442 70.8561 96.944 70.8509 96.947C70.7276 97.0174 70.5857 97.078 70.4969 97.1825C70.0252 97.7382 69.575 98.3121 69.1027 98.8672C67.9027 100.278 66.4414 101.227 64.5972 101.638C62.7756 102.043 61.2441 101.513 59.9498 100.326C58.3097 98.8215 58.3344 96.9814 59.4628 95.2396C60.4951 93.6462 61.991 92.8012 63.915 92.5307C65.7961 92.2661 67.5038 92.7887 69.2116 93.346C69.8425 93.5519 70.2311 93.7732 70.2611 92.8805C70.2951 91.8697 70.2326 90.8455 70.3771 89.8511C70.5629 88.5727 70.1172 87.4565 69.7567 86.2959C69.0434 83.9994 67.6653 82.2019 65.8214 80.6813C64.4069 79.5147 62.8199 78.7128 61.0894 78.2427C59.3029 77.7574 57.4899 77.5351 55.5895 77.7279C52.5105 78.0402 49.8352 79.2187 47.4043 81.0211C45.6823 82.2979 44.3422 83.9511 43.1546 85.73C42.9777 85.995 42.6854 86.183 42.4475 86.4078C42.1503 86.6886 41.7539 86.7695 41.5417 86.4411C41.3805 86.1918 41.322 85.6601 41.4796 85.4572L41.846 84.9847C42.5803 84.0385 43.3292 83.0934 44.2015 82.2882C45.2701 81.302 46.4948 80.4718 47.7081 79.6581C49.736 78.2978 51.9581 77.3826 54.3873 77.0108C55.3573 76.8624 56.3523 76.4928 57.2907 76.6042ZM86.4666 120.761C86.4549 120.857 86.4235 120.955 86.4345 121.048C86.5373 121.916 87.1055 122.49 87.7487 122.971C87.964 123.132 88.3409 123.076 88.644 123.119C88.4842 122.873 88.3346 122.619 88.1607 122.383C88.0573 122.243 87.9156 122.131 87.7911 121.855C87.4208 121.535 87.0515 121.213 86.6788 120.895C86.6158 120.841 86.5377 120.805 86.4666 120.761ZM205.91 66.988C205.099 67.663 204.292 68.3463 203.522 69.0669C202.26 70.249 201.46 71.7617 200.798 73.3113C199.407 76.5697 198.122 79.8728 196.806 83.1626C194.866 88.011 192.937 92.8638 191.004 97.866C190.903 98.0263 190.772 98.1752 190.704 98.3484C189.475 101.473 188.257 104.601 187.028 107.725C186.08 110.133 185.075 112.52 184.179 114.946C183.35 117.191 182.814 119.519 182.501 121.893C182.471 122.122 182.549 122.365 182.576 122.601C182.599 122.4 182.591 122.189 182.656 122.003C182.7 121.877 182.901 121.805 182.942 121.681C183.712 119.299 184.419 116.897 185.246 114.535C185.815 112.91 186.53 111.334 187.212 109.749C187.53 109.009 187.814 108.937 188.529 109.291C189.012 109.53 189.503 109.754 189.975 110.013C190.721 110.422 191.512 110.577 192.355 110.503C192.957 110.449 193.708 109.756 193.723 109.11C193.737 108.478 193.457 107.972 192.725 107.905C192.267 107.863 191.799 107.886 191.351 107.799C191.021 107.735 190.716 107.54 190.4 107.404C190.606 107.246 190.798 107.062 191.024 106.941C191.163 106.867 191.356 106.89 191.524 106.87C192.656 106.739 193.617 107.281 194.611 107.668C196.402 108.366 197.412 108.233 198.322 107.038C198.811 106.396 199.139 105.617 199.462 104.868C200.93 101.464 202.488 98.0921 203.788 94.6251C205.133 91.0384 206.386 87.3996 207.371 83.7022C208.43 79.7245 209.591 75.7411 209.796 71.5838C209.853 70.439 209.754 69.3309 209.427 68.2004C208.9 66.3806 207.182 65.9294 205.91 66.988ZM143.632 103.423C143.567 103.548 143.485 103.666 143.44 103.797C142.871 105.483 142.96 107.171 143.748 108.733C144.573 110.367 145.582 111.909 146.52 113.486C146.56 113.553 146.693 113.565 146.782 113.603C146.811 113.481 146.891 113.344 146.861 113.24C146.592 112.319 146.287 111.409 146.035 110.484C145.983 110.294 146.04 109.975 146.173 109.857C146.37 109.681 146.701 109.511 146.939 109.551C147.627 109.666 148.198 110.483 148.266 111.3C148.378 112.647 148.418 114.006 148.621 115.34C148.949 117.486 149.796 119.473 150.736 121.418C150.786 121.523 150.886 121.605 150.962 121.698C151.038 121.578 151.148 121.467 151.182 121.336C151.299 120.878 151.321 120.384 151.505 119.956C152.151 118.451 152.14 117.005 151.35 115.547C150.917 114.75 150.58 113.9 150.124 112.999C149.803 112.073 149.65 111.035 149.12 110.248C148.303 109.035 147.202 108.016 146.269 106.876C145.445 105.87 144.687 104.81 143.9 103.774L143.632 103.423ZM100.497 117.787C100.67 118.084 100.804 118.358 101.023 118.519C101.849 119.122 101.756 120.746 100.944 121.247C100.762 121.359 100.448 121.264 100.195 121.265C100.195 121.06 100.132 120.829 100.205 120.653C100.72 119.416 100.186 118.403 98.8388 118.078C98.6278 118.027 98.4361 117.899 98.2355 117.806C98.4199 117.693 98.6005 117.573 98.7896 117.468C98.9917 117.356 99.2014 117.257 99.4085 117.154C100.188 116.765 100.313 116.829 100.497 117.787ZM101.861 111.319C101.983 112.023 101.946 112.783 101.819 113.491C101.721 114.044 100.272 114.347 99.4841 114.245C98.652 114.137 98.1398 113.64 97.6226 113.111C97.172 112.649 96.6585 112.287 96.0228 112.543C95.3774 112.804 95.3529 113.445 95.3831 114.127C95.2022 115.327 94.8535 116.298 93.8056 117.009C92.4182 117.95 90.8199 117.26 90.1965 116.12C90.1261 115.991 90.0011 115.892 89.9015 115.779C89.826 115.89 89.7269 115.991 89.6789 116.112C89.3044 117.059 88.8977 117.996 88.5875 118.963C88.3941 119.566 88.6696 119.84 89.2858 119.834C89.6976 119.83 90.1097 119.826 90.5213 119.838C90.6291 119.841 90.7354 119.9 90.8424 119.934C90.7829 120.034 90.7466 120.19 90.6599 120.226C90.2713 120.386 89.8109 120.707 89.4819 120.612C88.6184 120.361 87.8618 119.889 87.8125 118.818C87.7323 117.075 88.6678 115.76 89.6631 114.478C90.7963 113.018 92.4692 112.503 94.1559 112.025C96.2745 111.425 98.3924 110.822 100.512 110.224C100.953 110.1 101.74 110.624 101.861 111.319ZM93.7588 112.675C93.0032 112.975 92.2561 113.305 91.5339 113.676C90.287 114.318 90.1562 115.453 91.1943 116.353C92.2739 117.289 93.6599 116.972 94.0675 115.635C94.2961 114.885 94.345 114.081 94.4749 113.151C94.51 112.588 94.1553 112.517 93.7588 112.675ZM96.89 113.232C96.9564 113.258 97.0208 113.293 97.0893 113.31C98.1149 113.572 98.9124 115.242 98.4251 116.146C98.3288 116.324 98.1317 116.446 97.981 116.594C97.9435 116.447 97.9016 116.3 97.8691 116.152C97.7728 115.712 97.6801 115.272 97.5507 114.795C97.3169 114.315 97.1166 113.872 96.9219 113.426C96.8966 113.368 96.9 113.297 96.89 113.232ZM100.077 110.688C99.2268 110.985 98.4091 111.374 97.4264 111.725C97.4011 111.839 97.3203 111.978 97.3591 112.063C97.8491 113.138 99.6898 113.895 100.793 113.49C101.443 113.252 101.803 112.427 101.589 111.667C101.44 111.14 100.568 110.517 100.077 110.688ZM178.223 84.6605C179.688 84.8032 180.857 85.4431 181.748 86.7038C182.238 87.3965 181.866 87.9705 181.751 88.5522C181.336 90.6496 180.834 92.7293 180.358 94.8139C179.966 96.5304 179.567 98.2452 179.165 99.9595C178.631 102.244 178.094 104.528 177.553 106.811C177.163 108.453 176.769 110.095 176.368 111.734C176.326 111.906 176.219 112.061 176.142 112.223C176.071 112.052 175.927 111.875 175.941 111.712C176.052 110.418 176.164 109.122 176.333 107.835C176.51 106.48 176.727 105.13 176.969 103.785C177.258 102.181 177.561 100.578 177.912 98.9863C178.707 95.3832 179.734 91.849 180.909 88.3536C181.375 86.965 180.05 86.0483 178.977 86.0724C178.292 86.0877 177.701 86.2442 177.072 86.398C176.968 86.4234 176.804 86.193 176.668 86.0055C176.668 85.8799 176.652 85.8224 176.67 85.7806C176.816 85.4488 176.286 84.8408 177.067 84.7682C177.453 84.7323 177.845 84.6236 178.223 84.6605ZM103.086 104.827C104.005 104.841 104.924 104.963 105.842 104.954C107.155 104.941 108.408 105.221 109.581 105.738C110.613 106.193 111.566 106.821 112.591 107.411C113.788 108.476 114.698 109.668 115.048 111.194C115.094 111.394 114.874 111.655 114.776 111.887C114.62 111.747 114.364 111.632 114.321 111.463C113.487 108.232 111.139 106.659 108.074 105.87C106.399 105.439 104.704 105.546 103.004 105.697C102.784 105.717 102.291 106.008 102.273 105.428C102.256 104.895 102.706 104.821 103.086 104.827ZM146.782 59.5435C143.796 59.9673 141.588 61.6809 139.914 64.1411C138.09 66.8224 137.48 69.8698 137.4 73.0013C137.342 75.2371 137.61 77.4877 137.832 79.7218C137.999 81.3909 138.235 83.0642 138.602 84.6997C139.064 86.7611 139.7 88.7834 140.244 90.8272C141.153 94.2445 142.298 97.5817 143.75 100.806C145.297 104.243 147.331 107.357 150.188 109.875C151.111 110.688 152.18 111.276 153.424 111.399C154.973 111.553 156.478 111.261 157.959 110.808C161.128 109.838 164.33 108.967 167.468 107.906C170.333 106.936 172.117 104.857 172.753 101.905C173.231 99.692 173.633 97.4589 173.967 95.2195C174.25 93.314 174.481 91.3908 174.561 89.4682C174.623 87.9979 174.43 86.5151 174.318 85.0402C174.233 83.9162 174.097 82.7959 173.983 81.5226C173.614 79.2853 172.944 77.1441 172.062 75.0505C170.721 71.8693 168.874 69.0704 166.377 66.655C163.655 64.0221 160.402 62.3473 156.865 61.1953C154.868 60.5452 152.802 60.0668 150.734 59.69C149.447 59.4554 148.07 59.3607 146.782 59.5435ZM57.8697 80.0171C57.7808 80.1558 57.7018 80.3021 57.6017 80.4323C55.744 82.8483 53.7771 85.1888 52.0517 87.6959C50.0159 90.6541 48.3149 93.8225 46.9943 97.2335C46.48 98.3027 46.0093 99.337 45.5242 100.364C45.2674 100.908 44.7334 100.84 44.3695 100.665C43.9754 100.475 44.0241 100.073 44.2601 99.6511C46.2045 96.171 48.0708 92.6464 50.0602 89.1927C51.2805 87.0743 52.5988 85.0017 54.0229 83.0161C54.7847 81.954 55.859 81.1151 56.8054 80.1887C56.9311 80.0656 57.1273 79.9787 57.3025 79.9523C57.4842 79.9249 57.68 79.9916 57.8697 80.0171ZM62.8543 93.9078C60.7712 94.4604 59.7357 95.9853 59.9162 97.9907C60.0299 99.2546 60.5301 100.064 61.7282 100.405C63.1016 100.795 64.4728 100.616 65.7661 100.096C67.6213 99.3502 69.1387 98.2222 69.5991 95.9585C69.6472 95.3488 69.4717 94.9029 68.9283 94.5057C67.0027 93.0981 64.9704 93.3465 62.8543 93.9078ZM106.28 54.2045C106.229 54.2676 106.178 54.2928 106.128 54.3558C105.965 54.4293 105.763 54.4156 105.645 54.5077C102.7 56.8088 100.853 59.8149 99.882 63.3866C99.421 65.0827 99.212 66.8126 99.2885 68.5575C99.423 71.6281 100.387 74.4345 102.133 76.9884C104.041 79.7786 106.576 81.8319 109.603 83.2725C111.338 84.0981 113.179 84.6924 115.129 84.7962C116.006 84.843 116.904 84.6986 117.765 84.8267C119.418 85.0728 120.957 84.6277 122.484 84.1834C125.56 83.2886 128.267 81.7429 130.586 79.5088C132.297 77.8606 133.776 76.0688 134.753 73.8952C134.773 73.8526 134.796 73.8121 134.818 73.7706C134.847 73.8269 134.908 73.8873 134.901 73.9389C134.755 75.0423 134.826 76.1597 134.041 77.1444C131.612 80.1926 128.795 82.7605 125.146 84.2516C123.584 84.8895 121.917 85.2992 120.269 85.6875C119.277 85.9211 118.225 86.0204 117.205 85.9936C114.624 85.9258 112.134 85.3811 109.752 84.3559C107.208 83.2615 104.981 81.7243 103.083 79.728C100.876 77.4061 99.3353 74.7037 98.6844 71.5617C98.4251 70.3102 98.219 69.0165 98.2366 67.7454C98.2915 63.7746 99.4588 60.1136 101.771 56.8632C102.401 55.9774 103.249 55.2415 104.017 54.4573C104.38 54.0877 105.989 53.9095 106.28 54.2045ZM109.525 54.2429C109.563 54.2473 109.597 54.294 109.632 54.3211C109.566 54.3445 109.501 54.3707 109.435 54.391C106.843 55.1822 104.997 56.8836 103.764 59.2393C103.008 60.683 102.599 62.2519 102.368 63.8882C101.899 67.2144 102.667 70.277 104.264 73.1311C106.236 76.6574 109.026 79.3409 112.888 80.7302C114.12 81.1733 115.393 81.6489 116.678 81.765C119.763 82.0438 122.727 81.4908 125.474 79.9447C127.522 78.7921 129.205 77.2497 130.714 75.4593C132.464 73.3826 133.459 70.9621 134.079 68.375C134.296 67.4682 134.202 66.4873 134.259 65.5408C134.27 65.3634 134.319 65.1884 134.351 65.0122C134.558 65.1193 134.878 65.1758 134.953 65.3426C135.219 65.9371 135.629 66.593 135.568 67.1821C135.442 68.3931 135.138 69.6073 134.745 70.7645C133.724 73.7677 131.92 76.273 129.578 78.3824C127.4 80.3449 124.888 81.7161 122.03 82.4041C121.062 82.6371 120.084 82.9047 119.099 82.9616C118.187 83.0142 117.252 82.8546 116.342 82.7013C115.129 82.497 113.89 82.3267 112.733 81.9332C109.538 80.8464 106.858 78.9996 104.696 76.3515C102.97 74.2358 101.973 71.8321 101.494 69.1961C100.931 66.0945 101.436 63.0893 102.583 60.1878C103.36 58.2246 104.492 56.4848 106.043 55.0346C106.161 54.9249 106.226 54.7586 106.315 54.5429C106.365 54.4419 106.416 54.4167 106.466 54.3914C107.46 53.8239 108.497 54.1234 109.525 54.2429ZM223.416 81.2908C224.455 81.3018 225.492 81.4431 226.531 81.5246C227.796 81.6237 229.059 81.7483 230.326 81.797C231.538 81.8436 232.755 81.7774 233.967 81.8197C234.564 81.8406 235.173 81.9462 235.741 82.1151C235.934 82.1727 236.018 82.5412 236.152 82.7676C235.968 82.8224 235.787 82.8928 235.598 82.9281C235.379 82.9689 235.153 82.979 234.892 82.9673C232.372 82.8852 229.889 82.8199 227.407 82.8005C226.401 82.7927 225.395 82.9221 224.389 82.9164C223.896 82.9135 223.402 82.7526 222.913 82.6487C222.402 82.5403 222.249 82.1165 222.44 81.8071C222.603 81.5412 223.08 81.2872 223.416 81.2908ZM117.008 56.339C117.576 59.0482 118.102 61.7668 118.659 64.4785C118.945 65.8707 118.606 66.4486 117.409 67.1245C115.827 68.0176 114.296 69.0125 112.785 70.0272C112.027 70.5355 111.406 70.7124 110.991 70.3107C110.6 69.9315 110.535 69.5976 111.058 69.242C112.693 68.1287 114.336 67.0233 115.917 65.8328C116.261 65.5736 116.571 64.9548 116.535 64.5336C116.406 62.9953 116.132 61.4692 115.895 59.9413C115.796 59.3037 115.654 58.6732 115.532 57.9632C115.473 57.3369 115.305 56.7668 115.396 56.244C115.453 55.9162 115.866 55.4688 116.177 55.4127C116.729 55.3131 116.916 55.8978 117.008 56.339ZM221.244 50.0086C221.337 50.105 221.387 50.3675 221.322 50.4633C221.011 50.9229 220.653 51.3515 220.273 51.829C219.05 53.4974 217.879 55.1393 216.66 56.745C216.501 56.9553 215.984 57.1557 215.821 57.0564C215.407 56.804 215.78 56.5348 215.952 56.2487C217.091 54.3505 218.194 52.4307 219.323 50.5264C219.843 49.6496 220.688 49.427 221.244 50.0086ZM186.527 25.4781C186.726 25.4948 186.95 25.7355 187.085 25.9341C187.578 26.6626 187.319 27.4814 187.221 28.2382C187.049 29.5587 186.739 30.8603 186.497 32.1718C186.384 32.7843 186.296 33.4014 186.196 34.0923C185.997 35.1202 185.78 36.0689 185.602 37.0251C185.278 38.7619 184.99 40.5052 184.665 42.2417C184.394 43.6903 184.101 45.1348 183.802 46.5778C183.311 48.9469 182.824 51.317 182.299 53.6784C182.155 54.3263 181.65 54.5689 181.236 54.2589C181.097 54.1544 180.957 53.8865 180.991 53.7313C181.765 50.1193 182.594 46.5193 183.345 42.9024C183.897 40.2432 184.292 37.5499 184.868 34.8965C185.416 32.3687 185.699 29.8345 185.618 27.2478C185.604 26.8004 185.814 26.3278 185.996 25.9001C186.078 25.7063 186.356 25.4639 186.527 25.4781ZM145.527 43.4162C145.673 43.6623 145.822 43.9059 145.97 44.228C146.216 45.5366 146.47 46.7663 146.705 47.9999C146.824 48.6216 146.915 49.2495 147.004 49.8769C147.026 50.0327 146.991 50.1975 146.982 50.3581C146.765 50.3217 146.414 50.3587 146.353 50.2365C146.037 49.6073 145.752 48.9521 145.538 48.2776C145.293 47.505 145.19 46.6797 144.913 45.9221C144.762 45.5076 144.349 45.2056 144.109 44.816C143.901 44.479 143.657 44.0932 143.647 43.7226C143.641 43.4847 143.997 43.0852 144.249 43.0243C144.69 42.9177 145.214 42.8882 145.527 43.4162Z" fill="#00160A"/>
<path d="M95.2139 118.925C96.1111 118.685 96.7605 118.199 96.6644 117.84C96.5682 117.482 95.763 117.386 94.8658 117.626C93.9685 117.867 93.3191 118.352 93.4153 118.711C93.5114 119.07 94.3166 119.166 95.2139 118.925Z" fill="#FFB61D"/>
<path fill-rule="evenodd" clip-rule="evenodd" d="M101.39 116.009C102.03 115.768 102.399 115.283 102.267 114.924C102.144 114.565 101.67 114.469 101.156 114.709C100.592 114.95 100.089 115.435 100.086 115.794C100.091 116.153 100.699 116.249 101.39 116.009Z" fill="#FFB61D"/>
<defs>
<linearGradient id="paint0_linear" x1="26.8764" y1="47.2645" x2="141.816" y2="223.333" gradientUnits="userSpaceOnUse">
<stop offset="0.0552082" stop-color="#0080FF"/>
<stop offset="0.940625" stop-color="#0059B2"/>
</linearGradient>
</defs>
</svg>
