<svg width="250" height="250" viewBox="0 0 250 250" fill="none" xmlns="http://www.w3.org/2000/svg">
<path fill-rule="evenodd" clip-rule="evenodd" d="M70.0278 194.326C70.0278 194.326 16.5718 184.312 12.9485 171.096C9.32519 157.881 52.2602 151.514 52.2602 151.514C52.2602 151.514 72.8485 148.032 76.0012 145.212C79.1538 142.391 141.914 143.479 172.237 120.986C202.561 98.4934 212.576 87.0874 227.566 99.8637C242.557 112.64 238.928 150.521 222.401 172.424C205.873 194.326 140.126 197.977 140.126 197.977L70.0278 194.326Z" fill="url(#paint0_linear)"/>
<path fill-rule="evenodd" clip-rule="evenodd" d="M166.956 180.583C166.956 180.583 165.542 181.561 164.871 179.716C164.2 177.87 163.779 176.567 163.779 176.567C163.779 176.567 162.336 175.119 161.583 175.119C160.83 175.119 158.361 173.413 158.614 172.072C158.868 170.73 161.786 170.883 162.616 170.883C163.445 170.883 162.817 168.843 162.817 168.224C162.817 167.604 163.791 162.345 166.107 163.132C168.423 163.919 169.68 165.303 168.757 167.702C171.172 167.586 173.37 166.473 173.652 171.198C173.459 172.934 173.505 173.334 174.564 174.621C175.624 175.907 176.055 177.844 175.174 178.502C174.293 179.161 172.86 179.414 172.382 179.716C171.903 180.017 171.649 180.675 171.649 181.761C171.649 182.846 169.985 180.955 169.985 180.955L168.423 179.289L166.956 180.583Z" fill="white"/>
<path d="M147.254 120.348C148.861 137.519 150.2 154.716 151.27 171.929C151.397 173.963 151.474 176.17 150.31 177.845C149.53 178.969 148.294 179.685 147.06 180.281C142.548 182.463 137.574 183.515 132.615 184.26C119.096 186.292 105.254 186.17 91.773 183.899C89.1055 183.45 86.3989 182.898 84.047 181.564C81.695 180.231 79.719 177.98 79.3666 175.304C76.432 153.024 74.7894 130.575 74.4496 108.107C74.425 106.479 74.3678 104.729 73.3901 103.426C72.331 102.014 70.4386 101.468 69.2424 100.17C67.1788 97.9298 67.955 94.1047 70.1202 91.9622C72.2853 89.8197 75.3923 88.9693 78.3769 88.3436C87.0964 86.5157 96.0712 85.9036 104.959 86.5309C105.221 87.246 104.143 87.6471 103.38 87.648C95.0297 87.658 86.6808 88.3399 78.4405 89.6849C75.4209 90.1778 72.1288 90.931 70.2996 93.3776C78.6203 96.1131 87.5412 96.2691 96.302 96.336C111.962 96.4557 127.734 96.3621 143.109 93.396C144.478 93.1319 145.962 92.7733 146.811 91.6702C147.66 90.567 147.26 88.5239 145.875 88.3628C134.027 86.9842 122.056 86.6525 110.149 87.3728C109.229 87.4284 107.875 86.8766 108.325 86.0748C119.247 85.5572 130.205 85.7974 141.094 86.7931C144.018 87.0605 147.098 87.4433 149.437 89.2131C151.92 91.0913 153.157 94.4703 152.472 97.5026C151.787 100.535 149.217 103.058 146.167 103.693" fill="white"/>
<path fill-rule="evenodd" clip-rule="evenodd" d="M105.975 85.7273C106.369 74.9067 107.974 63.992 106.157 53.318C105.958 52.1455 105.714 50.9703 105.244 49.8779C104.45 48.0326 103.003 46.4765 101.221 45.5516C100.674 45.2676 100.065 45.0144 99.7317 44.4958C99.398 43.9772 99.5663 43.099 100.175 43C102.668 43.399 104.701 45.3478 105.825 47.61C106.95 49.8722 107.303 52.431 107.562 54.9445C108.47 63.7651 108.395 72.6865 107.34 81.4907C106.981 84.4866 106.521 87.6085 107.521 90.4554C107.219 90.3833 106.918 90.3111 106.617 90.239C105.905 88.8768 105.92 87.2634 105.975 85.7273H105.975Z" fill="#E7EAEE"/>
<path d="M77.6592 194.208C77.0271 194.905 76.043 195.275 75.1002 195.171C74.6257 195.119 74.37 195.811 74.6417 196.197C74.9135 196.584 75.4434 196.691 75.9206 196.706C76.3978 196.72 76.8993 196.679 77.3293 196.883C75.7162 197.61 74.1032 198.338 72.4902 199.066C67.8473 202.486 74.876 201.134 76.0358 200.868C74.7426 202.152 73.8496 203.542 74.8433 203.583C73.9518 203.977 76.1688 202.994 75.5516 203.74C74.9344 204.485 74.7357 205.662 75.3749 206.389C76.4453 206.377 77.4015 205.388 77.3617 204.335C79.4097 204.727 81.5118 204.845 83.5918 204.684C84.8 204.591 85.72 203.263 85.4199 202.107C85.1198 200.95 83.7295 200.218 82.5685 200.561C84.0612 199.893 85.4757 199.055 86.7748 198.071C86.4221 197.542 86.0695 197.013 85.7168 196.484C85.1791 195.678 84.6268 194.855 83.8504 194.267C83.074 193.679 82.0181 193.358 81.0967 193.686C80.1753 194.013 79.545 195.13 79.9672 196C79.6798 196.355 79.0527 196.358 78.7616 196.006C78.4705 195.655 78.5997 195.051 79.0099 194.845C79.3767 194.661 79.4205 194.126 79.2057 193.78C78.9909 193.434 78.6059 193.233 78.2393 193.048C77.2581 192.555 75.9984 192.081 75.1363 192.756C75.4876 192.964 75.8998 193.07 76.3092 193.058C75.7535 193.385 75.1978 193.712 74.6421 194.039C74.446 194.219 74.8427 194.442 75.1102 194.42C75.9598 194.349 76.8095 194.278 77.6592 194.208Z" fill="white"/>
<path fill-rule="evenodd" clip-rule="evenodd" d="M75.1104 194.42C75.9601 194.349 76.8098 194.278 77.6595 194.208C77.0274 194.904 76.0432 195.275 75.1004 195.171C74.6259 195.119 74.3703 195.811 74.642 196.197C74.9138 196.584 75.4436 196.691 75.9209 196.706C76.3981 196.72 76.8995 196.678 77.3296 196.883C75.7165 197.61 74.1035 198.338 72.4904 199.066C73.6726 199.207 74.8797 199.142 76.0396 198.877C74.7463 200.161 72.0661 199.449 71.1342 201.008C72.9925 201.227 74.9036 200.999 76.6551 200.35C76.6453 200.971 75.9081 201.307 75.2831 201.39C74.658 201.474 73.9359 201.497 73.5441 201.984C73.2898 202.3 72.7876 202.203 72.399 202.076C71.7542 201.865 71.0867 201.641 70.5952 201.179C70.1038 200.718 69.8434 199.945 70.179 199.363C70.9153 198.086 73.5238 198.841 73.9638 197.439C74.074 197.088 73.9857 196.71 73.8987 196.353C73.6963 195.521 73.5017 194.666 73.617 193.818C73.7324 192.971 74.2229 192.121 75.031 191.808C76.3887 191.283 77.7785 192.416 79.2018 192.731C80.2735 192.968 81.4097 192.73 82.4804 192.97C84.0217 193.317 85.1525 194.574 86.1735 195.762C86.6363 196.301 87.1155 196.872 87.2539 197.565C87.3924 198.257 87.0523 199.097 86.3565 199.266C85.724 199.42 85.4732 200.21 85.5967 200.84C85.7202 201.47 86.0925 202.027 86.2647 202.646C86.4368 203.264 86.3267 204.055 85.7464 204.347C84.5227 204.962 83.2401 205.592 81.866 205.593C80.9456 205.594 80.046 205.309 79.1261 205.28C78.2061 205.252 77.1685 205.574 76.7809 206.396C76.3911 207.223 75.0128 207.036 74.503 206.276C73.9932 205.515 74.0891 204.522 74.2042 203.618C74.238 203.352 74.2798 203.069 74.4616 202.869C74.6103 202.706 74.8296 202.627 75.042 202.562C75.9914 202.27 76.9923 202.141 77.986 202.182C77.0944 202.576 76.1691 202.994 75.5519 203.74C74.9346 204.485 74.7359 205.662 75.3752 206.389C76.4456 206.377 77.4018 205.388 77.362 204.335C79.41 204.727 81.512 204.845 83.592 204.684C84.8003 204.591 85.7203 203.263 85.4202 202.107C85.1201 200.95 83.7298 200.218 82.5688 200.561C84.0615 199.893 85.4759 199.055 86.7751 198.07C86.4224 197.542 86.0697 197.013 85.717 196.484C85.1794 195.678 84.6271 194.855 83.8507 194.267C83.0743 193.679 82.0184 193.358 81.097 193.685C80.1756 194.013 79.5453 195.13 79.9675 196C79.6801 196.355 79.053 196.358 78.7619 196.006C78.4708 195.655 78.5999 195.051 79.0102 194.845C79.377 194.66 79.4208 194.125 79.206 193.78C78.9911 193.434 78.6062 193.233 78.2396 193.048C77.2584 192.555 75.9987 192.081 75.1366 192.756C75.4879 192.964 75.9 193.07 76.3095 193.058C75.7538 193.385 75.1981 193.712 74.6424 194.039C74.4463 194.219 74.843 194.442 75.1104 194.42V194.42Z" fill="#FFB61D"/>
<path fill-rule="evenodd" clip-rule="evenodd" d="M103.24 83.7037C103.154 83.3745 103.279 82.9794 103.581 82.8228C103.68 83.0278 103.779 83.2328 103.877 83.4379C103.671 83.5647 103.465 83.6915 103.259 83.8183L103.24 83.7037Z" fill="#E7EAEE"/>
<path d="M78.5844 198.641C78.7154 199.288 78.639 199.971 78.3676 200.58C79.1248 200.658 79.8927 200.647 80.6469 200.546C80.1235 201.342 78.7822 201.565 78.0635 200.915C77.3449 200.266 77.6279 198.91 78.5844 198.641L78.5844 198.641Z" fill="white"/>
<path fill-rule="evenodd" clip-rule="evenodd" d="M104.136 68.2291C103.844 71.9284 103.723 75.639 103.773 79.3477C103.782 80.0737 103.807 80.8316 104.184 81.4701C104.295 81.6581 104.01 81.8751 103.786 81.8177C103.562 81.7603 103.427 81.5548 103.326 81.362C101.961 78.7499 102.823 75.6747 102.762 72.7783C102.722 70.8932 102.285 68.9506 102.924 67.1587C103.053 66.7967 103.685 66.824 103.935 67.1277C104.186 67.4315 104.166 67.8492 104.136 68.2291L104.136 68.2291Z" fill="#E7EAEE"/>
<path d="M60.2159 160.698C60.4633 161.127 60.4668 161.704 60.2246 162.136C59.9609 161.068 58.5694 160.547 57.7394 161.207C57.4347 161.449 57.1049 161.833 56.7534 161.679C56.9165 161.615 56.9409 161.329 56.7913 161.234C57.4871 160.046 59.2303 159.773 60.2159 160.698H60.2159Z" fill="black"/>
<path fill-rule="evenodd" clip-rule="evenodd" d="M62.941 159.625C62.9738 159.478 63.0065 159.331 63.0349 159.186C63.2011 158.341 63.1024 157.266 62.3231 156.901C61.7832 156.649 61.198 156.858 60.6132 157.067C60.3943 157.146 60.1754 157.224 59.959 157.278C58.743 157.582 57.3614 157.011 56.7123 155.936C56.2204 155.122 54.8588 155.547 54.4071 156.385C54.1219 156.914 54.0462 157.513 53.97 158.115C53.9255 158.467 53.8809 158.82 53.7945 159.16C53.5599 160.082 52.7227 161.032 51.8122 160.761C51.087 160.546 50.2411 160.833 49.7958 161.446C49.3504 162.059 49.3372 162.954 49.7642 163.58C50.283 164.34 51.2201 164.573 52.1425 164.802C52.4059 164.868 52.6681 164.933 52.9189 165.01C53.3509 165.143 53.793 165.343 54.0406 165.722C54.2882 166.101 54.245 166.696 53.8504 166.917C53.2041 167.278 53.2572 168.343 53.8426 168.797C54.4281 169.25 55.2943 169.166 55.9338 168.793C56.5732 168.419 57.0372 167.813 57.4842 167.222C58.1718 166.312 59.6213 166.11 60.531 166.796C60.5262 166.002 60.9769 165.222 61.6658 164.83C62.3547 164.439 63.2543 164.453 63.931 164.865C64.5236 164.625 64.4844 163.731 64.1172 163.206C63.9679 162.993 63.7841 162.804 63.601 162.617C63.3335 162.342 63.0672 162.069 62.9113 161.722C62.6185 161.071 62.7819 160.338 62.941 159.625ZM60.7102 164.235C60.8247 164.629 60.7617 165.072 60.5416 165.419L60.6054 165.484C60.2252 165.683 59.7391 165.662 59.3773 165.431L59.761 164.442C60.0496 164.285 60.3828 164.213 60.7102 164.235Z" fill="white"/>
<path fill-rule="evenodd" clip-rule="evenodd" d="M166.309 119.045C165.92 118.585 165.532 118.126 165.125 117.684C163.871 116.322 162.334 115.081 160.504 114.804C160.311 114.775 160.116 114.757 159.921 114.739C159.527 114.702 159.135 114.665 158.762 114.539C158.263 114.371 157.83 114.051 157.429 113.71C156.886 113.248 156.363 112.727 155.838 112.205C154.295 110.669 152.742 109.124 150.647 109.042C148.441 108.957 146.369 110.938 146.355 113.148C146.342 115.002 147.542 116.617 148.686 118.075L168.581 143.443L180.916 159.171C182.508 161.201 184.601 163.449 187.156 163.095C189.452 162.777 190.994 160.08 190.34 157.854C190.088 156.998 189.593 156.252 189.097 155.504C188.664 154.851 188.23 154.197 187.957 153.469C187.522 152.31 187.526 151.064 187.529 149.813C187.532 148.856 187.535 147.895 187.342 146.967C186.912 144.911 185.558 143.185 184.181 141.6C183.436 140.743 182.646 139.473 183.359 138.588C184.206 137.535 183.783 135.98 183.248 134.738C181.529 130.752 179.034 127.103 175.943 124.056C174.62 122.752 172.695 121.482 171.039 122.324C170.341 122.68 169.507 122.244 168.899 121.75C167.928 120.961 167.118 120.003 166.309 119.045ZM180.88 135.557C181.012 136.231 180.886 136.993 180.396 137.474C180.275 137.593 180.125 137.695 179.956 137.702C179.668 137.713 179.45 137.456 179.281 137.223L171.572 126.646C171.276 126.24 171.483 125.607 171.915 125.349C172.346 125.09 172.911 125.151 173.36 125.38C173.808 125.609 174.163 125.982 174.503 126.353C176.574 128.615 178.43 131.075 180.036 133.689C180.395 134.275 180.748 134.882 180.88 135.557Z" fill="white"/>
<path fill-rule="evenodd" clip-rule="evenodd" d="M149.992 174.77C150.265 173.864 150.199 172.895 150.132 171.951L146.199 117.062C146.996 117.924 147.145 119.181 147.254 120.348C148.861 137.519 150.2 154.716 151.271 171.929C151.397 173.963 151.474 176.17 150.311 177.845C149.53 178.969 148.294 179.685 147.061 180.281C142.548 182.463 137.574 183.515 132.615 184.26C119.096 186.292 105.254 186.17 91.7732 183.899C89.1057 183.45 86.3991 182.898 84.0472 181.564C81.6953 180.231 79.7192 177.98 79.3668 175.304C76.4322 153.024 74.7896 130.575 74.4498 108.107C74.4252 106.479 74.368 104.729 73.3903 103.426C72.8198 102.665 72.0074 102.156 71.1924 101.645C70.4944 101.208 69.7944 100.769 69.2426 100.17C67.179 97.9298 67.9553 94.1047 70.1204 91.9622C72.2855 89.8197 75.3925 88.9693 78.3771 88.3436C87.0966 86.5157 96.0714 85.9036 104.959 86.5309C105.222 87.246 104.143 87.6471 103.38 87.648C95.0299 87.658 86.681 88.3399 78.4407 89.6849C75.4212 90.1778 72.129 90.931 70.2998 93.3776C78.6205 96.1131 87.5415 96.2691 96.3022 96.336C111.962 96.4557 127.734 96.3621 143.11 93.396C144.478 93.1319 145.962 92.7733 146.811 91.6702C147.66 90.567 147.26 88.5239 145.875 88.3628C134.027 86.9842 122.056 86.6525 110.149 87.3728C109.23 87.4284 107.875 86.8766 108.326 86.0748C119.248 85.5572 130.206 85.7974 141.094 86.7931C144.018 87.0605 147.098 87.4433 149.437 89.2131C151.92 91.0913 153.158 94.4703 152.473 97.5026C151.788 100.535 149.217 103.058 146.167 103.693L146.039 111.155C145.207 110.299 145.319 109.007 145.426 107.772L145.426 107.772L145.426 107.772L145.426 107.771L145.426 107.771L145.426 107.771L145.426 107.77L145.426 107.77C145.448 107.519 145.469 107.271 145.483 107.029C145.561 105.596 144.711 103.728 143.303 104.021C121.017 108.653 97.7967 108.763 75.4682 104.341C75.4922 125.667 77.51 146.935 79.526 168.167C79.7664 170.699 80.0183 173.277 81.0145 175.619C82.0107 177.96 83.888 180.07 86.3595 180.695C98.1065 183.67 110.299 184.887 122.404 184.293C130.675 183.888 139.118 182.569 146.325 178.499C147.883 177.619 149.477 176.481 149.992 174.77ZM69.5103 94.2903C68.7759 96.8875 70.2898 99.7061 72.4798 101.29C74.6697 102.875 77.4036 103.48 80.0639 103.97C101.469 107.912 123.604 106.79 144.965 102.618C146.593 102.3 148.3 101.925 149.537 100.822C150.907 99.5992 151.454 97.6507 151.344 95.8199C151.233 93.9892 150.544 92.245 149.772 90.5804C148.667 93.2801 145.346 94.1777 142.464 94.6668C123.346 97.9114 103.838 98.4399 84.4706 97.4466C82.2686 97.3337 80.0629 97.2007 77.8868 96.8462C74.9963 96.3754 72.1702 95.513 69.5103 94.2903ZM81.4064 166.74C80.9856 166.372 80.5014 165.95 79.9711 166.089C79.7666 167.46 81.3789 168.309 82.6996 168.691C84.4469 169.196 86.2779 169.659 88.0647 169.323C88.7094 169.202 89.3512 168.967 89.8396 168.526C90.9358 167.535 90.9714 165.846 90.9213 164.363C90.4721 151.057 89.737 137.761 88.7166 124.487C88.5534 122.365 88.2549 119.991 86.5964 118.675C85.9138 118.133 85.0739 117.841 84.2515 117.559L78.5228 115.595C77.7489 115.33 76.739 115.129 76.244 115.785C75.9364 116.193 75.9853 116.76 76.0478 117.269C77.886 132.228 78.911 147.289 79.1168 162.362C79.1452 164.441 80.9596 166.112 82.908 166.792C85.0249 167.531 87.3287 167.41 89.565 167.28C87.153 168.916 83.6648 168.705 81.4639 166.79L81.4064 166.74ZM89.4361 165.504C87.9236 166.552 85.9125 166.414 84.1067 166.086C83.0371 165.891 81.8958 165.596 81.2027 164.752C80.488 163.881 80.4338 162.655 80.4087 161.525C80.073 146.407 78.9843 131.306 77.148 116.298L83.0446 118.333C84.4445 118.816 85.9377 119.368 86.7891 120.588C87.5266 121.645 87.6395 123.007 87.7281 124.296L88.8679 140.879C89.4313 149.077 89.9949 157.306 89.4361 165.504ZM114.533 170.236C112.736 169.754 110.889 169.456 109.031 169.349L108.936 169.344C107.578 169.266 106.047 169.179 105.209 168.123C104.812 167.623 104.648 166.983 104.5 166.363C101.578 154.069 101.3 141.326 101.036 128.695L100.909 122.611C100.9 122.19 100.884 121.744 100.652 121.391C100.421 121.038 99.8916 120.845 99.5629 121.11L100.094 141.969C100.131 143.428 100.169 144.888 100.254 146.345C100.647 153.048 102.055 159.645 103.459 166.212C103.816 167.883 104.541 169.907 106.243 170.103L114.783 171.088C114.853 171.096 114.926 171.104 114.994 171.083C115.413 170.955 114.957 170.35 114.533 170.236ZM145.465 160.211C145.55 162.588 145.571 165.176 144.129 167.068C146.262 165.68 146.416 162.673 146.341 160.13L145.682 137.862C145.51 132.037 145.327 126.141 143.718 120.54C143.425 119.52 143.058 118.47 142.288 117.739C141.518 117.008 140.23 116.716 139.386 117.361C137.702 118.647 135.463 118.691 133.305 118.734H133.305H133.304H133.304H133.304H133.304H133.304C132.97 118.74 132.638 118.747 132.309 118.758C129.862 118.84 127.016 119.552 126.087 121.816C125.515 123.208 125.858 124.781 126.181 126.257L126.202 126.357C127.966 134.441 128.205 142.728 128.444 151.019V151.019C128.553 154.802 128.663 158.586 128.917 162.352C129.068 164.59 129.305 166.928 130.538 168.802C130.782 169.172 131.074 169.529 131.467 169.736C131.839 169.932 132.271 169.977 132.69 170.012C134.956 170.196 137.293 170.15 139.424 169.36C141.556 168.57 143.467 166.934 144.128 164.76C144.532 163.434 144.453 162.016 144.376 160.63L144.374 160.586C143.956 153.073 143.854 145.543 144.069 138.021C144.077 137.739 144.085 137.455 144.094 137.172C144.262 131.521 144.435 125.678 142.083 120.56C141.769 119.876 141.386 119.183 140.756 118.77C140.723 118.749 140.689 118.728 140.655 118.706C140.409 118.551 140.142 118.382 140.122 118.103C140.619 117.744 141.354 117.916 141.804 118.332C142.255 118.747 142.485 119.344 142.683 119.924C143.457 122.192 143.968 124.549 144.202 126.933C144.328 128.221 144.374 129.515 144.42 130.808L145.465 160.211ZM127.375 120.903C128.259 119.881 129.761 119.727 131.111 119.644L138.248 119.209C138.964 119.165 139.743 119.139 140.327 119.556C140.726 119.842 140.968 120.294 141.174 120.74C142.827 124.315 143.005 128.373 143.087 132.312C143.314 143.292 143.004 154.283 142.159 165.233C142.067 166.413 141.137 167.395 140.062 167.893C138.987 168.39 137.778 168.492 136.597 168.586L133.3 168.851C132.892 168.883 132.462 168.912 132.095 168.731C131.559 168.465 131.322 167.839 131.15 167.266C129.368 161.344 129.36 155.137 129.353 148.914V148.914C129.349 145.657 129.346 142.396 129.087 139.171C128.716 134.535 127.816 129.961 126.919 125.398L126.904 125.323C126.607 123.814 126.369 122.066 127.375 120.903ZM159.731 173.631C160.349 174.244 161.141 174.684 161.993 174.887C162.722 175.06 163.191 175.926 162.931 176.62C162.951 176.719 162.793 176.773 162.71 176.713C162.638 176.661 162.61 176.573 162.582 176.487L162.582 176.486C162.578 176.473 162.573 176.46 162.569 176.446C162.362 175.836 161.69 175.53 161.09 175.275C160.241 174.913 159.374 174.494 158.809 173.773C158.244 173.051 158.082 171.944 158.68 171.248C159.071 170.793 159.688 170.605 160.269 170.439C161.044 170.217 161.858 169.994 162.647 170.157L162.827 170.511C163.201 170.739 163.726 170.691 164.051 170.399C164.412 170.073 164.963 170.098 165.45 170.142L168.08 170.382C168.208 170.393 168.343 170.407 168.448 170.481C168.759 170.702 168.51 171.234 168.142 171.34C167.878 171.415 167.603 171.364 167.327 171.312C167.22 171.291 167.113 171.271 167.007 171.259C166.875 171.243 166.736 171.24 166.613 171.29C166.246 171.44 166.222 171.95 166.337 172.326L166.349 172.365C166.356 172.386 166.362 172.407 166.369 172.428C166.38 172.459 166.39 172.49 166.4 172.522L166.401 172.523C166.507 172.84 166.617 173.166 166.495 173.468C166.153 173.62 165.755 173.31 165.653 172.954C165.575 172.684 165.607 172.401 165.64 172.119L165.64 172.119L165.64 172.119L165.64 172.119L165.64 172.118L165.64 172.118C165.65 172.029 165.66 171.941 165.667 171.853C165.695 171.484 165.635 171.063 165.333 170.844C164.112 171.419 162.733 171.665 161.384 171.546C161.277 171.537 161.17 171.525 161.063 171.514L161.063 171.514C160.722 171.477 160.38 171.44 160.04 171.475C159.593 171.521 159.133 171.718 158.906 172.1C159.081 172.211 159.211 172.389 159.262 172.588L163.564 173.418C163.245 173.765 162.703 173.769 162.228 173.747L159.731 173.631ZM120.984 162.275C120.113 151.857 119.837 141.391 120.156 130.942L120.163 130.706C120.234 128.416 120.306 126.092 119.707 123.883C119.087 121.598 117.616 119.41 115.401 118.547C114.115 118.046 112.697 118.026 111.316 118.013C107.719 117.98 104.091 117.949 100.567 118.667C99.3996 118.904 98.1228 119.318 97.5618 120.364C97.1733 121.089 97.2209 121.958 97.2786 122.777L100.415 167.336C100.476 168.192 100.553 169.096 101.056 169.793C101.578 170.516 102.461 170.878 103.311 171.158C106.916 172.347 110.794 172.707 114.558 172.203C114.215 171.717 113.552 171.605 112.961 171.534L105.608 170.645C104.867 170.556 104.104 170.459 103.457 170.089C101.891 169.195 101.574 167.122 101.427 165.331C100.254 150.974 99.08 136.612 98.4619 122.221C98.4284 121.441 98.4665 120.517 99.1208 120.087C99.4521 119.869 99.8687 119.838 100.265 119.813L111.076 119.13C112.296 119.053 113.558 118.982 114.708 119.398C116.299 119.975 117.439 121.421 118.088 122.977C119.08 125.353 119.1 128.003 119.067 130.575C119.043 132.425 119 134.277 118.956 136.129L118.956 136.13L118.956 136.131L118.956 136.132L118.956 136.134C118.789 143.22 118.622 150.314 119.564 157.329C119.61 157.669 119.657 158.011 119.705 158.356V158.356C120.266 162.384 120.864 166.683 118.688 170.055L118.651 170.111C118.488 170.362 118.318 170.623 118.311 170.919C118.302 171.237 118.588 171.582 118.897 171.498C119.018 171.464 119.114 171.375 119.201 171.285C121.418 169.018 121.247 165.427 120.984 162.275ZM104.227 92.1244C105.636 92.1792 107.133 92.5189 108.103 93.5749C108.291 93.7804 108.46 94.0119 108.628 94.2427C108.978 94.7236 109.326 95.2017 109.85 95.4354C109.047 95.1469 108.169 95.0811 107.334 95.2464C107.044 95.3039 106.759 95.3885 106.474 95.4731C106.024 95.6066 105.574 95.7399 105.109 95.7652L106.039 94.9489C106.371 94.657 106.748 94.3484 107.184 94.363C107.256 93.6218 106.683 92.9166 105.986 92.7224C105.289 92.5282 104.527 92.7742 103.954 93.2269C103.381 93.6796 102.972 94.3174 102.632 94.9746C102.497 95.236 102.313 95.5415 102.026 95.5381C101.788 95.4179 101.797 95.0566 101.913 94.8109C101.946 94.7399 101.986 94.6706 102.025 94.6013C102.122 94.4307 102.219 94.2604 102.226 94.0662C102.241 93.5704 101.695 93.288 101.239 93.1311C100.785 92.9747 100.234 92.8348 99.8681 93.1536C99.6018 93.3853 99.5401 93.7767 99.496 94.1333L99.3461 95.3449C98.5647 95.6191 97.7029 95.6438 96.908 95.4147C97.8487 94.8288 98.883 94.1057 99.0575 92.986C100.703 92.3509 102.472 92.0562 104.227 92.1244ZM63.0349 159.187C63.2011 158.341 63.1024 157.266 62.323 156.901C61.7832 156.649 61.198 156.858 60.6132 157.068C60.3943 157.146 60.1754 157.224 59.959 157.278C58.743 157.582 57.3614 157.011 56.7123 155.936C56.2204 155.122 54.8588 155.548 54.4071 156.385C54.1219 156.914 54.0462 157.513 53.97 158.115C53.9255 158.467 53.8809 158.82 53.7945 159.16C53.5599 160.083 52.7227 161.032 51.8122 160.761C51.087 160.546 50.2411 160.833 49.7958 161.446C49.3504 162.059 49.3372 162.954 49.7642 163.58C50.283 164.34 51.2201 164.573 52.1425 164.802C52.4059 164.868 52.6681 164.933 52.9189 165.01C53.3509 165.143 53.793 165.343 54.0406 165.722C54.2882 166.101 54.245 166.697 53.8504 166.917C53.2041 167.278 53.2572 168.343 53.8426 168.797C54.4281 169.251 55.2943 169.166 55.9338 168.793C56.5732 168.419 57.0372 167.813 57.4842 167.222C58.1718 166.312 59.6213 166.11 60.531 166.796C60.5262 166.002 60.9769 165.222 61.6658 164.83C62.3547 164.439 63.2543 164.453 63.931 164.865C64.5236 164.625 64.4844 163.731 64.1172 163.206C63.9679 162.993 63.7841 162.805 63.601 162.617C63.3334 162.342 63.0672 162.069 62.9113 161.722C62.6185 161.071 62.7819 160.338 62.941 159.625C62.9738 159.478 63.0065 159.331 63.0349 159.187ZM60.9722 157.727C61.4468 157.618 62.0129 157.672 62.3176 158.053C62.7135 158.548 62.4527 159.15 62.1804 159.778C61.9581 160.291 61.7281 160.822 61.8409 161.327C61.9302 161.727 62.2258 162.043 62.5097 162.338L63.8538 163.734C63.2846 164.263 62.4978 164.047 61.6906 163.825C60.9645 163.625 60.2219 163.421 59.6059 163.75C59.155 163.991 58.8959 164.463 58.6463 164.917L58.6457 164.918C58.6164 164.971 58.5872 165.025 58.5578 165.077C57.7805 166.467 56.6419 167.652 55.2854 168.482C55.1125 168.588 54.9213 168.692 54.7197 168.672C54.2274 168.624 54.1034 167.945 54.2272 167.465C54.373 166.9 54.67 166.375 54.9646 165.855C55.3899 165.105 55.8098 164.363 55.7614 163.521C55.244 164.379 54.1189 164.706 53.1287 164.566C52.1384 164.426 51.2469 163.909 50.3838 163.403C49.7879 163.053 50.0012 162.048 50.5955 161.695C51.1898 161.343 51.9354 161.438 52.6188 161.537C53.3023 161.636 54.0548 161.713 54.6329 161.334C54.348 160.065 54.4125 158.719 54.8173 157.482C54.9633 157.036 55.1763 156.577 55.5776 156.335C55.979 156.093 56.607 156.191 56.7738 156.63C57.1873 157.718 58.4451 158.409 59.5825 158.173C59.8295 158.121 60.0662 158.033 60.3031 157.944L60.3031 157.944L60.3032 157.944L60.3033 157.944C60.5235 157.862 60.7436 157.779 60.9722 157.727ZM60.7102 164.235C60.8247 164.629 60.7617 165.072 60.5416 165.419L60.6054 165.484C60.2252 165.683 59.7391 165.662 59.3773 165.431L59.761 164.442C60.0496 164.286 60.3828 164.213 60.7102 164.235ZM165.398 181.349C164.171 179.374 163.37 177.143 163.065 174.846C163.908 175.061 164.343 175.986 164.482 176.831C164.521 177.068 164.547 177.309 164.572 177.55L164.572 177.55C164.638 178.17 164.704 178.79 164.997 179.335C165.404 180.093 166.504 180.585 167.156 180.017C167.318 179.876 167.44 179.683 167.56 179.493L167.56 179.493C167.756 179.183 167.947 178.881 168.296 178.829C168.729 178.764 169.081 179.149 169.343 179.494L170.949 181.614C171.369 181.489 171.397 181.042 171.426 180.569C171.444 180.278 171.463 179.977 171.574 179.734C171.831 179.174 172.464 179.084 173.124 178.99C173.587 178.923 174.064 178.855 174.432 178.622C175.094 178.202 175.272 177.279 175.026 176.543C174.779 175.807 174.204 175.226 173.608 174.719C172.745 173.985 172.896 172.792 173.05 171.586C173.197 170.429 173.346 169.26 172.603 168.469C171.566 167.366 169.72 167.953 168.348 168.613L167.764 167.945C168.884 167.536 169.087 165.901 168.357 164.971C167.627 164.04 166.336 163.721 165.142 163.716C164.969 163.715 164.781 163.725 164.648 163.834C164.234 164.171 164.818 164.765 165.318 164.961L167.759 165.919C167.195 166.302 166.45 166.075 165.727 165.855C164.943 165.617 164.185 165.386 163.711 165.95C163.178 166.582 163.74 167.568 164.462 167.98C164.741 168.14 165.044 168.26 165.346 168.379C165.826 168.569 166.304 168.758 166.678 169.102C166.192 169.345 165.64 169.168 165.102 168.994L165.102 168.994C164.965 168.95 164.83 168.907 164.697 168.87C164.038 168.69 163.084 168.915 163.092 169.587C162.415 168.84 162.594 167.692 162.814 166.714C163.062 165.619 163.329 164.484 164.033 163.601C164.737 162.719 166.013 162.171 167.049 162.64C167.932 163.04 168.345 163.984 168.739 164.884C168.8 165.023 168.86 165.161 168.922 165.295C169.382 166.302 170.298 167.369 171.396 167.141C172.393 166.934 173.39 167.676 173.806 168.591C174.223 169.505 174.199 170.547 174.167 171.548C174.136 172.552 174.592 173.472 175.046 174.39L175.046 174.39C175.199 174.698 175.351 175.006 175.485 175.317C176.017 176.552 176.158 178.213 175.074 179.027C174.707 179.302 174.26 179.43 173.812 179.557C173.605 179.616 173.399 179.675 173.2 179.748C172.568 179.981 171.93 180.5 171.983 181.162C171.99 181.249 172.009 181.335 172.028 181.421C172.06 181.567 172.092 181.712 172.065 181.858C171.989 182.268 171.46 182.462 171.053 182.346C170.647 182.23 170.342 181.906 170.059 181.595L168.265 179.625C167.764 180.684 166.584 181.394 165.398 181.349ZM165.125 117.684C163.871 116.322 162.334 115.081 160.504 114.804C160.311 114.775 160.116 114.757 159.921 114.739C159.527 114.702 159.135 114.665 158.762 114.539C158.263 114.37 157.83 114.051 157.429 113.71C156.886 113.248 156.363 112.727 155.838 112.205C154.295 110.669 152.742 109.123 150.647 109.042C148.441 108.956 146.37 110.938 146.355 113.148C146.342 115.002 147.542 116.617 148.686 118.075L168.581 143.442L180.916 159.17C182.508 161.201 184.601 163.449 187.156 163.095C189.452 162.777 190.994 160.08 190.34 157.854C190.088 156.998 189.593 156.252 189.097 155.503C188.664 154.851 188.23 154.197 187.957 153.469C187.522 152.31 187.526 151.064 187.529 149.813C187.532 148.856 187.535 147.895 187.342 146.967C186.912 144.911 185.558 143.185 184.181 141.6C183.436 140.742 182.646 139.472 183.359 138.587C184.206 137.534 183.783 135.979 183.248 134.738C181.529 130.751 179.034 127.102 175.943 124.056C174.62 122.752 172.695 121.482 171.039 122.324C170.341 122.679 169.507 122.243 168.899 121.75C167.928 120.961 167.118 120.003 166.309 119.045C165.92 118.585 165.532 118.125 165.125 117.684ZM148.334 111.009C149.153 110.208 150.389 109.862 151.504 110.122C152.778 110.419 153.764 111.406 154.626 112.392C156.898 114.992 158.815 117.877 160.728 120.756C160.941 121.077 161.155 121.398 161.369 121.719C169.414 133.783 178.213 145.344 187.697 156.31C188.625 157.383 189.625 158.706 189.263 160.078C188.852 161.632 186.806 162.234 185.298 161.684C183.79 161.134 182.718 159.814 181.725 158.552L148.915 116.889C148.263 116.061 147.592 115.193 147.377 114.161C147.142 113.04 147.516 111.81 148.334 111.009ZM174.93 135.332C174.27 134.478 173.562 133.638 172.665 133.038C172.231 132.749 171.743 132.5 171.255 132.25C170.005 131.612 168.758 130.976 168.453 129.677C168.356 129.265 168.378 128.84 168.4 128.415C168.417 128.082 168.434 127.75 168.395 127.421C168.33 126.882 168.116 126.373 167.882 125.883C166.111 122.165 163.067 119.069 159.382 117.237C158.772 116.933 159.15 115.873 159.82 115.742C160.489 115.61 161.127 116.044 161.66 116.47C166.929 120.685 170.779 126.254 174.642 131.839C176.999 135.248 179.36 138.663 182.051 141.78C182.31 142.08 182.572 142.378 182.835 142.677C184.299 144.339 185.774 146.015 186.653 148.036C185.498 148.243 184.498 149.15 184.18 150.28C182.257 148.467 181.095 146.05 179.939 143.648C179.643 143.031 179.347 142.416 179.039 141.812C177.875 139.53 176.497 137.358 174.93 135.332ZM180.396 137.474C180.275 137.592 180.125 137.695 179.956 137.702C179.668 137.713 179.45 137.456 179.281 137.223L171.573 126.646C171.276 126.239 171.483 125.607 171.915 125.348C172.346 125.09 172.911 125.151 173.36 125.38C173.808 125.608 174.163 125.981 174.503 126.353C176.574 128.615 178.43 131.075 180.036 133.689C180.395 134.274 180.748 134.882 180.88 135.557C181.012 136.231 180.886 136.993 180.396 137.474ZM181.524 136.437C181.663 135.894 181.428 135.332 181.186 134.826C179.441 131.191 176.992 127.895 174.016 125.176C173.534 124.736 172.907 124.281 172.287 124.485C172.058 124.56 171.872 124.716 171.686 124.872C171.577 124.962 171.468 125.054 171.349 125.129C171.029 125.335 170.519 125.377 170.336 125.042C170.195 124.783 170.343 124.459 170.539 124.239C171.217 123.481 172.41 123.377 173.363 123.729C174.316 124.081 175.082 124.8 175.801 125.518C178.392 128.106 180.809 131.02 181.941 134.505C182.447 136.06 182.607 137.969 181.471 139.144C181.376 139.242 181.271 139.335 181.143 139.38C180.737 139.522 180.313 139.089 180.303 138.658C180.294 138.228 180.559 137.844 180.834 137.514C180.864 137.479 180.894 137.443 180.924 137.408C181.174 137.112 181.43 136.81 181.524 136.437ZM164.796 122.045C165.845 123.572 166.757 125.194 167.518 126.884C167.622 127.116 167.718 127.405 167.563 127.607C167.45 127.753 167.216 127.786 167.067 127.676C164.881 125.018 162.91 122.181 161.181 119.204C161.336 119.26 161.564 119.177 161.549 119.013C162.94 119.58 163.945 120.806 164.796 122.045ZM172.46 134.935C172.268 134.656 172.105 134.21 172.395 134.036C173.677 134.616 174.554 135.813 175.353 136.972C176.518 138.662 177.644 140.378 178.73 142.12C178.99 142.537 179.214 143.163 178.815 143.449C178.134 143.141 177.676 142.497 177.252 141.881L172.46 134.935ZM185.199 150.775C185.097 150.73 185.025 150.635 184.977 150.534C184.686 149.925 185.321 149.112 185.981 149.247C186.01 149.839 185.845 150.439 185.518 150.934C185.484 150.855 185.398 150.833 185.311 150.81C185.272 150.8 185.234 150.79 185.199 150.775ZM186.694 152.202C186.492 152.421 186.1 152.421 185.899 152.201C185.686 151.643 185.943 150.947 186.467 150.662L186.694 152.202Z" fill="#00160A"/>
<defs>
<linearGradient id="paint0_linear" x1="18.4808" y1="101.035" x2="99.2105" y2="259.911" gradientUnits="userSpaceOnUse">
<stop offset="0.0552082" stop-color="#0080FF"/>
<stop offset="0.940625" stop-color="#0059B2"/>
</linearGradient>
</defs>
</svg>
