<svg width="250" height="250" viewBox="0 0 250 250" fill="none" xmlns="http://www.w3.org/2000/svg">
<path fill-rule="evenodd" clip-rule="evenodd" d="M71.3593 134.689C71.6004 135.853 71.3307 137.068 70.8898 138.171C71.0002 138.277 71.1107 138.382 71.2212 138.487C73.4276 136.769 75.6684 135.016 77.2726 132.726C77.9484 131.761 77.15 130.352 76.0676 129.887C74.9853 129.423 73.7546 129.566 72.5777 129.516C71.1616 129.456 69.7586 129.1 68.4855 128.477C66.6372 127.572 64.9409 126.08 62.8833 126.049C62.6562 126.046 62.4129 126.067 62.2345 126.207C61.7992 126.55 62.0651 127.248 62.392 127.695C64.0142 129.914 66.446 131.529 69.1215 132.161C70.2779 132.435 71.1182 133.526 71.3593 134.689Z" fill="#FF6455"/>
<path fill-rule="evenodd" clip-rule="evenodd" d="M106.854 168.59L77.6041 175.119C71.6257 176.453 65.6977 172.688 64.3634 166.71C63.7203 163.828 64.2526 160.809 65.8425 158.321L81.9811 133.068C86.9495 125.293 88.613 115.859 86.6033 106.854L80.0752 77.6037C78.7409 71.6254 82.5057 65.6973 88.4841 64.363C91.3656 63.7199 94.3847 64.2523 96.8725 65.8421L122.126 81.9807C129.9 86.9491 139.335 88.6126 148.34 86.6029L177.59 80.0748C183.568 78.7406 189.496 82.5053 190.831 88.4837C191.474 91.3653 190.941 94.3843 189.352 96.8721L173.213 122.126C168.245 129.9 166.581 139.335 168.591 148.339L175.119 177.59C176.453 183.568 172.688 189.496 166.71 190.83C163.828 191.473 160.809 190.941 158.322 189.351L133.068 173.213C125.294 168.244 115.859 166.581 106.854 168.59Z" fill="#FF6455"/>
<path d="M209.732 157.203C209.732 157.203 78.6465 157.272 26.7468 157.203C22.6732 148.322 27.7979 136.456 37.0555 133.333C34.1583 136.638 31.261 139.944 28.3637 143.249C33.4541 143.198 209.732 143.249 209.732 143.249V157.203Z" fill="white"/>
<path fill-rule="evenodd" clip-rule="evenodd" d="M167.454 157.222C102.368 157.248 55.4652 157.241 26.747 157.203C22.6734 148.322 122.556 152.062 160.431 152.062C198.307 152.062 180.784 157.217 167.454 157.222Z" fill="#E7EAEE"/>
<path fill-rule="evenodd" clip-rule="evenodd" d="M140.348 55.3971C140.81 54.8696 141.723 54.8307 142.229 55.3167C140.595 52.0804 135.815 51.1103 134.787 47.6334C133.473 43.1825 131.533 38.9167 129.044 35C128.008 38.8508 126.029 42.4442 123.328 45.3782C122.626 45.3814 121.923 45.3845 121.221 45.3877C119.624 45.3949 118.014 45.4036 116.455 45.7468C113.651 46.3641 111.137 48.0366 108.296 48.4527C108.506 48.189 108.717 47.9252 108.927 47.6615C108.869 47.3893 108.474 47.2648 108.27 47.454C107.91 46.0224 106.751 44.8982 105.436 44.2281C104.12 43.558 102.181 42.3107 98.2993 42.6388C103.009 47.911 101.55 69.8597 102.709 74.0192C103.104 74.1247 103.407 73.6928 103.664 73.3746C103.921 73.0565 104.521 72.8611 104.66 73.2458C105.625 75.9201 105.762 80.0352 108.719 81.6286C109.29 81.9361 109.629 81.3617 109.585 81.0818C109.528 80.7243 109.957 80.4489 110.315 80.5032C110.673 80.5575 110.959 80.8167 111.238 81.0471C115.942 84.931 123.644 82.929 128.354 86.8062C129.284 87.5723 130.104 88.5707 131.266 88.8932C131.959 89.0857 132.697 89.0098 133.405 88.8829C137.621 88.1274 141.374 85.6261 144.302 82.5004C147.23 79.3747 149.416 75.6373 151.451 71.869C149.576 70.8071 147.605 69.6495 146.586 67.7504C145.783 66.2541 145.29 64.1092 143.602 63.9264C144.137 65.6655 144.672 67.4046 145.208 69.1437C145.404 69.7805 145.602 70.4447 145.499 71.1029C145.395 71.7611 144.892 72.4076 144.226 72.441C143.323 72.4864 142.687 71.4643 141.791 71.3479C141.621 74.7117 140.329 78.0092 138.169 80.5936C137.42 81.4903 135.978 82.3046 135.218 81.4172C136.372 79.5522 137.527 77.6871 138.681 75.8221C139.401 74.6598 140.139 73.4437 140.271 72.0831C140.403 70.7226 139.728 69.1792 138.42 68.7825C138.362 68.4228 138.741 68.1138 139.105 68.1031C139.47 68.0924 139.805 68.2852 140.118 68.4719C141.283 69.1665 142.447 69.8611 143.612 70.5557C143.24 67.7943 142.48 65.0854 141.362 62.5335C142.445 62.4308 143.554 62.5965 144.56 63.0115C143.785 60.7697 142.364 58.7553 140.513 57.2731C139.965 56.8346 139.885 55.9245 140.348 55.3971Z" fill="white"/>
<path fill-rule="evenodd" clip-rule="evenodd" d="M117.091 49.4463C118.051 50.0814 118.807 51.0177 119.227 52.0889C119.358 52.4221 119.729 52.5828 119.979 52.8386C120.229 53.0944 120.27 53.6411 119.92 53.7125C119.766 53.7438 119.616 53.6593 119.482 53.5791C117.331 52.2947 114.715 51.2577 112.368 52.1349C112.754 52.332 112.949 52.8377 112.795 53.2427C113.274 53.26 113.72 53.4754 114.151 53.6866C114.53 53.8725 114.909 54.0585 115.287 54.2444C115.248 54.3563 115.208 54.4682 115.168 54.5801C113.455 53.7077 111.362 53.617 109.58 54.3379C110.172 54.4279 110.776 54.4443 111.372 54.3867C112.242 54.825 113.112 55.2633 113.981 55.7016C114.175 55.7991 114.379 55.9063 114.488 56.0936C114.596 56.2809 114.555 56.5714 114.353 56.6486C112.781 55.2628 110.559 54.65 108.499 55.0348C108.259 55.0798 108.094 54.7445 108.196 54.5223C108.298 54.3001 108.543 54.1861 108.77 54.0965C109.912 53.6471 111.116 53.3563 112.337 53.2353C111.726 52.6691 111.019 52.2075 110.255 51.8765C110.129 51.4461 110.75 51.0335 111.098 51.3163C113.742 50.798 116.575 51.3123 118.868 52.7271C118.887 52.2773 118.554 51.899 118.241 51.5745C117.266 50.5601 116.29 49.5457 115.314 48.5312C117.023 48.7477 118.698 49.2288 120.261 49.9521C120.614 50.1157 120.963 50.2923 121.284 50.514C122.49 51.3489 123.207 52.8423 123.106 54.3055C122.375 52.7615 121.219 51.4216 119.798 50.4731C118.986 49.9309 118.066 49.5087 117.091 49.4463V49.4463Z" fill="#E7EAEE"/>
<path fill-rule="evenodd" clip-rule="evenodd" d="M54.9792 122.424C52.5048 124.645 52.7208 128.574 53.6139 131.777C54.7629 135.897 56.7059 139.794 59.3048 143.192L28.3637 143.503L37.0555 133.587C27.7979 136.71 22.6732 148.576 26.7468 157.456C78.6465 157.525 130.546 157.419 182.445 157.138C172.979 163.535 163.803 171.296 159.404 181.841C155.005 192.385 156.827 206.249 166.178 212.813C169.661 215.258 173.843 216.511 178.025 217.303C182.336 218.119 187.557 218.154 190.218 214.665C191.772 212.627 191.029 209.43 190.294 206.268C189.782 204.062 189.273 201.873 189.551 200.107C190.494 194.119 194.525 191.082 199.125 187.617L199.125 187.617L199.128 187.615C200.093 186.888 201.084 186.142 202.075 185.346C210.555 178.54 220.276 169.935 222.751 159.348C225.011 149.677 222.523 140.084 216.058 132.544C213.73 129.83 210.869 127.359 207.993 124.876C204.129 121.539 200.238 118.18 197.581 114.176C195.959 111.73 195.39 109.117 194.793 106.374C194.579 105.389 194.361 104.388 194.09 103.372C190.604 90.3288 178.176 83.6223 165.378 76.7165C163.757 75.8419 162.13 74.9641 160.515 74.0698C153.109 69.9693 145.634 64.7206 143.256 56.5044C144.567 56.5556 145.054 54.5844 144.298 53.5113C143.736 52.7133 142.848 52.2642 141.963 51.8163C141.657 51.6618 141.352 51.5076 141.061 51.3392C138.357 49.7759 136.807 46.5866 135.219 43.3205C132.834 38.4136 130.364 33.3335 123.771 33.3335C123.523 34.9983 123.78 36.4814 124.021 37.871C124.393 40.0185 124.727 41.9426 123.095 43.9685C118.423 43.4503 113.592 44.4721 109.53 46.8379C107.181 42.3791 101.225 40.4744 96.3966 41.918C97.0079 42.6876 97.3706 43.0736 97.6711 43.3936C98.3061 44.0696 98.6643 44.4509 100.506 47.5314C103.221 52.0702 101.501 68.7557 101.072 71.3937C100.642 74.0317 102.675 75.9065 104.534 74.6038C103.628 78.5139 106.891 82.2454 110.903 82.3579C112.273 82.6023 113.125 83.2652 113.93 83.8916C114.43 84.2813 114.913 84.6569 115.491 84.9089C102.751 94.021 88.6487 101.223 73.7983 106.202L73.537 106.289C70.7584 107.219 67.8539 108.191 65.8865 110.35C63.8573 112.577 63.3808 116.531 65.7421 118.402C64.3004 119.709 62.3272 120.065 60.3535 120.42C58.3879 120.775 56.4216 121.129 54.9792 122.424ZM186.58 140.058C184.281 142.23 179.78 142.344 176.617 142.331L135.598 142.163C134.413 140.589 135.146 138.169 136.676 136.928C138.207 135.687 140.268 135.353 142.233 135.197C148.573 134.695 155.022 135.606 160.975 137.845C162.647 138.142 163.916 136.033 163.512 134.384C163.108 132.735 161.704 131.555 160.398 130.47C156.184 126.969 152.051 123.027 150.073 117.918C148.022 112.62 148.617 106.369 151.632 101.553C146.571 105.757 145.508 113.485 147.78 119.659C150.053 125.833 155.044 130.636 160.452 134.382C157.498 134.988 154.432 134.313 151.397 133.646C147.719 132.837 144.087 132.038 140.756 133.538L140.07 114.803L138.289 131.225C138.157 132.446 137.773 133.957 136.566 134.184C133.29 134.8 131.348 139.09 133.046 141.958C131.582 142.946 129.349 142.504 128.372 141.033C127.395 139.563 127.853 137.333 129.33 136.366C132.915 134.021 133.198 128.97 133.101 124.688L132.428 95.1224C132.412 94.4086 132.573 93.4704 133.28 93.3721C143.63 91.9342 152.832 84.1577 155.975 74.1927C165.148 78.3014 174.321 83.039 181.723 89.5634C198.66 104.494 194.014 116.909 192.799 120.157C192.586 120.726 192.478 121.014 192.61 120.984C193.455 120.795 193.856 119.845 194.09 119.011C194.636 117.065 194.992 115.065 195.15 113.05C197.945 118.243 202.396 122.188 206.855 126.142C210.932 129.755 215.015 133.375 217.849 137.961C222.219 145.032 223.134 154.132 220.258 161.932C216.862 171.145 209.055 177.59 201.355 183.947L201.355 183.947C199.505 185.475 197.661 186.997 195.886 188.551C192.17 191.805 188.432 195.836 188.312 200.774C188.28 202.097 188.516 203.401 188.753 204.707C188.92 205.63 189.087 206.554 189.16 207.487C189.336 209.738 188.781 212.3 186.874 213.511C186.07 214.021 185.114 214.232 184.171 214.368C174.398 215.779 162.426 209.166 159.638 199.693C156.902 190.397 161.704 178.929 168.014 171.575C171.933 167.006 177.005 163.741 182.094 160.466C185.196 158.468 188.305 156.467 191.162 154.164C193.84 152.006 196.485 149.679 198.179 146.686C199.874 143.693 200.482 139.888 198.96 136.804C197.713 134.277 195.254 132.521 192.843 130.8C189.812 128.636 186.856 126.526 186.479 123.001C186.525 124.585 187.193 126.359 187.856 128.117L187.856 128.117C188.434 129.65 189.007 131.171 189.159 132.544C189.487 135.491 188.736 138.021 186.58 140.058ZM191.568 134.015C195.685 134.06 198.104 139.272 196.945 143.224C195.787 147.175 192.385 149.988 189.159 152.547C187.541 153.831 185.754 155.177 183.688 155.193L27.916 156.358L27.2335 144.274L57.2762 144.246C61.1621 144.242 65.5682 144.464 68.0993 147.413C69.0198 148.485 70.6588 147.318 71.7818 146.46C74.4421 144.428 78.0544 144.329 81.4018 144.315L191.314 143.869C192.492 143.864 194.078 143.469 194.039 142.291L186.648 142.013C189.303 140.186 191.134 137.208 191.568 134.015ZM77.2588 142.934C78.9075 138.952 80.1584 134.806 80.9867 130.576C81.2194 129.388 81.4194 128.172 81.2612 126.972C80.7867 123.37 77.3669 121 74.2251 119.176C75.5662 119.15 76.7099 118.202 77.5707 117.173C77.8102 116.887 78.0389 116.589 78.2676 116.291L78.2677 116.291C78.8609 115.519 79.454 114.747 80.2356 114.175C81.839 113.004 82.0957 112.983 85.4079 112.711C85.7489 112.683 86.1224 112.652 86.5331 112.618C89.4459 112.371 96.4904 109.717 101.634 107.779C104.258 106.79 106.387 105.988 107.221 105.787C118.629 103.034 126.537 106.638 128.318 108.58C129.289 109.641 129.528 111.161 129.723 112.586C130.602 118.996 131.48 125.507 130.555 131.911C130.382 133.106 130.063 134.424 129.049 135.081C128.033 135.739 127.076 136.489 126.193 137.319C124.778 138.649 123.506 140.807 124.605 142.408L77.2588 142.934ZM142.195 54.8413C141.689 54.3552 140.776 54.3942 140.313 54.9216C139.85 55.449 139.93 56.3591 140.478 56.7976C142.33 58.2799 143.751 60.2943 144.526 62.536C143.519 62.121 142.411 61.9554 141.327 62.058C142.446 64.6099 143.206 67.3188 143.577 70.0802L140.083 67.9964C139.771 67.8097 139.435 67.6169 139.071 67.6276C138.707 67.6384 138.327 67.9473 138.385 68.307C139.693 68.7037 140.368 70.2471 140.236 71.6077C140.104 72.9683 139.366 74.1843 138.647 75.3466L135.183 80.9418C135.944 81.8292 137.385 81.0149 138.135 80.1181C140.294 77.5338 141.586 74.2362 141.756 70.8724C142.173 70.9265 142.533 71.1759 142.89 71.4231C143.301 71.708 143.708 71.9898 144.192 71.9656C144.857 71.9322 145.36 71.2856 145.464 70.6274C145.568 69.9692 145.369 69.3051 145.173 68.6683L143.567 63.4509C144.876 63.5927 145.467 64.9152 146.041 66.1997L146.041 66.1998C146.207 66.5712 146.371 66.9394 146.551 67.2749C147.57 69.174 149.542 70.3316 151.417 71.3935C149.382 75.1618 147.196 78.8993 144.268 82.0249C141.34 85.1506 137.586 87.6519 133.371 88.4075C132.663 88.5344 131.924 88.6102 131.231 88.4178C130.363 88.1767 129.685 87.5577 129.01 86.9404C128.782 86.7321 128.554 86.524 128.319 86.3307C125.966 84.3933 122.865 83.9239 119.765 83.4545C116.661 82.9846 113.557 82.5147 111.204 80.5716L111.137 80.516C110.878 80.3011 110.61 80.0777 110.281 80.0277C109.923 79.9734 109.494 80.2488 109.55 80.6063C109.594 80.8862 109.255 81.4606 108.684 81.1531C106.484 79.9675 105.845 77.3854 105.264 75.0398L105.264 75.0397L105.264 75.0397L105.264 75.0395L105.264 75.0394C105.065 74.233 104.872 73.4545 104.625 72.7704C104.486 72.3857 103.886 72.5811 103.629 72.8992C103.61 72.9236 103.59 72.9487 103.569 72.9742L103.568 72.9754L103.567 72.9773C103.323 73.2829 103.038 73.6408 102.675 73.5438C102.241 71.9481 102.392 70.1444 102.538 68.3994C102.598 67.6889 102.657 66.9882 102.675 66.3152C102.676 66.2543 102.695 66.0704 102.725 65.7821C103.061 62.4973 104.784 45.6571 98.2995 42.6387C99.8412 42.3348 102.329 42.616 104.534 43.9683C106.764 45.3364 108.367 47.8446 108.261 47.9773C109.802 47.7516 111.246 47.1567 112.692 46.5609C113.914 46.0578 115.137 45.5539 116.421 45.2713C117.98 44.9281 119.59 44.9194 121.186 44.9122L123.294 44.9027C125.564 42.4358 125.477 39.7333 125.375 36.5994V36.5993V36.5992V36.5991V36.599C125.355 36.0058 125.336 35.3972 125.331 34.7718C129.267 35.2887 133.438 42.7071 134.753 47.1579C135.302 49.0169 136.924 50.1593 138.565 51.3146C139.993 52.3201 141.434 53.3353 142.195 54.8413ZM75.1173 107.321L75.1186 107.321L75.1205 107.321L75.1227 107.32L75.1248 107.32C75.573 107.206 76.0185 107.093 76.4578 106.976C83.2184 105.188 89.5283 102.04 95.7835 98.9127C103.236 95.1872 110.817 91.372 116.796 85.569C117.258 85.1205 117.991 85.1516 118.629 85.2339C120.991 85.5384 123.314 86.1413 125.526 87.0237C126.685 87.4861 127.988 88.2802 127.996 89.528C127.999 89.9673 127.831 90.3873 127.665 90.7941L126.551 93.5232C126.076 94.6876 125.593 95.8953 125.634 97.1522C125.675 98.409 126.389 99.7356 127.598 100.081C128.807 100.426 130.301 99.3013 129.988 98.0832C129.453 95.9974 129.087 93.8683 128.895 91.7235C131.25 96.3893 130.438 101.956 129.569 107.11C126.451 105.467 123.187 104.102 119.828 103.034C118.674 102.667 117.381 102.344 116.291 102.871C113.623 104.161 108.6 104.505 108.106 104.158C107.611 103.812 106.935 103.979 106.365 104.179C105.447 104.502 103.699 105.183 101.61 105.998L101.608 105.998C96.4813 107.997 89.3042 110.795 87.3282 111.045C86.8083 111.111 86.2855 111.16 85.7627 111.209L85.7625 111.209L85.7623 111.209L85.762 111.209L85.7618 111.209C84.6308 111.314 83.5004 111.42 82.4012 111.698C80.7936 112.105 79.2088 112.947 78.358 114.371C77.7223 114.021 77.3255 113.403 76.9265 112.781C76.734 112.481 76.5409 112.18 76.3202 111.908C75.6422 111.073 74.2189 110.558 73.5688 111.415C72.9986 109.465 70.1116 108.712 68.6616 110.135C68.4375 110.355 68.2506 110.609 68.0637 110.862L68.0636 110.862C67.8693 111.126 67.675 111.389 67.4391 111.615C66.9762 112.058 66.2352 112.33 65.6981 111.981C67.8933 109.156 71.5885 108.217 75.1173 107.321ZM67.9619 142.739C66.3056 143.335 64.4782 142.754 62.8352 142.123C61.2821 141.526 59.6608 140.814 58.7173 139.444C57.5818 137.795 57.7042 135.618 57.8715 133.623L58.5724 125.264C57.533 126.139 56.7696 127.336 56.4159 128.647C55.576 126.794 56.8254 124.32 58.8149 123.895C57.9744 123.199 56.5908 123.656 55.9975 124.572C55.4042 125.488 55.4177 126.667 55.5911 127.745C55.6379 128.035 55.6949 128.326 55.7519 128.616L55.7519 128.616L55.7519 128.616L55.7519 128.616L55.7519 128.616C55.9061 129.402 56.0604 130.188 56.0129 130.983C54.764 129.032 54.526 126.469 55.394 124.321C55.7871 123.348 56.4838 122.396 57.5027 122.146C58.5216 121.895 59.7826 122.728 59.6138 123.763C59.227 126.137 60.3337 128.573 62.0308 130.277C63.728 131.98 65.9519 133.053 68.1967 133.915C69.0229 134.233 70.0501 134.959 69.6473 135.747C69.2266 136.57 68.9364 137.502 69.0809 138.415C69.2254 139.328 69.8941 140.2 70.8049 140.357C71.9276 140.551 72.9266 139.682 73.7337 138.878L78.5018 134.127C77.8664 135.893 77.1211 137.618 76.2715 139.291C75.6895 140.437 75.0239 141.598 73.9718 142.336C72.9197 143.074 71.3795 143.266 70.3844 142.453C69.8299 142 69.0734 142.301 68.3692 142.582L68.3688 142.582C68.2305 142.637 68.0942 142.691 67.9619 142.739ZM67.4902 126.115C67.0455 125.82 66.6003 125.525 66.139 125.265C64.7101 124.459 62.8124 124.025 61.5006 125.011C61.0801 123.657 61.9114 122.204 62.9956 121.291C64.9137 119.676 67.7257 119.202 70.0669 120.1C72.2866 120.951 74.5397 121.877 76.3028 123.471C78.0659 125.066 79.2713 127.477 78.8183 129.811C78.3225 129.931 77.9087 129.533 77.522 129.161L77.5219 129.161L77.5219 129.161L77.5218 129.161L77.5218 129.161C77.4481 129.09 77.3753 129.02 77.3032 128.955C76.2066 127.963 74.7026 127.936 73.1698 127.909C72.2378 127.892 71.2952 127.875 70.4271 127.641C69.3543 127.352 68.4233 126.734 67.4902 126.115ZM70.8892 138.172C71.3302 137.068 71.5998 135.853 71.3588 134.69C71.1177 133.526 70.2773 132.435 69.1209 132.162C66.4455 131.529 64.0136 129.915 62.3914 127.695C62.0646 127.248 61.7986 126.55 62.2339 126.208C62.4124 126.067 62.6556 126.046 62.8827 126.05C64.3478 126.071 65.6296 126.834 66.9135 127.598C67.4329 127.907 67.9526 128.217 68.485 128.477C69.7581 129.1 71.161 129.457 72.5771 129.517C72.8609 129.529 73.1479 129.529 73.4351 129.53C74.339 129.533 75.2457 129.535 76.0671 129.888C77.1495 130.353 77.9479 131.761 77.2721 132.726C75.6678 135.016 73.427 136.77 71.2206 138.487L70.8892 138.172ZM152.097 72.7101C152.343 72.2652 152.708 71.7542 153.214 71.8118C153.868 71.8863 153.999 72.7789 153.909 73.431C153.272 78.0577 150.408 82.1713 146.765 85.0931C143.121 88.0149 138.738 89.8646 134.303 91.3309C133.999 91.4317 133.7 91.6217 133.406 91.8084C132.846 92.1651 132.305 92.5094 131.779 92.1939C131.172 91.8303 131.327 90.8329 131.879 90.3909C132.379 89.9898 133.046 89.9038 133.688 89.8208C133.754 89.8123 133.819 89.8039 133.884 89.7952C138.172 89.2179 142.001 86.6743 144.93 83.4907C147.859 80.3071 150.002 76.4949 152.097 72.7101ZM72.6001 111.682C72.9863 112.142 73.4119 112.649 73.9981 112.636C74.4911 112.625 74.7983 113.026 75.1165 113.441C75.3422 113.735 75.5734 114.036 75.8804 114.204C76.6147 114.604 76.6778 115.718 76.1959 116.402C75.714 117.085 74.8776 117.418 74.0685 117.629C72.4187 118.06 70.6766 118.135 68.996 117.846C67.9 117.658 66.7639 117.273 66.0731 116.401C65.3822 115.53 65.3626 114.066 66.2773 113.433C66.5833 113.222 66.9516 113.123 67.3179 113.025C67.7546 112.908 68.1883 112.792 68.5096 112.486C68.748 112.259 68.8909 111.957 69.0336 111.655C69.183 111.338 69.3322 111.022 69.5909 110.794C70.0096 110.424 70.644 110.374 71.171 110.558C71.698 110.743 72.1312 111.129 72.4931 111.555C72.5285 111.596 72.5641 111.639 72.6001 111.682ZM69.5107 145.704C69.3412 145.771 69.1502 145.781 68.9742 145.734C68.804 145.688 68.6488 145.588 68.5367 145.452C68.0803 144.899 68.7164 143.9 69.4107 144.079C70.1049 144.258 70.1777 145.441 69.5107 145.704ZM125.956 142.234C125.787 142.436 125.375 142.415 125.332 142.156C125.151 141.087 125.066 139.772 125.95 139.145L126.1 141.477C126.117 141.74 126.125 142.032 125.956 142.234ZM117.091 47.78C118.051 48.415 118.808 49.3514 119.227 50.4226C119.313 50.6409 119.502 50.7852 119.692 50.9307C119.792 51.0072 119.893 51.0841 119.979 51.1722C120.229 51.428 120.27 51.9747 119.92 52.0462C119.767 52.0774 119.616 51.993 119.482 51.9128C117.331 50.6284 114.715 49.5913 112.368 50.4686C112.754 50.6656 112.949 51.1714 112.795 51.5764C113.274 51.5937 113.72 51.8091 114.151 52.0202L115.288 52.5781L115.168 52.9138C113.455 52.0414 111.362 51.9506 109.58 52.6715C110.172 52.7615 110.776 52.778 111.372 52.7204L113.981 54.0353C114.175 54.1328 114.379 54.24 114.488 54.4273C114.596 54.6146 114.555 54.905 114.353 54.9823C112.781 53.5964 110.559 52.9837 108.499 53.3685C108.259 53.4134 108.094 53.0782 108.196 52.856C108.298 52.6338 108.543 52.5198 108.77 52.4302C109.912 51.9807 111.116 51.69 112.337 51.5689C111.726 51.0028 111.019 50.5412 110.255 50.2101C110.129 49.7797 110.75 49.3672 111.098 49.65C113.742 49.1316 116.575 49.646 118.868 51.0608C118.887 50.6109 118.554 50.2326 118.242 49.9081L115.314 46.8649C117.023 47.0814 118.698 47.5625 120.261 48.2858C120.614 48.4494 120.963 48.626 121.284 48.8477C122.49 49.6826 123.207 51.176 123.106 52.6392C122.375 51.0952 121.219 49.7553 119.798 48.8067C118.986 48.2646 118.066 47.8424 117.091 47.78ZM123.111 61.9892C122.945 60.698 122.938 59.3207 123.552 58.1728C123.735 57.8296 123.99 57.4997 124.352 57.3558C124.906 57.1357 125.543 57.4167 125.979 57.822C127.062 58.8276 127.293 60.4564 127.2 61.9314C127.16 62.5723 127.065 63.2278 126.751 63.7879C126.437 64.3479 125.862 64.7985 125.22 64.8079C124.576 64.8174 123.987 64.3815 123.652 63.8309C123.317 63.2802 123.193 62.6286 123.111 61.9892ZM107.694 66.7927C106.476 64.9287 106.559 62.3068 107.891 60.5227C108.05 60.3095 108.231 60.1029 108.467 59.981C108.928 59.7436 109.517 59.8867 109.916 60.2174C110.315 60.5481 110.555 61.0323 110.729 61.5207C111.243 62.9672 111.265 64.5842 110.788 66.0437C110.499 66.9289 109.783 67.8867 108.866 67.7266C108.359 67.6382 107.976 67.223 107.694 66.7927ZM119.393 76.3661C119.54 76.3254 119.685 76.285 119.793 76.1819C120.021 75.9635 119.941 75.5415 119.682 75.3608C119.423 75.18 119.059 75.2113 118.783 75.3645C118.503 75.5196 118.281 75.8264 118.328 76.1427C118.375 76.4591 118.78 76.6953 119.04 76.5093C119.143 76.4355 119.269 76.4007 119.393 76.3661ZM122.682 71.227C124.704 70.779 125.834 70.8357 127.569 71.2778L127.934 71.3732C129.665 71.8252 130.747 71.8272 132.944 71.115C133.206 71.0298 133.488 71.1737 133.573 71.4364C133.659 71.6991 129.65 72.8383 127.817 72.3754L127.479 72.2875C125.792 71.8443 124.81 71.7797 122.898 72.2033C122.628 72.2631 122.361 72.0929 122.302 71.8233C122.242 71.5537 122.412 71.2868 122.682 71.227ZM138.564 66.3984C138.442 66.1506 138.143 66.0486 137.895 66.1706C134.336 67.9221 132.365 68.1503 129.12 67.736L128.301 67.6346C128.208 67.624 128.126 67.6154 128.04 67.607L127.747 67.581C125.815 67.4292 124.284 67.757 122.318 68.9307C122.081 69.0723 122.004 69.3793 122.145 69.6164C122.287 69.8535 122.594 69.9309 122.831 69.7893C124.66 68.6972 126.01 68.4264 127.814 68.5903C127.934 68.6012 128.034 68.611 128.149 68.6238L129.349 68.7714C132.573 69.1457 138.686 66.6461 138.564 66.3984ZM113.878 71.0921C114.153 71.0725 114.393 71.2799 114.412 71.5553C114.432 71.8308 114.224 72.07 113.949 72.0896C112.809 72.1707 112.024 72.5583 110.845 73.5081L110.419 73.8601L110.116 74.1135C109.078 74.9796 108.386 75.4516 107.468 75.828C107.212 75.9328 105.448 76.2918 106.815 75.5551C108.183 74.8185 109.965 72.9365 109.965 72.9365L110.226 72.723C111.548 71.6586 112.495 71.1906 113.878 71.0921ZM114.629 73.4845C114.52 73.2305 114.226 73.1125 113.973 73.2209C112.717 73.7567 112.011 74.4414 110.823 75.9957L110.457 76.4726C110.216 76.78 110.015 77.0901 109.819 77.3911C109.388 78.0548 108.986 78.674 108.261 79.1204C107.206 79.7693 108.713 79.4291 108.949 79.2844C109.885 78.7085 110.493 78.073 111.441 76.8349L111.716 76.4754C112.745 75.1414 113.345 74.5759 114.365 74.1407C114.619 74.0322 114.737 73.7385 114.629 73.4845Z" fill="#00160A"/>
<path fill-rule="evenodd" clip-rule="evenodd" d="M116.38 71.8957C115.971 71.527 115.377 71.4141 114.977 71.0351C114.599 70.6759 114.454 70.0901 114.621 69.5956C114.789 69.1012 115.26 68.7242 115.779 68.6692C117.268 68.5113 118.757 68.3534 120.246 68.1956C120.6 68.1581 120.99 68.13 121.277 68.3406C121.714 68.6622 121.645 69.3649 121.329 69.8061C121.013 70.2472 120.526 70.5315 120.145 70.9183C119.655 71.4167 119.348 72.0922 119.295 72.7896C119.256 73.3076 119.313 73.9248 118.902 74.243C118.387 74.6425 117.625 74.1704 117.31 73.5998C116.994 73.0292 116.864 72.3321 116.38 71.8957H116.38Z" fill="#FFB61D"/>
<path fill-rule="evenodd" clip-rule="evenodd" d="M176.762 142.472C179.925 142.485 184.426 142.371 186.725 140.199C188.881 138.162 189.632 135.632 189.304 132.685C188.977 129.738 186.71 126.106 186.624 123.142C187.301 129.469 196.289 131.239 199.105 136.945C200.627 140.029 200.019 143.834 198.324 146.827C196.63 149.82 193.985 152.147 191.307 154.305C183.763 160.386 174.468 164.362 168.159 171.716C161.849 179.07 157.047 190.538 159.783 199.834C162.571 209.307 174.543 215.92 184.316 214.509C185.259 214.372 186.215 214.162 187.019 213.652C188.926 212.441 189.481 209.879 189.305 207.628C189.129 205.376 188.402 203.173 188.457 200.915C188.577 195.977 192.315 191.946 196.03 188.692C205.193 180.669 216.19 173.5 220.403 162.073C223.279 154.273 222.364 145.173 217.994 138.102C212.06 128.5 200.645 123.13 195.295 113.191C195.137 115.206 194.781 117.206 194.234 119.152C194.001 119.985 193.6 120.936 192.755 121.125C191.869 121.323 201.772 107.251 181.867 89.7042C174.466 83.1798 165.293 78.4422 156.12 74.3335C152.977 84.2985 143.775 92.075 133.425 93.5129C132.718 93.6112 132.557 94.5494 132.573 95.2632C132.797 105.118 133.022 114.973 133.246 124.829C133.343 129.111 133.06 134.162 129.475 136.507C127.997 137.473 127.54 139.703 128.517 141.174C129.494 142.645 131.727 143.087 133.191 142.099C131.493 139.231 133.435 134.941 136.711 134.325C137.918 134.098 138.302 132.587 138.434 131.366C139.028 125.892 139.621 120.418 140.215 114.944C140.443 121.189 140.672 127.434 140.901 133.679C146.981 130.94 154.064 135.863 160.597 134.523C155.189 130.776 150.198 125.974 147.925 119.8C145.653 113.626 146.716 105.898 151.776 101.694C148.762 106.51 148.167 112.761 150.218 118.059C152.196 123.168 156.329 127.11 160.543 130.611C161.849 131.696 163.253 132.876 163.657 134.525C164.061 136.174 162.792 138.283 161.12 137.986C155.167 135.747 148.718 134.836 142.378 135.338C140.413 135.494 138.352 135.828 136.821 137.068C135.29 138.309 134.558 140.729 135.743 142.304C149.416 142.36 163.089 142.416 176.762 142.472Z" fill="white"/>
<path fill-rule="evenodd" clip-rule="evenodd" d="M184.171 214.368C185.114 214.231 186.07 214.021 186.874 213.511C188.781 212.3 189.337 209.738 189.16 207.487C188.984 205.235 188.257 203.032 188.312 200.774C188.432 195.836 192.17 191.805 195.886 188.551C205.048 180.528 216.046 173.359 220.258 161.932C221.945 157.356 200.765 171.348 189.16 187.82C180.984 199.427 180.131 214.951 184.171 214.368Z" fill="#E7EAEE"/>
<path fill-rule="evenodd" clip-rule="evenodd" d="M191.963 100.583C190.527 97.1255 186.525 93.7967 181.723 89.5636C174.322 83.0391 165.148 78.3016 155.976 74.1929C164.97 80.7448 175.934 86.2138 183.737 94.437C187.539 98.445 190.112 106.522 192.262 109.118C193.908 111.105 196.057 110.443 191.963 100.583Z" fill="#E7EAEE"/>
<path fill-rule="evenodd" clip-rule="evenodd" d="M128.585 99.2266C128.911 98.5144 129.141 95.2275 127.422 95.2275C126.351 96.4444 126.461 98.7794 128.585 99.2266Z" fill="#FFB61D"/>
<path fill-rule="evenodd" clip-rule="evenodd" d="M76.4579 106.976C72.557 108.009 68.1738 108.795 65.6982 111.981C66.2354 112.33 66.9763 112.058 67.4392 111.615C67.9021 111.172 68.2047 110.584 68.6618 110.135C70.1118 108.712 72.9988 109.465 73.5689 111.415C74.219 110.558 75.6424 111.073 76.3203 111.908C76.9983 112.743 77.4157 113.852 78.3581 114.371C79.209 112.947 80.7937 112.105 82.4013 111.698C84.0089 111.291 85.6833 111.254 87.3284 111.045C90.1097 110.693 92.8272 109.843 95.3139 108.549C95.1628 108.859 105.466 104.391 114.894 103.744C121.778 103.271 128.253 106.417 129.569 107.11C130.438 101.956 131.251 96.3893 128.895 91.7235C129.087 93.8683 129.453 95.9974 129.988 98.0833C130.301 99.3013 128.807 100.426 127.598 100.081C126.389 99.7356 125.675 98.409 125.634 97.1522C125.593 95.8953 126.076 94.6876 126.551 93.5232C126.922 92.6135 127.294 91.7038 127.665 90.7941C127.831 90.3873 127.999 89.9673 127.996 89.528C127.988 88.2802 126.685 87.4861 125.526 87.0237C123.314 86.1413 120.991 85.5384 118.629 85.234C117.991 85.1516 117.258 85.1206 116.796 85.5691C110.817 91.372 103.236 95.1872 95.7836 98.9127C89.5284 102.04 83.2185 105.188 76.4579 106.976Z" fill="white"/>
<path fill-rule="evenodd" clip-rule="evenodd" d="M78.358 114.371C79.2088 112.947 80.7935 112.105 82.4011 111.698C84.0087 111.291 85.6831 111.254 87.3282 111.045C87.9701 110.964 90.6059 110.548 94.0272 109.348C98.9741 107.612 105.765 104.841 112.235 104.136C120.68 103.216 128.211 106.395 129.569 107.11C130.438 101.956 127.5 102.575 125.923 102.412C91.0539 98.8108 77.4155 113.852 78.358 114.371Z" fill="#E7EAEE"/>
</svg>
