<svg width="120" height="93" viewBox="0 0 120 93" fill="none" xmlns="http://www.w3.org/2000/svg">
<path fill-rule="evenodd" clip-rule="evenodd" d="M27.5515 37.5007C35.0738 32.1955 46.5903 28.8108 60.1454 28.8108C73.703 28.8108 85.2221 32.1955 92.7444 37.5007V47.3684H27.5515V37.5007ZM59.9875 0L120 23.7466L95.2518 33.5218V33.0933C87.7295 27.4758 74.5079 23.9103 60.1429 23.9103C45.7829 23.9103 32.5663 27.4758 25.0441 33.0933V33.5218L12.507 28.6859V33.7177C12.507 33.8808 12.8164 34.1499 13.2088 34.4912C13.8891 35.0828 14.8188 35.8914 14.8188 36.7407C14.8188 37.533 14.35 38.3512 13.7783 38.9067L17.1783 45.2153H4.94212L8.37227 38.911C7.79055 38.3555 7.48464 37.4275 7.48464 36.6352C7.48464 35.2938 7.49216 34.1655 9.99958 33.7199V27.6761L0 23.7466L59.9875 0ZM15.9475 85.6579H104.053C106.756 85.6579 108.947 87.16 108.947 89.0131V91.25C108.947 91.5466 108.776 91.8311 108.47 92.0408C108.164 92.2505 107.749 92.3684 107.316 92.3684H12.6843C12.2516 92.3684 11.8366 92.2505 11.5306 92.0408C11.2246 91.8311 11.0527 91.5466 11.0527 91.25V89.0131C11.0527 87.16 13.2441 85.6579 15.9475 85.6579ZM27.3685 78.9473V52.1052H40.4212V78.9473H53.4738V52.1052H66.5264V78.9473H79.579V52.1052H92.6317V78.9473H99.9738C101.325 78.9473 102.421 79.6985 102.421 80.625V83.421H17.5791V80.625C17.5791 79.6985 18.6749 78.9473 20.0264 78.9473H27.3685Z" fill="url(#paint0_linear_1542_1364)"/>
<defs>
<linearGradient id="paint0_linear_1542_1364" x1="3.10976" y1="5.80933" x2="91.1595" y2="109.604" gradientUnits="userSpaceOnUse">
<stop offset="0.0552082" stop-color="#0080FF"/>
<stop offset="0.940625" stop-color="#0059B2"/>
</linearGradient>
</defs>
</svg>
